<?xml version="1.0" encoding="utf-8"?>
<!-- Generator: Adobe Illustrator 23.0.1, SVG Export Plug-In . SVG Version: 6.00 Build 0)  -->
<svg version="1.1" id="Ebene_1" xmlns="http://www.w3.org/2000/svg" xmlns:xlink="http://www.w3.org/1999/xlink" x="0px" y="0px"
	 viewBox="0 0 475.9 638" style="enable-background:new 0 0 475.9 638;" xml:space="preserve">
<style type="text/css">
	.st0{fill:#FFFFFF;}
	.st1{fill:#FBBF09;}
	.st2{fill:#00A275;}
	.st3{fill:#EB8A04;}
	.st4{fill:#F5EA64;}
	.st5{fill:#48C0ED;}
	.st6{fill:#FDD657;}
</style>
<g>
	<path class="st0" d="M2,540.3h18.7v31H21c2.1-2.7,4.8-4.8,8.2-6.3c3.4-1.5,6.9-2.5,10.6-3c0.9-0.1,1.8-0.1,2.7-0.2
		c0.8,0,1.7-0.1,2.5-0.1c11.4,0,20.8,3.8,28.1,11.4c7.3,7.6,11,16.3,11,26.3c0,1.4-0.1,3-0.3,4.5c-0.2,1.6-0.5,3.1-1,4.7
		c-0.7,3.1-1.9,6-3.4,8.9c-1.5,2.9-3.3,5.4-5.3,7.7c-3.5,3.8-7.7,6.7-12.8,8.7c-5.1,2-10.3,3-15.7,3c-5.3,0-10.3-0.9-14.8-2.7
		c-4.5-1.8-8.3-4.8-11.3-9l-0.3-0.1v9.6H2V540.3z M26.6,584.1c-4.7,3.8-7,8.6-7,14.5c0,6.2,2.2,11.4,6.5,15.6c4.3,4.2,10,6.3,17,6.3
		c6.6,0,12-2,16.1-6c4.1-4,6.2-9,6.2-15c0-5.9-2.1-10.9-6.2-15c-4.1-4.1-9.5-6.2-16.1-6.2C36.8,578.3,31.3,580.3,26.6,584.1z"/>
	<path class="st0" d="M173.5,634.7h-17.1v-9.6H156c-2.3,3.1-5.4,5.6-9.3,7.5c-3.8,2-7.8,3.3-11.9,4c-0.8,0.1-1.7,0.2-2.6,0.3
		c-0.9,0.1-1.8,0.1-2.6,0.1c-6,0-11.4-1-16.3-3.1c-4.9-2.1-9-5-12.4-8.6c-3.1-3.4-5.5-7.3-7.2-11.7c-1.7-4.4-2.5-9.1-2.5-14
		c0-4.9,0.8-9.5,2.3-13.7c1.5-4.2,4.1-8.1,7.7-11.7c3.9-4.2,8.3-7.3,13.1-9.3c4.8-2,10.1-3,15.8-3c5.3,0,10.2,1,14.7,3.1
		c4.5,2.1,8.3,5.1,11.4,9.1V564h17.1V634.7z M155.8,599.2c0-5.9-2.1-10.8-6.2-14.9c-4.2-4-9.6-6-16.2-5.9c-6.8-0.1-12.4,2-16.8,6.1
		c-4.4,4.2-6.5,9.4-6.5,15.6c0,5.8,2.3,10.7,6.8,14.6c4.5,4,9.9,5.9,16.2,5.8c6.7,0.1,12.2-1.9,16.4-6c4.2-4.1,6.3-9.1,6.3-15.2
		V599.2z"/>
	<path class="st0" d="M187.4,540.3H206v94.3h-18.7V540.3z"/>
	<path class="st0" d="M237.5,606.8c1.4,4.2,4,7.5,7.8,10s8,3.7,12.7,3.7c3.6,0,6.9-0.6,10-1.7c3.1-1.1,5.6-2.6,7.4-4.5l20.6-0.1
		c-2.3,6.4-7.1,11.8-14.3,16.1c-7.2,4.4-14.9,6.6-23.1,6.6c-11.3,0-21-3.6-29-10.8c-8-7.2-12-15.9-12-26.2c0-10.5,4-19.4,11.9-26.9
		c8-7.5,17.7-11.2,29.3-11.2c11.1,0,20.6,3.7,28.3,11.1c7.7,7.4,11.6,16.1,11.6,25.9c0,1.1-0.1,2.2-0.2,3.2
		c-0.1,1.1-0.3,2.1-0.5,3.1c-0.1,0.3-0.2,0.6-0.2,0.9c0,0.3-0.1,0.5-0.1,0.8H237.5z M280,591.8c-1.5-4.2-4.2-7.4-8.1-9.8
		c-3.9-2.4-8.3-3.6-13.1-3.6c-0.2,0-0.4,0-0.6,0c-0.2,0-0.4,0-0.6,0c-4.5,0.3-8.7,1.6-12.6,4c-3.9,2.4-6.6,5.5-7.9,9.4H280z"/>
	<path class="st0" d="M310.9,564h17.3v6.5h0.3c2.2-2.6,5-4.7,8.5-6.1c3.5-1.4,7.2-2.3,11-2.6c0.3,0,0.6,0,0.8,0c0.3,0,0.6,0,0.8,0
		c0.4,0,0.7,0,1.1,0c0.4,0,0.7,0,1.1,0.1c3.7,0.3,7.4,1.2,10.9,2.7s6.5,3.5,9.1,6c0.4,0.3,0.7,0.7,1.1,1c0.3,0.3,0.6,0.7,0.9,1.1
		c3,3.8,4.8,7.9,5.3,12.3s0.8,8.8,0.8,13.3v36.5h-18.7v-33.3c0-1,0-2.1,0-3.3c0-1.2,0-2.4-0.1-3.6c-0.2-1.9-0.5-3.7-1-5.4
		c-0.5-1.7-1.2-3.3-2.1-4.8c-1.2-1.7-2.9-3.1-5-4.1c-2.1-1-4.3-1.6-6.5-1.8c-0.1,0-0.2,0-0.4,0s-0.3,0-0.5,0c-0.3,0-0.6,0-0.9,0
		c-0.3,0-0.7,0-1.1,0.1c-2.2,0.3-4.3,0.9-6.3,2c-2.1,1.1-3.7,2.4-4.8,4.1c-0.9,1.4-1.6,3-2.1,4.8c-0.5,1.8-0.8,3.7-0.8,5.6
		c-0.1,1.1-0.1,2.2-0.1,3.3c0,1.1,0,2.2,0,3.2c0,0.3,0,0.5,0,0.7c0,0.2,0,0.4,0,0.6v31.9h-18.7V564z"/>
	<path class="st0" d="M473.9,634.7h-17.1v-9.6h-0.3c-2.3,3.1-5.4,5.6-9.3,7.5c-3.8,2-7.8,3.3-11.9,4c-0.8,0.1-1.7,0.2-2.6,0.3
		c-0.9,0.1-1.8,0.1-2.6,0.1c-6,0-11.4-1-16.3-3.1c-4.9-2.1-9-5-12.4-8.6c-3.1-3.4-5.5-7.3-7.2-11.7c-1.7-4.4-2.5-9.1-2.5-14
		c0-4.9,0.8-9.5,2.3-13.7c1.5-4.2,4.1-8.1,7.7-11.7c3.9-4.2,8.3-7.3,13.1-9.3c4.8-2,10.1-3,15.8-3c5.3,0,10.2,1,14.7,3.1
		c4.5,2.1,8.3,5.1,11.4,9.1V564h17.1V634.7z M456.2,599.2c0-5.9-2.1-10.8-6.2-14.9c-4.2-4-9.6-6-16.2-5.9c-6.8-0.1-12.4,2-16.8,6.1
		c-4.4,4.2-6.5,9.4-6.5,15.6c0,5.8,2.3,10.7,6.8,14.6c4.5,4,9.9,5.9,16.2,5.8c6.7,0.1,12.2-1.9,16.4-6c4.2-4.1,6.3-9.1,6.3-15.2
		V599.2z"/>
</g>
<g>
	<path class="st1" d="M247.9,419.6v51.2c8.1-1.2,15.8-3.7,22.7-7.7l146.7-83.8c20.4-11.7,33.1-33.5,33.1-56.9V155.4
		c0-7.3-1.4-14.6-3.9-21.6l-44.8,25.7L279,229.8c-25.2,17.7-30.7,34.5-31.1,54.2V419.6z"/>
	<path class="st2" d="M392.2,141.4l44.7-25.6c-5.4-7.2-12-13-19.6-17.3L270.6,14.7c-20.4-11.6-45.6-11.6-65.9,0L58.5,98.5
		c-7.7,4.4-14.3,10.5-19.7,17.6l44.7,25.6l123,70.5c14.4,9,24.4,18.4,31,29.2c6.7-10.8,16.6-20.2,30.9-29.1L392.2,141.4z"/>
	<path class="st3" d="M74,159.8l-44.8-25.7c-2.4,6.9-3.7,14-3.7,21.2v167.3c0,23.4,12.7,45.2,33.1,56.8l146.1,83.7
		c6.9,4,14.5,6.5,22.6,7.7v-51.2V284c-0.4-19.7-5.8-36.4-31.3-54.3L74,159.8z"/>
	<path class="st4" d="M446.6,133.8l-44.8,25.7c1.5,4.8,2.4,9.9,2.4,15.1v128.7c0,18.9-10.3,36.5-26.8,46l-113,64.5
		c-5.2,3-10.8,4.8-16.5,5.9v51.2c8.1-1.2,15.8-3.7,22.7-7.7l146.7-83.8c20.4-11.7,33.1-33.5,33.1-56.9V155.4
		C450.5,148,449.1,140.8,446.6,133.8z"/>
	<path class="st5" d="M98.5,128.6L211,64.1c16.4-9.4,36.9-9.4,53.3,0l113,64.5c5.8,3.3,10.7,7.8,14.8,12.9l44.7-25.6
		c-5.4-7.2-12-13-19.6-17.3L270.6,14.7c-20.4-11.6-45.6-11.6-65.9,0L58.5,98.5c-7.7,4.4-14.3,10.5-19.7,17.6l44.7,25.6
		C87.6,136.5,92.6,132,98.5,128.6z"/>
	<path class="st6" d="M211,413.7L98.5,349.3c-16.5-9.4-26.7-27-26.7-45.9V174.5c0-5.1,0.8-10,2.2-14.7l-44.8-25.7
		c-2.4,6.9-3.7,14-3.7,21.2v167.3c0,23.4,12.7,45.2,33.1,56.8l146.1,83.7c6.9,4,14.5,6.5,22.6,7.7v-51.2
		C221.7,418.5,216.2,416.6,211,413.7z"/>
</g>
</svg>
