<?xml version="1.0" encoding="utf-8"?>
<!-- Generator: Adobe Illustrator 25.2.1, SVG Export Plug-In . SVG Version: 6.00 Build 0)  -->
<svg version="1.1" xmlns="http://www.w3.org/2000/svg" xmlns:xlink="http://www.w3.org/1999/xlink" x="0px" y="0px"
	 viewBox="0 0 709.1 922" style="enable-background:new 0 0 709.1 922;" xml:space="preserve">
<style type="text/css">
	.st0{display:none;}
	.st1{display:inline;stroke:#FFFFFF;stroke-miterlimit:10;}
	.st2{fill:#FDDD67;}
	.st3{opacity:0.2;}
	.st4{fill:#FDC300;}
	.st5{fill:#D0D5D8;}
	.st6{fill:#EFE640;}
	.st7{opacity:0.5;}
	.st8{fill:#FFF8E4;}
	.st9{fill:#49525C;}
	.st10{fill:#42C0F0;}
	.st11{fill:#1C7C98;}
	.st12{fill:#FAB535;}
	.st13{opacity:0.3;}
	.st14{fill:#165A70;}
	.st15{fill:#114855;}
	.st16{fill:#C0C0BF;}
	.st17{fill:#FEF9FC;}
	.st18{fill:#EF7C53;}
	.st19{fill:#FEF5F2;}
	.st20{fill:#FFFFFF;}
	.st21{fill:#295171;}
	.st22{display:none;fill:#FFFFFF;}
	.st23{font-family:'SourceSansPro-Regular';}
	.st24{font-size:68.2255px;}
</style>
<g id="Layer_2" class="st0">
	<rect x="-7" y="-10.7" class="st1" width="743.4" height="950.1"/>
</g>
<g id="Layer_1">
	<g>
		<g>
			<g>
				<g>
					<rect x="23" y="402.3" class="st2" width="42.2" height="5.7"/>
				</g>
				<g class="st3">
					<rect x="23" y="402.4" class="st2" width="42.2" height="2.8"/>
				</g>
			</g>
			<g>
				<g>
					<circle class="st4" cx="18.1" cy="405.2" r="9.6"/>
				</g>
				<g class="st3">
					<path class="st4" d="M18.1,395.6c5.3,0,9.6,4.3,9.6,9.6H8.5C8.5,399.9,12.8,395.6,18.1,395.6z"/>
				</g>
			</g>
			<g>
				<g>
					<rect x="23" y="375" class="st2" width="42.2" height="5.7"/>
				</g>
				<g class="st3">
					<rect x="22.9" y="375" class="st2" width="42.2" height="2.8"/>
				</g>
			</g>
			<g>
				<g>
					<circle class="st4" cx="18.1" cy="377.9" r="9.6"/>
				</g>
				<g class="st3">
					<path class="st4" d="M18.1,368.3c5.3,0,9.6,4.3,9.6,9.6H8.5C8.5,372.6,12.8,368.3,18.1,368.3z"/>
				</g>
			</g>
		</g>
		<g>
			<g>
				<path class="st5" d="M155.6,515.7c0-5.1,4.2-9.3,9.3-9.3h0.1c-0.5-3.9-1.2-7.8-2.3-11.5h-0.1c-4.8,2-10.2-0.3-12.2-5
					s0.3-10.2,5-12.2h0.1c-1.9-3.4-4.1-6.7-6.5-9.8l-0.1,0.1c-3.6,3.6-9.5,3.6-13.2,0c-3.6-3.6-3.6-9.5,0-13.2l0.1-0.1
					c-3.1-2.4-6.3-4.6-9.8-6.5v0.1c-2,4.8-7.4,7-12.2,5c-4.8-2-7-7.4-5-12.2V441c-3.7-1-7.6-1.8-11.5-2.3v0.1c0,5.1-4.2,9.3-9.3,9.3
					c-5.1,0-9.3-4.2-9.3-9.3v-0.1c-3.9,0.5-7.8,1.2-11.5,2.3v0.1c2,4.8-0.3,10.2-5,12.2l0,0c-4.8,2-10.2-0.3-12.2-5v-0.1
					c-3.4,1.9-6.7,4.1-9.8,6.5l0.1,0.1c3.6,3.6,3.6,9.5,0,13.2l0,0c-3.6,3.6-9.5,3.6-13.2,0l-0.1-0.1c-2.4,3.1-4.6,6.3-6.5,9.8h0.1
					c4.8,2,7,7.4,5,12.2s-7.4,7-12.2,5h-0.1c-1,3.7-1.8,7.6-2.3,11.5h0.1c5.1,0,9.3,4.2,9.3,9.3s-4.2,9.3-9.3,9.3H11
					c0.5,3.9,1.2,7.8,2.3,11.5h0.1c4.8-2,10.2,0.3,12.2,5l0,0c2,4.8-0.3,10.2-5,12.2h-0.1c1.9,3.4,4.1,6.7,6.5,9.8l0.1-0.1
					c3.6-3.6,9.5-3.6,13.2,0l0,0c3.6,3.6,3.6,9.5,0,13.2l-0.1,0.1c3.1,2.4,6.3,4.6,9.8,6.5v-0.1c2-4.8,7.4-7,12.2-5l0,0
					c4.8,2,7,7.4,5,12.2v0.1c3.7,1,7.6,1.8,11.5,2.3v-0.1c0-5.1,4.2-9.3,9.3-9.3c5.1,0,9.3,4.2,9.3,9.3v0.1
					c3.9-0.5,7.8-1.2,11.5-2.3v-0.1c-2-4.8,0.3-10.2,5-12.2c4.8-2,10.2,0.3,12.2,5v0.1c3.4-1.9,6.7-4.1,9.8-6.5l-0.1-0.1
					c-3.6-3.6-3.6-9.5,0-13.2l0,0c3.6-3.6,9.5-3.6,13.2,0l0.1,0.1c2.4-3.1,4.6-6.3,6.5-9.8h-0.1c-4.8-2-7-7.4-5-12.2l0,0
					c2-4.8,7.4-7,12.2-5h0.1c1-3.7,1.8-7.6,2.3-11.5h0C159.8,525,155.6,520.8,155.6,515.7z M88.1,576.7c-34,0-61.6-27.6-61.6-61.6
					s27.6-61.6,61.6-61.6s61.6,27.6,61.6,61.6S122.1,576.7,88.1,576.7z"/>
			</g>
			<g class="st3">
				<path class="st5" d="M155.6,515.7c0-5.1,4.2-9.3,9.3-9.3h0.1c-0.5-3.9-1.2-7.8-2.3-11.5h-0.1c-4.8,2-10.2-0.3-12.2-5
					c-2-4.8,0.3-10.2,5-12.2h0.1c-1.9-3.4-4.1-6.7-6.5-9.8l-0.1,0.1c-3.6,3.6-9.5,3.6-13.2,0c-3.6-3.6-3.6-9.5,0-13.2l0.1-0.1
					c-3.1-2.4-6.3-4.6-9.8-6.5v0.1c-2,4.8-7.4,7-12.2,5c-4.8-2-7-7.4-5-12.2V441c-3.7-1-7.6-1.8-11.5-2.3v0.1c0,5.1-4.2,9.3-9.3,9.3
					v5.4c34,0,61.6,27.6,61.6,61.6S122,576.7,88,576.7v6.5c5.1,0,9.3,4.2,9.3,9.3v0.1c3.9-0.5,7.8-1.2,11.5-2.3v-0.1
					c-2-4.8,0.3-10.2,5-12.2c4.8-2,10.2,0.3,12.2,5v0.1c3.4-1.9,6.7-4.1,9.8-6.5l-0.1-0.1c-3.6-3.6-3.6-9.5,0-13.2l0,0
					c3.6-3.6,9.5-3.6,13.2,0l0.1,0.1c2.4-3.1,4.6-6.3,6.5-9.8h-0.1c-4.8-2-7-7.4-5-12.2l0,0c2-4.8,7.4-7,12.2-5h0.1
					c1-3.7,1.8-7.6,2.3-11.5l0,0C159.8,525,155.6,520.8,155.6,515.7z"/>
			</g>
			<g>
				<path class="st5" d="M130.9,535.9c-22.8-14.7-36.6-40-36.6-67.2v-16.5H81.9v16.6c0,27.2-13.8,52.5-36.6,67.2l-14,9l6.2,9.7
					l7.3-4.7c26.4-17,60.3-17,86.7,0l7.3,4.7l6.2-9.7L130.9,535.9z M87,527.8c-5.5,0-10-4.5-10-10s4.5-10,10-10s10,4.5,10,10
					C97.1,523.3,92.6,527.8,87,527.8z"/>
			</g>
		</g>
		<g>
			<g>
				<path class="st5" d="M692.9,418.1c0-8.8,7.2-16,16-16h0.2c-0.8-6.8-2.1-13.4-3.9-19.8l-0.2,0.1c-8.2,3.4-17.5-0.5-20.9-8.6
					c-3.4-8.2,0.5-17.5,8.6-20.9l0.2-0.1c-3.3-5.9-7.1-11.5-11.2-16.7l-0.1,0.1c-6.2,6.2-16.4,6.2-22.6,0c-6.2-6.2-6.2-16.4,0-22.6
					l0.1-0.1c-5.3-4.1-10.9-7.9-16.7-11.2l-0.1,0.2c-3.4,8.2-12.7,12-20.9,8.6s-12-12.7-8.6-20.9l0.1-0.2c-6.4-1.8-13-3.1-19.8-3.9
					v0.2c0,8.8-7.2,16-16,16s-16-7.2-16-16v-0.2c-6.8,0.8-13.4,2.1-19.8,3.9l0.1,0.2c3.4,8.2-0.5,17.5-8.6,20.9l0,0
					c-8.2,3.4-17.5-0.5-20.9-8.6l-0.1-0.2c-5.9,3.3-11.5,7.1-16.7,11.2l0.1,0.1c6.2,6.2,6.2,16.4,0,22.6l0,0
					c-6.2,6.2-16.4,6.2-22.6,0l-0.1-0.1c-4.1,5.3-7.9,10.9-11.2,16.7l0.2,0.1c8.2,3.4,12,12.7,8.6,20.9s-12.7,12-20.9,8.6l-0.2-0.1
					c-1.8,6.4-3.1,13-3.9,19.8h0.2c8.8,0,16,7.2,16,16s-7.2,16-16,16h-0.2c0.8,6.8,2.1,13.4,3.9,19.8l0.2-0.1
					c8.2-3.4,17.5,0.5,20.9,8.6l0,0c3.4,8.2-0.5,17.5-8.6,20.9l-0.2,0.1c3.3,5.9,7.1,11.5,11.2,16.7l0.1-0.1
					c6.2-6.2,16.4-6.2,22.6,0l0,0c6.2,6.2,6.2,16.4,0,22.6l-0.1,0.1c5.3,4.1,10.9,7.9,16.7,11.2l0.1-0.2c3.4-8.2,12.7-12,20.9-8.6
					l0,0c8.2,3.4,12,12.7,8.6,20.9l-0.1,0.2c6.4,1.8,13,3.1,19.8,3.9v-0.2c0-8.8,7.2-16,16-16s16,7.2,16,16v0.2
					c6.8-0.8,13.4-2.1,19.8-3.9l-0.1-0.2c-3.4-8.2,0.5-17.5,8.6-20.9c8.2-3.4,17.5,0.5,20.9,8.6l0.1,0.2c5.9-3.3,11.5-7.1,16.7-11.2
					l-0.1-0.1c-6.2-6.2-6.2-16.4,0-22.6l0,0c6.2-6.2,16.4-6.2,22.6,0l0.1,0.1c4.1-5.3,7.9-10.9,11.2-16.7l-0.2-0.1
					c-8.2-3.4-12-12.7-8.6-20.9l0,0c3.4-8.2,12.7-12,20.9-8.6l0.2,0.1c1.8-6.4,3.1-13,3.9-19.8h-0.2
					C700.1,434,692.9,426.9,692.9,418.1z M577.2,522.6c-58.3,0-105.6-47.3-105.6-105.6s47.3-105.6,105.6-105.6
					S682.8,358.7,682.8,417S635.5,522.6,577.2,522.6z"/>
			</g>
			<g class="st3">
				<path class="st5" d="M692.9,418.1c0-8.8,7.2-16,16-16h0.2c-0.8-6.8-2.1-13.4-3.9-19.8l-0.2,0.1c-8.2,3.4-17.5-0.5-20.9-8.6
					c-3.4-8.2,0.5-17.5,8.6-20.9l0.2-0.1c-3.3-5.9-7.1-11.5-11.2-16.7l-0.1,0.1c-6.2,6.2-16.4,6.2-22.6,0c-6.2-6.2-6.2-16.4,0-22.6
					l0.1-0.1c-5.3-4.1-10.9-7.9-16.7-11.2l-0.1,0.2c-3.4,8.2-12.7,12-20.9,8.6s-12-12.7-8.6-20.9l0.1-0.2c-6.4-1.8-13-3.1-19.8-3.9
					v0.2c0,8.8-7.2,16-16,16v9.2c58.3,0,105.6,47.3,105.6,105.6s-47.3,105.6-105.6,105.6v11.2c8.8,0,16,7.2,16,16v0.2
					c6.8-0.8,13.4-2.1,19.8-3.9l-0.1-0.2c-3.4-8.2,0.5-17.5,8.6-20.9c8.2-3.4,17.5,0.5,20.9,8.6l0.1,0.2c5.9-3.3,11.5-7.1,16.7-11.2
					l-0.1-0.1c-6.2-6.2-6.2-16.4,0-22.6l0,0c6.2-6.2,16.4-6.2,22.6,0l0.1,0.1c4.1-5.3,7.9-10.9,11.2-16.7l-0.2-0.1
					c-8.2-3.4-12-12.7-8.6-20.9l0,0c3.4-8.2,12.7-12,20.9-8.6l0.2,0.1c1.8-6.4,3.1-13,3.9-19.8h-0.2
					C700.1,434,692.9,426.9,692.9,418.1z"/>
			</g>
			<g>
				<path class="st5" d="M650.5,452.7c-39.1-25.2-62.7-68.6-62.7-115.1v-28.3h-21.3v28.5c0,46.5-23.6,89.9-62.7,115.1l-24,15.5
					l10.7,16.6l12.5-8.1c45.2-29.2,103.4-29.2,148.6,0l12.5,8.1l10.7-16.6L650.5,452.7z M575.4,438.8c-9.5,0-17.2-7.7-17.2-17.2
					s7.7-17.2,17.2-17.2s17.2,7.7,17.2,17.2C592.6,431.1,584.9,438.8,575.4,438.8z"/>
			</g>
		</g>
		<g>
			<g>
				<g>
					<path class="st6" d="M373.8,579.1l46.7-26.9l16,27.8c7.4,12.9,3,29.4-9.9,36.8l0,0c-12.9,7.4-29.4,3-36.8-9.9L373.8,579.1z"/>
				</g>
				<g class="st3">
					<path class="st6" d="M421.3,619.1c-4.7-2.3-8.7-5.9-11.5-10.8c-8.9-15.4-3.6-35,11.8-43.8l4.5-2.6l-5.6-9.7l-46.7,26.9l16,27.8
						C396.2,618.1,409.5,622.9,421.3,619.1z"/>
				</g>
			</g>
			<g class="st7">
				<circle class="st8" cx="423.4" cy="595" r="9.4"/>
			</g>
			<g>
				
					<rect x="359.9" y="561.2" transform="matrix(0.8663 -0.4996 0.4996 0.8663 -230.9768 274.5254)" class="st9" width="74.7" height="14.9"/>
			</g>
			<g class="st3">
				
					<rect x="419.7" y="545.2" transform="matrix(0.8663 -0.4996 0.4996 0.8663 -219.2744 286.2458)" class="st9" width="10.6" height="14.9"/>
			</g>
			<g class="st3">
				
					<rect x="401.8" y="555.6" transform="matrix(0.8663 -0.4996 0.4996 0.8663 -226.8409 278.6872)" class="st9" width="10.6" height="14.9"/>
			</g>
			<g class="st3">
				
					<rect x="383.1" y="566.5" transform="matrix(0.8663 -0.4996 0.4996 0.8663 -234.7782 270.7643)" class="st9" width="10.6" height="14.9"/>
			</g>
			<g class="st3">
				
					<rect x="364.2" y="577.2" transform="matrix(0.8663 -0.4996 0.4996 0.8663 -242.679 262.8049)" class="st9" width="10.6" height="14.9"/>
			</g>
		</g>
		<g>
			<g>
				<g>
					<path class="st6" d="M59,291.4v53.9H26.9c-14.8,0-26.9-12-26.9-26.9l0,0c0-14.9,12.1-26.9,26.9-26.9H59V291.4z"/>
				</g>
				<g class="st3">
					<path class="st6" d="M0.6,312.6c4.3-2.9,9.5-4.6,15.1-4.6c17.7,0,32.1,14.4,32.1,32.1v5.2H59v-53.9H26.9
						C14,291.4,3.3,300.5,0.6,312.6z"/>
				</g>
			</g>
			<g class="st7">
				<circle class="st8" cx="20.4" cy="326.5" r="9.4"/>
			</g>
			<g>
				<rect x="48.8" y="279.7" class="st9" width="14.9" height="74.7"/>
			</g>
			<g class="st3">
				<rect x="48.8" y="343.8" class="st9" width="14.9" height="10.6"/>
			</g>
			<g class="st3">
				<rect x="48.8" y="323.1" class="st9" width="14.9" height="10.6"/>
			</g>
			<g class="st3">
				<rect x="48.8" y="301.4" class="st9" width="14.9" height="10.6"/>
			</g>
			<g class="st3">
				<rect x="48.8" y="279.8" class="st9" width="14.9" height="10.6"/>
			</g>
		</g>
		<g>
			<path class="st10" d="M539.9,184.4L539.9,184.4L539.9,184.4c-6.3-8.5-14-15.3-22.9-20.4L347,66.2c-23.6-13.6-52.9-13.5-76.4,0
				L101.2,164c-9.8,5.6-18.2,13.5-24.7,23.1l0,0l0,0l-8.2,15.6c-3.5,9-5.3,18.3-5.3,27.7v195.2l0,0c0,27.3,14.7,52.7,38.3,66.3
				l169.4,97.7c8.9,5.1,18.8,8.3,29.4,9.5l0,0c0,0,5.3,0.6,7.2,0.6c2.5,0,10.4-0.6,10.4-0.6c10.6-1.2,20.5-4.4,29.4-9.5L517,491.8
				c23.7-13.6,38.4-39.1,38.4-66.4l0,0v-195l0,0c0-10.5-2.2-20.8-6.6-30.7L539.9,184.4z"/>
			<path class="st11" d="M479.2,222.2L479.2,222.2L479.2,222.2c-4.7-6.2-10.3-11.3-16.8-15.1l-125.4-72c-17.4-10-39-10-56.3,0
				l-124.8,72c-7.2,4.1-13.4,10-18.2,17l0,0l0,0l-6.1,11.5c-2.6,6.6-3.9,13.5-3.9,20.4v143.8l0,0c0,20.1,10.8,38.8,28.2,48.9
				l124.8,72c6.6,3.8,13.8,6.1,21.6,7l0,0c0,0,3.9,0.5,5.3,0.5c1.8,0,7.7-0.5,7.7-0.5c7.8-0.9,15.1-3.2,21.7-7l125.3-72.1
				c17.5-10,28.3-28.8,28.3-48.9l0,0V256l0,0c0-7.7-1.6-15.3-4.9-22.6L479.2,222.2z"/>
		</g>
		<g>
			<g>
				<path class="st5" d="M398.3,215.3L398.3,215.3c-7.5,0-13.5-6.1-13.5-13.5v-51.2c0-7.5,6.1-13.5,13.5-13.5l0,0
					c7.5,0,13.5,6.1,13.5,13.5v51.2C411.9,209.2,405.8,215.3,398.3,215.3z"/>
			</g>
			<g class="st3">
				<path class="st5" d="M398.3,137v78.2c7.5,0,13.5-6.1,13.5-13.5v-51.2C411.9,143.1,405.8,137,398.3,137z"/>
			</g>
			<g>
				<g class="st3">
					<path class="st5" d="M400.3,144.1c-0.3,0-0.7-0.1-1-0.1c-0.4,0-0.7,0.1-1,0.1c-3.5,0.5-6.1,3.5-6.1,7.1s2.7,6.6,6.1,7.1
						c0.3,0,0.7,0.1,1,0.1c0.4,0,0.7-0.1,1-0.1c3.5-0.5,6.1-3.5,6.1-7.1C406.4,147.5,403.7,144.6,400.3,144.1z"/>
				</g>
				<g>
					<path class="st12" d="M391.6,150.9c0,3.4,2.5,6.1,5.7,6.6v-13.1C394.1,144.8,391.6,147.6,391.6,150.9z"/>
				</g>
				<g>
					<path class="st12" d="M404.9,150.9c0-3.4-2.5-6.1-5.7-6.6v13.1C402.5,157,404.9,154.3,404.9,150.9z"/>
				</g>
				<g>
					<path class="st12" d="M398.3,144.3c-0.3,0-0.6,0.1-1,0.1v13.1c0.3,0,0.6,0.1,1,0.1c0.3,0,0.6-0.1,1-0.1v-13.1
						C398.9,144.3,398.6,144.3,398.3,144.3z"/>
				</g>
				<g class="st13">
					<path class="st12" d="M398.3,144.3c-0.3,0-0.6,0.1-1,0.1v13.1c0.3,0,0.6,0.1,1,0.1c0.3,0,0.6-0.1,1-0.1v-13.1
						C398.9,144.3,398.6,144.3,398.3,144.3z"/>
				</g>
			</g>
			<g>
				<g class="st3">
					<path class="st5" d="M400.8,189.3c-0.3,0-0.7-0.1-1-0.1c-0.4,0-0.7,0.1-1,0.1c-3.5,0.5-6.1,3.5-6.1,7.1s2.7,6.6,6.1,7.1
						c0.3,0,0.7,0.1,1,0.1c0.4,0,0.7-0.1,1-0.1c3.5-0.5,6.1-3.5,6.1-7.1C407,192.7,404.3,189.8,400.8,189.3z"/>
				</g>
				<g>
					<path class="st14" d="M392.2,196.1c0,3.4,2.5,6.1,5.7,6.6v-13.1C394.7,190,392.2,192.8,392.2,196.1z"/>
				</g>
				<g>
					<path class="st14" d="M405.5,196.1c0-3.4-2.5-6.1-5.7-6.6v13.1C403,202.2,405.5,199.5,405.5,196.1z"/>
				</g>
				<g>
					<path class="st12" d="M398.9,189.5c-0.3,0-0.6,0.1-1,0.1v13.1c0.3,0,0.6,0.1,1,0.1c0.3,0,0.6-0.1,1-0.1v-13.1
						C399.5,189.5,399.2,189.5,398.9,189.5z"/>
				</g>
				<g>
					<path class="st15" d="M398.9,189.5c-0.3,0-0.6,0.1-1,0.1v13.1c0.3,0,0.6,0.1,1,0.1c0.3,0,0.6-0.1,1-0.1v-13.1
						C399.5,189.5,399.2,189.5,398.9,189.5z"/>
				</g>
			</g>
		</g>
		<g>
			<g>
				<path class="st5" d="M212.6,215.3L212.6,215.3c-7.5,0-13.5-6.1-13.5-13.5v-51.2c0-7.5,6.1-13.5,13.5-13.5l0,0
					c7.5,0,13.5,6.1,13.5,13.5v51.2C226.1,209.2,220,215.3,212.6,215.3z"/>
			</g>
			<g class="st3">
				<path class="st5" d="M212.6,137v78.2c7.5,0,13.5-6.1,13.5-13.5v-51.2C226.1,143.1,220,137,212.6,137z"/>
			</g>
			<g>
				<g class="st3">
					<path class="st5" d="M214.5,144.1c-0.3,0-0.7-0.1-1-0.1c-0.4,0-0.7,0.1-1,0.1c-3.5,0.5-6.1,3.5-6.1,7.1s2.7,6.6,6.1,7.1
						c0.3,0,0.7,0.1,1,0.1c0.4,0,0.7-0.1,1-0.1c3.5-0.5,6.1-3.5,6.1-7.1C220.6,147.5,218,144.6,214.5,144.1z"/>
				</g>
				<g>
					<path class="st14" d="M205.9,150.9c0,3.4,2.5,6.1,5.7,6.6v-13.1C208.4,144.8,205.9,147.6,205.9,150.9z"/>
				</g>
				<g>
					<path class="st14" d="M219.2,150.9c0-3.4-2.5-6.1-5.7-6.6v13.1C216.7,157,219.2,154.3,219.2,150.9z"/>
				</g>
				<g>
					<path class="st12" d="M212.5,144.3c-0.3,0-0.6,0.1-1,0.1v13.1c0.3,0,0.6,0.1,1,0.1s0.6-0.1,1-0.1v-13.1
						C213.2,144.3,212.9,144.3,212.5,144.3z"/>
				</g>
				<g>
					<path class="st15" d="M212.5,144.3c-0.3,0-0.6,0.1-1,0.1v13.1c0.3,0,0.6,0.1,1,0.1s0.6-0.1,1-0.1v-13.1
						C213.2,144.3,212.9,144.3,212.5,144.3z"/>
				</g>
			</g>
			<g>
				<g class="st3">
					<path class="st5" d="M214.7,189.4c-0.3,0-0.7-0.1-1-0.1c-0.4,0-0.7,0.1-1,0.1c-3.5,0.5-6.1,3.5-6.1,7.1s2.7,6.6,6.1,7.1
						c0.3,0,0.7,0.1,1,0.1c0.4,0,0.7-0.1,1-0.1c3.5-0.5,6.1-3.5,6.1-7.1C220.9,192.9,218.2,189.9,214.7,189.4z"/>
				</g>
				<g>
					<path class="st14" d="M206.1,196.2c0,3.4,2.5,6.1,5.7,6.6v-13.1C208.6,190.2,206.1,192.9,206.1,196.2z"/>
				</g>
				<g>
					<path class="st14" d="M219.4,196.2c0-3.4-2.5-6.1-5.7-6.6v13.1C216.9,202.3,219.4,199.6,219.4,196.2z"/>
				</g>
				<g>
					<path class="st12" d="M212.7,189.6c-0.3,0-0.6,0.1-1,0.1v13.1c0.3,0,0.6,0.1,1,0.1s0.6-0.1,1-0.1v-13.1
						C213.4,189.6,213.1,189.6,212.7,189.6z"/>
				</g>
				<g>
					<path class="st15" d="M212.7,189.6c-0.3,0-0.6,0.1-1,0.1v13.1c0.3,0,0.6,0.1,1,0.1s0.6-0.1,1-0.1v-13.1
						C213.4,189.6,213.1,189.6,212.7,189.6z"/>
				</g>
			</g>
		</g>
		<g>
			<g>
				<path class="st12" d="M515.4,162L344.5,64.5l-16.6,29.1c-3.6,6.3-1.4,14.4,4.9,18l3.6,2c13.4,7.7,14.7,26.6,2.2,35.8
					c-0.2,0.1-0.3,0.3-0.5,0.4c-11.4,8.6-10.3,26.1,2.1,33.2l0.2,0.1c6.8,3.9,15.4,3.5,21.7-1.2c23.1-17.4,55.1-20.9,82.1-6.8
					l39.4,22.5c4.8,2.7,10.9,1.1,13.7-3.7L515.4,162z"/>
			</g>
			<g class="st3">
				<path class="st12" d="M493.9,149.8L366.2,76.9c-9.8-5.6-22.2-2.2-27.8,7.6l-0.8,1.4c-5.6,9.8-2.2,22.2,7.6,27.8l1.3,0.7
					c15.3,8.7,15,31-0.6,39.2l0,0c-5.9,3.1-8.5,10.4-5.5,16.4c3.1,6.1,10.5,8.4,16.5,5.3c0,0,8.3-4.4,18.1-9.7
					c19.7-10.5,43.4-10.2,62.8,0.8l35.2,20.1c9.8,5.6,22.2,2.2,27.8-7.6l0.8-1.4C507.1,167.8,503.7,155.3,493.9,149.8z"/>
			</g>
			<g>
				<g class="st3">
					<path class="st12" d="M366,88.1c-0.5-0.4-1-0.8-1.6-1.2c-0.6-0.3-1.2-0.6-1.8-0.8c-6.3-2.5-13.7-0.1-17.1,6
						c-3.5,6.1-1.8,13.6,3.6,17.8c0.5,0.4,1,0.8,1.6,1.2c0.6,0.3,1.2,0.6,1.8,0.8c6.3,2.5,13.7,0.1,17.1-6
						C373,99.9,371.3,92.3,366,88.1z"/>
				</g>
				<g>
					<path class="st5" d="M344.9,91.3c-3.2,5.6-1.7,12.7,3.3,16.5l12.6-22.1C354.9,83.5,348.1,85.7,344.9,91.3z"/>
				</g>
				<g>
					<path class="st5" d="M367.3,104.2c3.2-5.6,1.7-12.7-3.3-16.5l-12.6,22.1C357.3,112,364.1,109.8,367.3,104.2z"/>
				</g>
				<g>
					<path class="st16" d="M362.5,86.5c-0.5-0.3-1.1-0.5-1.7-0.8l-12.6,22.1c0.5,0.4,1,0.8,1.5,1.1c0.5,0.3,1.1,0.5,1.7,0.8
						L364,87.6C363.5,87.2,363,86.8,362.5,86.5z"/>
				</g>
			</g>
			<g>
				<g class="st3">
					<path class="st12" d="M407.7,111.4c-0.5-0.4-1-0.8-1.6-1.2c-0.6-0.3-1.2-0.6-1.8-0.8c-6.3-2.5-13.7-0.1-17.1,6
						c-3.5,6.1-1.8,13.6,3.6,17.8c0.5,0.4,1,0.8,1.6,1.2c0.6,0.3,1.2,0.6,1.8,0.8c6.3,2.5,13.7,0.1,17.1-6
						C414.7,123.1,413,115.6,407.7,111.4z"/>
				</g>
				<g>
					<path class="st5" d="M386.5,114.6c-3.2,5.6-1.7,12.7,3.3,16.5l12.6-22.1C396.6,106.7,389.8,109,386.5,114.6z"/>
				</g>
				<g>
					<path class="st5" d="M409,127.4c3.2-5.6,1.7-12.7-3.3-16.5L393.1,133C398.9,135.3,405.8,133.1,409,127.4z"/>
				</g>
				<g>
					<path class="st16" d="M404.2,109.8c-0.5-0.3-1.1-0.5-1.7-0.8l-12.6,22.1c0.5,0.4,1,0.8,1.5,1.1s1.1,0.5,1.7,0.8l12.6-22.1
						C405.2,110.5,404.7,110.1,404.2,109.8z"/>
				</g>
			</g>
			<g>
				<g class="st3">
					<path class="st12" d="M449.3,134.7c-0.5-0.4-1-0.8-1.6-1.2s-1.2-0.6-1.8-0.8c-6.3-2.5-13.7-0.1-17.1,6
						c-3.5,6.1-1.8,13.6,3.6,17.8c0.5,0.4,1,0.8,1.6,1.2c0.6,0.3,1.2,0.6,1.8,0.8c6.3,2.5,13.7,0.1,17.1-6S454.7,138.8,449.3,134.7z
						"/>
				</g>
				<g>
					<path class="st5" d="M428.2,137.9c-3.2,5.6-1.7,12.7,3.3,16.5l12.6-22.1C438.3,130,431.4,132.2,428.2,137.9z"/>
				</g>
				<g>
					<path class="st5" d="M450.6,150.7c3.2-5.6,1.7-12.7-3.3-16.5l-12.6,22.1C440.6,158.6,447.4,156.3,450.6,150.7z"/>
				</g>
				<g>
					<path class="st16" d="M445.8,133.1c-0.5-0.3-1.1-0.5-1.7-0.8l-12.6,22.1c0.5,0.4,1,0.8,1.5,1.1s1.1,0.5,1.7,0.8l12.6-22.1
						C446.9,133.8,446.4,133.4,445.8,133.1z"/>
				</g>
			</g>
			<g>
				<g class="st3">
					<path class="st12" d="M491,157.9c-0.5-0.4-1-0.8-1.6-1.2c-0.6-0.3-1.2-0.6-1.8-0.8c-6.3-2.5-13.7-0.1-17.1,6
						c-3.5,6.1-1.8,13.6,3.6,17.8c0.5,0.4,1,0.8,1.6,1.2c0.6,0.3,1.2,0.6,1.8,0.8c6.3,2.5,13.7,0.1,17.1-6
						C498,169.7,496.3,162.1,491,157.9z"/>
				</g>
				<g>
					<path class="st5" d="M469.9,161.1c-3.2,5.6-1.7,12.7,3.3,16.5l12.6-22.1C479.9,153.3,473.1,155.5,469.9,161.1z"/>
				</g>
				<g>
					<path class="st5" d="M492.3,173.9c3.2-5.6,1.7-12.7-3.3-16.5l-12.6,22.1C482.3,181.8,489.1,179.6,492.3,173.9z"/>
				</g>
				<g>
					<path class="st16" d="M487.5,156.3c-0.5-0.3-1.1-0.5-1.7-0.8l-12.6,22.1c0.5,0.4,1,0.8,1.5,1.1s1.1,0.5,1.7,0.8l12.6-22.1
						C488.5,157,488,156.6,487.5,156.3z"/>
				</g>
			</g>
		</g>
		<g>
			<g>
				<g>
					<rect x="128.4" y="268.4" class="st2" width="42.2" height="5.7"/>
				</g>
				<g class="st3">
					<rect x="128.4" y="271.3" class="st2" width="42.2" height="2.8"/>
				</g>
			</g>
			<g>
				<g>
					<circle class="st4" cx="175.5" cy="271.2" r="9.6"/>
				</g>
				<g class="st3">
					<path class="st4" d="M175.5,280.8c-5.3,0-9.6-4.3-9.6-9.6h19.2C185.1,276.5,180.8,280.8,175.5,280.8z"/>
				</g>
			</g>
			<g>
				<g>
					<rect x="128.3" y="295.7" class="st2" width="42.2" height="5.7"/>
				</g>
				<g class="st3">
					<rect x="128.4" y="298.6" class="st2" width="42.2" height="2.8"/>
				</g>
			</g>
			<g>
				<g>
					<circle class="st4" cx="175.5" cy="298.6" r="9.6"/>
				</g>
				<g class="st3">
					<path class="st4" d="M175.5,308.1c-5.3,0-9.6-4.3-9.6-9.6h19.2C185.1,303.9,180.8,308.1,175.5,308.1z"/>
				</g>
			</g>
			<g>
				<g>
					<rect x="128.4" y="323" class="st2" width="42.2" height="5.7"/>
				</g>
				<g class="st3">
					<rect x="128.4" y="325.9" class="st2" width="42.2" height="2.8"/>
				</g>
			</g>
			<g>
				<g>
					<circle class="st4" cx="175.5" cy="325.9" r="9.6"/>
				</g>
				<g class="st3">
					<path class="st4" d="M175.5,335.5c-5.3,0-9.6-4.3-9.6-9.6h19.2C185.1,331.2,180.8,335.5,175.5,335.5z"/>
				</g>
			</g>
			<g>
				<g>
					<rect x="128.4" y="350.4" class="st2" width="42.2" height="5.7"/>
				</g>
				<g class="st3">
					<rect x="128.4" y="353.3" class="st2" width="42.2" height="2.8"/>
				</g>
			</g>
			<g>
				<g>
					<ellipse class="st4" cx="175.5" cy="353.2" rx="9.6" ry="9.6"/>
				</g>
				<g class="st3">
					<path class="st4" d="M175.5,362.8c-5.3,0-9.6-4.3-9.6-9.6h19.2C185.1,358.5,180.8,362.8,175.5,362.8z"/>
				</g>
			</g>
			<g>
				<g>
					<rect x="128.3" y="377.7" class="st2" width="42.2" height="5.7"/>
				</g>
				<g class="st3">
					<rect x="128.4" y="380.6" class="st2" width="42.2" height="2.8"/>
				</g>
			</g>
			<g>
				<g>
					<circle class="st4" cx="175.5" cy="380.6" r="9.6"/>
				</g>
				<g class="st3">
					<path class="st4" d="M175.5,390.1c-5.3,0-9.6-4.3-9.6-9.6h19.2C185.1,385.9,180.8,390.1,175.5,390.1z"/>
				</g>
			</g>
		</g>
		<g>
			<g>
				<path class="st14" d="M341.9,281c3.2,0,5.8-2.6,5.8-5.8c0-3.2-2.6-5.8-5.8-5.8h-8.6c-0.3-2.3-0.7-4.5-1.3-6.6l7.9-3.3
					c3-1.2,4.4-4.6,3.1-7.6c-1.2-3-4.6-4.4-7.6-3.1l-7.9,3.3c-1.1-2-2.4-3.8-3.8-5.6l6-6c2.3-2.3,2.3-5.9,0-8.2l0,0
					c-2.3-2.3-5.9-2.3-8.2,0l-6,6c-1.8-1.4-3.6-2.6-5.6-3.8l3.3-7.9c1.2-3-0.2-6.4-3.1-7.6c-3-1.2-6.4,0.2-7.6,3.1l-3.3,7.9
					c-2.2-0.6-4.4-1-6.6-1.3v-8.5c0-3.2-2.6-5.8-5.8-5.8c-3.2,0-5.8,2.6-5.8,5.8v8.5c-2.3,0.3-4.5,0.7-6.6,1.3l-3.3-7.9
					c-1.2-3-4.6-4.4-7.6-3.1c-3,1.2-4.4,4.6-3.1,7.6l3.3,7.9c-2,1.1-3.8,2.4-5.6,3.8l-6-6c-2.3-2.3-5.9-2.3-8.2,0s-2.3,5.9,0,8.2
					l6,6c-1.4,1.8-2.6,3.7-3.8,5.6l-7.9-3.3c-3-1.2-6.4,0.2-7.6,3.1c-1.2,3,0.2,6.4,3.1,7.6l7.9,3.3c-0.6,2.2-1,4.4-1.3,6.6h-8.6
					c-3.2,0-5.8,2.6-5.8,5.8c0,3.2,2.6,5.8,5.8,5.8h8.6c0.3,2.3,0.7,4.5,1.3,6.6l-7.9,3.3c-3,1.2-4.4,4.6-3.1,7.6
					c1.2,3,4.6,4.4,7.6,3.1l7.9-3.3c1.1,2,2.4,3.8,3.8,5.6l-6.1,6.1c-2.3,2.3-2.3,5.9,0,8.2c2.3,2.3,5.9,2.3,8.2,0l6.1-6.1
					c1.8,1.4,3.6,2.6,5.6,3.7l-3.3,7.9c-1.2,3,0.2,6.4,3.1,7.6c3,1.2,6.4-0.2,7.6-3.1l3.3-7.9c2.1,0.6,4.4,1,6.6,1.3v8.6
					c0,3.2,2.6,5.8,5.8,5.8c3.2,0,5.8-2.6,5.8-5.8v-8.6c2.3-0.3,4.5-0.7,6.6-1.3l3.3,7.9c1.2,3,4.6,4.4,7.6,3.1
					c3-1.2,4.4-4.6,3.1-7.6l-3.3-7.9c2-1.1,3.8-2.4,5.6-3.7l6.1,6.1c2.3,2.3,5.9,2.3,8.2,0l0,0c2.3-2.3,2.3-5.9,0-8.2l-6.1-6.1
					c1.4-1.8,2.6-3.6,3.8-5.6l7.9,3.3c3,1.2,6.4-0.2,7.6-3.1c1.2-3-0.2-6.4-3.1-7.6l-7.9-3.3c0.6-2.1,1-4.4,1.3-6.6H341.9z
					 M321.2,275.2c0,18.9-15.3,34.3-34.3,34.3s-34.3-15.3-34.3-34.3c0-18.9,15.3-34.3,34.3-34.3S321.2,256.3,321.2,275.2z"/>
			</g>
			<g class="st3">
				<path class="st14" d="M341.9,281c3.2,0,5.8-2.6,5.8-5.8c0-3.2-2.6-5.8-5.8-5.8h-8.6c-0.3-2.3-0.7-4.5-1.3-6.6l7.9-3.3
					c3-1.2,4.4-4.6,3.1-7.6c-1.2-3-4.6-4.4-7.6-3.1l-7.9,3.3c-1.1-2-2.4-3.8-3.8-5.6l6-6c2.3-2.3,2.3-5.9,0-8.2l0,0
					c-2.3-2.3-5.9-2.3-8.2,0l-6,6c-1.8-1.4-3.6-2.6-5.6-3.8l3.3-7.9c1.2-3-0.2-6.4-3.1-7.6c-3-1.2-6.4,0.2-7.6,3.1l-3.3,7.9
					c-2.2-0.6-4.4-1-6.6-1.3v-8.5c0-3.2-2.6-5.8-5.8-5.8v26.5h0.1c18.9,0,34.3,15.3,34.3,34.3c0,18.9-15.3,34.3-34.3,34.3h-0.1v26.6
					c3.2,0,5.8-2.6,5.8-5.8v-8.6c2.3-0.3,4.5-0.7,6.6-1.3l3.3,7.9c1.2,3,4.6,4.4,7.6,3.1c3-1.2,4.4-4.6,3.1-7.6l-3.3-7.9
					c2-1.1,3.8-2.4,5.6-3.7l6.1,6.1c2.3,2.3,5.9,2.3,8.2,0l0,0c2.3-2.3,2.3-5.9,0-8.2l-6.1-6.1c1.4-1.8,2.6-3.6,3.8-5.6l7.9,3.3
					c3,1.2,6.4-0.2,7.6-3.1c1.2-3-0.2-6.4-3.1-7.6l-7.9-3.3c0.6-2.1,1-4.4,1.3-6.6L341.9,281L341.9,281z"/>
			</g>
		</g>
		<g>
			<g>
				<path class="st9" d="M292.1,277c0,2.8-2.3,5.2-5.2,5.2c-2.8,0-5.2-2.3-5.2-5.2c0-2.8,2.3-5.2,5.2-5.2
					C289.8,271.8,292.1,274.2,292.1,277z"/>
			</g>
			<g class="st3">
				<path class="st9" d="M292.1,277c0,2.8-2.3,5.2-5.2,5.2v-10.3C289.8,271.8,292.1,274.2,292.1,277z"/>
			</g>
		</g>
		<g>
			<g>
				<path class="st6" d="M310.7,275.2c-1.3-0.3-2.5-0.6-3.8-0.9c-0.1-0.8-0.3-1.7-0.5-2.5c1.1-0.8,2.1-1.5,3.2-2.3
					c1-0.8,1.5-1.9,1.3-2.5l0,0c-0.3-0.6-1.4-1-2.7-0.9c-1.3,0.2-2.6,0.4-3.8,0.6c-0.4-0.7-0.9-1.4-1.4-2.1c0.7-1.1,1.4-2.2,2-3.3
					c0.6-1.1,0.7-2.3,0.2-2.8l0,0c-0.5-0.5-1.7-0.4-2.8,0.2c-1.1,0.7-2.2,1.4-3.3,2c-0.7-0.5-1.4-1-2.1-1.4c0.2-1.3,0.4-2.6,0.6-3.9
					c0.1-1.2-0.2-2.4-0.9-2.7l0,0c-0.6-0.3-1.7,0.3-2.5,1.3c-0.8,1.1-1.5,2.1-2.3,3.2c-0.8-0.2-1.6-0.4-2.4-0.5
					c-0.3-1.3-0.6-2.5-0.9-3.8c-0.3-1.2-1.1-2.1-1.8-2.1l0,0c-0.7,0-1.5,1-1.8,2.1c-0.3,1.3-0.6,2.5-0.9,3.8
					c-0.8,0.1-1.6,0.3-2.4,0.5c-0.8-1.1-1.5-2.1-2.3-3.2c-0.8-1-1.9-1.5-2.5-1.3l0,0c-0.6,0.3-1,1.4-0.9,2.7
					c0.2,1.3,0.4,2.6,0.6,3.9c-0.7,0.4-1.4,0.9-2,1.4c-1.1-0.7-2.2-1.4-3.4-2.1c-1.1-0.6-2.3-0.7-2.8-0.2l0,0
					c-0.5,0.5-0.4,1.7,0.2,2.8c0.7,1.1,1.4,2.3,2.1,3.4c-0.5,0.6-0.9,1.3-1.4,2c-1.3-0.2-2.6-0.4-3.9-0.6c-1.2-0.1-2.4,0.2-2.7,0.9
					l0,0c-0.3,0.6,0.3,1.7,1.3,2.5c1.1,0.8,2.1,1.6,3.2,2.3c-0.2,0.8-0.4,1.6-0.5,2.4c-1.3,0.3-2.6,0.6-3.9,0.9
					c-1.2,0.3-2.1,1.1-2.1,1.8l0,0c0,0.7,1,1.5,2.1,1.8c1.3,0.3,2.6,0.6,3.9,0.9c0.1,0.8,0.3,1.6,0.5,2.4c-1.1,0.8-2.2,1.6-3.2,2.3
					c-1,0.8-1.5,1.9-1.3,2.5l0,0c0.3,0.6,1.4,1,2.7,0.9c1.3-0.2,2.6-0.4,3.9-0.6c0.4,0.7,0.9,1.4,1.3,2c-0.7,1.1-1.4,2.3-2.1,3.4
					c-0.6,1.1-0.7,2.3-0.2,2.8l0,0c0.5,0.5,1.7,0.4,2.8-0.2c1.1-0.7,2.3-1.4,3.4-2.1c0.6,0.5,1.3,0.9,2,1.3
					c-0.2,1.3-0.4,2.6-0.6,3.9c-0.1,1.2,0.2,2.4,0.9,2.7l0,0c0.6,0.3,1.7-0.3,2.5-1.3c0.8-1.1,1.6-2.2,2.3-3.2
					c0.8,0.2,1.6,0.4,2.4,0.5c0.3,1.3,0.6,2.6,0.9,3.9c0.3,1.2,1.1,2.1,1.8,2.1l0,0c0.7,0,1.5-1,1.8-2.1c0.3-1.3,0.6-2.6,0.9-3.9
					c0.8-0.1,1.6-0.3,2.4-0.5c0.8,1.1,1.5,2.1,2.3,3.2c0.8,1,1.9,1.5,2.5,1.3l0,0c0.6-0.3,1-1.4,0.9-2.7c-0.2-1.3-0.4-2.6-0.6-3.9
					c0.7-0.4,1.4-0.9,2.1-1.4c1.1,0.7,2.2,1.4,3.4,2.1c1.1,0.6,2.3,0.7,2.8,0.2l0,0c0.5-0.5,0.4-1.7-0.2-2.8
					c-0.7-1.1-1.4-2.2-2.1-3.3c0.5-0.7,1-1.3,1.4-2.1c1.3,0.2,2.6,0.4,3.9,0.6c1.2,0.1,2.4-0.2,2.7-0.9l0,0c0.3-0.6-0.3-1.7-1.3-2.5
					c-1.1-0.8-2.1-1.5-3.2-2.3c0.2-0.8,0.4-1.6,0.5-2.4c1.3-0.3,2.5-0.6,3.8-0.9c1.2-0.3,2.1-1.1,2.1-1.8l0,0
					C312.8,276.3,311.8,275.5,310.7,275.2z M286.9,287.1c-5.6,0-10.2-4.5-10.2-10.2c0-5.6,4.5-10.1,10.2-10.1
					c5.6,0,10.2,4.5,10.2,10.1C297,282.6,292.5,287.1,286.9,287.1z"/>
			</g>
			<g class="st3">
				<path class="st6" d="M310.7,275.2c-1.3-0.3-2.5-0.6-3.8-0.9c-0.1-0.8-0.3-1.7-0.5-2.5c1.1-0.8,2.1-1.5,3.2-2.3
					c1-0.8,1.5-1.9,1.3-2.5c-0.3-0.6-1.4-1-2.7-0.9c-1.3,0.2-2.6,0.4-3.8,0.6c-0.4-0.7-0.9-1.4-1.4-2.1c0.7-1.1,1.4-2.2,2-3.3
					c0.6-1.1,0.7-2.3,0.2-2.8s-1.7-0.4-2.8,0.2c-1.1,0.7-2.2,1.4-3.3,2c-0.7-0.5-1.4-1-2.1-1.4c0.2-1.3,0.4-2.6,0.6-3.9
					c0.1-1.2-0.2-2.4-0.9-2.7l0,0c-0.6-0.3-1.7,0.3-2.5,1.3c-0.8,1.1-1.5,2.1-2.3,3.2c-0.8-0.2-1.6-0.4-2.4-0.5
					c-0.3-1.3-0.6-2.5-0.9-3.8c-0.3-1.2-1.1-2.1-1.8-2.1l0,0l0,0v15.8l0,0c5.6,0,10.2,4.5,10.2,10.1s-4.5,10.2-10.2,10.2l0,0V303
					l0,0l0,0c0.7,0,1.5-1,1.8-2.1c0.3-1.3,0.6-2.6,0.9-3.9c0.8-0.1,1.6-0.3,2.4-0.5c0.8,1.1,1.5,2.1,2.3,3.2c0.8,1,1.9,1.5,2.5,1.3
					c0.6-0.3,1-1.4,0.9-2.7c-0.2-1.3-0.4-2.6-0.6-3.9c0.7-0.4,1.4-0.9,2.1-1.4c1.1,0.7,2.2,1.4,3.4,2.1c1.1,0.6,2.3,0.7,2.8,0.2l0,0
					c0.5-0.5,0.4-1.7-0.2-2.8c-0.7-1.1-1.4-2.2-2.1-3.3c0.5-0.7,1-1.3,1.4-2.1c1.3,0.2,2.6,0.4,3.9,0.6c1.2,0.1,2.4-0.2,2.7-0.9l0,0
					c0.3-0.6-0.3-1.7-1.3-2.5c-1.1-0.8-2.1-1.5-3.2-2.3c0.2-0.8,0.4-1.6,0.5-2.4c1.3-0.3,2.5-0.6,3.8-0.9c1.2-0.3,2.1-1.1,2.1-1.8
					l0,0C312.8,276.3,311.8,275.5,310.7,275.2z"/>
			</g>
		</g>
		<g>
			<path class="st14" d="M370.9,369.5c-2.3,0.6-4.5,1.3-6.7,2.1l-0.3,0.1l5.2,13.7c-2.2,0.8-4.3,1.7-6.3,2.8l-6.6-13.1
				c-2.1,1.1-4.2,2.2-6.2,3.5l7.8,12.4c-2,1.2-3.8,2.5-5.6,4l-9.1-11.5c-1.8,1.5-3.6,3-5.3,4.6l10.1,10.6c-1.7,1.6-3.2,3.3-4.7,5
				l-11.3-9.4c-1.5,1.8-2.9,3.7-4.3,5.6l12.1,8.4c-1.3,1.9-2.5,3.8-3.6,5.8l-12.9-7c-1.1,2.1-2.1,4.2-3.1,6.4l13.5,5.8
				c-0.9,2.1-1.7,4.2-2.4,6.4l-14.1-4.3c-0.7,2.2-1.3,4.6-1.7,6.8l14.4,3c-0.5,2.2-0.8,4.5-1,6.8l-14.6-1.3
				c-0.2,2.3-0.3,4.7-0.3,7.1h14.7c0,2.3,0.1,4.6,0.4,6.8l-14.6,1.6c0.3,2.3,0.6,4.7,1.1,7l14.4-3c0.5,2.2,1.1,4.4,1.8,6.6l-14,4.5
				c0.3,0.9,0.6,1.8,1,2.8l37.2-13.7c-7.1-19.2,2.8-40.5,22-47.6s40.5,2.8,47.6,22l23.5-8.6c-0.4-1.2-0.9-2.4-1.4-3.5l13.4-5.9
				c-0.9-2.1-2-4.3-3.1-6.3l-12.8,7.1c-1.1-2-2.3-3.9-3.7-5.8l12-8.5c-1.4-1.9-2.8-3.8-4.3-5.6l-11.2,9.5c-1.5-1.7-3.1-3.4-4.8-4.9
				l10-10.7c-1.7-1.6-3.5-3.1-5.4-4.6l-9,11.6c-1.8-1.4-3.7-2.7-5.6-3.9l7.7-12.5c-2-1.2-4.1-2.4-6.2-3.4l-6.5,13.2
				c-2.1-1-4.2-1.9-6.3-2.7l5-13.8c-2.2-0.8-4.5-1.5-6.7-2.1l-3.7,14.2c-2.2-0.6-4.4-1.1-6.7-1.4l2.1-14.5c-2.3-0.3-4.7-0.6-7-0.7
				l-0.8,14.7c-2.3-0.1-4.6-0.1-6.9,0l-0.9-14.7c-2.3,0.1-4.7,0.4-7,0.7l2.2,14.5c-2.2,0.3-4.5,0.8-6.7,1.4L370.9,369.5z
				 M439.9,421.4l-9,3.3c-9.1-19.5-31-29.6-51.8-24l-3.3-9C401.6,384.3,428.9,397,439.9,421.4z M371.8,403.4
				c-19.6,9.1-29.8,31.1-24.1,51.9l-9,3.3c-7.4-25.8,5.3-53.3,29.8-64.3L371.8,403.4z"/>
		</g>
		<g>
			<g>
				<path class="st5" d="M334.2,522.3c-21.9-38-8.7-86.7,29.3-108.6s86.7-8.7,108.6,29.3l-23.5,13.5c-14.4-25-46.5-33.7-71.5-19.3
					c-25,14.4-33.7,46.5-19.3,71.5L334.2,522.3z"/>
			</g>
			<g>
				<path class="st17" d="M341.4,512L341.4,512L341.4,512c-0.6-1.2-0.1-2.6,1.1-3.2l0,0c1.2-0.6,2.6-0.1,3.2,1.1l0,0
					c0.6,1.2,0.1,2.6-1.1,3.2l0,0c-1.1,0.5-2.5,0.1-3.1-1l0,0C341.4,512.1,341.4,512,341.4,512z M337.6,502.1L337.6,502.1
					L337.6,502.1c-0.4-1.3,0.3-2.6,1.6-3l0,0c1.3-0.4,2.6,0.3,3,1.6l0,0c0.4,1.3-0.3,2.6-1.6,3l0,0c-1.1,0.3-2.2-0.2-2.7-1.1l0,0
					C337.7,502.5,337.7,502.3,337.6,502.1z M335.4,491.8c-0.2-1.3,0.7-2.5,2-2.7l0,0c1.3-0.2,2.5,0.7,2.7,2l0,0
					c0.2,1.3-0.7,2.5-2,2.7l0,0c-1,0.1-1.9-0.4-2.4-1.2l0,0C335.5,492.4,335.4,492.1,335.4,491.8z M334.8,481.3
					c0-1.3,1.1-2.4,2.4-2.3l0,0c1.3,0,2.4,1.1,2.3,2.4l0,0c0,1.3-1.1,2.4-2.4,2.3l0,0c-0.9,0-1.6-0.5-2-1.2l0,0
					C334.9,482.2,334.8,481.7,334.8,481.3z M335.8,470.8c0.2-1.3,1.5-2.2,2.8-1.9l0,0c1.3,0.2,2.2,1.5,1.9,2.8l0,0
					c-0.2,1.3-1.5,2.2-2.8,1.9l0,0c-0.7-0.1-1.3-0.6-1.6-1.2l0,0C335.8,472,335.7,471.4,335.8,470.8z M338.5,460.6L338.5,460.6
					L338.5,460.6c0.4-1.2,1.8-1.9,3-1.5l0,0c1.2,0.4,1.9,1.8,1.5,3l0,0c-0.4,1.2-1.8,1.9-3,1.5l0,0c-0.6-0.2-1-0.6-1.3-1.1l0,0
					C338.3,462,338.2,461.3,338.5,460.6z M342.6,451L342.6,451L342.6,451c0.6-1.2,2-1.6,3.2-1l0,0c1.2,0.6,1.6,2,1,3.2l0,0
					c-0.6,1.2-2,1.6-3.2,1l0,0c-0.4-0.2-0.7-0.5-1-0.9l0,0C342.3,452.6,342.2,451.7,342.6,451z M348.2,442L348.2,442L348.2,442
					c0.8-1.1,2.3-1.3,3.3-0.5l0,0c1.1,0.8,1.3,2.3,0.5,3.3l0,0c-0.8,1.1-2.3,1.3-3.3,0.5l0,0c-0.3-0.2-0.5-0.4-0.6-0.7l0,0
					C347.6,443.8,347.6,442.8,348.2,442z M355.1,434.1L355.1,434.1L355.1,434.1c0.9-0.9,2.4-0.9,3.4,0l0,0c0.9,0.9,0.9,2.4,0,3.4
					l0,0c-0.9,0.9-2.4,0.9-3.4,0l0,0c-0.1-0.1-0.3-0.3-0.4-0.5l0,0C354.2,436,354.3,434.8,355.1,434.1z M363.1,427.3L363.1,427.3
					L363.1,427.3c1.1-0.8,2.5-0.5,3.3,0.5l0,0c0.8,1.1,0.5,2.5-0.5,3.3l0,0c-1.1,0.8-2.6,0.5-3.3-0.5l0,0c-0.1-0.1-0.1-0.1-0.1-0.2
					l0,0C361.9,429.3,362.1,428,363.1,427.3z M371.1,425c-0.6-1.2-0.1-2.6,1-3.2l0,0c1.2-0.6,2.6-0.1,3.2,1l0,0
					c0.6,1.2,0.1,2.6-1,3.2l0,0c-1.1,0.6-2.5,0.2-3.1-0.9l0,0C371.1,425.1,371.1,425,371.1,425z M380.3,420.8
					c-0.4-1.3,0.3-2.6,1.5-3l0,0c1.2-0.4,2.6,0.3,3,1.5l0,0c0.4,1.2-0.3,2.6-1.5,3l0,0c-1.1,0.4-2.2-0.1-2.8-1.1l0,0
					C380.4,421.1,380.4,420.9,380.3,420.8z M390.1,418c-0.2-1.3,0.7-2.5,2-2.7l0,0l0,0l0,0c1.3-0.2,2.5,0.7,2.7,2l0,0
					c0.2,1.3-0.7,2.5-2,2.7l0,0c-1,0.2-2-0.3-2.4-1.2l0,0C390.3,418.5,390.2,418.3,390.1,418z M400.2,416.7c0-1.3,1-2.4,2.4-2.4l0,0
					c1.3,0,2.4,1,2.4,2.4l0,0c0,1.3-1,2.4-2.4,2.4l0,0c-0.9,0-1.7-0.5-2.1-1.2l0,0C400.3,417.6,400.2,417.2,400.2,416.7z
					 M410.4,417.1c0.2-1.3,1.4-2.2,2.7-2l0,0c1.3,0.2,2.2,1.4,2,2.7l0,0c-0.2,1.3-1.4,2.2-2.7,2l0,0c-0.7-0.1-1.4-0.6-1.7-1.2l0,0
					C410.4,418.2,410.3,417.6,410.4,417.1z M420.4,419c0.4-1.2,1.7-2,3-1.6l0,0c1.3,0.4,2,1.7,1.6,3l0,0c-0.4,1.2-1.7,2-3,1.6l0,0
					c-0.6-0.2-1.1-0.6-1.4-1.1l0,0C420.3,420.3,420.2,419.6,420.4,419z M429.9,422.4c0.6-1.2,2-1.7,3.2-1.1l0,0
					c1.2,0.6,1.7,2,1.1,3.2l0,0c-0.6,1.2-2,1.7-3.2,1.1l0,0c-0.4-0.2-0.8-0.5-1-0.9l0,0C429.6,424,429.6,423.1,429.9,422.4z
					 M438.9,427.2c0.8-1.1,2.2-1.3,3.3-0.6l0,0c1.1,0.8,1.3,2.2,0.6,3.3l0,0c-0.7,1.1-2.2,1.3-3.3,0.6l0,0c-0.3-0.2-0.5-0.5-0.7-0.8
					l0,0C438.3,429,438.3,428,438.9,427.2z M447,433.4c0.9-0.9,2.4-1,3.4-0.1l0,0c0.9,0.9,1,2.4,0.1,3.4l0,0c-0.9,1-2.4,1-3.4,0.1
					l0,0c-0.2-0.2-0.3-0.3-0.4-0.5l0,0C446.1,435.3,446.2,434.2,447,433.4z M454,440.7c1-0.8,2.5-0.6,3.3,0.4l0,0
					c0.8,1,0.6,2.5-0.5,3.3l0,0c-1,0.8-2.5,0.6-3.3-0.4l0,0c-0.1-0.1-0.1-0.2-0.2-0.3l0,0C452.8,442.8,453.1,441.4,454,440.7z"/>
			</g>
		</g>
		<g>
			<g>
				<g>
					<path class="st6" d="M416,99.9l-46.8-26.8l16-27.8c7.4-12.9,23.9-17.4,36.8-10l0,0c12.9,7.4,17.4,23.9,10,36.8L416,99.9z"/>
				</g>
				<g class="st3">
					<path class="st6" d="M426.7,38.6c0.4,5.2-0.7,10.5-3.5,15.4c-8.8,15.4-28.4,20.7-43.8,11.9l-4.5-2.6l-5.6,9.7L416,99.9L432,72
						C438.4,60.8,435.9,47,426.7,38.6z"/>
				</g>
			</g>
			<g class="st7">
				<circle class="st8" cx="404.8" cy="48.9" r="9.4"/>
			</g>
			<g>
				
					<rect x="387.8" y="47.4" transform="matrix(0.4975 -0.8675 0.8675 0.4975 125.078 385.4483)" class="st9" width="14.9" height="74.7"/>
			</g>
			<g class="st3">
				
					<rect x="360" y="63.4" transform="matrix(0.4975 -0.8675 0.8675 0.4975 125.004 353.2714)" class="st9" width="14.9" height="10.6"/>
			</g>
			<g class="st3">
				
					<rect x="377.9" y="73.7" transform="matrix(0.4975 -0.8675 0.8675 0.4975 125.0782 373.9637)" class="st9" width="14.9" height="10.6"/>
			</g>
			<g class="st3">
				
					<rect x="396.8" y="84.6" transform="matrix(0.4975 -0.8675 0.8675 0.4975 125.1652 395.7942)" class="st9" width="14.9" height="10.6"/>
			</g>
			<g class="st3">
				
					<rect x="415.6" y="95.4" transform="matrix(0.4975 -0.8675 0.8675 0.4975 125.2518 417.5244)" class="st9" width="14.9" height="10.6"/>
			</g>
		</g>
		<g>
			<g>
				<g>
					<path class="st6" d="M491.9,143.1l-46.8-26.8l16-27.8c7.4-12.9,23.9-17.4,36.8-10l0,0c12.9,7.4,17.4,23.9,10,36.8L491.9,143.1z
						"/>
				</g>
				<g class="st3">
					<path class="st6" d="M502.5,81.8c0.4,5.2-0.7,10.5-3.5,15.4c-8.8,15.4-28.4,20.7-43.8,11.9l-4.5-2.6l-5.6,9.7l46.8,26.8
						l16-27.8C514.3,104,511.7,90.2,502.5,81.8z"/>
				</g>
			</g>
			<g class="st7">
				<circle class="st8" cx="480.6" cy="92.1" r="9.4"/>
			</g>
			<g>
				
					<rect x="463.6" y="90.6" transform="matrix(0.4975 -0.8675 0.8675 0.4975 125.7177 472.91)" class="st9" width="14.9" height="74.7"/>
			</g>
			<g class="st3">
				
					<rect x="435.9" y="106.7" transform="matrix(0.4975 -0.8675 0.8675 0.4975 125.6442 440.8334)" class="st9" width="14.9" height="10.6"/>
			</g>
			<g class="st3">
				
					<rect x="453.8" y="117" transform="matrix(0.4975 -0.8675 0.8675 0.4975 125.7184 461.5258)" class="st9" width="14.9" height="10.6"/>
			</g>
			<g class="st3">
				
					<rect x="472.6" y="127.7" transform="matrix(0.4975 -0.8675 0.8675 0.4975 125.805 483.256)" class="st9" width="14.9" height="10.6"/>
			</g>
			<g class="st3">
				
					<rect x="491.4" y="138.5" transform="matrix(0.4975 -0.8675 0.8675 0.4975 125.8916 504.9862)" class="st9" width="14.9" height="10.6"/>
			</g>
		</g>
		<g>
			<g>
				<g>
					<rect x="449.2" y="297.9" class="st2" width="42.2" height="5.7"/>
				</g>
				<g class="st3">
					<rect x="449.2" y="298" class="st2" width="42.2" height="2.8"/>
				</g>
			</g>
			<g>
				<g>
					<circle class="st4" cx="444.3" cy="300.8" r="9.6"/>
				</g>
				<g class="st3">
					<path class="st4" d="M444.3,291.2c5.3,0,9.6,4.3,9.6,9.6h-19.2C434.7,295.5,439,291.2,444.3,291.2z"/>
				</g>
			</g>
			<g>
				<g>
					<rect x="449.3" y="270.6" class="st2" width="42.2" height="5.7"/>
				</g>
				<g class="st3">
					<rect x="449.3" y="270.7" class="st2" width="42.2" height="2.8"/>
				</g>
			</g>
			<g>
				<g>
					<circle class="st4" cx="444.3" cy="273.5" r="9.6"/>
				</g>
				<g class="st3">
					<path class="st4" d="M444.3,263.9c5.3,0,9.6,4.3,9.6,9.6h-19.2C434.7,268.2,439,263.9,444.3,263.9z"/>
				</g>
			</g>
		</g>
		<g>
			<g>
				<g>
					<rect x="490.6" y="255.6" class="st12" width="64.8" height="64.8"/>
				</g>
				<g class="st3">
					<polygon class="st12" points="555.4,320.4 490.6,320.4 555.4,255.6 					"/>
				</g>
			</g>
			<g>
				<g>
					<g>
						<circle class="st18" cx="523" cy="288" r="19.5"/>
					</g>
				</g>
				<g class="st3">
					<g>
						<path class="st18" d="M542.6,288c0,10.8-8.7,19.5-19.5,19.5v-39.1C533.8,268.4,542.6,277.2,542.6,288z"/>
					</g>
				</g>
			</g>
			<g class="st7">
				<g>
					<path class="st19" d="M517.7,280c0,1.8-1.5,3.3-3.3,3.3s-3.3-1.5-3.3-3.3s1.5-3.3,3.3-3.3S517.7,278.1,517.7,280z"/>
				</g>
			</g>
		</g>
		<g>
			<g class="st3">
				<path class="st12" d="M230.2,373.9c-0.7,0.1-1.3,0.1-2,0.3c-0.7,0.2-1.3,0.4-1.9,0.7c-6.3,2.5-10,9.3-8.3,16.1
					c1.7,6.8,8.1,11.1,14.8,10.5c0.7-0.1,1.3-0.1,2-0.3c0.7-0.2,1.3-0.4,1.9-0.7c6.3-2.5,10-9.3,8.3-16.1
					C243.4,377.6,237,373.3,230.2,373.9z"/>
			</g>
			<g>
				<path class="st5" d="M217.1,390.8c1.5,6.3,7.5,10.3,13.8,9.7l-6.1-24.7C219,378.1,215.5,384.5,217.1,390.8z"/>
			</g>
			<g>
				<path class="st5" d="M242.2,384.6c-1.5-6.3-7.5-10.3-13.8-9.7l6.1,24.7C240.3,397.3,243.7,390.9,242.2,384.6z"/>
			</g>
			<g>
				<path class="st16" d="M226.6,375.2c-0.6,0.2-1.2,0.4-1.7,0.6l6.1,24.7c0.6-0.1,1.2-0.1,1.8-0.3c0.6-0.2,1.2-0.4,1.7-0.6
					l-6.1-24.7C227.8,375,227.2,375,226.6,375.2z"/>
			</g>
		</g>
		<g>
			<g class="st3">
				<path class="st12" d="M386.6,302.5c-0.6-0.2-1.3-0.4-1.9-0.4c-0.7-0.1-1.3-0.1-2,0c-6.8,0.2-12.6,5.2-13.5,12.2
					c-0.8,6.9,3.6,13.2,10.2,15c0.6,0.2,1.3,0.4,1.9,0.4s1.3,0.1,2,0c6.8-0.2,12.6-5.2,13.5-12.2
					C397.6,310.5,393.2,304.2,386.6,302.5z"/>
			</g>
			<g>
				<path class="st5" d="M368.4,313.6c-0.8,6.5,3.4,12.3,9.5,14l3-25.3C374.6,302.4,369.2,307.2,368.4,313.6z"/>
			</g>
			<g>
				<path class="st5" d="M394,316.7c0.8-6.5-3.4-12.3-9.5-14l-3,25.3C387.9,327.9,393.3,323.2,394,316.7z"/>
			</g>
			<g>
				<path class="st16" d="M382.8,302.3c-0.6-0.1-1.2-0.1-1.9,0l-3,25.3c0.6,0.2,1.2,0.3,1.8,0.4c0.6,0.1,1.2,0.1,1.9,0l3-25.3
					C384,302.6,383.4,302.4,382.8,302.3z"/>
			</g>
		</g>
		<g>
			<g>
				<path class="st5" d="M516.4,378.3c0-2.1-0.3-4.2-0.9-6.1l4.5-1.3c-0.7-2.4-1.8-4.7-3.1-6.8l-4,2.6c-1.1-1.7-2.5-3.3-4.1-4.6
					l3.1-3.6c-1.9-1.6-4-3-6.3-4l-1.9,4.3c-1.8-0.8-3.8-1.4-5.9-1.7l0.7-4.7c-2.5-0.3-5-0.3-7.5,0l0.7,4.7c-2.1,0.3-4.1,0.9-5.9,1.8
					l-2-4.3c-2.3,1.1-4.4,2.4-6.3,4.1l3.1,3.6c-1.6,1.4-2.9,2.9-4,4.7l-4-2.5c-1.4,2.1-2.4,4.4-3.1,6.8l4.5,1.3
					c-0.6,1.9-0.9,4-0.9,6.1l0,0h-4.7c0,2.5,0.4,5,1.1,7.4l4.5-1.3c0.6,2,1.5,3.9,2.6,5.6l-4,2.6c1.4,2.1,3,4,4.9,5.7l3.1-3.6
					c1.6,1.3,3.3,2.5,5.2,3.3l-2,4.3c2.3,1,4.7,1.8,7.2,2.1l0.7-4.7c1,0.1,2,0.2,3.1,0.2s2.1-0.1,3.1-0.2l0.7,4.7
					c2.5-0.4,4.9-1.1,7.2-2.1l-2-4.3c1.9-0.9,3.6-2,5.2-3.3l3.1,3.6c1.9-1.6,3.6-3.6,4.9-5.7l-4-2.6c1.1-1.7,2-3.6,2.6-5.6l4.5,1.3
					c0.7-2.4,1.1-4.9,1.1-7.4v-0.1h-4.8V378.3z M494.8,391.7c-7.3,0-13.3-6-13.3-13.3s6-13.3,13.3-13.3s13.3,6,13.3,13.3
					C508.1,385.8,502.1,391.7,494.8,391.7z"/>
			</g>
			<g>
				<g>
					<ellipse class="st5" cx="494.8" cy="378.4" rx="6.4" ry="6.4"/>
				</g>
				<g>
					<path class="st5" d="M501.2,378.4c0,3.6-2.9,6.4-6.4,6.4V372C498.3,372,501.2,374.9,501.2,378.4z"/>
				</g>
			</g>
			<g class="st3">
				<path class="st5" d="M516.4,378.3c0-2.1-0.3-4.2-0.9-6.1l4.5-1.3c-0.7-2.4-1.8-4.7-3.1-6.8l-4,2.6c-1.1-1.7-2.5-3.3-4.1-4.6
					l3.1-3.6c-1.9-1.6-4-3-6.3-4l-1.9,4.3c-1.8-0.8-3.8-1.4-5.9-1.7l0.7-4.7c-1.2-0.2-2.4-0.3-3.7-0.3v13.1l0,0
					c7.3,0,13.3,6,13.3,13.3s-6,13.3-13.3,13.3l0,0v8.4l0,0c1.1,0,2.1-0.1,3.1-0.2l0.7,4.7c2.5-0.4,4.9-1.1,7.2-2.1l-2-4.3
					c1.9-0.9,3.6-2,5.2-3.3l3.1,3.6c1.9-1.6,3.6-3.6,4.9-5.7l-4-2.6c1.1-1.7,2-3.6,2.6-5.6l4.5,1.3c0.7-2.4,1.1-4.9,1.1-7.4v-0.1
					h-4.8V378.3z"/>
			</g>
		</g>
		<g>
			<g>
				<path class="st5" d="M118,54.1L210.9,3c11.6-6.4,26.3-2.1,32.7,9.5l29.2,53.1l-9,5l-29.2-53.1c-3.7-6.6-12-9.1-18.7-5.4
					l-92.9,51c-6.6,3.7-9.1,12-5.4,18.7l14.9,27l-9,5l-14.9-27C102.1,75.2,106.4,60.5,118,54.1z"/>
			</g>
			<g class="st13">
				<g>
					
						<rect x="122.5" y="110.3" transform="matrix(0.876 -0.4822 0.4822 0.876 -37.6295 75.2958)" class="st5" width="10.3" height="1.1"/>
				</g>
				<g>
					<path class="st5" d="M123.2,51.3l2-1.1l5,9l-2,1.1L123.2,51.3z M135,44.7l2-1.1l5,9l-2,1.1L135,44.7z M146.9,38.2l2-1.1l5,9
						l-2,1.1L146.9,38.2z M158.7,31.7l2-1.1l5,9l-2,1.1L158.7,31.7z M170.6,25.2l2-1.1l5,9l-2,1.1L170.6,25.2z M182.4,18.7l2-1.1
						l5,9l-2,1.1L182.4,18.7z M194.2,12.1l2-1.1l5,9l-2,1.1L194.2,12.1z M206.1,5.6l2-1.1l5,9l-2,1.1L206.1,5.6z M112.6,58.2
						l7.3,7.3c-0.4,0.4-0.7,0.8-1.1,1.2l-8.1-6.3C111.3,59.6,111.9,58.9,112.6,58.2z M220.6,0.1c1-0.1,1.9-0.1,2.9-0.1l-0.4,10.3
						c-0.5,0-1.1,0-1.6,0L220.6,0.1z M105.6,73.5l10.3,0.7c0,0.5,0,1.1,0,1.6l-10.3,0.5C105.5,75.4,105.5,74.5,105.6,73.5z
						 M236.8,4.7c0.8,0.6,1.5,1.2,2.2,1.8l-7.1,7.5c-0.4-0.4-0.8-0.7-1.3-1L236.8,4.7z M109.8,89.1l9-5l1.1,2l-9,5L109.8,89.1z
						 M237.1,22.1l9-5l1.1,2l-9,5L237.1,22.1z M116.4,101l9-5l1.1,2l-9,5L116.4,101z M243.6,34l9-5l1.1,2l-9,5L243.6,34z
						 M250.2,45.8l9-5l1.1,2l-9,5L250.2,45.8z M256.7,57.7l9-5l1.1,2l-9,5L256.7,57.7z"/>
				</g>
				<g>
					
						<rect x="262.9" y="67" transform="matrix(0.876 -0.4822 0.4822 0.876 0.6594 137.6216)" class="st5" width="10.3" height="1.1"/>
				</g>
			</g>
		</g>
		<g>
			<g>
				<path class="st12" d="M181.4,119.1L116.2,155l-12.3-22.4c-3.4-6.2-1.1-13.9,5-17.3l42.9-23.6c6.2-3.4,13.9-1.1,17.3,5
					L181.4,119.1z"/>
			</g>
			<g class="st3">
				<path class="st12" d="M181.4,119.1l-33.6,18.5L129.4,104l22.4-12.3c6.2-3.4,13.9-1.1,17.3,5L181.4,119.1z"/>
			</g>
			<g>
				<path class="st4" d="M143,96.5l-27.2,15c-2.8,1.6-6.4,0.5-8-2.3l0,0c-1.6-2.8-0.5-6.4,2.3-8l27.2-15c2.8-1.6,6.4-0.5,8,2.3l0,0
					C146.8,91.4,145.8,95,143,96.5z"/>
			</g>
			<g class="st3">
				<path class="st4" d="M115.8,111.5l27.2-15c2.8-1.6,3.9-5.1,2.3-8l-37.5,20.6C109.4,112,112.9,113.1,115.8,111.5z"/>
			</g>
		</g>
		<g>
			<g>
				<path class="st5" d="M212.6,521.2L212.6,521.2c-7.5,0-13.5-6.1-13.5-13.5v-51.2c0-7.5,6.1-13.5,13.5-13.5l0,0
					c7.5,0,13.5,6.1,13.5,13.5v51.2C226.1,515.1,220,521.2,212.6,521.2z"/>
			</g>
			<g class="st3">
				<path class="st5" d="M212.6,443v78.2c7.5,0,13.5-6.1,13.5-13.5v-51.2C226.1,449,220,443,212.6,443z"/>
			</g>
			<g>
				<g class="st3">
					<path class="st5" d="M214.5,450c-0.3,0-0.7-0.1-1-0.1c-0.4,0-0.7,0.1-1,0.1c-3.5,0.5-6.1,3.5-6.1,7.1s2.7,6.6,6.1,7.1
						c0.3,0,0.7,0.1,1,0.1c0.4,0,0.7-0.1,1-0.1c3.5-0.5,6.1-3.5,6.1-7.1S218,450.5,214.5,450z"/>
				</g>
				<g>
					<path class="st14" d="M205.9,456.8c0,3.4,2.5,6.1,5.7,6.6v-13.1C208.4,450.7,205.9,453.5,205.9,456.8z"/>
				</g>
				<g>
					<path class="st14" d="M219.2,456.8c0-3.4-2.5-6.1-5.7-6.6v13.1C216.7,462.9,219.2,460.2,219.2,456.8z"/>
				</g>
				<g>
					<path class="st12" d="M212.5,450.2c-0.3,0-0.6,0.1-1,0.1v13.1c0.3,0,0.6,0.1,1,0.1s0.6-0.1,1-0.1v-13.1
						C213.2,450.2,212.9,450.2,212.5,450.2z"/>
				</g>
				<g>
					<path class="st15" d="M212.5,450.2c-0.3,0-0.6,0.1-1,0.1v13.1c0.3,0,0.6,0.1,1,0.1s0.6-0.1,1-0.1v-13.1
						C213.2,450.2,212.9,450.2,212.5,450.2z"/>
				</g>
			</g>
			<g>
				<g class="st3">
					<path class="st5" d="M214.7,495.3c-0.3,0-0.7-0.1-1-0.1c-0.4,0-0.7,0.1-1,0.1c-3.5,0.5-6.1,3.5-6.1,7.1s2.7,6.6,6.1,7.1
						c0.3,0,0.7,0.1,1,0.1c0.4,0,0.7-0.1,1-0.1c3.5-0.5,6.1-3.5,6.1-7.1C220.9,498.8,218.2,495.8,214.7,495.3z"/>
				</g>
				<g>
					<path class="st14" d="M206.1,502.2c0,3.4,2.5,6.1,5.7,6.6v-13.1C208.6,496.1,206.1,498.8,206.1,502.2z"/>
				</g>
				<g>
					<path class="st14" d="M219.4,502.2c0-3.4-2.5-6.1-5.7-6.6v13.1C216.9,508.3,219.4,505.5,219.4,502.2z"/>
				</g>
				<g>
					<path class="st12" d="M212.7,495.5c-0.3,0-0.6,0.1-1,0.1v13.1c0.3,0,0.6,0.1,1,0.1s0.6-0.1,1-0.1v-13.1
						C213.4,495.6,213.1,495.5,212.7,495.5z"/>
				</g>
				<g>
					<path class="st15" d="M212.7,495.5c-0.3,0-0.6,0.1-1,0.1v13.1c0.3,0,0.6,0.1,1,0.1s0.6-0.1,1-0.1v-13.1
						C213.4,495.6,213.1,495.5,212.7,495.5z"/>
				</g>
			</g>
		</g>
		<g>
			<g>
				<path class="st5" d="M397.8,520.5L397.8,520.5c-7.5,0-13.5-6.1-13.5-13.5v-51.2c0-7.5,6.1-13.5,13.5-13.5l0,0
					c7.5,0,13.5,6.1,13.5,13.5V507C411.3,514.4,405.2,520.5,397.8,520.5z"/>
			</g>
			<g class="st3">
				<path class="st5" d="M397.8,442.2v78.2c7.5,0,13.5-6.1,13.5-13.5v-51.2C411.3,448.3,405.2,442.2,397.8,442.2z"/>
			</g>
			<g>
				<g class="st3">
					<path class="st5" d="M399.7,449.3c-0.3,0-0.7-0.1-1-0.1c-0.4,0-0.7,0.1-1,0.1c-3.5,0.5-6.1,3.5-6.1,7.1s2.7,6.6,6.1,7.1
						c0.3,0,0.7,0.1,1,0.1c0.4,0,0.7-0.1,1-0.1c3.5-0.5,6.1-3.5,6.1-7.1C405.8,452.7,403.2,449.8,399.7,449.3z"/>
				</g>
				<g>
					<path class="st14" d="M391.1,456.1c0,3.4,2.5,6.1,5.7,6.6v-13.1C393.5,450,391.1,452.8,391.1,456.1z"/>
				</g>
				<g>
					<path class="st14" d="M404.4,456.1c0-3.4-2.5-6.1-5.7-6.6v13.1C401.9,462.2,404.4,459.5,404.4,456.1z"/>
				</g>
				<g>
					<path class="st12" d="M397.7,449.5c-0.3,0-0.6,0.1-1,0.1v13.1c0.3,0,0.6,0.1,1,0.1c0.3,0,0.6-0.1,1-0.1v-13.1
						C398.4,449.5,398,449.5,397.7,449.5z"/>
				</g>
				<g>
					<path class="st15" d="M397.7,449.5c-0.3,0-0.6,0.1-1,0.1v13.1c0.3,0,0.6,0.1,1,0.1c0.3,0,0.6-0.1,1-0.1v-13.1
						C398.4,449.5,398,449.5,397.7,449.5z"/>
				</g>
			</g>
			<g>
				<g class="st3">
					<path class="st5" d="M399.9,494.6c-0.3,0-0.7-0.1-1-0.1c-0.4,0-0.7,0.1-1,0.1c-3.5,0.5-6.1,3.5-6.1,7.1s2.7,6.6,6.1,7.1
						c0.3,0,0.7,0.1,1,0.1c0.4,0,0.7-0.1,1-0.1c3.5-0.5,6.1-3.5,6.1-7.1S403.4,495.1,399.9,494.6z"/>
				</g>
				<g>
					<path class="st14" d="M391.3,501.5c0,3.4,2.5,6.1,5.7,6.6V495C393.8,495.4,391.3,498.1,391.3,501.5z"/>
				</g>
				<g>
					<path class="st14" d="M404.6,501.5c0-3.4-2.5-6.1-5.7-6.6V508C402.1,507.6,404.6,504.8,404.6,501.5z"/>
				</g>
				<g>
					<path class="st12" d="M397.9,494.8c-0.3,0-0.6,0.1-1,0.1V508c0.3,0,0.6,0.1,1,0.1c0.3,0,0.6-0.1,1-0.1v-13.1
						C398.6,494.8,398.3,494.8,397.9,494.8z"/>
				</g>
				<g>
					<path class="st15" d="M397.9,494.8c-0.3,0-0.6,0.1-1,0.1V508c0.3,0,0.6,0.1,1,0.1c0.3,0,0.6-0.1,1-0.1v-13.1
						C398.6,494.8,398.3,494.8,397.9,494.8z"/>
				</g>
			</g>
		</g>
	</g>
	<g>
		<g>
			<g>
				<path class="st20" d="M76.8,666.8h18.4v30.6h0.3c2-2.7,4.7-4.8,8.1-6.2c3.4-1.5,6.9-2.5,10.5-3c0.9-0.1,1.8-0.1,2.6-0.2
					c0.8,0,1.7-0.1,2.5-0.1c11.3,0,20.5,3.7,27.7,11.2s10.8,16.1,10.8,25.9c0,1.4-0.1,2.9-0.3,4.5s-0.5,3.1-1,4.6
					c-0.7,3-1.8,6-3.3,8.8c-1.5,2.9-3.2,5.4-5.3,7.6c-3.4,3.8-7.6,6.7-12.6,8.6c-5,2-10.2,3-15.5,3s-10.1-0.9-14.6-2.7
					s-8.2-4.8-11.2-8.9l-0.3-0.1v9.4H76.8V666.8z M101,709.9c-4.6,3.7-6.9,8.5-6.9,14.3c0,6.1,2.1,11.3,6.4,15.4
					c4.2,4.2,9.8,6.2,16.8,6.2c6.6,0,11.9-2,15.9-5.9c4.1-4,6.1-8.9,6.1-14.8c0-5.8-2-10.8-6.1-14.8c-4.1-4.1-9.4-6.1-15.9-6.1
					C111.1,704.3,105.7,706.2,101,709.9z"/>
				<path class="st20" d="M245.9,759.9H229v-9.4h-0.3c-2.3,3-5.4,5.5-9.1,7.4c-3.8,1.9-7.7,3.2-11.8,3.9c-0.8,0.1-1.7,0.2-2.6,0.3
					c-0.9,0.1-1.7,0.1-2.6,0.1c-5.9,0-11.3-1-16.1-3.1s-8.9-4.9-12.2-8.5c-3-3.4-5.4-7.2-7.1-11.6c-1.7-4.4-2.5-9-2.5-13.9
					s0.8-9.4,2.3-13.5s4-8,7.6-11.6c3.9-4.1,8.2-7.2,13-9.1c4.8-2,9.9-3,15.6-3c5.3,0,10.1,1,14.5,3.1s8.2,5.1,11.2,9v-9.9h16.9
					v69.8H245.9z M228.5,724.9c0-5.8-2.1-10.7-6.2-14.7c-4.1-4-9.4-5.9-16-5.9c-6.7-0.1-12.3,1.9-16.6,6s-6.4,9.2-6.4,15.4
					c0,5.7,2.2,10.5,6.7,14.4s9.8,5.8,16,5.7c6.6,0.1,12.1-1.9,16.2-5.9c4.2-4,6.2-9,6.2-15l0,0H228.5z"/>
				<path class="st20" d="M259.7,666.8h18.4v93.1h-18.4V666.8z"/>
				<path class="st20" d="M309.1,732.4c1.4,4.1,3.9,7.4,7.7,9.8c3.7,2.4,7.9,3.7,12.5,3.7c3.5,0,6.8-0.5,9.9-1.6s5.5-2.6,7.3-4.4
					l20.4-0.1c-2.3,6.3-7,11.6-14.1,15.9c-7.1,4.3-14.7,6.5-22.8,6.5c-11.2,0-20.7-3.5-28.6-10.6s-11.8-15.7-11.8-25.9
					c0-10.3,3.9-19.2,11.8-26.6c7.8-7.4,17.5-11.1,29-11.1c11,0,20.3,3.7,27.9,11s11.4,15.8,11.4,25.6c0,1.1-0.1,2.2-0.2,3.2
					s-0.3,2.1-0.5,3.1c-0.1,0.3-0.2,0.6-0.2,0.9c0,0.3-0.1,0.5-0.1,0.8h-59.6V732.4z M351.1,717.6c-1.5-4.1-4.2-7.3-8-9.7
					c-3.9-2.3-8.2-3.5-12.9-3.5c-0.2,0-0.4,0-0.6,0s-0.4,0-0.6,0c-4.4,0.3-8.6,1.6-12.5,3.9c-3.9,2.4-6.5,5.5-7.8,9.3H351.1z"/>
				<path class="st20" d="M381.6,690.1h17v6.4h0.3c2.1-2.6,4.9-4.6,8.4-6s7.1-2.3,10.9-2.5c0.3,0,0.6,0,0.8,0c0.3,0,0.6,0,0.8,0
					c0.4,0,0.7,0,1.1,0s0.7,0,1.1,0.1c3.7,0.3,7.3,1.1,10.7,2.6s6.4,3.5,8.9,5.9c0.4,0.3,0.7,0.7,1,0.9c0.3,0.3,0.6,0.7,0.9,1.1
					c3,3.8,4.7,7.8,5.3,12.1s0.8,8.6,0.8,13.1v36h-18.4V727c0-1,0-2.1,0-3.3s0-2.3-0.1-3.5c-0.2-1.8-0.5-3.6-1-5.4
					c-0.5-1.7-1.2-3.3-2.1-4.7c-1.2-1.7-2.8-3-4.9-4s-4.2-1.6-6.4-1.8c-0.1,0-0.2,0-0.3,0s-0.3,0-0.5,0c-0.3,0-0.6,0-0.9,0
					s-0.7,0-1,0.1c-2.1,0.3-4.2,0.9-6.2,2s-3.6,2.4-4.7,4.1c-0.9,1.3-1.6,2.9-2.1,4.7s-0.7,3.6-0.8,5.5c-0.1,1.1-0.1,2.2-0.1,3.3
					s0,2.1,0,3.1c0,0.3,0,0.5,0,0.7s0,0.4,0,0.6v31.5h-18.4L381.6,690.1L381.6,690.1z"/>
				<path class="st20" d="M542.4,759.9h-16.9v-9.4h-0.3c-2.3,3-5.4,5.5-9.1,7.4c-3.8,1.9-7.7,3.2-11.8,3.9c-0.8,0.1-1.7,0.2-2.6,0.3
					s-1.7,0.1-2.6,0.1c-5.9,0-11.3-1-16.1-3.1c-4.8-2.1-8.9-4.9-12.2-8.5c-3-3.4-5.4-7.2-7.1-11.6c-1.7-4.4-2.5-9-2.5-13.9
					s0.8-9.4,2.3-13.5s4-8,7.6-11.6c3.9-4.1,8.2-7.2,13-9.1c4.8-2,9.9-3,15.6-3c5.3,0,10.1,1,14.5,3.1c4.4,2.1,8.2,5.1,11.2,9v-9.9
					h16.9L542.4,759.9L542.4,759.9z M524.9,724.9c0-5.8-2.1-10.7-6.2-14.7c-4.1-4-9.4-5.9-16-5.9c-6.7-0.1-12.3,1.9-16.6,6
					c-4.3,4.1-6.4,9.2-6.4,15.4c0,5.7,2.2,10.5,6.7,14.4s9.8,5.8,16,5.7c6.6,0.1,12.1-1.9,16.2-5.9
					C522.8,735.9,524.8,730.9,524.9,724.9L524.9,724.9L524.9,724.9z"/>
			</g>
		</g>
		<g>
			<path class="st20" d="M70.8,846v-45h5.7v18.9h20.9V801h5.8v45h-5.8v-21.2H76.5V846H70.8z"/>
			<path class="st20" d="M109.5,846l15.2-45h6.4l15.2,45h-6.1l-4.3-13.7h-16.4l-4.3,13.7H109.5z M123.2,820.9l-2.1,6.9h13.5
				l-2.1-6.9c-0.8-2.5-1.6-5-2.3-7.5s-1.5-5-2.2-7.6h-0.3c-0.7,2.6-1.4,5.2-2.1,7.6C124.8,815.8,124.1,818.3,123.2,820.9z"/>
			<path class="st20" d="M169.1,846.9c-2.8,0-5.4-0.5-7.8-1.6c-2.4-1.1-4.4-2.6-6.2-4.6s-3.1-4.4-4.1-7.3c-1-2.9-1.5-6.2-1.5-9.8
				s0.5-6.9,1.5-9.7c1-2.9,2.4-5.3,4.2-7.3s3.9-3.6,6.3-4.6c2.4-1.1,5.1-1.6,8-1.6c2.7,0,5.2,0.6,7.2,1.7c2.1,1.1,3.8,2.4,5.1,3.9
				l-3.1,3.7c-1.2-1.3-2.5-2.3-4-3.1s-3.2-1.2-5.1-1.2c-2.2,0-4.1,0.4-5.8,1.3c-1.7,0.8-3.2,2.1-4.5,3.6s-2.2,3.5-2.8,5.7
				c-0.7,2.2-1,4.8-1,7.5c0,2.8,0.3,5.4,1,7.6c0.7,2.3,1.6,4.2,2.8,5.8s2.6,2.8,4.4,3.7c1.7,0.9,3.6,1.3,5.8,1.3s4.1-0.4,5.8-1.3
				s3.2-2.1,4.7-3.7l3.2,3.6c-1.8,2.1-3.8,3.7-6,4.8C174.6,846.3,172.1,846.9,169.1,846.9z"/>
			<path class="st20" d="M191.3,846v-45h5.7v22.6h0.2l18.7-22.6h6.4l-14.1,17.2l16.3,27.9h-6.4l-13.4-23.4l-7.8,9.1V846H191.3z"/>
			<path class="st20" d="M249.7,846l-9.5-45h5.9l4.7,24.5c0.4,2.5,0.8,4.9,1.3,7.3c0.5,2.4,0.9,4.8,1.3,7.3h0.3
				c0.5-2.5,1-4.9,1.6-7.3c0.5-2.4,1.1-4.8,1.6-7.2l6.2-24.5h5.2l6.2,24.5c0.5,2.4,1.1,4.8,1.6,7.2s1.1,4.9,1.6,7.3h0.3
				c0.4-2.5,0.8-4.9,1.2-7.3c0.4-2.4,0.8-4.8,1.3-7.2l4.7-24.5h5.5l-9.3,45h-6.9l-6.8-27.1c-0.4-1.7-0.8-3.4-1.1-5.1
				c-0.3-1.7-0.7-3.4-1.1-5.1h-0.3c-0.4,1.7-0.7,3.4-1.1,5.1c-0.4,1.7-0.8,3.4-1.1,5.1l-6.7,27.1L249.7,846L249.7,846z"/>
			<path class="st20" d="M298.7,846v-45h25.9v4.8h-20.2V820h17.1v4.9h-17.1v16.3h20.9v4.9h-26.6V846z"/>
			<path class="st20" d="M334.8,846v-45h25.9v4.8h-20.2V820h17.1v4.9h-17.1v16.3h20.9v4.9h-26.6V846z"/>
			<path class="st20" d="M371,846v-45h5.7v22.6h0.2l18.7-22.6h6.4l-14,17.2l16.3,27.9h-6.4l-13.4-23.4l-7.8,9.1V846H371z"/>
			<g>
				<path class="st20" d="M421.1,846.2v-3.3c3.3-3.3,6.2-6.2,8.7-8.9c2.5-2.6,4.7-5.1,6.4-7.3c1.7-2.3,3-4.3,4-6.2
					c0.9-1.9,1.4-3.7,1.4-5.5c0-2.5-0.7-4.5-2-6.1c-1.4-1.6-3.4-2.4-6.2-2.4c-1.8,0-3.5,0.5-5,1.5c-1.5,1-3,2.3-4.2,3.7l-3.2-3.2
					c1.8-2,3.8-3.6,5.8-4.8c2-1.2,4.5-1.8,7.4-1.8c4,0,7.2,1.2,9.6,3.5c2.3,2.3,3.5,5.4,3.5,9.3c0,2-0.4,4.1-1.3,6.2
					c-0.9,2.1-2.1,4.2-3.7,6.4c-1.6,2.2-3.4,4.5-5.6,6.9c-2.2,2.4-4.5,4.9-7.1,7.6c1.2-0.1,2.4-0.2,3.7-0.3c1.3-0.1,2.5-0.1,3.6-0.1
					h12.6v4.8H421.1z"/>
				<path class="st20" d="M469.2,847c-4.4,0-7.8-2-10.3-5.9c-2.5-3.9-3.7-9.5-3.7-16.9c0-7.3,1.2-12.9,3.7-16.7
					c2.5-3.8,5.9-5.7,10.3-5.7c4.4,0,7.8,1.9,10.2,5.7c2.5,3.8,3.7,9.4,3.7,16.7c0,7.3-1.2,12.9-3.7,16.9
					C477,845.1,473.6,847,469.2,847z M469.2,842.5c1.3,0,2.4-0.4,3.4-1.1s1.9-1.8,2.7-3.3c0.8-1.5,1.3-3.4,1.7-5.7
					c0.4-2.3,0.6-5,0.6-8.2c0-3.2-0.2-5.9-0.6-8.2c-0.4-2.3-1-4.1-1.7-5.6c-0.8-1.4-1.6-2.5-2.7-3.2s-2.2-1-3.4-1
					c-1.3,0-2.4,0.3-3.5,1c-1,0.7-1.9,1.7-2.7,3.2c-0.8,1.4-1.3,3.3-1.7,5.6c-0.4,2.3-0.6,5-0.6,8.2c0,6.4,0.8,11,2.4,13.9
					C464.6,841.1,466.7,842.5,469.2,842.5z"/>
				<path class="st20" d="M488.9,846.2v-3.3c3.3-3.3,6.2-6.2,8.7-8.9c2.5-2.6,4.7-5.1,6.4-7.3c1.7-2.3,3-4.3,4-6.2
					c0.9-1.9,1.4-3.7,1.4-5.5c0-2.5-0.7-4.5-2-6.1c-1.4-1.6-3.4-2.4-6.2-2.4c-1.8,0-3.5,0.5-5,1.5c-1.5,1-3,2.3-4.2,3.7l-3.2-3.2
					c1.8-2,3.8-3.6,5.8-4.8c2-1.2,4.5-1.8,7.4-1.8c4,0,7.2,1.2,9.6,3.5c2.3,2.3,3.5,5.4,3.5,9.3c0,2-0.4,4.1-1.3,6.2
					c-0.9,2.1-2.1,4.2-3.7,6.4c-1.6,2.2-3.4,4.5-5.6,6.9c-2.2,2.4-4.5,4.9-7.1,7.6c1.2-0.1,2.4-0.2,3.7-0.3c1.3-0.1,2.5-0.1,3.6-0.1
					H517v4.8H488.9z"/>
				<path class="st20" d="M525.5,846.2v-4.6h10v-32.1h-7.9v-3.6c2-0.4,3.7-0.8,5.2-1.3c1.5-0.5,2.8-1.1,4-1.9h4.3v38.9h9v4.6H525.5z
					"/>
			</g>
		</g>
	</g>
	<g>
		<path class="st6" d="M608.1,885.2l-159.8,36.6c-2.8,0.6-5.6-1.1-6.2-3.9l-11.9-52c-0.6-2.8,1.1-5.6,3.9-6.2l159.8-36.6
			c2.8-0.6,5.6,1.1,6.2,3.9l11.9,52C612.6,881.8,610.9,884.6,608.1,885.2z"/>
		<g>
			<path class="st21" d="M464.1,900.3l-12.4-26.7l3.7-0.8l6.5,14.6c0.6,1.5,1.2,2.9,1.9,4.4s1.2,2.9,1.9,4.4h0.2
				c0-1.6-0.1-3.2-0.1-4.8s0-3.2-0.1-4.7l0.4-16.2l3.3-0.7l7.4,14.4c0.7,1.4,1.4,2.8,2.1,4.3c0.7,1.4,1.4,2.9,2.1,4.3h0.2
				c-0.1-1.6-0.2-3.2-0.3-4.7c-0.1-1.6-0.2-3.1-0.2-4.7l-0.5-16l3.4-0.8l0.6,29.4l-4.3,1l-8.1-15.9c-0.5-1-1-2-1.4-3
				c-0.5-1-0.9-2-1.4-3h-0.2c0,1.1,0,2.3,0,3.4s0,2.2,0,3.4l-0.3,17.9L464.1,900.3z"/>
			<path class="st21" d="M490.4,867.8c-0.7,0.2-1.3,0.1-1.9-0.2s-0.9-0.8-1.1-1.5s0-1.3,0.3-1.8c0.4-0.5,0.9-0.9,1.6-1
				s1.3-0.1,1.9,0.2s0.9,0.8,1.1,1.5s0,1.3-0.3,1.8C491.6,867.3,491.1,867.7,490.4,867.8z M494.4,893.4l-4.8-20.8l3.5-0.8l4.8,20.8
				L494.4,893.4z"/>
			<path class="st21" d="M504.9,890.9l-4.8-20.8l2.9-0.7l1,2.9h0.1c0.8-1.2,1.6-2.3,2.6-3.2c0.9-0.9,2.1-1.6,3.6-1.9
				c2.2-0.5,4-0.2,5.3,1c1.3,1.1,2.3,3.1,2.9,5.7l3,13.2l-3.5,0.8l-2.9-12.7c-0.5-2-1.1-3.3-1.9-4c-0.8-0.7-1.9-0.9-3.3-0.6
				c-1.1,0.2-2,0.7-2.7,1.5c-0.7,0.7-1.5,1.7-2.3,3l3.5,15.1L504.9,890.9z"/>
			<path class="st21" d="M528.3,885.6l-4.8-20.8l2.9-0.7l1,2.9h0.1c0.8-1.2,1.6-2.3,2.6-3.2c0.9-0.9,2.1-1.6,3.6-1.9
				c2.2-0.5,4-0.2,5.3,1c1.3,1.1,2.3,3.1,2.9,5.7l3,13.2l-3.5,0.8l-2.9-12.7c-0.5-2-1.1-3.3-1.9-4c-0.8-0.7-1.9-0.9-3.3-0.6
				c-1.1,0.2-2,0.7-2.7,1.5c-0.7,0.7-1.5,1.7-2.3,3l3.5,15.1L528.3,885.6z"/>
			<path class="st21" d="M560.3,878.8c-1.4,0.3-2.8,0.4-4.1,0.1c-1.3-0.2-2.5-0.7-3.7-1.4c-1.1-0.7-2.1-1.7-2.9-2.9
				c-0.8-1.2-1.4-2.7-1.8-4.4c-0.4-1.7-0.5-3.3-0.3-4.8s0.7-2.8,1.3-3.9c0.7-1.1,1.5-2.1,2.5-2.8s2.1-1.3,3.3-1.5
				c1.3-0.3,2.5-0.3,3.7-0.1c1.1,0.2,2.2,0.7,3.1,1.4c0.9,0.7,1.7,1.6,2.3,2.7c0.6,1.1,1.1,2.4,1.5,3.9c0.1,0.4,0.2,0.7,0.2,1.1
				c0.1,0.4,0.1,0.7,0.1,0.9l-14,3.2c0.7,2.2,1.8,3.8,3.3,4.8s3.3,1.3,5.3,0.8c1-0.2,1.9-0.6,2.7-1.1s1.5-1.1,2.1-1.7l1.8,2
				c-0.8,0.8-1.7,1.5-2.7,2.2C563,877.9,561.7,878.5,560.3,878.8z M550.9,867.7l11.1-2.6c-0.5-2.1-1.3-3.6-2.5-4.5s-2.5-1.2-4.2-0.8
				c-0.7,0.2-1.4,0.5-2,0.9s-1.1,1-1.5,1.7s-0.7,1.5-0.9,2.3C550.8,865.7,550.8,866.6,550.9,867.7z"/>
			<path class="st21" d="M573,875.3l-4.8-20.8l2.9-0.7l1.2,3.7h0.1c0.4-1.5,1-2.7,1.9-3.7c0.8-1,1.9-1.6,3.1-1.9
				c0.8-0.2,1.6-0.2,2.3-0.1v3.2c-0.4,0-0.7,0-1,0s-0.7,0.1-1.1,0.2c-0.9,0.2-1.7,0.8-2.5,1.7s-1.3,2.4-1.7,4.3l3.1,13.4L573,875.3z
				"/>
			<path class="st21" d="M587.4,863.1l-4.2-16.1l-1-4l3.6-0.8l0.8,4l3.2,16.3L587.4,863.1z M590.7,871.8c-0.7,0.2-1.4,0.1-2-0.3
				s-1-1-1.2-1.7c-0.2-0.8-0.1-1.5,0.3-2.2s0.9-1,1.6-1.2c0.7-0.2,1.3,0,1.9,0.3s1,1,1.2,1.8s0.1,1.5-0.3,2.1
				C591.9,871.3,591.4,871.7,590.7,871.8z"/>
		</g>
	</g>
	<text transform="matrix(1 0 0 1 418.3438 846.2139)" class="st22 st23 st24">2021</text>
</g>
</svg>
