<?xml version="1.0" encoding="utf-8"?>
<!-- Generator: Adobe Illustrator 25.2.0, SVG Export Plug-In . SVG Version: 6.00 Build 0)  -->
<svg version="1.1" id="Layer_1" xmlns="http://www.w3.org/2000/svg" xmlns:xlink="http://www.w3.org/1999/xlink" x="0px" y="0px"
	 viewBox="0 0 240.9 212.6" style="enable-background:new 0 0 240.9 212.6;" xml:space="preserve">
<style type="text/css">
	.st0{display:none;fill:#FF31E7;}
	.st1{fill:#FFFFFF;}
	.st2{fill:#2A506F;}
	.st3{fill:none;}
	.st4{fill:#F9BD0A;}
	.st5{fill:#01A075;}
	.st6{fill:#E98804;}
	.st7{fill:#F3E864;}
	.st8{fill:#48BEEB;}
	.st9{fill:#FBD457;}
	.st10{fill:#29C0EF;}
</style>
<rect x="-1.9" y="-1.8" class="st0" width="243.5" height="214.6"/>
<g>
	<path class="st1" d="M182.2,151.5L131,180.8c-6.8,3.9-15.2,3.9-22.1,0l-51.1-29.3c-7-4-11.3-11.5-11.3-19.6V73.4
		c0-8.1,4.3-15.5,11.2-19.5l51-29.5c6.9-4,15.3-4,22.2,0l51.2,29.5c7,4,11.3,11.5,11.3,19.6v58.5C193.5,140,189.1,147.5,182.2,151.5
		z"/>
	<g>
		<g>
			<polygon class="st2" points="52.2,82.2 52.2,128.6 11.6,128.6 33.7,105.4 11.6,82.2 			"/>
			<path class="st1" d="M52.2,77.7H11.6c-1.8,0-3.5,1.1-4.2,2.7c-0.7,1.7-0.4,3.6,0.9,4.9l19.1,20l-19.1,20
				c-1.3,1.3-1.6,3.2-0.9,4.9c0.7,1.7,2.3,2.7,4.2,2.7h40.6c2.5,0,4.5-2,4.5-4.5V82.2C56.8,79.7,54.7,77.7,52.2,77.7z M33.7,105.4
				L11.6,82.2h40.6v46.3H11.6L33.7,105.4z"/>
		</g>
		<g>
			<polygon class="st2" points="207.2,105.4 229.3,128.6 188.7,128.6 188.7,82.2 229.3,82.2 			"/>
			<path class="st3" d="M229.3,82.2L229.3,82.2"/>
			<path class="st1" d="M213.5,105.4l19.1-20c0.8-0.8,1.3-1.9,1.3-3.2c0-2.5-2-4.5-4.5-4.5h-40.6c-2.5,0-4.5,2-4.5,4.5v46.3
				c0,2.5,2,4.5,4.5,4.5h40.6c1.8,0,3.5-1.1,4.2-2.7c0.7-1.7,0.4-3.6-0.9-4.9L213.5,105.4z M188.7,82.2h40.6l-22.1,23.2l22.1,23.2
				h-40.6V82.2z"/>
		</g>
	</g>
	<g>
		<g>
			<path class="st4" d="M123.2,161.9v16.8c2.6-0.4,5.1-1.2,7.4-2.5l47.7-27.5c6.6-3.8,10.8-11,10.8-18.6V75.3c0-2.4-0.4-4.8-1.3-7.1
				l-14.6,8.4l-39.9,23.1c-8.2,5.8-10,11.3-10.1,17.8V161.9z"/>
			<path class="st5" d="M170.1,70.8l14.5-8.4c-1.8-2.3-3.9-4.3-6.4-5.7l-47.7-27.5c-6.6-3.8-14.8-3.8-21.4,0L61.7,56.7
				c-2.5,1.4-4.7,3.4-6.4,5.8l14.5,8.4l40,23.1c4.7,2.9,7.9,6,10.1,9.6c2.2-3.5,5.4-6.6,10.1-9.5L170.1,70.8z"/>
			<path class="st6" d="M66.7,76.8l-14.6-8.4c-0.8,2.3-1.2,4.6-1.2,6.9v54.8c0,7.7,4.1,14.8,10.7,18.6l47.5,27.4
				c2.3,1.3,4.7,2.1,7.4,2.5v-16.8v-44.4c-0.1-6.4-1.9-11.9-10.2-17.8L66.7,76.8z"/>
			<path class="st7" d="M187.8,68.3l-14.6,8.4c0.5,1.6,0.8,3.3,0.8,5v42.2c0,6.2-3.3,12-8.7,15.1L128.6,160c-1.7,1-3.5,1.6-5.4,1.9
				v16.8c2.6-0.4,5.1-1.2,7.4-2.5l47.7-27.5c6.6-3.8,10.8-11,10.8-18.6V75.3C189.1,72.9,188.6,70.6,187.8,68.3z"/>
			<path class="st8" d="M74.7,66.6l36.6-21.1c5.3-3.1,12-3.1,17.3,0l36.7,21.1c1.9,1.1,3.5,2.5,4.8,4.2l14.5-8.4
				c-1.8-2.3-3.9-4.3-6.4-5.7l-47.7-27.5c-6.6-3.8-14.8-3.8-21.4,0L61.7,56.7c-2.5,1.4-4.7,3.4-6.4,5.8l14.5,8.4
				C71.1,69.2,72.8,67.7,74.7,66.6z"/>
			<path class="st9" d="M111.3,160l-36.6-21.1c-5.4-3.1-8.7-8.9-8.7-15.1V81.6c0-1.7,0.3-3.3,0.7-4.8l-14.6-8.4
				c-0.8,2.3-1.2,4.6-1.2,6.9v54.8c0,7.7,4.1,14.8,10.7,18.6l47.5,27.4c2.3,1.3,4.7,2.1,7.4,2.5v-16.8
				C114.7,161.6,112.9,161,111.3,160z"/>
		</g>
	</g>
	<path class="st1" d="M122.8,19.2l-6.2-10.5c-0.6-1-1.5-1.7-2.6-2c-0.4-0.1-0.7-0.1-1.1-0.1c-0.8,0-1.5,0.2-2.2,0.6l-2.5,1.5
		c-0.3,0.2-0.6,0.5-0.9,0.7c-1.1,0.2-2.1,0.6-3.1,1.2c-1.3,0.8-2.4,1.8-3.3,3c-0.7,0.9-1.2,1.9-1.5,3c-0.6-0.1-1.3-0.2-2-0.2
		c-0.4,0-0.8,0-1.2,0.1c-1.1,0.1-2.1,0.4-3,0.9c-0.2,0.1-0.4,0.2-0.6,0.3l-0.2,0.1l-0.1,0.1l-0.2,0.1c-0.1,0-0.2,0.1-0.2,0.2
		c-0.7,0.5-1.3,1-1.8,1.6c-0.2,0.1-0.5,0.2-0.7,0.3l-2.5,1.5c-1,0.6-1.7,1.6-2,2.6c0,0-0.1,0-0.1,0h0c-2,0-3.9,0.5-5.7,1.6
		c-1.4,0.9-2.6,2-3.6,3.3l-0.2-0.3c-0.6-1-1.5-1.7-2.6-2c-0.4-0.1-0.7-0.1-1.1-0.1c-0.8,0-1.5,0.2-2.2,0.6l-2.7,1.6
		c-2,1.2-2.6,3.7-1.6,5.7l-0.9,0.5c-0.3,0.2-0.6,0.5-0.9,0.7c-1.1,0.2-2.1,0.6-3.1,1.2c-1.3,0.8-2.4,1.8-3.3,3
		c-0.7,0.9-1.2,2-1.6,3.1c-0.7-0.1-1.3-0.2-2-0.2c-1.9,0-3.8,0.5-5.5,1.6c-0.6-0.7-1.4-1.2-2.3-1.5c-0.4-0.1-0.7-0.1-1.1-0.1
		c-0.8,0-1.5,0.2-2.2,0.6l-2.7,1.6c-2,1.2-2.7,3.8-1.5,5.9l8.2,14c0.6,1,1.5,1.7,2.6,2c0.4,0.1,0.7,0.1,1.1,0.1
		c0.8,0,1.5-0.2,2.2-0.6l2.5-1.5c0.3-0.2,0.6-0.4,0.9-0.7c1.1-0.3,2.2-0.7,3.2-1.3c1.3-0.8,2.4-1.7,3.2-2.9c0.7-0.9,1.3-1.9,1.6-3
		c0.6,0.1,1.2,0.2,1.8,0.2c0.5,0,0.9,0,1.4-0.1c1.5-0.2,2.9-0.7,4.3-1.5c0.2-0.1,0.5-0.3,0.7-0.5l0.4-0.3c0.1-0.1,0.1-0.1,0.2-0.2
		c0.5-0.4,0.9-0.8,1.3-1.3c0.4-0.1,0.8-0.3,1.1-0.5l2.5-1.5c0.3-0.2,0.6-0.5,0.9-0.8c0.4-0.1,0.8-0.3,1.1-0.5l2.7-1.6
		C83,48,83.7,47,84,46c0,0,0,0,0,0c2.1,0,4.1-0.6,6-1.7c1.8-1.1,3.2-2.6,4.3-4.4c0.3,0.1,0.7,0.1,1,0.1c0.8,0,1.5-0.2,2.2-0.6
		l2.7-1.6c0.9-0.5,1.5-1.3,1.8-2.2c0.2,0,0.4,0,0.6,0c0.8,0,1.5-0.2,2.2-0.6l2.7-1.6c0.9-0.6,1.6-1.4,1.9-2.4c0.5,0,0.9,0,1.4-0.1
		c1.5-0.2,2.9-0.7,4.3-1.5c0.2-0.1,0.5-0.3,0.7-0.5l0.4-0.3c0.1-0.1,0.1-0.1,0.2-0.2c0.5-0.4,0.9-0.8,1.3-1.3
		c0.4-0.1,0.8-0.3,1.1-0.5l2.5-1.5C123.4,23.8,124,21.2,122.8,19.2z"/>
	<g>
		<g>
			<path class="st2" d="M41.7,48.8l2.7-1.6l2.7,4.6l0,0c0.1-0.6,0.3-1.1,0.7-1.7c0.4-0.5,0.8-1,1.3-1.4c0.1-0.1,0.3-0.2,0.4-0.3
				c0.1-0.1,0.2-0.2,0.4-0.2c1.7-1,3.4-1.3,5.1-0.8c1.7,0.5,3,1.5,3.9,2.9c0.1,0.2,0.2,0.4,0.4,0.7c0.1,0.2,0.2,0.5,0.3,0.8
				c0.2,0.5,0.3,1.1,0.3,1.6c0,0.6,0,1.1-0.1,1.6c-0.2,0.9-0.5,1.7-1.1,2.4c-0.6,0.7-1.3,1.3-2,1.8c-0.8,0.5-1.6,0.8-2.4,0.9
				c-0.8,0.1-1.6,0-2.4-0.3l-0.1,0l0.8,1.4l-2.5,1.5L41.7,48.8z M49.1,53.1c-0.4,1-0.3,1.9,0.2,2.8c0.5,0.9,1.3,1.5,2.3,1.7
				c1,0.2,2,0.1,3-0.6c1-0.6,1.6-1.4,1.8-2.3c0.3-1,0.1-1.9-0.4-2.8c-0.5-0.9-1.3-1.4-2.2-1.7c-1-0.3-1.9-0.1-2.9,0.5
				C50.1,51.4,49.4,52.1,49.1,53.1z"/>
		</g>
		<g>
			<path class="st2" d="M75,47.7l-2.5,1.5l-0.8-1.4l0,0c-0.1,0.7-0.3,1.3-0.7,1.9c-0.4,0.6-0.9,1.2-1.4,1.6
				c-0.1,0.1-0.2,0.2-0.4,0.3c-0.1,0.1-0.2,0.2-0.4,0.2c-0.9,0.5-1.8,0.8-2.7,1c-0.9,0.1-1.8,0.1-2.6-0.2c-0.7-0.2-1.4-0.6-2.1-1.1
				c-0.6-0.5-1.2-1.1-1.6-1.9c-0.4-0.7-0.7-1.5-0.8-2.2c-0.1-0.8-0.1-1.6,0.1-2.4c0.2-1,0.6-1.8,1.1-2.5c0.5-0.7,1.2-1.3,2.1-1.8
				c0.8-0.5,1.6-0.7,2.4-0.8c0.8-0.1,1.7,0,2.5,0.4l-0.9-1.5l2.5-1.5L75,47.7z M69.3,44c-0.5-0.9-1.2-1.4-2.2-1.7
				c-1-0.2-1.9-0.1-2.9,0.5c-1,0.6-1.7,1.4-1.9,2.4c-0.3,1-0.1,2,0.4,2.9c0.5,0.9,1.3,1.4,2.3,1.6c1,0.2,2,0,2.9-0.6
				c1-0.6,1.6-1.4,1.9-2.3C70,45.9,69.9,44.9,69.3,44L69.3,44z"/>
		</g>
		<g>
			<path class="st2" d="M68.9,32.5l2.7-1.6l8.2,14l-2.7,1.6L68.9,32.5z"/>
		</g>
		<g>
			<path class="st2" d="M82,38c0.6,0.5,1.2,0.8,2,0.8c0.8,0,1.5-0.2,2.2-0.6c0.5-0.3,1-0.7,1.3-1.1c0.4-0.4,0.6-0.9,0.7-1.3l3-1.8
				c0.2,1.1,0,2.4-0.7,3.6c-0.7,1.3-1.6,2.3-2.8,3c-1.7,1-3.4,1.3-5.2,0.9c-1.8-0.4-3.1-1.3-4-2.8c-0.9-1.5-1.1-3.2-0.6-5
				c0.5-1.8,1.6-3.2,3.3-4.2c1.6-1,3.3-1.3,5.1-0.8c1.8,0.4,3.1,1.4,4,2.8c0.1,0.2,0.2,0.3,0.3,0.5c0.1,0.2,0.1,0.3,0.2,0.5
				c0,0.1,0,0.1,0,0.2c0,0,0,0.1,0.1,0.1L82,38z M86.9,32c-0.6-0.5-1.3-0.7-2.1-0.7c-0.8,0-1.5,0.2-2.2,0.6c0,0-0.1,0-0.1,0
				c0,0-0.1,0-0.1,0c-0.6,0.4-1.1,1-1.5,1.7c-0.4,0.7-0.5,1.4-0.3,2.1L86.9,32z"/>
		</g>
		<g>
			<path class="st2" d="M89.1,25.2l2.5-1.5l0.6,1l0,0c0.1-0.6,0.3-1.1,0.7-1.7c0.4-0.5,0.9-1,1.4-1.3c0,0,0.1,0,0.1-0.1
				c0,0,0.1,0,0.1-0.1c0.1,0,0.1-0.1,0.2-0.1c0.1,0,0.1-0.1,0.2-0.1c0.6-0.3,1.2-0.5,1.8-0.6c0.6-0.1,1.3-0.1,1.9,0.1
				c0.1,0,0.2,0,0.2,0c0.1,0,0.2,0,0.2,0.1c0.8,0.3,1.4,0.8,1.8,1.3c0.5,0.6,0.9,1.2,1.3,1.9l3.2,5.4l-2.7,1.6l-2.9-4.9
				c-0.1-0.2-0.2-0.3-0.3-0.5c-0.1-0.2-0.2-0.3-0.3-0.5c-0.2-0.3-0.4-0.5-0.6-0.7c-0.2-0.2-0.5-0.4-0.7-0.5
				c-0.3-0.1-0.7-0.2-1.1-0.2c-0.4,0-0.8,0.1-1.1,0.3c0,0,0,0-0.1,0c0,0,0,0-0.1,0c0,0-0.1,0.1-0.1,0.1c0,0-0.1,0.1-0.1,0.1
				c-0.3,0.2-0.5,0.5-0.8,0.8c-0.2,0.3-0.3,0.7-0.3,1c0,0.3,0,0.6,0.1,0.9c0.1,0.3,0.2,0.6,0.4,0.9c0.1,0.2,0.2,0.3,0.3,0.5
				c0.1,0.2,0.2,0.3,0.3,0.5c0,0,0,0.1,0.1,0.1c0,0,0,0.1,0.1,0.1l2.8,4.7l-2.7,1.6L89.1,25.2z"/>
		</g>
		<g>
			<path class="st2" d="M119.1,21.4l-2.5,1.5l-0.8-1.4l0,0c-0.1,0.7-0.3,1.3-0.7,1.9c-0.4,0.6-0.9,1.2-1.4,1.6
				c-0.1,0.1-0.2,0.2-0.4,0.3c-0.1,0.1-0.2,0.2-0.4,0.2c-0.9,0.5-1.8,0.8-2.7,1c-0.9,0.1-1.8,0.1-2.6-0.2c-0.7-0.2-1.4-0.6-2.1-1.1
				c-0.6-0.5-1.2-1.1-1.6-1.9c-0.4-0.7-0.7-1.5-0.8-2.2c-0.1-0.8-0.1-1.6,0.1-2.4c0.2-1,0.6-1.8,1.1-2.5c0.5-0.7,1.2-1.3,2.1-1.8
				c0.8-0.5,1.6-0.7,2.4-0.8c0.8-0.1,1.7,0,2.5,0.4l-0.9-1.5l2.5-1.5L119.1,21.4z M113.5,17.7c-0.5-0.9-1.2-1.4-2.2-1.7
				c-1-0.2-1.9-0.1-2.9,0.5c-1,0.6-1.7,1.4-1.9,2.4c-0.3,1-0.1,2,0.4,2.9c0.5,0.9,1.3,1.4,2.3,1.6c1,0.2,2,0,2.9-0.6
				c1-0.6,1.6-1.4,1.9-2.3C114.1,19.5,114,18.6,113.5,17.7L113.5,17.7z"/>
		</g>
	</g>
	<path class="st1" d="M205.5,143.1l-1.7-3c0.2-0.3,0.5-0.6,0.6-0.9c0.7-1.3,0.9-2.9,0.4-4.3l-0.7-2.1c-0.7-2.2-2.8-3.7-5-3.7
		c-0.1,0-0.3,0-0.4,0c-1.1,0.1-2.3,0.5-3.4,1.1c-0.7,0.4-1.3,0.9-1.8,1.4c-0.3,0.1-0.6,0.2-0.9,0.4l-1.8,1c-0.9,0.5-1.6,1.3-2.1,2.2
		c-0.2,0-0.5,0-0.7,0c-1.3,0.2-2.6,0.6-3.8,1.3c-0.6,0.4-1.2,0.8-1.8,1.3c-0.7-0.9-1.7-1.6-2.8-1.9c-0.5-0.1-0.9-0.2-1.4-0.2
		c-0.9,0-1.8,0.2-2.6,0.7l-2.1,1.2c-2.4,1.4-3.3,4.3-2.2,6.7c-0.3,0.4-0.7,0.7-0.9,1.2c-0.3,0.4-0.5,0.8-0.7,1.3c-0.3,0-0.6,0-0.8,0
		c-1.6,0-3.2,0.5-4.7,1.3c-1.3,0.7-2.4,1.7-3.3,2.7c-0.2,0.3-0.5,0.6-0.7,0.9c-0.3,0-0.5,0-0.8,0c-1.4,0.1-2.7,0.6-4,1.3
		c-1.7,1-2.8,2.2-3.5,3.3c-0.2,0-0.3,0-0.5,0c-1.4,0.1-2.7,0.6-4,1.3c-2,1.1-3.1,2.5-3.8,3.8c-0.1,0-0.2,0-0.3,0
		c-1.6,0-3.2,0.5-4.7,1.3c-1.3,0.7-2.4,1.7-3.3,2.7c-0.3,0.4-0.7,0.8-0.9,1.3c-0.1,0-0.2,0-0.3,0c-0.2,0-0.4,0-0.6,0
		c-0.6,0-1.2,0.1-1.9,0.3c-0.7-0.9-1.7-1.6-2.8-1.9c-0.5-0.1-0.9-0.2-1.4-0.2c-0.9,0-1.8,0.2-2.6,0.7l-2.1,1.2
		c-2.3,1.3-3.2,4.1-2.3,6.4c-0.3,0.1-0.6,0.3-1,0.5c-0.9,0.5-1.7,1.2-2.4,2c-1,0.2-2.1,0.5-3.1,1.1c-0.7,0.4-1.4,0.9-2,1.5
		c-0.3,0.1-0.6,0.2-0.9,0.4l-1.8,1c-0.3,0.2,0.4,0.1,0.1,0.4c-1-0.9-2.2-1.3-3.5-1.3c-0.9,0-2.3,0.4-3.2,0.8l-3,1.6
		c-2,1.1-3,3.4-2.6,5.7l3,14.5c0.3,1.7,1.5,3.1,3,3.8c0.7,0.3,1.4,0.5,2.2,0.5c0.9,0,1.8-0.2,2.6-0.7l2.2-1.3
		c1.1-0.6,1.9-1.7,2.4-2.8c0.3,0.1,0.7,0.1,1,0.1c0.9,0,1.8-0.2,2.6-0.7l2.3-1.3c0.2-0.1,0.4-0.3,0.6-0.4c0.2-0.1,0.5-0.2,0.7-0.3
		l2.1-1.2c0.6-0.3,1.1-0.8,1.5-1.3c0.6-0.1,1.3-0.3,1.8-0.6l2.1-1.2c0.6-0.3,1.1-0.8,1.5-1.3c0.6-0.1,1.3-0.3,1.8-0.6l2.2-1.2
		c0.4-0.3,0.8-0.6,1.2-0.9c0.5-0.1,1-0.3,1.4-0.6l1.7-1c0.2-0.1,0.5-0.3,0.7-0.5c0.8-0.2,1.5-0.5,2.2-0.9c1.2-0.7,2.2-1.6,3-2.8
		c0.2-0.2,0.3-0.5,0.4-0.7c0.1,0,0.2,0,0.3,0c1.5,0,2.9-0.4,4.3-1.2c0.8-0.4,1.4-1,2-1.6c0.3-0.1,0.6-0.2,0.9-0.4l1.8-1
		c0.6-0.4,1.2-0.9,1.6-1.4c1.3-0.2,2.5-0.7,3.6-1.3c1.1-0.6,2-1.3,2.7-2.2c0.3-0.3,0.5-0.7,0.8-1c0.2,0,0.4,0,0.6-0.1
		c1.4-0.2,2.7-0.7,4-1.4c1.1-0.6,2-1.3,2.7-2.2c0.3-0.3,0.6-0.7,0.8-1.1c1.4,0,2.8-0.4,4.1-1.2c0.8-0.4,1.4-1,2-1.6
		c0.3-0.1,0.6-0.2,0.9-0.4l1.8-1c0.8-0.5,1.4-1.1,1.9-1.8c1.4-0.1,2.7-0.5,4-1.2c0.7-0.4,1.3-0.9,1.9-1.5c0.3-0.1,0.5-0.2,0.8-0.4
		l1.8-1c0.9-0.5,1.6-1.3,2.1-2.1c0.3,0,0.5,0,0.8-0.1c1.3-0.2,2.6-0.6,3.8-1.3c1.2-0.7,2.2-1.5,3-2.6c0.2-0.2,0.3-0.4,0.5-0.7
		c0.1,0,0.2,0,0.2,0c0.9,0,1.8-0.2,2.6-0.7l2.1-1.2C206,148.8,206.9,145.6,205.5,143.1z"/>
	<g>
		<path class="st10" d="M104.8,184.5c-0.1,0-0.1-0.1-0.2-0.1c0,0-0.1,0-0.1,0l-2.5,1.5c-0.1,0.1-0.2,0.2-0.1,0.3l3,14.5
			c0,0.1,0.1,0.2,0.2,0.2c0,0,0.1,0,0.1,0c0,0,0.1,0,0.1,0l2.2-1.3c0.1-0.1,0.2-0.2,0.1-0.3l-0.9-3.7l3.7-2.1l2.7,2.6
			c0.1,0.1,0.1,0.1,0.2,0.1c0,0,0.1,0,0.1,0l2.3-1.3c0.1,0,0.1-0.1,0.1-0.2c0-0.1,0-0.2-0.1-0.2L104.8,184.5z M108.5,191.7l-2.5,1.4
			l-0.3-1.4c-0.2-0.8-0.4-1.5-0.6-2.3c-0.1-0.5-0.3-1-0.4-1.5c0.3,0.4,0.7,0.7,1,1.1c0.6,0.6,1.1,1.2,1.7,1.7L108.5,191.7z"/>
		<path class="st10" d="M126.9,180.5c-0.7-1.2-1.5-2-2.3-2.4c-0.4-0.2-0.7-0.2-1.1-0.2c-0.6,0-1.2,0.2-1.8,0.5
			c-0.6,0.4-1.1,0.9-1.4,1.5c-0.2,0.5-0.5,1-0.6,1.6c-0.4-0.3-0.9-0.5-1.4-0.5c-0.1,0-0.2,0-0.2,0c-0.6,0-1.1,0.2-1.8,0.5
			c-0.6,0.4-1.1,0.8-1.4,1.4c-0.2,0.4-0.4,0.9-0.6,1.4l-0.6-0.8c-0.1-0.1-0.1-0.1-0.2-0.1c0,0-0.1,0-0.1,0l-1.8,1
			c-0.1,0.1-0.2,0.2-0.1,0.4l5.2,9.2c0,0.1,0.1,0.1,0.2,0.1c0,0,0,0,0.1,0c0,0,0.1,0,0.1,0l2.1-1.2c0.1-0.1,0.2-0.2,0.1-0.4
			l-3.6-6.3c0.3-1,0.6-1.7,1.1-2c0.2-0.1,0.5-0.2,0.7-0.2c0.1,0,0.3,0,0.4,0.1c0.3,0.2,0.7,0.6,1.1,1.3l3.1,5.5
			c0,0.1,0.1,0.1,0.2,0.1c0,0,0,0,0.1,0c0,0,0.1,0,0.1,0l2.1-1.2c0.1-0.1,0.2-0.2,0.1-0.4l-3.6-6.3c0.3-1,0.6-1.7,1.1-2
			c0.2-0.1,0.5-0.2,0.7-0.2c0.1,0,0.3,0,0.4,0.1c0.3,0.2,0.7,0.6,1.1,1.3l3.1,5.5c0,0.1,0.1,0.1,0.2,0.1c0,0,0,0,0.1,0
			c0,0,0.1,0,0.1,0l2.2-1.2c0.1-0.1,0.2-0.2,0.1-0.4L126.9,180.5z"/>
		<path class="st10" d="M138.4,175.2c-0.4-0.7-0.9-1.4-1.4-1.9c-0.5-0.5-1.1-0.9-1.6-1.1c-0.5-0.2-1-0.3-1.5-0.3c-0.1,0-0.2,0-0.3,0
			c-0.6,0-1.2,0.2-1.8,0.6c-0.5,0.3-0.9,0.7-1.3,1.2c-0.2,0.3-0.4,0.7-0.6,1l-0.5-1l-1.9-3.4c0-0.1-0.1-0.1-0.2-0.1c0,0,0,0-0.1,0
			c0,0-0.1,0-0.1,0l-2.1,1.2c-0.1,0.1-0.2,0.2-0.1,0.4l7.5,13.2c0,0.1,0.1,0.1,0.2,0.1c0,0,0,0,0.1,0c0,0,0.1,0,0.1,0l1.7-1
			c0.1-0.1,0.2-0.2,0.1-0.3l-0.2-0.6c0.4,0.1,0.7,0.1,1,0.1c0.1,0,0.2,0,0.3,0c0.6,0,1.1-0.2,1.6-0.5c0.5-0.3,1-0.7,1.4-1.3
			c0.4-0.5,0.6-1.1,0.7-1.8c0.1-0.7,0.1-1.4,0-2.2C139.2,176.8,138.9,176,138.4,175.2z M136.4,179.4c-0.1,0.7-0.4,1.2-0.9,1.5
			c-0.2,0.1-0.5,0.2-0.9,0.3c-0.1,0-0.3,0-0.4,0c-0.2,0-0.4,0-0.6-0.1l-2.3-4.1c0.3-0.9,0.7-1.6,1.3-1.9c0.3-0.2,0.7-0.3,0.9-0.3
			c0.2,0,0.5,0.1,0.7,0.2c0.6,0.3,1.1,0.9,1.6,1.8C136.3,177.8,136.5,178.7,136.4,179.4z"/>
		<path class="st10" d="M147,169.4c-0.8-1.3-1.7-2.2-2.7-2.6c-0.4-0.1-0.7-0.2-1.1-0.2c-0.7,0-1.5,0.2-2.2,0.7
			c-0.8,0.4-1.4,1-1.9,1.6c-0.5,0.6-0.9,1.2-1.3,1.9c-0.1,0.1,0,0.3,0.1,0.4l1.6,1c0,0,0.1,0,0.1,0c0,0,0,0,0.1,0
			c0.1,0,0.1-0.1,0.2-0.1c0.3-0.5,0.6-0.9,0.9-1.3c0.3-0.4,0.7-0.7,1.1-0.9c0.3-0.2,0.5-0.2,0.7-0.3c0,0,0.1,0,0.1,0
			c0.2,0,0.3,0,0.5,0.1c0.2,0.1,0.4,0.2,0.5,0.4c0.1,0.1,0.2,0.2,0.3,0.4c-0.8,0.6-1.5,1.2-2,1.7c-0.6,0.6-1,1.2-1.3,1.7
			c-0.3,0.6-0.5,1.1-0.4,1.7c0,0.5,0.2,1.1,0.5,1.6c0.5,0.9,1.2,1.4,2,1.7c0.3,0.1,0.5,0.1,0.8,0.1c0.6,0,1.2-0.2,1.8-0.5
			c0.6-0.3,1.1-0.8,1.4-1.3c0.3-0.4,0.5-0.9,0.7-1.3l0.5,0.6c0.1,0.1,0.1,0.1,0.2,0.1c0,0,0.1,0,0.1,0l1.8-1
			c0.1-0.1,0.2-0.2,0.1-0.4L147,169.4z M143.9,175.9c0,0-0.1,0-0.1,0c-0.3,0-0.5-0.2-0.7-0.5c-0.1-0.2-0.2-0.4-0.2-0.6
			c0-0.2,0.1-0.5,0.2-0.7c0.2-0.3,0.4-0.6,0.7-1c0.3-0.3,0.7-0.6,1.1-1l0.9,1.7c-0.1,0.5-0.3,0.8-0.5,1.1c-0.2,0.3-0.4,0.6-0.8,0.7
			C144.4,175.8,144.2,175.9,143.9,175.9z"/>
		<path class="st10" d="M156.3,166.2c-0.4-0.2-0.7-0.4-1.2-0.5c-0.3,0-0.5-0.1-0.8-0.1c-0.1,0-0.3,0-0.4,0c-0.4,0-0.8,0.1-1.2,0.2
			c-0.3,0.1-0.6,0.1-0.9,0.1c-0.3,0-0.5,0.1-0.7,0.1c-0.2,0-0.4,0-0.5-0.1c-0.1,0-0.2-0.1-0.3-0.3c-0.1-0.2-0.1-0.4-0.1-0.7
			c0.1-0.2,0.3-0.5,0.7-0.7c0.3-0.2,0.7-0.3,1-0.3c0.2,0,0.4,0,0.6,0c0.2,0,0.5,0,0.7,0c0,0,0,0,0,0c0.1,0,0.3-0.1,0.3-0.2l0.2-1.9
			c0-0.2-0.1-0.3-0.2-0.3c-0.3,0-0.6-0.1-0.9-0.1c-0.3,0-0.6,0-0.9,0c-0.7,0.1-1.4,0.3-2,0.7c-1.1,0.6-1.8,1.4-2.1,2.3
			c-0.3,0.9-0.2,1.9,0.3,2.7c0.2,0.4,0.5,0.8,0.9,1c0.3,0.2,0.7,0.4,1.1,0.4c0.3,0.1,0.6,0.1,0.9,0.1c0.1,0,0.2,0,0.3,0
			c0.4,0,0.8-0.1,1.2-0.1c0.3,0,0.6-0.1,0.9-0.1c0.2,0,0.5-0.1,0.7-0.1l0.1,0c0.2,0,0.4,0,0.6,0.1c0.1,0.1,0.2,0.1,0.3,0.3
			c0.1,0.3,0.2,0.5,0.1,0.8c-0.1,0.3-0.4,0.5-0.8,0.8c-0.4,0.2-0.9,0.4-1.4,0.4c-0.2,0-0.3,0-0.5,0c-0.3,0-0.7,0-1-0.1c0,0,0,0,0,0
			c-0.1,0-0.1,0-0.2,0.1c-0.1,0-0.1,0.1-0.1,0.2l-0.2,2c0,0.1,0.1,0.3,0.2,0.3c0.3,0.1,0.7,0.1,1,0.1c0.4,0,0.8,0,1.1-0.1
			c0.8-0.1,1.5-0.4,2.2-0.7c0.6-0.3,1.1-0.7,1.5-1.2c0.4-0.4,0.7-0.9,0.8-1.3c0.2-0.5,0.2-0.9,0.2-1.4c0-0.5-0.2-0.9-0.4-1.4
			C157,166.8,156.7,166.4,156.3,166.2z"/>
		<path class="st10" d="M164.3,161.6c-0.4-0.2-0.7-0.4-1.2-0.5c-0.3,0-0.5-0.1-0.8-0.1c-0.1,0-0.3,0-0.4,0c-0.4,0-0.8,0.1-1.2,0.2
			c-0.3,0.1-0.6,0.1-0.9,0.1c-0.3,0-0.5,0.1-0.7,0.1c-0.2,0-0.4,0-0.5-0.1c-0.1,0-0.2-0.1-0.3-0.3c-0.1-0.2-0.1-0.4-0.1-0.7
			c0.1-0.2,0.3-0.5,0.7-0.7c0.3-0.2,0.7-0.3,1-0.3c0.2,0,0.4,0,0.6,0c0.2,0,0.5,0,0.7,0c0,0,0,0,0,0c0.1,0,0.3-0.1,0.3-0.2l0.2-1.9
			c0-0.2-0.1-0.3-0.2-0.3c-0.3,0-0.6-0.1-0.9-0.1c-0.3,0-0.6,0-0.9,0c-0.7,0.1-1.3,0.3-2,0.7c-1.1,0.6-1.8,1.4-2.1,2.3
			c-0.3,0.9-0.2,1.9,0.3,2.7c0.2,0.4,0.5,0.8,0.9,1c0.3,0.2,0.7,0.4,1.1,0.4c0.3,0.1,0.6,0.1,0.9,0.1c0.1,0,0.2,0,0.3,0
			c0.4,0,0.8-0.1,1.2-0.1c0.3,0,0.6-0.1,0.9-0.1c0.2,0,0.5-0.1,0.7-0.1l0.1,0c0.2,0,0.4,0,0.6,0.1c0.1,0.1,0.2,0.1,0.3,0.3
			c0.1,0.3,0.2,0.5,0.1,0.8c-0.1,0.3-0.4,0.5-0.8,0.8c-0.4,0.2-0.9,0.4-1.4,0.4c-0.2,0-0.3,0-0.5,0c-0.3,0-0.7,0-1-0.1c0,0,0,0,0,0
			c-0.1,0-0.1,0-0.2,0.1c-0.1,0-0.1,0.1-0.1,0.2l-0.2,2c0,0.1,0.1,0.3,0.2,0.3c0.3,0.1,0.7,0.1,1,0.1c0.4,0,0.8,0,1.1-0.1
			c0.8-0.1,1.5-0.4,2.2-0.7c0.6-0.3,1.1-0.7,1.5-1.2c0.4-0.4,0.7-0.9,0.8-1.3c0.2-0.5,0.2-0.9,0.2-1.4c0-0.5-0.2-0.9-0.4-1.4
			C165,162.2,164.7,161.8,164.3,161.6z"/>
		<path class="st10" d="M172.6,154.7c-0.8-1.3-1.7-2.2-2.7-2.6c-0.4-0.1-0.7-0.2-1.1-0.2c-0.7,0-1.5,0.2-2.2,0.7
			c-0.8,0.4-1.4,1-1.9,1.6c-0.5,0.6-0.9,1.2-1.3,1.9c-0.1,0.1,0,0.3,0.1,0.4l1.6,1c0,0,0.1,0,0.1,0c0,0,0,0,0.1,0
			c0.1,0,0.1-0.1,0.2-0.1c0.3-0.5,0.6-0.9,0.9-1.3c0.3-0.4,0.7-0.7,1.1-0.9c0.3-0.2,0.5-0.2,0.7-0.3c0,0,0.1,0,0.1,0
			c0.2,0,0.3,0,0.5,0.1c0.2,0.1,0.4,0.2,0.5,0.4c0.1,0.1,0.2,0.2,0.3,0.4c-0.8,0.6-1.5,1.2-2,1.7c-0.6,0.6-1,1.2-1.3,1.7
			c-0.3,0.6-0.5,1.1-0.4,1.7c0,0.5,0.2,1.1,0.5,1.6c0.5,0.9,1.2,1.4,2,1.7c0.3,0.1,0.5,0.1,0.8,0.1c0.6,0,1.2-0.2,1.8-0.5
			c0.6-0.3,1.1-0.8,1.4-1.3c0.3-0.4,0.5-0.9,0.7-1.3l0.5,0.6c0.1,0.1,0.1,0.1,0.2,0.1c0,0,0.1,0,0.1,0l1.8-1
			c0.1-0.1,0.2-0.2,0.1-0.4L172.6,154.7z M169.6,161.2c0,0-0.1,0-0.1,0c-0.3,0-0.5-0.2-0.7-0.5c-0.1-0.2-0.2-0.4-0.2-0.6
			c0-0.2,0.1-0.5,0.2-0.7c0.2-0.3,0.4-0.6,0.7-1c0.3-0.3,0.7-0.6,1.1-1l0.9,1.7c-0.1,0.5-0.3,0.8-0.5,1.1c-0.2,0.3-0.4,0.6-0.8,0.7
			C170.1,161.1,169.8,161.2,169.6,161.2z"/>
		<path class="st10" d="M178.5,141c0-0.1-0.1-0.1-0.2-0.1c0,0,0,0-0.1,0c0,0-0.1,0-0.1,0l-2.1,1.2c-0.1,0.1-0.2,0.2-0.1,0.4l1.9,3.3
			l0.6,0.9c-0.2,0-0.4,0-0.7,0c-0.1,0-0.2,0-0.3,0c-0.5,0-1,0.2-1.6,0.5c-0.5,0.3-1,0.7-1.3,1.3c-0.4,0.5-0.6,1.1-0.7,1.8
			c-0.1,0.7-0.1,1.4,0,2.1c0.1,0.8,0.4,1.5,0.9,2.3c0.9,1.6,2,2.6,3.2,3.1c0.5,0.2,1,0.3,1.5,0.3c0.7,0,1.5-0.2,2.2-0.6
			c0.5-0.3,1-0.7,1.3-1.3c0.2-0.4,0.4-0.8,0.6-1.2l0.4,0.5c0.1,0.1,0.1,0.1,0.2,0.1c0,0,0.1,0,0.1,0l1.8-1c0.1-0.1,0.2-0.2,0.1-0.4
			L178.5,141z M181.9,153c-0.2,0.9-0.6,1.5-1.2,1.8c-0.3,0.2-0.6,0.3-1,0.3c-0.3,0-0.5-0.1-0.8-0.2c-0.6-0.3-1.2-0.9-1.7-1.9
			c-0.5-0.9-0.7-1.7-0.6-2.4c0.1-0.7,0.4-1.1,0.9-1.4c0.3-0.2,0.6-0.3,0.9-0.3c0.1,0,0.3,0,0.4,0c0.2,0,0.4,0,0.7,0.1L181.9,153z"/>
		<path class="st10" d="M194.2,143.4c-0.4-0.8-1-1.4-1.6-1.9c-0.6-0.5-1.2-0.8-1.9-1c-0.5-0.1-0.9-0.2-1.4-0.2c-0.2,0-0.4,0-0.6,0
			c-0.7,0.1-1.3,0.3-1.9,0.7c-0.6,0.3-1.1,0.8-1.5,1.3c-0.4,0.5-0.7,1.2-0.9,1.8c-0.2,0.7-0.2,1.4-0.1,2.2c0.1,0.8,0.4,1.6,0.8,2.3
			c0.4,0.8,1,1.4,1.6,1.9c0.6,0.5,1.2,0.8,1.9,1c0.5,0.1,0.9,0.2,1.4,0.2c0.2,0,0.4,0,0.7,0c0.7-0.1,1.3-0.3,1.9-0.7
			c0.6-0.3,1.1-0.8,1.5-1.3c0.4-0.5,0.7-1.2,0.9-1.8c0.2-0.7,0.2-1.4,0.1-2.2C195,145,194.7,144.2,194.2,143.4z M192.2,147.3
			c-0.1,0.7-0.4,1.2-1,1.5c-0.3,0.2-0.6,0.3-0.9,0.3c-0.3,0-0.6-0.1-0.8-0.2c-0.6-0.3-1.2-0.9-1.7-1.8c-0.5-0.9-0.7-1.7-0.7-2.4
			c0.1-0.7,0.4-1.2,1-1.5c0.3-0.2,0.6-0.3,0.9-0.3c0.3,0,0.6,0.1,0.8,0.2c0.6,0.3,1.2,0.9,1.7,1.8
			C192,145.8,192.3,146.6,192.2,147.3z"/>
		<path class="st10" d="M201.1,145.5l-3.2-5.6c-0.1-0.8,0-1.4,0.2-1.8c0.2-0.5,0.5-0.8,0.8-0.9c0.2-0.1,0.3-0.2,0.5-0.2
			c0.1,0,0.3-0.1,0.5-0.1c0.1,0,0.1-0.1,0.2-0.1c0-0.1,0-0.2,0-0.2l-0.7-2.1c0-0.1-0.1-0.2-0.3-0.2c0,0,0,0,0,0
			c-0.4,0-0.8,0.2-1.3,0.4c-0.5,0.3-1,0.8-1.3,1.4c-0.2,0.4-0.3,0.9-0.4,1.5l-0.7-0.9c-0.1-0.1-0.1-0.1-0.2-0.1c0,0-0.1,0-0.1,0
			l-1.8,1c-0.1,0.1-0.2,0.2-0.1,0.4l5.2,9.2c0,0.1,0.1,0.1,0.2,0.1c0,0,0,0,0.1,0c0,0,0.1,0,0.1,0l2.1-1.2
			C201.1,145.9,201.2,145.7,201.1,145.5z"/>
	</g>
</g>
</svg>
