<?xml version="1.0" encoding="utf-8"?>
<!-- Generator: Adobe Illustrator 24.2.1, SVG Export Plug-In . SVG Version: 6.00 Build 0)  -->
<svg version="1.1" id="Layer_1" xmlns="http://www.w3.org/2000/svg" xmlns:xlink="http://www.w3.org/1999/xlink" x="0px" y="0px"
	 viewBox="0 0 17.67 16.02" style="enable-background:new 0 0 17.67 16.02;" xml:space="preserve">
<style type="text/css">
	.st0{fill:#D98142;}
	.st1{fill:#282828;}
	.st2{fill:#285071;}
	.st3{fill:#89CCD3;}
	.st4{fill:#C0C5DC;}
	.st5{fill:#316184;}
	.st6{fill:#51769A;}
	.st7{fill:#CFECFC;}
	.st8{fill:#FFED6B;}
	.st9{fill:#9DA4BF;}
	.st10{fill:#C5E6F9;}
	.st11{fill:#7DB7CC;}
	.st12{fill:#F24D4D;}
	.st13{fill:#F0B46A;}
	.st14{fill:#FFE399;}
	.st15{fill:#D27742;}
	.st16{display:none;fill:#D98142;}
	.st17{fill:#55D143;}
</style>
<g>
	<path class="st0" d="M-159.4-253.86c-0.89,0.01-1.6,0.36-1.6,0.78l0.62,47.33l-20.88,0.27l-0.62-47.33
		c-0.01-0.42-0.73-0.75-1.62-0.74c-0.89,0.01-1.6,0.36-1.6,0.78l0.68,51.96c0,0.15,0.1,0.29,0.27,0.41l11.89,8.24l0.8,60.62
		c0.01,0.42,0.73,0.75,1.62,0.74c0.89-0.01,1.6-0.36,1.6-0.78l-0.8-60.62l11.67-8.55c0.17-0.13,0.26-0.27,0.26-0.42l-0.68-51.96
		C-157.79-253.55-158.52-253.88-159.4-253.86z M-170.66-193.77l-10.54-7.3l-0.03-2.15l20.88-0.27l0.03,2.15L-170.66-193.77z"/>
	<path class="st1" d="M-154.97-251.32l-32.89,0.43c-0.97,0.01-1.77-0.77-1.78-1.73l0-0.17c-0.01-0.97,0.77-1.77,1.73-1.78
		l32.89-0.43c0.97-0.01,1.77,0.77,1.78,1.73l0,0.17C-153.22-252.14-154-251.34-154.97-251.32z"/>
	<path class="st1" d="M-167.2-127.81l-5.19,0.07c-0.39,0.01-0.71-0.31-0.71-0.7l-0.03-2.48c-0.01-0.39,0.31-0.71,0.7-0.71l5.19-0.07
		c0.39-0.01,0.71,0.31,0.71,0.7l0.03,2.48C-166.5-128.13-166.81-127.81-167.2-127.81z"/>
</g>
<g>
	<g>
		<path class="st2" d="M-170.67-202.02c-1.71,0-3.12-1.35-3.19-3.07c-3.75-94.56,24.91-101.78,26.13-102.53
			c1.51-0.92,3.47-0.45,4.4,1.06c0.91,1.5,0.45,3.45-1.03,4.37c-0.44,0.29-26.66,7.19-23.11,96.84c0.07,1.76-1.3,3.25-3.06,3.32
			C-170.58-202.02-170.63-202.02-170.67-202.02z"/>
	</g>
	<g>
		<path class="st2" d="M-179-205.31c0.18,4.64,4.08,8.26,8.71,8.09c4.64-0.17,8.27-4.08,8.09-8.72c-0.17-4.64-4.07-8.26-8.72-8.09
			C-175.55-213.86-179.17-209.96-179-205.31z"/>
	</g>
</g>
<g>
	<g>
		<path class="st2" d="M-46.37-202.02c-0.04,0-0.08,0-0.13,0c-1.77-0.07-3.14-1.56-3.07-3.32c3.6-90.84-22.81-96.66-23.08-96.82
			c-1.51-0.93-1.98-2.89-1.06-4.4c0.92-1.5,2.89-1.98,4.39-1.06c1.22,0.75,29.88,7.97,26.13,102.53
			C-43.24-203.36-44.66-202.02-46.37-202.02z"/>
	</g>
	<g>
		<path class="st2" d="M-54.84-205.94c-0.18,4.64,3.45,8.54,8.09,8.72c4.65,0.17,8.55-3.45,8.72-8.09c0.17-4.64-3.45-8.54-8.09-8.72
			C-50.77-214.2-54.67-210.58-54.84-205.94z"/>
	</g>
</g>
<g>
	<path class="st2" d="M-128.69-131.24h-11.54c-2.2,0-3.99-1.79-3.99-3.99c0-2.21,1.79-4,3.99-4h7.54v-72.56c0-2.21,1.79-4,4-4
		c2.2,0,3.99,1.79,3.99,4v76.56C-124.7-133.03-126.49-131.24-128.69-131.24z"/>
</g>
<g>
	<path class="st2" d="M-76.54-131.24h-11.54c-2.2,0-3.99-1.79-3.99-3.99v-76.56c0-2.21,1.79-4,3.99-4c2.21,0,4,1.79,4,4v72.56h7.54
		c2.2,0,3.99,1.79,3.99,4C-72.54-133.03-74.33-131.24-76.54-131.24z"/>
</g>
<path class="st3" d="M-116.47-417.29h-5.27h-5.44h-0.63c-0.63,0-1.14,0.51-1.14,1.14v6.8c0,0.63,0.51,1.14,1.14,1.14h0.63h5.44h5.27
	c0.63,0,1.14-0.51,1.14-1.14v-6.8C-115.33-416.79-115.84-417.29-116.47-417.29z"/>
<path class="st3" d="M-89.23-417.29h-0.36h-5.45h-5.27h-0.26c-0.63,0-1.14,0.51-1.14,1.14v6.8c0,0.63,0.51,1.14,1.14,1.14h0.26h5.27
	h5.45h0.36c0.63,0,1.14-0.51,1.14-1.14v-6.8C-88.09-416.79-88.6-417.29-89.23-417.29z"/>
<path class="st4" d="M-81.28-437.76c0-2.36-1.91-4.28-4.27-4.28h-45.92c-2.37,0-4.27,1.91-4.27,4.28v54.74h54.47V-437.76z"/>
<g>
	<path class="st5" d="M-81.28-383.02h-54.47c-3.09,0-5.41,0-6.59,0v177.06h67.92v-177.06H-81.28z"/>
</g>
<g>
	<path class="st6" d="M-144.97-383.02c-2.36,0-4.27,1.92-4.27,4.27v168.51c0,2.36,1.91,4.28,4.27,4.28c0.45,0,1.24,0,2.62,0v-177.06
		C-143.42-383.02-144.21-383.02-144.97-383.02z"/>
</g>
<g>
	<path class="st6" d="M-71.8-383.02c-0.66,0-1.51,0-2.62,0v177.06c1.32,0,2.13,0,2.62,0c2.36,0,4.28-1.92,4.28-4.28v-168.51
		C-67.52-381.1-69.44-383.02-71.8-383.02z"/>
</g>
<g>
	<path class="st7" d="M-88.21-333.76c-0.28-0.39-6.97-9.59-20.31-9.59c-13.34,0-20.04,9.2-20.31,9.59
		c-0.51,0.72-0.34,1.71,0.37,2.23c0.28,0.2,0.61,0.29,0.93,0.29c0.5,0,0.98-0.23,1.3-0.66c0.25-0.34,6.07-8.25,17.71-8.25
		c11.65,0,17.47,7.91,17.72,8.25c0.31,0.44,0.8,0.67,1.3,0.67c0.32,0,0.65-0.09,0.92-0.29C-87.87-332.04-87.69-333.03-88.21-333.76z
		"/>
</g>
<g>
	<path class="st8" d="M-129.48-358.98c-1.76,0-3.19,1.1-3.19,2.45v2.94c0,1.35,1.43,2.44,3.19,2.44c1.76,0,3.2-1.09,3.2-2.44v-2.94
		C-126.29-357.88-127.72-358.98-129.48-358.98z"/>
</g>
<g>
	<path class="st7" d="M-137.73-360.28c-0.32,0-0.63-0.1-0.9-0.31c-0.64-0.49-0.75-1.41-0.26-2.04c0.19-0.26,4.9-6.24,11.58-6.24
		c0.81,0,1.46,0.66,1.46,1.47c0,0.8-0.66,1.46-1.46,1.46c-5.22,0-9.23,5.06-9.26,5.11C-136.87-360.47-137.3-360.28-137.73-360.28z"
		/>
</g>
<g>
	<path class="st8" d="M-87.28-358.98c1.76,0,3.19,1.1,3.19,2.45v2.94c0,1.35-1.43,2.44-3.19,2.44c-1.77,0-3.2-1.09-3.2-2.44v-2.94
		C-90.48-357.88-89.05-358.98-87.28-358.98z"/>
</g>
<g>
	<path class="st7" d="M-79.03-360.28c0.32,0,0.63-0.1,0.89-0.31c0.64-0.49,0.75-1.41,0.26-2.04c-0.19-0.26-4.9-6.24-11.57-6.24
		c-0.81,0-1.47,0.66-1.47,1.47c0,0.8,0.66,1.46,1.47,1.46c5.22,0,9.22,5.06,9.26,5.11C-79.89-360.47-79.46-360.28-79.03-360.28z"/>
</g>
<path class="st9" d="M-115.33-409.35c0,0.63-0.51,1.14-1.14,1.14h-5.27h-5.44h-0.63c-0.63,0-1.14-0.51-1.14-1.14v-6.8
	c0-0.63,0.51-1.14,1.14-1.14h0.63h5.44h5.27c0.63,0,1.14,0.51,1.14,1.14V-409.35z"/>
<path class="st9" d="M-88.09-409.35c0,0.63-0.51,1.14-1.14,1.14h-0.36h-5.45h-5.27h-0.26c-0.63,0-1.14-0.51-1.14-1.14v-6.8
	c0-0.63,0.51-1.14,1.14-1.14h0.26h5.27h5.45h0.36c0.63,0,1.14,0.51,1.14,1.14V-409.35z"/>
<g>
	<g>
		<path class="st10" d="M-76.54-131.24h-11.54c-2.2,0-3.99-1.79-3.99-3.99v-42.31c0-2.21,1.79,0.57,3.99,0.57c2.21,0,4-2.78,4-0.57
			v38.31h7.54c2.2,0,3.99,1.79,3.99,4C-72.54-133.03-74.33-131.24-76.54-131.24z"/>
		<path class="st10" d="M-76.54-129.74h-11.54c-3.03,0-5.49-2.46-5.49-5.49v-42.31c0-1.03,0.34-1.74,1-2.12
			c1.01-0.57,1.96,0,2.73,0.46c0.54,0.32,1.22,0.73,1.76,0.73c0.55,0,1.22-0.4,1.77-0.73c0.77-0.46,1.73-1.03,2.73-0.46
			c0.66,0.38,1,1.09,1,2.12v36.81h6.04c3.03,0,5.49,2.47,5.49,5.5C-71.04-132.2-73.51-129.74-76.54-129.74z M-90.57-176.16v40.93
			c0,1.38,1.12,2.49,2.49,2.49h11.54c1.37,0,2.49-1.12,2.49-2.49c0-1.38-1.12-2.5-2.49-2.5h-9.04v-38.43
			c-0.69,0.36-1.54,0.69-2.5,0.69C-89.03-175.47-89.88-175.8-90.57-176.16z"/>
	</g>
</g>
<g>
	<path class="st11" d="M-83.79-170.38c-7.08,0-9.48-4.65-9.58-4.84c-0.12-0.25-0.02-0.55,0.22-0.67c0.24-0.12,0.55-0.02,0.67,0.22
		c0.09,0.17,2.25,4.29,8.69,4.29c0.28,0,0.5,0.22,0.5,0.5S-83.52-170.38-83.79-170.38z"/>
</g>
<g>
	<path class="st11" d="M-83.79-157.82c-7.08,0-9.48-4.65-9.58-4.84c-0.12-0.25-0.02-0.55,0.22-0.67c0.24-0.12,0.55-0.02,0.67,0.22
		c0.09,0.17,2.25,4.29,8.69,4.29c0.28,0,0.5,0.22,0.5,0.5S-83.52-157.82-83.79-157.82z"/>
</g>
<g>
	<path class="st11" d="M-83.79-146.4c-7.08,0-9.48-4.65-9.58-4.84c-0.12-0.25-0.02-0.55,0.22-0.67c0.24-0.12,0.55-0.02,0.67,0.22
		c0.09,0.17,2.25,4.29,8.69,4.29c0.28,0,0.5,0.22,0.5,0.5S-83.52-146.4-83.79-146.4z"/>
</g>
<g>
	<path class="st11" d="M-91.84-135.05c-0.74,0-1.21-0.1-1.27-0.11c-0.27-0.06-0.44-0.33-0.38-0.59c0.06-0.27,0.32-0.44,0.59-0.38
		c0.19,0.04,4.75,0.95,8.8-4.06c0.17-0.21,0.49-0.25,0.7-0.07c0.21,0.17,0.25,0.49,0.07,0.7
		C-86.49-135.65-90.01-135.05-91.84-135.05z"/>
</g>
<g>
	<path class="st11" d="M-81.64-131.46c-0.17,0-0.34-0.09-0.44-0.25c-0.14-0.24-0.05-0.54,0.19-0.68c0.14-0.08,3.39-2,2.97-6.79
		c-0.02-0.28,0.18-0.52,0.45-0.54c0.27-0.02,0.52,0.18,0.54,0.45c0.48,5.46-3.32,7.66-3.48,7.75
		C-81.47-131.48-81.56-131.46-81.64-131.46z"/>
</g>
<path class="st12" d="M-97.83-266.18c0.08-2.84,2.2-8.4,3.43-8.37c1.23,0.04,3.02,5.92,2.95,8.55c-0.05,1.76-1.52,3.15-3.28,3.1
	C-96.5-262.95-97.88-264.42-97.83-266.18z"/>
<g>
	<g>
		<path class="st13" d="M-84.7-291.74c1.18,1.63,0.82,3.92-0.82,5.1l-13.6,9.85c-1.63,1.18-3.92,0.82-5.1-0.82l-0.27-0.38
			c-1.18-1.63-0.82-3.92,0.82-5.1l13.6-9.85c1.63-1.18,3.92-0.82,5.1,0.82L-84.7-291.74z"/>
		
			<rect x="-99.33" y="-287.35" transform="matrix(0.8099 -0.5866 0.5866 0.8099 148.9377 -109.7853)" class="st14" width="8.85" height="5.36"/>
		<path class="st15" d="M-100.51-282.04c0.16,0.22,0.1,0.55-0.14,0.72c-0.24,0.17-0.56,0.13-0.73-0.09
			c-0.16-0.22-0.1-0.55,0.14-0.72C-101-282.31-100.67-282.26-100.51-282.04z"/>
		<path class="st15" d="M-99.01-279.95c0.16,0.22,0.1,0.55-0.14,0.72c-0.24,0.17-0.56,0.13-0.73-0.09c-0.16-0.22-0.1-0.55,0.14-0.72
			C-99.5-280.21-99.17-280.17-99.01-279.95z"/>
		<path class="st15" d="M-101.04-280.07c0.16,0.22,0.1,0.55-0.14,0.72c-0.24,0.17-0.56,0.13-0.73-0.09
			c-0.16-0.22-0.1-0.55,0.14-0.72C-101.53-280.34-101.2-280.3-101.04-280.07z"/>
		<path class="st15" d="M-102.91-280.37c0.16,0.22,0.1,0.55-0.14,0.72c-0.24,0.17-0.56,0.13-0.73-0.09
			c-0.16-0.22-0.1-0.55,0.14-0.72C-103.4-280.64-103.07-280.6-102.91-280.37z"/>
		<path class="st15" d="M-101.41-278.28c0.16,0.22,0.1,0.55-0.14,0.72c-0.24,0.17-0.56,0.13-0.73-0.09
			c-0.16-0.22-0.1-0.55,0.14-0.72C-101.9-278.55-101.58-278.5-101.41-278.28z"/>
		<path class="st15" d="M-87.79-291.13c0.16,0.22,0.1,0.55-0.14,0.72c-0.24,0.17-0.56,0.13-0.73-0.09c-0.16-0.22-0.1-0.55,0.14-0.72
			C-88.27-291.39-87.95-291.35-87.79-291.13z"/>
		<path class="st15" d="M-86.29-289.03c0.16,0.22,0.1,0.55-0.14,0.72c-0.24,0.17-0.56,0.13-0.73-0.09c-0.16-0.22-0.1-0.55,0.14-0.72
			C-86.78-289.3-86.45-289.26-86.29-289.03z"/>
		<path class="st15" d="M-88.32-289.16c0.16,0.22,0.1,0.55-0.14,0.72c-0.24,0.17-0.56,0.13-0.73-0.09c-0.16-0.22-0.1-0.55,0.14-0.72
			C-88.81-289.43-88.48-289.39-88.32-289.16z"/>
		<path class="st15" d="M-90.19-289.46c0.16,0.22,0.1,0.55-0.14,0.72c-0.24,0.17-0.56,0.13-0.73-0.09c-0.16-0.22-0.1-0.55,0.14-0.72
			C-90.68-289.73-90.35-289.69-90.19-289.46z"/>
		<path class="st15" d="M-88.69-287.37c0.16,0.22,0.1,0.55-0.14,0.72c-0.24,0.17-0.56,0.13-0.73-0.09c-0.16-0.22-0.1-0.55,0.14-0.72
			C-89.18-287.63-88.86-287.59-88.69-287.37z"/>
	</g>
	<g>
		<path class="st13" d="M-86.2-276.22c-1.42,1.43-3.73,1.45-5.17,0.03L-103.3-288c-1.43-1.42-1.45-3.73-0.03-5.17l0.33-0.33
			c1.42-1.43,3.73-1.45,5.17-0.03l11.94,11.81c1.43,1.42,1.45,3.73,0.03,5.17L-86.2-276.22z"/>
		
			<rect x="-97.52" y="-289.56" transform="matrix(0.7034 -0.7108 0.7108 0.7034 174.5502 -151.9949)" class="st14" width="5.36" height="8.85"/>
		<path class="st15" d="M-98.35-290.23c-0.2,0.2-0.52,0.19-0.73-0.02c-0.21-0.21-0.22-0.53-0.03-0.73c0.2-0.2,0.52-0.19,0.73,0.02
			C-98.16-290.75-98.15-290.43-98.35-290.23z"/>
		<path class="st15" d="M-100.17-288.41c-0.2,0.2-0.52,0.19-0.73-0.02c-0.21-0.21-0.22-0.53-0.03-0.73c0.2-0.2,0.52-0.19,0.73,0.02
			C-99.99-288.94-99.97-288.61-100.17-288.41z"/>
		<path class="st15" d="M-100.37-290.43c-0.2,0.2-0.52,0.19-0.73-0.02c-0.21-0.21-0.22-0.53-0.03-0.73c0.2-0.2,0.52-0.19,0.73,0.02
			C-100.19-290.96-100.18-290.63-100.37-290.43z"/>
		<path class="st15" d="M-100.38-292.33c-0.2,0.2-0.52,0.19-0.73-0.02c-0.21-0.21-0.22-0.53-0.03-0.73c0.2-0.2,0.52-0.19,0.73,0.02
			C-100.2-292.85-100.19-292.53-100.38-292.33z"/>
		<path class="st15" d="M-102.2-290.51c-0.2,0.2-0.52,0.19-0.73-0.02c-0.21-0.21-0.22-0.53-0.03-0.73c0.2-0.2,0.52-0.19,0.73,0.02
			C-102.02-291.04-102.01-290.71-102.2-290.51z"/>
		<path class="st15" d="M-87.31-279.16c-0.2,0.2-0.52,0.19-0.73-0.02c-0.21-0.21-0.22-0.53-0.03-0.73c0.2-0.2,0.52-0.19,0.73,0.02
			C-87.12-279.69-87.11-279.36-87.31-279.16z"/>
		<path class="st15" d="M-89.13-277.34c-0.2,0.2-0.52,0.19-0.73-0.02c-0.21-0.21-0.22-0.53-0.03-0.73c0.2-0.2,0.52-0.19,0.73,0.02
			C-88.94-277.87-88.93-277.54-89.13-277.34z"/>
		<path class="st15" d="M-89.33-279.37c-0.2,0.2-0.52,0.19-0.73-0.02c-0.21-0.21-0.22-0.53-0.03-0.73c0.2-0.2,0.52-0.19,0.73,0.02
			C-89.15-279.89-89.14-279.56-89.33-279.37z"/>
		<path class="st15" d="M-89.34-281.26c-0.2,0.2-0.52,0.19-0.73-0.02c-0.21-0.21-0.22-0.53-0.03-0.73c0.2-0.2,0.52-0.19,0.73,0.02
			C-89.16-281.79-89.15-281.46-89.34-281.26z"/>
		<path class="st15" d="M-91.16-279.44c-0.2,0.2-0.52,0.19-0.73-0.02c-0.21-0.21-0.22-0.53-0.03-0.73c0.2-0.2,0.52-0.19,0.73,0.02
			C-90.98-279.97-90.97-279.64-91.16-279.44z"/>
	</g>
</g>
<g>
	<path class="st0" d="M-229.36,183.91c-0.89,0.01-1.6,0.36-1.6,0.78l0.62,47.33l-20.88,0.27l-0.62-47.33
		c-0.01-0.42-0.73-0.75-1.62-0.74c-0.89,0.01-1.6,0.36-1.6,0.78l0.68,51.96c0,0.15,0.1,0.29,0.27,0.41l11.89,8.24l0.8,60.62
		c0.01,0.42,0.73,0.75,1.62,0.74c0.89-0.01,1.6-0.36,1.6-0.78l-0.8-60.62l11.67-8.55c0.17-0.13,0.26-0.27,0.26-0.42l-0.68-51.96
		C-227.75,184.23-228.47,183.9-229.36,183.91z M-240.62,244l-10.54-7.3l-0.03-2.15l20.88-0.27l0.03,2.15L-240.62,244z"/>
	<path class="st1" d="M-224.93,186.45l-32.89,0.43c-0.97,0.01-1.77-0.77-1.78-1.73l0-0.17c-0.01-0.97,0.77-1.77,1.73-1.78
		l32.89-0.43c0.97-0.01,1.77,0.77,1.78,1.73l0,0.17C-223.18,185.64-223.96,186.44-224.93,186.45z"/>
	<path class="st1" d="M-237.16,309.96l-5.19,0.07c-0.39,0.01-0.71-0.31-0.71-0.7l-0.03-2.48c-0.01-0.39,0.31-0.71,0.7-0.71
		l5.19-0.07c0.39-0.01,0.71,0.31,0.71,0.7l0.03,2.48C-236.46,309.64-236.77,309.96-237.16,309.96z"/>
</g>
<path class="st2" d="M-167.29,131.22c-0.92-1.5-2.89-1.98-4.4-1.06c-1.18,0.73-28.2,7.55-26.38,94.34
	c-2.99,1.38-5.02,4.45-4.89,7.96c0.18,4.64,4.08,8.26,8.71,8.09c4.64-0.17,8.27-4.08,8.09-8.72c-0.13-3.52-2.41-6.45-5.53-7.59
	c-1.69-81.88,22.93-88.37,23.36-88.65C-166.84,134.67-166.38,132.72-167.29,131.22z"/>
<g>
	<path class="st2" d="M-34.89,220.5c1.82-86.79-25.19-93.61-26.37-94.34c-1.51-0.92-3.47-0.45-4.39,1.06
		c-0.92,1.51-0.45,3.47,1.06,4.4c0.26,0.15,25.07,5.62,23.33,88.63c0.99-0.36,2.07-0.55,3.19-0.5
		C-36.94,219.78-35.87,220.05-34.89,220.5z"/>
	<path class="st2" d="M-34.89,220.5c-0.98-0.45-2.05-0.72-3.19-0.76c-1.12-0.04-2.19,0.14-3.19,0.5c-3.12,1.14-5.4,4.07-5.53,7.59
		c-0.18,4.64,3.45,8.54,8.09,8.72c4.65,0.17,8.55-3.45,8.72-8.09C-29.87,224.96-31.9,221.88-34.89,220.5z"/>
</g>
<g>
	<path class="st2" d="M-138.65,306.54h-11.54c-2.2,0-3.99-1.79-3.99-3.99c0-2.21,1.79-4,3.99-4h7.54v-72.56c0-2.21,1.79-4,4-4
		c2.2,0,3.99,1.79,3.99,4v76.56C-134.65,304.75-136.44,306.54-138.65,306.54z"/>
</g>
<g>
	<path class="st2" d="M-86.49,306.54h-11.54c-2.2,0-3.99-1.79-3.99-3.99v-76.56c0-2.21,1.79-4,3.99-4c2.21,0,4,1.79,4,4v72.56h7.54
		c2.2,0,3.99,1.79,3.99,4C-82.5,304.75-84.29,306.54-86.49,306.54z"/>
</g>
<path class="st3" d="M-126.42,20.48h-5.27h-5.44h-0.63c-0.63,0-1.14,0.51-1.14,1.14v6.8c0,0.63,0.51,1.14,1.14,1.14h0.63h5.44h5.27
	c0.63,0,1.14-0.51,1.14-1.14v-6.8C-125.28,20.99-125.79,20.48-126.42,20.48z"/>
<path class="st3" d="M-99.18,20.48h-0.36h-5.45h-5.27h-0.26c-0.63,0-1.14,0.51-1.14,1.14v6.8c0,0.63,0.51,1.14,1.14,1.14h0.26h5.27
	h5.45h0.36c0.63,0,1.14-0.51,1.14-1.14v-6.8C-98.04,20.99-98.55,20.48-99.18,20.48z"/>
<path class="st4" d="M-95.51-4.26h-45.92c-2.37,0-4.27,1.91-4.27,4.28v54.74h54.47V0.01C-91.24-2.35-93.15-4.26-95.51-4.26z"/>
<g>
	<path class="st5" d="M137.76,54.76H83.29c-3.09,0-5.41,0-6.59,0v177.06h67.92V54.76H137.76z"/>
</g>
<g>
	<path class="st6" d="M-154.93,24.76c-2.36,0-4.27,1.92-4.27,4.27v168.51c0,2.36,1.91,4.28,4.27,4.28c0.45,0,1.24,0,2.62,0V24.76
		C-153.38,24.76-154.17,24.76-154.93,24.76z"/>
</g>
<g>
	<path class="st6" d="M-74.76,42.76c-0.66,0-1.51,0-2.62,0v177.06c1.32,0,2.13,0,2.62,0c2.36,0,4.28-1.92,4.28-4.28V47.03
		C-70.48,44.67-72.39,42.76-74.76,42.76z"/>
</g>
<g>
	<path class="st7" d="M-330.16,104.01c-0.28-0.39-6.97-9.59-20.31-9.59c-13.34,0-20.04,9.2-20.31,9.59
		c-0.51,0.72-0.34,1.71,0.37,2.23c0.28,0.2,0.61,0.29,0.93,0.29c0.5,0,0.98-0.23,1.3-0.66c0.25-0.34,6.07-8.25,17.71-8.25
		c11.65,0,17.47,7.91,17.72,8.25c0.31,0.44,0.8,0.67,1.3,0.67c0.32,0,0.65-0.09,0.92-0.29
		C-329.82,105.73-329.65,104.74-330.16,104.01z"/>
</g>
<g>
	<path class="st7" d="M-379.69,77.49c-0.32,0-0.63-0.1-0.9-0.31c-0.64-0.49-0.75-1.41-0.26-2.04c0.19-0.26,4.9-6.24,11.58-6.24
		c0.81,0,1.46,0.66,1.46,1.47c0,0.8-0.66,1.46-1.46,1.46c-5.22,0-9.23,5.06-9.26,5.11C-378.83,77.3-379.26,77.49-379.69,77.49z"/>
</g>
<g>
	<g>
		<path class="st8" d="M-445.44,78.79c-1.76,0-3.19,1.1-3.19,2.45v2.94c0,1.35,1.43,2.44,3.19,2.44c1.76,0,3.2-1.09,3.2-2.44v-2.94
			C-442.25,79.89-443.68,78.79-445.44,78.79z"/>
	</g>
	<g>
		<path class="st8" d="M-403.24,78.79c1.76,0,3.19,1.1,3.19,2.45v2.94c0,1.35-1.43,2.44-3.19,2.44c-1.77,0-3.2-1.09-3.2-2.44v-2.94
			C-406.43,79.89-405,78.79-403.24,78.79z"/>
	</g>
</g>
<g>
	<path class="st7" d="M-320.99,77.49c0.32,0,0.63-0.1,0.89-0.31c0.64-0.49,0.75-1.41,0.26-2.04c-0.19-0.26-4.9-6.24-11.57-6.24
		c-0.81,0-1.47,0.66-1.47,1.47c0,0.8,0.66,1.46,1.47,1.46c5.22,0,9.22,5.06,9.26,5.11C-321.85,77.3-321.42,77.49-320.99,77.49z"/>
</g>
<g>
	<path class="st9" d="M-227.28,28.42c0,0.63-0.51,1.14-1.14,1.14h-5.27h-5.44h-0.63c-0.63,0-1.14-0.51-1.14-1.14v-6.8
		c0-0.63,0.51-1.14,1.14-1.14h0.63h5.44h5.27c0.63,0,1.14,0.51,1.14,1.14V28.42z"/>
	<path class="st9" d="M-200.04,28.42c0,0.63-0.51,1.14-1.14,1.14h-0.36h-5.45h-5.27h-0.26c-0.63,0-1.14-0.51-1.14-1.14v-6.8
		c0-0.63,0.51-1.14,1.14-1.14h0.26h5.27h5.45h0.36c0.63,0,1.14,0.51,1.14,1.14V28.42z"/>
</g>
<path class="st10" d="M12.51,297.05H6.46v-36.81c0-1.03-0.34-1.74-1-2.12c-1.01-0.57-1.96,0-2.73,0.46
	c-0.54,0.33-1.22,0.73-1.77,0.73c-0.55,0-1.22-0.4-1.76-0.73c-0.77-0.46-1.72-1.03-2.73-0.46c-0.66,0.38-1,1.09-1,2.12v42.31
	c0,3.03,2.46,5.49,5.49,5.49h11.54c3.03,0,5.49-2.46,5.49-5.49C18,299.51,15.53,297.05,12.51,297.05z"/>
<g>
	<path class="st11" d="M-36.75,267.4c0.28,0,0.5-0.22,0.5-0.5s-0.22-0.5-0.5-0.5c-6.44,0-8.6-4.12-8.69-4.29
		c-0.12-0.25-0.43-0.35-0.67-0.22c-0.25,0.12-0.35,0.42-0.22,0.67C-46.23,262.75-43.83,267.4-36.75,267.4z"/>
	<path class="st11" d="M-36.75,279.95c0.28,0,0.5-0.22,0.5-0.5s-0.22-0.5-0.5-0.5c-6.44,0-8.6-4.12-8.69-4.29
		c-0.12-0.25-0.43-0.35-0.67-0.22c-0.25,0.12-0.35,0.42-0.22,0.67C-46.23,275.31-43.83,279.95-36.75,279.95z"/>
	<path class="st11" d="M-36.75,291.37c0.28,0,0.5-0.22,0.5-0.5s-0.22-0.5-0.5-0.5c-6.44,0-8.6-4.12-8.69-4.29
		c-0.12-0.25-0.43-0.35-0.67-0.22c-0.25,0.12-0.35,0.42-0.22,0.67C-46.23,286.73-43.83,291.37-36.75,291.37z"/>
	<path class="st11" d="M-37.06,297.58c-4.05,5-8.61,4.09-8.8,4.06c-0.27-0.06-0.54,0.11-0.59,0.38c-0.06,0.27,0.11,0.53,0.38,0.59
		c0.06,0.01,0.53,0.11,1.27,0.11c1.84,0,5.35-0.59,8.52-4.51c0.17-0.21,0.14-0.53-0.07-0.7C-36.57,297.33-36.89,297.36-37.06,297.58
		z"/>
	<path class="st11" d="M-30.87,298.5c-0.02-0.27-0.27-0.47-0.54-0.45c-0.28,0.02-0.48,0.27-0.45,0.54c0.42,4.8-2.84,6.71-2.97,6.79
		c-0.24,0.14-0.32,0.44-0.19,0.68c0.09,0.16,0.26,0.25,0.44,0.25c0.08,0,0.17-0.02,0.24-0.06C-34.19,306.15-30.4,303.96-30.87,298.5
		z"/>
</g>
<path class="st12" d="M-107.79,171.59c0.08-2.84,2.2-8.4,3.43-8.37c1.23,0.04,3.02,5.92,2.95,8.55c-0.05,1.76-1.52,3.15-3.28,3.1
	C-106.45,174.82-107.84,173.35-107.79,171.59z"/>
<path class="st15" d="M-3.56,108.37l3.09-2.24c1.63-1.18,2-3.47,0.82-5.1l-0.27-0.38c-1.18-1.63-3.47-2-5.1-0.82l-4.13,2.99
	l-3.63-3.59c-1.43-1.42-3.75-1.41-5.17,0.03l-0.33,0.33c-1.42,1.43-1.41,3.75,0.03,5.17l2.71,2.68l-3.09,2.24
	c-1.63,1.18-2,3.47-0.82,5.1l0.27,0.38c1.18,1.63,3.47,2,5.1,0.82l4.13-2.99l3.63,3.59c1.43,1.42,3.75,1.41,5.17-0.03l0.33-0.33
	c1.42-1.43,1.41-3.75-0.03-5.17L-3.56,108.37z"/>
<path class="st16" d="M-286.84,184.1c-0.89-0.01-1.61,0.33-1.61,0.75l-0.3,47.33l-20.88-0.13l0.3-47.33c0-0.42-0.71-0.76-1.6-0.77
	s-1.61,0.33-1.61,0.75l-0.33,51.96c0,0.15,0.09,0.29,0.26,0.42l11.73,8.47l-0.38,60.62c0,0.42,0.71,0.76,1.6,0.77
	s1.61-0.33,1.61-0.75l0.38-60.62l11.83-8.32c0.17-0.12,0.27-0.27,0.27-0.42l0.33-51.96C-285.24,184.45-285.95,184.1-286.84,184.1z
	 M-288.78,236.58l-10.49,7.38l-10.39-7.51l0.01-2.15l20.88,0.13L-288.78,236.58z"/>
<path class="st1" d="M-331.14,220.24l-32.89,0.43c-0.97,0.01-1.77-0.77-1.78-1.73l0-0.17c-0.01-0.97,0.77-1.77,1.73-1.78l32.89-0.43
	c0.97-0.01,1.77,0.77,1.78,1.73l0,0.17C-329.4,219.42-330.18,220.22-331.14,220.24z"/>
<path class="st1" d="M-341.99,243.52l-5.19,0.07c-0.39,0.01-0.71-0.31-0.71-0.7l-0.03-2.48c-0.01-0.39,0.31-0.71,0.7-0.71l5.19-0.07
	c0.39-0.01,0.71,0.31,0.71,0.7l0.03,2.48C-341.29,243.2-341.6,243.52-341.99,243.52z"/>
<path class="st0" d="M-288.14,203.71c-0.83,0-1.5,0.67-1.5,1.5v46h-21v-46c0-0.83-0.67-1.5-1.5-1.5s-1.5,0.67-1.5,1.5v51.75l12,9
	v70.25c0,0.83,0.67,1.5,1.5,1.5s1.5-0.67,1.5-1.5v-70.2l12-8v-52.8C-286.64,204.38-287.31,203.71-288.14,203.71z M-300.09,263.37
	l-10.55-7.91v-1.25h21v2.2L-300.09,263.37z"/>
<g>
	<path class="st15" d="M2.63-6.91c-0.24,0.17-0.3,0.49-0.14,0.72C2.66-5.97,2.98-5.92,3.22-6.1c0.24-0.17,0.3-0.49,0.14-0.72
		C3.2-7.04,2.87-7.08,2.63-6.91z"/>
	<path class="st15" d="M4.13-4.82C3.89-4.64,3.83-4.32,3.99-4.1C4.15-3.87,4.48-3.83,4.72-4c0.24-0.17,0.3-0.49,0.14-0.72
		C4.69-4.95,4.37-4.99,4.13-4.82z"/>
	<path class="st15" d="M2.1-4.95C1.86-4.77,1.8-4.45,1.96-4.23C2.13-4,2.45-3.96,2.69-4.13c0.24-0.17,0.3-0.49,0.14-0.72
		C2.66-5.08,2.34-5.12,2.1-4.95z"/>
	<path class="st15" d="M0.23-5.25c-0.24,0.17-0.3,0.49-0.14,0.72C0.25-4.3,0.58-4.26,0.82-4.43c0.24-0.17,0.3-0.49,0.14-0.72
		C0.79-5.38,0.47-5.42,0.23-5.25z"/>
	<path class="st15" d="M1.73-3.15c-0.24,0.17-0.3,0.49-0.14,0.72c0.16,0.22,0.49,0.27,0.73,0.09c0.24-0.17,0.3-0.49,0.14-0.72
		C2.29-3.28,1.96-3.32,1.73-3.15z"/>
	<path class="st15" d="M15.94-15.19c0.24-0.17,0.3-0.49,0.14-0.72c-0.16-0.22-0.49-0.27-0.73-0.09c-0.24,0.17-0.3,0.49-0.14,0.72
		C15.38-15.05,15.7-15.01,15.94-15.19z"/>
	<path class="st15" d="M17.58-13.81c-0.16-0.22-0.49-0.27-0.73-0.09c-0.24,0.17-0.3,0.5-0.14,0.72c0.16,0.22,0.49,0.27,0.73,0.09
		C17.68-13.26,17.74-13.59,17.58-13.81z"/>
	<path class="st15" d="M14.82-14.03c-0.24,0.17-0.3,0.49-0.14,0.72c0.16,0.22,0.49,0.27,0.73,0.09c0.24-0.17,0.3-0.49,0.14-0.72
		C15.38-14.16,15.06-14.21,14.82-14.03z"/>
	<path class="st15" d="M13.68-14.24c-0.16-0.22-0.49-0.27-0.73-0.09c-0.24,0.17-0.3,0.49-0.14,0.72c0.16,0.22,0.49,0.27,0.73,0.09
		C13.78-13.69,13.84-14.01,13.68-14.24z"/>
	<path class="st15" d="M14.45-12.24c-0.24,0.17-0.3,0.49-0.14,0.72c0.16,0.22,0.49,0.27,0.73,0.09c0.24-0.17,0.3-0.49,0.14-0.72
		C15.01-12.37,14.69-12.41,14.45-12.24z"/>
	<path class="st15" d="M4.76-15.76c-0.2,0.2-0.18,0.52,0.03,0.73c0.21,0.21,0.54,0.21,0.73,0.02c0.2-0.2,0.18-0.53-0.03-0.73
		C5.28-15.95,4.95-15.95,4.76-15.76z"/>
	<path class="st15" d="M2.94-13.94c-0.2,0.2-0.18,0.53,0.03,0.73s0.54,0.22,0.73,0.02c0.2-0.2,0.18-0.53-0.03-0.73
		C3.46-14.13,3.13-14.14,2.94-13.94z"/>
	<path class="st15" d="M2.73-15.96c-0.2,0.2-0.18,0.53,0.03,0.73s0.54,0.21,0.73,0.02c0.2-0.2,0.18-0.53-0.03-0.73
		C3.26-16.15,2.93-16.16,2.73-15.96z"/>
	<path class="st15" d="M3.48-17.11c0.2-0.2,0.18-0.53-0.03-0.73c-0.21-0.21-0.54-0.22-0.73-0.02c-0.2,0.2-0.18,0.53,0.03,0.73
		C2.96-16.92,3.29-16.91,3.48-17.11z"/>
	<path class="st15" d="M1.64-16.02c-0.21-0.21-0.54-0.22-0.73-0.02c-0.2,0.2-0.18,0.53,0.03,0.73c0.21,0.21,0.54,0.21,0.73,0.02
		C1.86-15.49,1.84-15.81,1.64-16.02z"/>
	<path class="st15" d="M15.8-4.69c-0.2,0.2-0.18,0.53,0.03,0.73c0.21,0.21,0.54,0.22,0.73,0.02c0.2-0.2,0.18-0.53-0.03-0.73
		C16.32-4.88,16-4.89,15.8-4.69z"/>
	<path class="st15" d="M13.98-2.87c-0.2,0.2-0.18,0.52,0.03,0.73c0.21,0.21,0.54,0.21,0.73,0.02c0.2-0.2,0.18-0.53-0.03-0.73
		C14.5-3.06,14.18-3.07,13.98-2.87z"/>
	<path class="st15" d="M14.53-4.14c0.2-0.2,0.18-0.53-0.03-0.73c-0.21-0.21-0.54-0.21-0.73-0.02c-0.2,0.2-0.18,0.53,0.03,0.73
		C14.01-3.95,14.34-3.95,14.53-4.14z"/>
	<path class="st15" d="M14.52-6.04c0.2-0.2,0.18-0.53-0.03-0.73c-0.21-0.21-0.54-0.22-0.73-0.02c-0.2,0.2-0.18,0.53,0.03,0.73
		C14-5.85,14.33-5.84,14.52-6.04z"/>
	<path class="st15" d="M11.94-4.97c-0.19,0.2-0.18,0.53,0.03,0.73c0.21,0.21,0.54,0.22,0.73,0.02c0.2-0.2,0.18-0.53-0.03-0.73
		C12.47-5.16,12.14-5.17,11.94-4.97z"/>
</g>
<polygon class="st14" points="34.44,-11.25 31.29,-15.59 29.86,-14.55 28.09,-16.3 24.32,-12.49 25.46,-11.37 24.12,-10.4 
	27.27,-6.06 29.32,-7.55 30.61,-6.27 34.38,-10.08 33.72,-10.73 "/>
<g>
	<circle class="st17" cx="1.34" cy="2.45" r="0.5"/>
	<circle class="st17" cx="3.07" cy="0.61" r="0.5"/>
	<circle class="st17" cx="3.14" cy="2.42" r="0.5"/>
	<circle class="st17" cx="5.08" cy="2.68" r="0.5"/>
	<circle class="st17" cx="3.28" cy="4.55" r="0.5"/>
	<circle class="st17" cx="12.45" cy="13.36" r="0.5"/>
	<circle class="st17" cx="14.18" cy="11.52" r="0.5"/>
	<circle class="st17" cx="14.25" cy="13.33" r="0.5"/>
	<circle class="st17" cx="16.19" cy="13.6" r="0.5"/>
	<circle class="st17" cx="14.39" cy="15.46" r="0.5"/>
	<circle class="st17" cx="15.15" cy="4.36" r="0.5"/>
	<circle class="st17" cx="15.66" cy="2.39" r="0.5"/>
	<circle class="st17" cx="17.13" cy="4.49" r="0.5"/>
	<circle class="st17" cx="14.73" cy="6.17" r="0.5"/>
	<circle class="st17" cx="0.55" cy="13.15" r="0.5"/>
	<circle class="st17" cx="2.93" cy="11.48" r="0.5"/>
	<circle class="st17" cx="2.41" cy="13.47" r="0.5"/>
	<circle class="st17" cx="4.43" cy="13.61" r="0.5"/>
	<circle class="st17" cx="2" cy="15.24" r="0.5"/>
	<circle class="st17" cx="13.18" cy="4" r="0.5"/>
</g>
</svg>
