<?xml version="1.0" encoding="utf-8"?>
<!-- Generator: Adobe Illustrator 23.0.1, SVG Export Plug-In . SVG Version: 6.00 Build 0)  -->
<svg version="1.1" id="Ebene_1" xmlns="http://www.w3.org/2000/svg" xmlns:xlink="http://www.w3.org/1999/xlink" x="0px" y="0px"
	 viewBox="0 0 387 74" style="enable-background:new 0 0 387 74;" xml:space="preserve">
<style type="text/css">
	.st0{fill:#2A506F;}
	.st1{fill:#00D2EA;}
</style>
<g>
	<path class="st0" d="M214,19.7h6.7v11.1h0.1c0.7-1,1.7-1.7,2.9-2.3c1.2-0.5,2.5-0.9,3.8-1.1c0.3,0,0.7-0.1,1-0.1c0.3,0,0.6,0,0.9,0
		c4.1,0,7.5,1.4,10.1,4.1c2.6,2.7,3.9,5.9,3.9,9.4c0,0.5,0,1.1-0.1,1.6c-0.1,0.6-0.2,1.1-0.4,1.7c-0.3,1.1-0.7,2.2-1.2,3.2
		c-0.5,1-1.2,2-1.9,2.7c-1.2,1.4-2.8,2.4-4.6,3.1c-1.8,0.7-3.7,1.1-5.6,1.1c-1.9,0-3.7-0.3-5.3-1c-1.6-0.7-3-1.7-4.1-3.2l-0.1,0v3.4
		H214V19.7z M222.8,35.4c-1.7,1.4-2.5,3.1-2.5,5.2c0,2.2,0.8,4.1,2.3,5.6c1.5,1.5,3.6,2.3,6.1,2.3c2.4,0,4.3-0.7,5.8-2.2
		c1.5-1.4,2.2-3.2,2.2-5.4c0-2.1-0.7-3.9-2.2-5.4c-1.5-1.5-3.4-2.2-5.8-2.2C226.5,33.3,224.5,34,222.8,35.4z"/>
	<path class="st0" d="M275.6,53.6h-6.2v-3.4h-0.1c-0.8,1.1-1.9,2-3.3,2.7c-1.4,0.7-2.8,1.2-4.3,1.4c-0.3,0-0.6,0.1-0.9,0.1
		c-0.3,0-0.6,0-0.9,0c-2.2,0-4.1-0.4-5.8-1.1c-1.7-0.7-3.2-1.8-4.4-3.1c-1.1-1.2-2-2.6-2.6-4.2c-0.6-1.6-0.9-3.3-0.9-5
		c0-1.8,0.3-3.4,0.8-4.9c0.6-1.5,1.5-2.9,2.7-4.2c1.4-1.5,3-2.6,4.7-3.3c1.7-0.7,3.6-1.1,5.7-1.1c1.9,0,3.7,0.4,5.3,1.1
		c1.6,0.7,3,1.8,4.1,3.3v-3.6h6.2V53.6z M269.2,40.8c0-2.1-0.7-3.9-2.2-5.3c-1.5-1.5-3.4-2.2-5.8-2.1c-2.5,0-4.5,0.7-6,2.2
		c-1.6,1.5-2.3,3.4-2.3,5.6c0,2.1,0.8,3.8,2.4,5.2c1.6,1.4,3.6,2.1,5.8,2.1c2.4,0,4.4-0.7,5.9-2.2C268.4,44.9,269.2,43,269.2,40.8
		L269.2,40.8z"/>
	<path class="st0" d="M280.5,19.7h6.7v33.9h-6.7V19.7z"/>
	<path class="st0" d="M298.5,43.6c0.5,1.5,1.4,2.7,2.8,3.6c1.4,0.9,2.9,1.3,4.6,1.3c1.3,0,2.5-0.2,3.6-0.6c1.1-0.4,2-0.9,2.6-1.6
		l7.4,0c-0.8,2.3-2.5,4.2-5.1,5.8c-2.6,1.6-5.3,2.4-8.3,2.4c-4.1,0-7.5-1.3-10.4-3.9c-2.9-2.6-4.3-5.7-4.3-9.4c0-3.8,1.4-7,4.3-9.7
		c2.9-2.7,6.4-4,10.5-4c4,0,7.4,1.3,10.2,4c2.8,2.7,4.2,5.8,4.2,9.3c0,0.4,0,0.8-0.1,1.2c-0.1,0.4-0.1,0.8-0.2,1.1
		c0,0.1-0.1,0.2-0.1,0.3c0,0.1,0,0.2,0,0.3H298.5z M313.8,38.2c-0.5-1.5-1.5-2.7-2.9-3.5c-1.4-0.9-3-1.3-4.7-1.3c-0.1,0-0.1,0-0.2,0
		c-0.1,0-0.1,0-0.2,0c-1.6,0.1-3.1,0.6-4.5,1.4c-1.4,0.9-2.4,2-2.8,3.4H313.8z"/>
	<path class="st0" d="M324.9,28.2h6.2v2.3h0.1c0.8-0.9,1.8-1.7,3-2.2c1.3-0.5,2.6-0.8,4-0.9c0.1,0,0.2,0,0.3,0c0.1,0,0.2,0,0.3,0
		c0.1,0,0.3,0,0.4,0c0.1,0,0.3,0,0.4,0c1.3,0.1,2.6,0.4,3.9,1c1.3,0.5,2.3,1.3,3.3,2.2c0.1,0.1,0.3,0.2,0.4,0.3
		c0.1,0.1,0.2,0.2,0.3,0.4c1.1,1.4,1.7,2.8,1.9,4.4c0.2,1.6,0.3,3.1,0.3,4.8v13.1H343v-12c0-0.4,0-0.8,0-1.2c0-0.4,0-0.9-0.1-1.3
		c-0.1-0.7-0.2-1.3-0.4-1.9c-0.2-0.6-0.4-1.2-0.8-1.7c-0.4-0.6-1-1.1-1.8-1.5c-0.8-0.4-1.5-0.6-2.3-0.6c0,0-0.1,0-0.1,0
		s-0.1,0-0.2,0c-0.1,0-0.2,0-0.3,0c-0.1,0-0.2,0-0.4,0c-0.8,0.1-1.5,0.3-2.3,0.7c-0.7,0.4-1.3,0.9-1.7,1.5c-0.3,0.5-0.6,1.1-0.8,1.7
		c-0.2,0.7-0.3,1.3-0.3,2c0,0.4,0,0.8,0,1.2c0,0.4,0,0.8,0,1.1c0,0.1,0,0.2,0,0.3c0,0.1,0,0.1,0,0.2v11.5h-6.7V28.2z"/>
	<path class="st0" d="M383.4,53.6h-6.2v-3.4h-0.1c-0.8,1.1-1.9,2-3.3,2.7c-1.4,0.7-2.8,1.2-4.3,1.4c-0.3,0-0.6,0.1-0.9,0.1
		c-0.3,0-0.6,0-0.9,0c-2.2,0-4.1-0.4-5.8-1.1c-1.7-0.7-3.2-1.8-4.4-3.1c-1.1-1.2-2-2.6-2.6-4.2c-0.6-1.6-0.9-3.3-0.9-5
		c0-1.8,0.3-3.4,0.8-4.9c0.6-1.5,1.5-2.9,2.7-4.2c1.4-1.5,3-2.6,4.7-3.3c1.7-0.7,3.6-1.1,5.7-1.1c1.9,0,3.7,0.4,5.3,1.1
		c1.6,0.7,3,1.8,4.1,3.3v-3.6h6.2V53.6z M377.1,40.8c0-2.1-0.7-3.9-2.2-5.3c-1.5-1.5-3.4-2.2-5.8-2.1c-2.5,0-4.5,0.7-6,2.2
		c-1.6,1.5-2.3,3.4-2.3,5.6c0,2.1,0.8,3.8,2.4,5.2c1.6,1.4,3.6,2.1,5.8,2.1c2.4,0,4.4-0.7,5.9-2.2C376.3,44.9,377.1,43,377.1,40.8
		L377.1,40.8z"/>
</g>
<g>
	<path class="st1" d="M88,40.7c0-6.2,4.5-13.6,13.8-13.6s13.8,7.3,13.8,13.6c0,6.3-4.5,13.6-13.8,13.6S88,47.1,88,40.7L88,40.7z
		 M95.7,40.8c0,3.7,2.8,6.4,6.1,6.4c3.3,0,6.1-2.7,6.1-6.5c0-3.7-2.8-6.5-6.1-6.5C98.5,34.3,95.7,37,95.7,40.8L95.7,40.8z"/>
	<path class="st1" d="M120,28h7.2v2.8c1.7-1.9,4.2-3.7,8.1-3.7c9.1,0,12.5,8,12.5,14c0,7.4-5.2,13.4-12.5,13.4
		c-4.6,0-6.8-2.2-7.7-3.2v2.3v8.5H120V28z M140.2,40.8c0-3-2.2-6.5-6.4-6.5c-1.8,0-3.5,0.7-4.6,1.9c-1.1,1.2-1.8,2.8-1.8,4.7
		c0,1.8,0.7,3.4,1.8,4.6c1.2,1.2,2.8,1.9,4.6,1.9C137.8,47.3,140.2,44.1,140.2,40.8L140.2,40.8z"/>
	<path class="st1" d="M158.5,43.5c0.3,2.7,2.9,4.5,5.9,4.5c2.4,0,3.7-1.1,4.7-2.4h7.9c-1.2,2.9-3,5.1-5.2,6.6
		c-2.1,1.5-4.7,2.3-7.3,2.3c-7.3,0-13.6-6-13.6-13.6c0-7.2,5.6-13.8,13.4-13.8c3.9,0,7.3,1.5,9.7,4.1c3.2,3.5,4.2,7.6,3.6,12.3
		H158.5z M170,37.6c-0.2-1.2-1.8-4.1-5.7-4.1s-5.5,2.9-5.7,4.1H170z"/>
	<path class="st1" d="M182,28h7.2v2.7c0.9-1.2,2.5-3.6,7.1-3.6c8.6,0,9.5,7,9.5,10.5v16h-7.7v-14c0-2.8-0.6-5.3-4-5.3
		c-3.8,0-4.4,2.7-4.4,5.4v14H182V28z"/>
</g>
<g>
	<path class="st1" d="M57.9,26.2C58,26.6,58,27,58,27.4v19.4c0,2.9-1.5,5.5-4,6.9l-17,9.7c-0.5,0.3-1,0.5-1.5,0.6V72
		c0.8-0.2,1.6-0.5,2.4-1L60,58.4c3.1-1.8,5-5.1,5-8.6V24.5c0-0.7-0.1-1.5-0.3-2.2L57.9,26.2z"/>
	<path class="st1" d="M12,20.5l16.9-9.7c2.5-1.4,5.6-1.4,8,0l17,9.7c0.6,0.4,1.2,0.8,1.7,1.3l6.8-3.9c-0.7-0.8-1.5-1.5-2.4-2
		L37.9,3.3c-3.1-1.8-6.9-1.8-9.9,0L6,16c-0.9,0.5-1.7,1.2-2.4,2l6.8,3.9C10.8,21.3,11.4,20.9,12,20.5z"/>
	<path class="st1" d="M28.9,63.6L12,53.8c-2.5-1.4-4-4.1-4-6.9V27.4c0-0.4,0-0.8,0.1-1.2l-6.8-3.9C1.1,23.1,1,23.8,1,24.5v25.2
		c0,3.5,1.9,6.8,5,8.6L28,71c0.8,0.5,1.6,0.8,2.5,1v-7.8C30,64.1,29.4,63.8,28.9,63.6z"/>
</g>
</svg>
