<svg id="Layer_1" data-name="Layer 1" xmlns="http://www.w3.org/2000/svg" viewBox="0 0 516.11 421.73"><path d="M115.66,127.43a4,4,0,0,0-4.2,3.77l-.26,4.8a4,4,0,0,0,8,.44l.26-4.8A4,4,0,0,0,115.66,127.43Z"/><path d="M168.3,130.34a4,4,0,0,0-4.21,3.77l-.26,4.8a4,4,0,0,0,8,.44l.26-4.8A4,4,0,0,0,168.3,130.34Z"/><path d="M103.89,126.13a1.24,1.24,0,0,0,.64.18,1.27,1.27,0,0,0,1.07-.6c.22-.34,5.24-8.52,12.3-5.9a1.25,1.25,0,0,0,.87-2.35c-7.21-2.67-13.17,3.38-15.31,7A1.25,1.25,0,0,0,103.89,126.13Z"/><path d="M165.43,120a1.25,1.25,0,0,0,.61,2.43c7.3-1.83,11.4,6.85,11.57,7.22a1.26,1.26,0,0,0,1.14.73,1.17,1.17,0,0,0,.52-.12,1.26,1.26,0,0,0,.61-1.66C178.14,124.83,172.88,118.16,165.43,120Z"/><path d="M407.33,194.57a1.49,1.49,0,0,0-.6,2,1.5,1.5,0,0,0,2,.6c.37-.2,8.9-4.7,15.66,4.61a1.48,1.48,0,0,0,1.21.62,1.43,1.43,0,0,0,.88-.29,1.49,1.49,0,0,0,.33-2.09C420.22,190.91,411.18,192.47,407.33,194.57Z"/><path d="M420.73,167.65a3.32,3.32,0,0,0,2.49-4c-.61-2.66-4-8.1-5.19-7.82s-1.93,6.43-1.27,9.3A3.31,3.31,0,0,0,420.73,167.65Z"/><path d="M348.08,228.13a3.92,3.92,0,1,0-7.63,1.81l1.11,4.67a3.92,3.92,0,1,0,7.63-1.81Z"/><path d="M418.26,211.47a3.92,3.92,0,1,0-7.63,1.81l1.11,4.67a3.92,3.92,0,1,0,7.63-1.81Z"/><path d="M344.22,214.39a1.51,1.51,0,0,0,1.7-1.28,1.49,1.49,0,0,0-1.28-1.69c-4.34-.61-13.35,1.11-16.34,12a1.49,1.49,0,0,0,1,1.84,1.41,1.41,0,0,0,.93,0,1.45,1.45,0,0,0,.91-1C334.24,213.12,343.81,214.33,344.22,214.39Z"/></svg>