<?xml version="1.0" encoding="utf-8"?>
<!-- Generator: Adobe Illustrator 24.2.1, SVG Export Plug-In . SVG Version: 6.00 Build 0)  -->
<svg version="1.1" id="Layer_1" xmlns="http://www.w3.org/2000/svg" xmlns:xlink="http://www.w3.org/1999/xlink" x="0px" y="0px"
	 viewBox="0 0 516.11 421.73" style="enable-background:new 0 0 516.11 421.73;" xml:space="preserve">
<style type="text/css">
	.st0{display:none;}
	.st1{display:inline;fill:#3593D8;}
	.st2{fill:#FF8500;}
	.st3{fill:#3593D8;}
	.st4{fill:#FFFFFF;}
</style>
<path d="M-127.19,179.6c-3.05,2.2-5.29,1.41-8.21-1.48c0,0,0,0,0,0l3.63-3.22l-0.01-0.01l3.8-3.34c6.56-5.81,7.18-15.84,1.37-22.4
	l-2.72-3.07c-5.81-6.56-15.84-7.18-22.4-1.37l-4.36,3.82l0.01,0.01l-3.08,2.72c-2.51-3.25-3.01-5.57-0.47-8.32
	c0.94-1.01,0.88-2.59-0.14-3.53c-1.01-0.94-2.59-0.88-3.53,0.14c-6.64,7.19-0.77,13.82,2.05,17.01c1.68,1.9,9.32,10.54,14.83,16.76
	c-2.32,1.07-4.08,3.25-4.49,5.97c-0.48,3.19,1.02,6.21,3.57,7.83c-7.61,33.16-26.91,45.34-40.11,49.82l-6.68-28.15
	c-0.38-1.62-2.01-2.62-3.63-2.24l-1.55,0.37l-5.13-21.62l1.02-0.24c0.45-0.11,0.87-0.32,1.24-0.62l0.47-0.39
	c0.88-0.73,1.26-1.89,1-3.01l-2.19-9.22c-0.38-1.62-2-2.62-3.62-2.23l-2.34,0.55l-0.39-1.66l2.34-0.55
	c1.62-0.38,2.62-2.01,2.23-3.63l-7.84-33.04c-0.68-2.87-3.56-4.64-6.43-3.96l-1.69,0.4l-20.5,4.87l-2.19,0.52l-11.69,2.78
	l-2.19,0.52l-12.28,2.92l-2.19,0.52l-11.69,2.77l-2.19,0.52l-11.69,2.77l-2.19,0.52l-12.24,2.91l-2.19,0.52l-11.93,2.83l-2.19,0.52
	l-0.66,0.16c-1.32,0.31-2.48,1.12-3.23,2.25l-6.8,10.31l-4.46,6.75c-0.81,1.24-1.07,2.75-0.73,4.18l7.28,30.66
	c0.38,1.62,2.01,2.62,3.62,2.23l2.63,11.08c-1.62,0.38-2.62,2.01-2.23,3.62l11.29,47.58c-12.55-2.87-36.87-13.36-45.38-51.73
	c2.56-1.61,4.08-4.62,3.62-7.8c-0.59-4.11-4.27-7.01-8.34-6.72c-1.8-1.25-4-1.96-6.37-1.88c-5.8,0.22-10.32,5.09-10.11,10.89
	c0.1,2.67,1.2,5.07,2.92,6.86l-4.57,5.94c-4.99,6.48-12.21,10.47-20.35,11.23c-8.14,0.77-15.98-1.82-22.09-7.26l-18.95-16.9
	l5.29-95.94c0.16-2.95-2.1-5.47-5.04-5.63c-0.82-0.05-1.88-0.1-3.27-0.18l-8.56-0.47l3.77-68.28c0.16-2.95-2.09-5.46-5.04-5.63
	l-17.3-0.95c2.75-1.32,5.05-3.82,5.39-8.6c0.1-1.37-0.93-2.56-2.31-2.66c-1.38-0.1-2.57,0.94-2.67,2.31
	c-0.27,3.75-2.3,4.97-6.39,5.36l-0.14-4.86l-0.15-5.05c-0.26-8.76-7.57-15.66-16.33-15.4l-4.1,0.12
	c-8.76,0.26-15.66,7.57-15.4,16.33l0.15,5.05l0.14,4.86c0.76,0.03,1.6,0.02,2.51,0c-0.91,0.03-1.75,0.03-2.52,0
	c-4.11-0.15-6.21-1.24-6.7-4.98c-0.18-1.37-1.43-2.33-2.8-2.15s-2.33,1.43-2.15,2.8c0.77,5.9,4.35,8.11,7.99,8.92
	c-0.05,0.26-0.11,0.51-0.12,0.78l-3.69,66.77l-0.02,0l-0.06,1.51c-2.72-0.15-4.95-0.27-6.55-0.36l0-0.03
	c-1.33-0.07-4-0.19-4.95-0.25c-2.94-0.16-5.46,2.1-5.62,5.04l-5.73,103.85l-16.07,14.33c-6.1,5.44-13.94,8.02-22.09,7.26
	c-8.14-0.76-15.37-4.75-20.35-11.23l-8.38-10.9c1.59-1.92,2.52-4.4,2.42-7.09c-0.22-5.79-5.09-10.32-10.89-10.11
	c-5.8,0.22-10.32,5.09-10.11,10.89c0.22,5.79,5.09,10.32,10.88,10.11c0.94-0.04,1.83-0.2,2.69-0.47l8.63,11.22
	c5.93,7.7,14.87,12.64,24.55,13.55c1.08,0.1,2.17,0.15,3.24,0.15c8.57,0,16.95-3.16,23.39-8.9l11.63-10.37l-5.4,97.88
	c-0.16,2.94,2.09,5.46,5.03,5.63c0.41,0.02,1.86,0.11,3.28,0.19l0,0l29.4,1.62l-26.71,25.54c-0.96,0.92-1.2,2.36-0.59,3.54
	l24.15,46.8l-9.63,11.01c-1.09,1.24-0.97,3.14,0.28,4.23c0.56,0.5,1.27,0.74,1.97,0.74c0.84,0,1.67-0.34,2.26-1.02l10.98-12.54
	c0.81-0.93,0.97-2.26,0.41-3.35l-24.06-46.62l29.17-27.88l23.96,1.32l10.66,40.12l-10.83,51.05c-0.35,1.61,0.67,3.19,2.28,3.55
	l14.11,3.14c0.22,0.05,0.43,0.07,0.65,0.07c1.38,0,2.62-0.95,2.93-2.35c0.36-1.61-0.66-3.21-2.28-3.57l-11.21-2.49l10.36-48.84
	c0.1-0.46,0.09-0.94-0.03-1.39l-10.27-38.93l16.77,0.92c1.65,0.09,2.65,0.15,3.27,0.18c2.95,0.16,5.47-2.1,5.63-5.04l5.88-106.57
	l15.39,13.73c6.44,5.75,14.82,8.9,23.39,8.9c1.08,0,2.16-0.05,3.24-0.15c9.68-0.91,18.63-5.84,24.55-13.55l5.08-6.61
	c0.87,0.2,1.77,0.29,2.7,0.26c1.79-0.07,3.45-0.58,4.9-1.42c10.21,42.26,39.54,52.42,52.29,54.85l11.99,50.52l0.63,1.65l1.03,1.43
	l1.37,1.12l1.61,0.72l1.74,0.28l1.76-0.18l40.01-9.5l-3.64,28.51c-0.18,1.35,0.58,2.65,1.84,3.16l33.41,13.63l-2.65,13.25
	c-0.33,1.62,0.73,3.21,2.35,3.53c0.2,0.04,0.39,0.06,0.59,0.06c1.4,0,2.65-0.99,2.96-2.41l3.14-15.68c0.28-1.41-0.48-2.83-1.81-3.37
	l-33.57-13.7l3.61-28.46l45.2-10.73l5.19,61.04c0.11,1.42,1.21,2.56,2.62,2.73l16.62,2.03c0.13,0.01,0.25,0.02,0.37,0.02
	c1.5,0,2.79-1.12,2.98-2.63c0.2-1.64-0.97-3.14-2.61-3.34l-14.2-1.74l-4.93-59.54l24.85-5.9l2.07-0.95l1.56-1.67l0.63-1.39
	l0.24-1.51l-0.19-1.51l-13.1-55.2c14.74-4.98,36.46-18.38,44.67-54.43c2.3-0.51,4.27-2.02,5.34-4.13c3.06,2.04,7.07,3.05,11.83-0.38
	c1.1-0.79,1.35-2.35,0.55-3.47C-124.51,179.05-126.08,178.8-127.19,179.6z"/>
<g id="bg_2_" class="st0">
	<rect x="-50.13" y="-62.35" class="st1" width="587.54" height="545.09"/>
</g>
<path class="st2" d="M1284.18,179.71c-5.22-0.29-6.01-1.15-6.52,0.14c-0.88,2.23,8.01,6.23,13.85,6.55
	c12.3,0.68,20.67-8,20.84-11.23C1312.6,170.72,1304.5,180.83,1284.18,179.71z"/>
<path class="st2" d="M1569.74,152.77l-4.51-18.99c-0.38-1.62-2.01-2.62-3.62-2.23l-2.24,0.53c-1.62,0.38-2.62,2.01-2.23,3.62
	l4.51,18.99c0.38,1.62,2.01,2.62,3.62,2.23l2.24-0.53C1569.12,156.01,1570.12,154.39,1569.74,152.77z"/>
<path class="st2" d="M1460.91,172.08c-0.38-1.61-2-2.61-3.62-2.23l-7.12,1.69c-1.61,0.38-2.62,2-2.23,3.62l4.26,17.93
	c0.38,1.62,2.01,2.62,3.62,2.24l7.12-1.69c1.62-0.38,2.62-2.01,2.23-3.63L1460.91,172.08z"/>
<path class="st2" d="M1554.98,136.21c-0.38-1.62-2.01-2.62-3.62-2.23l-4.4,1.04c-1.62,0.38-2.62,2-2.23,3.62l4.51,18.99l0.7,2.93
	l2.93-0.69l4.4-1.04c1.62-0.38,2.62-2.01,2.23-3.62L1554.98,136.21z"/>
<path class="st2" d="M1486.43,152.48c-0.38-1.62-2.01-2.62-3.62-2.23l-6.39,1.52c-1.62,0.38-2.62,2.01-2.23,3.62l4.51,18.99
	l0.7,2.93l2.93-0.7l6.39-1.52l2.93-0.69l-0.7-2.93L1486.43,152.48z"/>
<path class="st2" d="M1499.93,147.57c-0.38-1.62-2.01-2.62-3.62-2.23l-5.83,1.38c-1.62,0.38-2.62,2.01-2.23,3.62l4.89,20.6l0.7,2.93
	l2.93-0.69l5.83-1.38l2.93-0.7l-0.7-2.93L1499.93,147.57z"/>
<path class="st2" d="M1520.9,164.36l0.7,2.93l2.93-0.69l6.42-1.52l2.93-0.7l-0.7-2.93l-4.52-18.99c-0.38-1.62-2.01-2.62-3.62-2.23
	l-6.42,1.52c-1.62,0.38-2.62,2.01-2.23,3.62L1520.9,164.36z"/>
<path class="st2" d="M1535.36,160.93l0.7,2.93l2.93-0.7l5.84-1.39l2.93-0.7l-0.7-2.93l-4.52-18.98c-0.38-1.62-2.01-2.62-3.62-2.23
	l-5.84,1.39c-1.62,0.38-2.62,2.01-2.23,3.62L1535.36,160.93z"/>
<path class="st2" d="M1519.41,167.82l-0.7-2.93l-4.9-20.61c-0.38-1.62-2.01-2.62-3.62-2.23l-5.84,1.39
	c-1.62,0.38-2.61,2.01-2.23,3.62l4.89,20.6l0.7,2.93l2.93-0.69l5.84-1.39L1519.41,167.82z"/>
<path class="st2" d="M1471.99,155.91c-0.38-1.62-2.01-2.62-3.62-2.23l-6.07,1.44c-1.62,0.38-2.62,2.01-2.24,3.63l4.51,18.99
	l0.7,2.93l2.93-0.7l6.07-1.44l2.93-0.69l-0.7-2.93L1471.99,155.91z"/>
<path class="st2" d="M1548.19,244.91c-2.5,0.59-4.49,4.01-10.88,5.53c-9.99,2.37-15.16-3.42-19.71-2.34
	c-2.75,0.65-4.67,4.78-3.57,9.45c1.85,7.81,14.78,17.87,25.07,15.43c8.97-2.13,16.69-14.14,14.64-22.75
	C1552.77,246.12,1550.35,244.4,1548.19,244.91z"/>
<path d="M697.39,132.55c-2.2-0.12-4.08,1.56-4.2,3.77l-0.26,4.8c-0.12,2.2,1.57,4.08,3.76,4.2c2.2,0.12,4.08-1.56,4.21-3.76
	l0.26-4.8C701.28,134.56,699.59,132.68,697.39,132.55z"/>
<path d="M750.03,135.46c-2.21-0.12-4.09,1.56-4.21,3.77l-0.26,4.8c-0.12,2.2,1.56,4.08,3.77,4.2c2.2,0.12,4.08-1.56,4.2-3.76
	l0.26-4.8C753.91,137.46,752.23,135.58,750.03,135.46z"/>
<path d="M685.62,131.25c0.2,0.12,0.42,0.18,0.64,0.18c0.42,0,0.83-0.22,1.07-0.6c0.22-0.34,5.24-8.52,12.3-5.9
	c0.65,0.24,1.37-0.09,1.61-0.74c0.24-0.65-0.09-1.37-0.74-1.61c-7.21-2.67-13.17,3.38-15.31,6.96
	C684.84,130.13,685.03,130.89,685.62,131.25z"/>
<path d="M747.16,125.14c-0.67,0.17-1.08,0.85-0.91,1.52s0.85,1.08,1.52,0.91c7.3-1.83,11.4,6.85,11.57,7.22
	c0.21,0.46,0.67,0.73,1.14,0.73c0.18,0,0.36-0.04,0.52-0.12c0.62-0.29,0.9-1.03,0.61-1.66
	C759.87,129.95,754.61,123.28,747.16,125.14z"/>
<path d="M989.06,199.69c-0.73,0.39-1,1.3-0.6,2.03c0.4,0.73,1.32,1,2.04,0.6c0.37-0.2,8.9-4.7,15.66,4.61
	c0.29,0.41,0.75,0.62,1.21,0.62c0.31,0,0.62-0.09,0.88-0.29c0.67-0.48,0.82-1.42,0.33-2.09
	C1001.95,196.03,992.91,197.59,989.06,199.69z"/>
<path d="M1002.46,172.77c1.78-0.41,2.9-2.19,2.49-3.97c-0.61-2.66-3.95-8.1-5.19-7.82c-1.24,0.29-1.93,6.43-1.27,9.3
	C998.9,172.06,1000.67,173.18,1002.46,172.77z"/>
<path d="M929.81,233.25c-0.51-2.15-2.63-3.48-4.74-2.98c-2.1,0.5-3.4,2.64-2.89,4.79l1.11,4.67c0.51,2.14,2.63,3.47,4.73,2.97
	c2.11-0.5,3.4-2.64,2.9-4.78L929.81,233.25z"/>
<path d="M999.99,216.59c-0.51-2.15-2.63-3.48-4.74-2.98c-2.1,0.5-3.4,2.64-2.89,4.79l1.11,4.67c0.51,2.14,2.63,3.47,4.73,2.97
	c2.11-0.5,3.4-2.64,2.9-4.78L999.99,216.59z"/>
<path d="M925.95,219.51c0.81,0.12,1.58-0.46,1.7-1.28c0.12-0.82-0.46-1.58-1.28-1.69c-4.34-0.61-13.35,1.11-16.34,12
	c-0.22,0.8,0.25,1.63,1.04,1.84c0.31,0.1,0.64,0.07,0.93-0.04c0.43-0.16,0.79-0.52,0.91-1.01
	C915.97,218.24,925.54,219.45,925.95,219.51z"/>
<g id="bg_3_">
	<rect x="-551.37" y="-504.23" class="st3" width="691.73" height="483.89"/>
</g>
<g id="Layer_1_1_">
	<g id="white_2_">
		<path class="st4" d="M-294.7-440.86c0.16-2.95-2.09-5.46-5.04-5.63l-57.28-3.16c-2.95-0.16-5.46,2.09-5.62,5.04l-3.77,68.28
			c-3.85-0.21-6.75-0.37-8.22-0.45l-12.18,220.84l84.72,4.67l12.18-220.84l-8.56-0.47L-294.7-440.86z"/>
		<path class="st4" d="M-30.12-276.21c-0.38-1.62-2.01-2.62-3.63-2.24l-1.55,0.37l-5.13-21.62l1.02-0.24
			c0.45-0.11,0.87-0.32,1.24-0.62l0.47-0.39c0.88-0.73,1.26-1.89,1-3.01l-2.19-9.22c-0.38-1.62-2-2.62-3.62-2.23l-2.34,0.55
			l-0.39-1.66l2.34-0.55c1.62-0.38,2.62-2.01,2.23-3.63l-7.84-33.04c-0.68-2.87-3.56-4.64-6.43-3.96l-1.69,0.4l-20.5,4.87
			l-2.19,0.52l-11.69,2.78l-2.19,0.52l-12.28,2.92l-2.19,0.52l-11.69,2.77l-2.19,0.52l-11.69,2.77l-2.19,0.52l-12.24,2.91
			l-2.19,0.52l-11.93,2.83l-2.19,0.52l-0.66,0.16c-1.32,0.31-2.48,1.12-3.23,2.25l-6.8,10.31l-4.46,6.75
			c-0.81,1.24-1.07,2.75-0.73,4.18l7.28,30.66c0.38,1.62,2.01,2.62,3.62,2.23l2.63,11.08c-1.62,0.38-2.62,2.01-2.23,3.62
			l24.78,104.4l0.63,1.65l1.03,1.43l1.37,1.12l1.61,0.72l1.74,0.28l1.76-0.18l122.33-29.04l2.07-0.95l1.56-1.67l0.63-1.39l0.24-1.51
			L-9-187.22L-30.12-276.21z"/>
		<path class="st4" d="M-356.28-449.98c3.74-0.1,26.96-0.79,30.69-0.9c0.93-0.03,1.79-0.07,2.57-0.15l-0.14-4.86l-35.83,1.05
			l0.14,4.86C-358.07-449.95-357.21-449.96-356.28-449.98z"/>
		<path class="st4" d="M8.48-336.95l-3.64,3.22c0.48,0.62,1.03,1.28,1.65,1.97c2.47,2.81,17.87,20.21,20.34,23
			c0.62,0.7,1.2,1.33,1.76,1.88l3.64-3.22L8.48-336.95z"/>
	</g>
	<g id="orange_2_">
		<path class="st2" d="M-336.04-304.41c-5.22-0.29-6.01-1.15-6.52,0.14c-0.88,2.23,8.01,6.23,13.85,6.55
			c12.3,0.68,20.67-8,20.84-11.23C-307.62-313.4-315.72-303.29-336.04-304.41z"/>
		<path class="st2" d="M-50.48-331.35l-4.51-18.99c-0.38-1.62-2.01-2.62-3.62-2.23l-2.24,0.53c-1.62,0.38-2.62,2.01-2.23,3.62
			l4.51,18.99c0.38,1.62,2.01,2.62,3.62,2.23l2.24-0.53C-51.1-328.11-50.1-329.73-50.48-331.35z"/>
		<path class="st2" d="M-159.31-312.04c-0.38-1.61-2-2.61-3.62-2.23l-7.12,1.69c-1.61,0.38-2.62,2-2.23,3.62l4.26,17.93
			c0.38,1.62,2.01,2.62,3.62,2.24l7.12-1.69c1.62-0.38,2.62-2.01,2.23-3.63L-159.31-312.04z"/>
		<path class="st2" d="M-65.24-347.91c-0.38-1.62-2.01-2.62-3.62-2.23l-4.4,1.04c-1.62,0.38-2.62,2-2.23,3.62l4.51,18.99l0.7,2.93
			l2.93-0.69l4.4-1.04c1.62-0.38,2.62-2.01,2.23-3.62L-65.24-347.91z"/>
		<path class="st2" d="M-133.79-331.64c-0.38-1.62-2.01-2.62-3.62-2.23l-6.39,1.52c-1.62,0.38-2.62,2.01-2.23,3.62l4.51,18.99
			l0.7,2.93l2.93-0.7l6.39-1.52l2.93-0.69l-0.7-2.93L-133.79-331.64z"/>
		<path class="st2" d="M-120.29-336.55c-0.38-1.62-2.01-2.62-3.62-2.23l-5.83,1.38c-1.62,0.38-2.62,2.01-2.23,3.62l4.89,20.6
			l0.7,2.93l2.93-0.69l5.83-1.38l2.93-0.7l-0.7-2.93L-120.29-336.55z"/>
		<path class="st2" d="M-99.32-319.76l0.7,2.93l2.93-0.69l6.42-1.52l2.93-0.7l-0.7-2.93l-4.52-18.99c-0.38-1.62-2.01-2.62-3.62-2.23
			l-6.42,1.52c-1.62,0.38-2.62,2.01-2.23,3.62L-99.32-319.76z"/>
		<path class="st2" d="M-84.86-323.19l0.7,2.93l2.93-0.7l5.84-1.39l2.93-0.7l-0.7-2.93l-4.52-18.98c-0.38-1.62-2.01-2.62-3.62-2.23
			l-5.84,1.39c-1.62,0.38-2.62,2.01-2.23,3.62L-84.86-323.19z"/>
		<path class="st2" d="M-100.81-316.3l-0.7-2.93l-4.9-20.61c-0.38-1.62-2.01-2.62-3.62-2.23l-5.84,1.39
			c-1.62,0.38-2.61,2.01-2.23,3.62l4.89,20.6l0.7,2.93l2.93-0.69l5.84-1.39L-100.81-316.3z"/>
		<path class="st2" d="M-148.23-328.21c-0.38-1.62-2.01-2.62-3.62-2.23l-6.07,1.44c-1.62,0.38-2.62,2.01-2.24,3.63l4.51,18.99
			l0.7,2.93l2.93-0.7l6.07-1.44l2.93-0.69l-0.7-2.93L-148.23-328.21z"/>
		<path class="st2" d="M-72.03-239.21c-2.5,0.59-4.49,4.01-10.88,5.53c-9.99,2.37-15.16-3.42-19.71-2.34
			c-2.75,0.65-4.67,4.78-3.57,9.45c1.85,7.81,14.78,17.87,25.07,15.43c8.97-2.13,16.69-14.14,14.64-22.75
			C-67.45-238-69.87-239.72-72.03-239.21z"/>
	</g>
	<g id="black_2_">
		<path d="M36.81-305.4c-3.05,2.2-5.29,1.41-8.21-1.48c-0.1-0.1-0.2-0.21-0.3-0.31c-0.69-1.93-2.12-3.54-4-4.45
			c-5.19-5.87-15.78-17.84-17.8-20.12c-0.62-0.7-1.17-1.35-1.65-1.97c-2.51-3.25-3.02-5.57-0.47-8.33c0.94-1.01,0.88-2.59-0.14-3.53
			c-1.01-0.94-2.59-0.88-3.53,0.14c-6.64,7.19-0.77,13.82,2.05,17.01c1.68,1.9,9.32,10.54,14.83,16.76
			c-2.32,1.07-4.08,3.25-4.49,5.97c-0.48,3.19,1.02,6.21,3.57,7.83c-11.78,51.35-51.62,52.4-53.39,52.42
			c-1.65,0.01-2.98,1.36-2.97,3.01c0.01,1.4,0.98,2.57,2.28,2.89c0.23,0.06,0.48,0.09,0.73,0.08c0.48,0,46.41-0.98,59.25-57.37
			c2.3-0.51,4.27-2.02,5.34-4.13c3.06,2.04,7.07,3.05,11.83-0.38c1.1-0.79,1.35-2.35,0.55-3.47
			C39.49-305.95,37.92-306.2,36.81-305.4z"/>
		<path d="M-357.23-154.49l-26.89,25.71c-0.96,0.92-1.2,2.36-0.59,3.54l24.15,46.8l-9.63,11.01c-1.09,1.24-0.97,3.14,0.28,4.23
			c0.56,0.5,1.27,0.74,1.97,0.74c0.84,0,1.67-0.34,2.26-1.02l10.98-12.54c0.81-0.93,0.97-2.26,0.41-3.35l-24.06-46.62l29.35-28.05
			L-357.23-154.49z"/>
		<path d="M-307.71-60.54l-11.21-2.49l10.36-48.84c0.1-0.46,0.09-0.94-0.03-1.39l-10.32-39.13l-6.35-0.28l10.69,40.24l-10.83,51.05
			c-0.35,1.61,0.67,3.19,2.28,3.55l14.11,3.14c0.22,0.05,0.43,0.07,0.65,0.07c1.38,0,2.62-0.95,2.93-2.35
			C-305.07-58.58-306.09-60.18-307.71-60.54z"/>
		<path d="M-377.91-376.97c-2.94-0.16-5.46,2.1-5.62,5.04l-5.73,103.85l-16.07,14.33c-6.1,5.44-13.94,8.02-22.09,7.26
			c-8.14-0.76-15.37-4.75-20.35-11.23l-8.38-10.9c1.59-1.92,2.52-4.4,2.42-7.09c-0.22-5.79-5.09-10.32-10.89-10.11
			c-5.8,0.22-10.32,5.09-10.11,10.89c0.22,5.79,5.09,10.32,10.88,10.11c0.94-0.04,1.83-0.2,2.69-0.47l8.63,11.22
			c5.93,7.7,14.87,12.64,24.55,13.55c1.08,0.1,2.17,0.15,3.24,0.15c8.57,0,16.95-3.16,23.39-8.9l11.63-10.37l-5.4,97.88
			c-0.16,2.94,2.09,5.46,5.03,5.63c0.56,0.03,1.54,0.09,3.27,0.18l12.18-220.84C-375.97-376.86-376.96-376.91-377.91-376.97z"/>
		<path d="M-360.08-348.92c-2.2-0.12-4.08,1.56-4.2,3.77l-0.26,4.8c-0.12,2.2,1.57,4.08,3.76,4.2c2.2,0.12,4.08-1.56,4.21-3.76
			l0.26-4.8C-356.19-346.91-357.88-348.79-360.08-348.92z"/>
		<path d="M-307.44-346.01c-2.21-0.12-4.09,1.56-4.21,3.77l-0.26,4.8c-0.12,2.2,1.56,4.08,3.77,4.2c2.2,0.12,4.08-1.56,4.2-3.76
			l0.26-4.8C-303.56-344.01-305.24-345.89-307.44-346.01z"/>
		<path d="M-354.77-407.2l0.78,0.04l6.79,0.37l6.58,0.36c0.79,0.05,1.46-0.56,1.5-1.34l0.03-0.47l0.44-8.02
			c0.04-0.79-0.56-1.45-1.35-1.5l-6.58-0.36l-6.79-0.37l-0.78-0.04c-0.78-0.04-1.46,0.55-1.5,1.34l-0.47,8.48c0,0,0,0,0,0.01l0,0
			C-356.16-407.92-355.55-407.24-354.77-407.2z"/>
		<path d="M-319.84-416.64l-0.33-0.02c-0.78-0.05-1.46,0.55-1.5,1.34l-0.47,8.48c-0.05,0.78,0.56,1.46,1.34,1.5l0.33,0.02l6.57,0.36
			l6.8,0.38l0.45,0.02l0,0l0,0c0.39,0.03,0.76-0.12,1.03-0.36c0.26-0.23,0.43-0.56,0.46-0.93c0-0.02,0.01-0.03,0.01-0.05l0.47-8.48
			c0.05-0.79-0.55-1.46-1.34-1.5l-0.45-0.02l-6.8-0.38L-319.84-416.64z"/>
		<path d="M-371.85-350.22c0.2,0.12,0.42,0.18,0.64,0.18c0.42,0,0.83-0.22,1.07-0.6c0.22-0.34,5.24-8.52,12.3-5.9
			c0.65,0.24,1.37-0.09,1.61-0.74c0.24-0.65-0.09-1.37-0.74-1.61c-7.21-2.67-13.17,3.38-15.31,6.96
			C-372.63-351.34-372.44-350.58-371.85-350.22z"/>
		<path d="M-310.31-356.33c-0.67,0.17-1.08,0.85-0.91,1.52c0.17,0.67,0.85,1.08,1.52,0.91c7.3-1.83,11.4,6.85,11.57,7.22
			c0.21,0.46,0.67,0.73,1.14,0.73c0.18,0,0.36-0.04,0.52-0.12c0.62-0.29,0.9-1.03,0.61-1.66
			C-297.6-351.52-302.86-358.19-310.31-356.33z"/>
		<path d="M-44.22-173.13l5.21,61.31c0.11,1.42,1.21,2.56,2.62,2.73l16.62,2.03c0.13,0.01,0.25,0.02,0.37,0.02
			c1.5,0,2.79-1.12,2.98-2.63c0.2-1.64-0.97-3.14-2.61-3.34l-14.2-1.74l-4.95-59.78L-44.22-173.13z"/>
		<path d="M-95.6-160.91l-3.67,28.77c-0.18,1.35,0.58,2.65,1.84,3.16l33.41,13.63l-2.65,13.25c-0.33,1.62,0.73,3.21,2.35,3.53
			c0.2,0.04,0.39,0.06,0.59,0.06c1.4,0,2.65-0.99,2.96-2.41l3.14-15.68c0.28-1.41-0.48-2.83-1.81-3.37l-33.57-13.7l3.66-28.86
			L-95.6-160.91z"/>
		<path d="M-149.64-211.91c-0.36-0.01-2.31-0.07-5.29-0.6c-11.58-2.07-38.64-11.29-47.72-52.21c2.56-1.61,4.08-4.62,3.62-7.8
			c-0.59-4.11-4.27-7.01-8.34-6.72c-1.8-1.25-4-1.96-6.37-1.88c-5.8,0.22-10.32,5.09-10.11,10.89c0.1,2.67,1.2,5.07,2.92,6.86
			l-4.57,5.94c-4.99,6.48-12.21,10.47-20.35,11.23c-8.14,0.77-15.98-1.82-22.09-7.26l-18.95-16.9l5.29-95.94
			c0.16-2.95-2.1-5.47-5.04-5.63c-0.82-0.05-1.88-0.1-3.27-0.18l-12.18,220.84c1.65,0.09,2.65,0.15,3.27,0.18
			c2.95,0.16,5.47-2.1,5.63-5.04l5.88-106.57l15.39,13.73c6.44,5.75,14.82,8.9,23.39,8.9c1.08,0,2.16-0.05,3.24-0.15
			c9.68-0.91,18.63-5.84,24.55-13.55l5.08-6.61c0.87,0.2,1.77,0.29,2.7,0.26c1.79-0.07,3.45-0.58,4.9-1.42
			c13.13,54.33,57.85,55.61,58.33,55.61c0.25,0,0.5-0.02,0.73-0.08c1.3-0.31,2.28-1.47,2.3-2.86
			C-146.67-210.52-147.99-211.88-149.64-211.91z"/>
		<path d="M-68.41-281.78c-0.73,0.39-1,1.3-0.6,2.03c0.4,0.73,1.32,1,2.04,0.6c0.37-0.2,8.9-4.7,15.66,4.61
			c0.29,0.41,0.75,0.62,1.21,0.62c0.31,0,0.62-0.09,0.88-0.29c0.67-0.48,0.82-1.42,0.33-2.09
			C-55.52-285.44-64.56-283.88-68.41-281.78z"/>
		<path d="M-55.01-308.7c1.78-0.41,2.9-2.19,2.49-3.97c-0.61-2.66-3.95-8.1-5.19-7.82c-1.24,0.29-1.93,6.43-1.27,9.3
			C-58.57-309.41-56.8-308.29-55.01-308.7z"/>
		<path d="M-127.66-248.22c-0.51-2.15-2.63-3.48-4.74-2.98c-2.1,0.5-3.4,2.64-2.89,4.79l1.11,4.67c0.51,2.14,2.63,3.47,4.73,2.97
			c2.11-0.5,3.4-2.64,2.9-4.78L-127.66-248.22z"/>
		<path d="M-57.48-264.88c-0.51-2.15-2.63-3.48-4.74-2.98c-2.1,0.5-3.4,2.64-2.89,4.79l1.11,4.67c0.51,2.14,2.63,3.47,4.73,2.97
			c2.11-0.5,3.4-2.64,2.9-4.78L-57.48-264.88z"/>
		<path d="M-323.16-455.89l-0.15-5.05c-0.26-8.76-7.57-15.66-16.33-15.4l-4.1,0.12c-8.76,0.26-15.66,7.57-15.4,16.33l0.15,5.05
			L-323.16-455.89z"/>
		<path d="M-356.14-444.99c3.73-0.11,26.95-0.79,30.69-0.9c4.26-0.13,13.11-0.39,13.8-10.15c0.1-1.37-0.93-2.56-2.31-2.66
			s-2.57,0.94-2.67,2.31c-0.27,3.75-2.3,4.97-6.4,5.36c-0.78,0.08-1.64,0.12-2.57,0.15c-3.73,0.11-26.95,0.79-30.69,0.9
			c-0.93,0.03-1.79,0.03-2.57,0c-4.11-0.15-6.21-1.24-6.7-4.98c-0.18-1.37-1.43-2.33-2.8-2.15c-1.37,0.18-2.33,1.43-2.15,2.8
			C-369.25-444.61-360.39-444.87-356.14-444.99z"/>
		<path d="M36.02-313.45c6.56-5.81,7.18-15.84,1.37-22.4l-2.72-3.07c-5.81-6.56-15.84-7.18-22.4-1.37l-3.78,3.35l23.75,26.85
			L36.02-313.45z"/>
		<polygon points="-366.41,-376.33 -298.47,-372.58 -298.38,-374.22 -366.35,-377.84 		"/>
		<path d="M-131.52-261.96c0.81,0.12,1.58-0.46,1.7-1.28c0.12-0.82-0.46-1.58-1.28-1.69c-4.34-0.61-13.35,1.11-16.34,12
			c-0.22,0.8,0.25,1.63,1.04,1.84c0.31,0.1,0.64,0.07,0.93-0.04c0.43-0.16,0.79-0.52,0.91-1.01
			C-141.5-263.23-131.93-262.02-131.52-261.96z"/>
	</g>
</g>
<g>
	<path class="st4" d="M108.33,100.02c-3.85-0.21-6.75-0.37-8.22-0.45L87.93,320.41l84.72,4.67l12.18-220.84l-8.56-0.47
		L108.33,100.02z"/>
	<path class="st4" d="M180.04,35.49c0.16-2.95-2.09-5.46-5.04-5.63l-57.28-3.16c-2.95-0.16-5.46,2.09-5.62,5.04l-3.69,66.77
		l67.95,3.62L180.04,35.49z M137.65,68.11l-0.03,0.47c-0.04,0.78-0.71,1.39-1.5,1.34l-6.58-0.36l-6.79-0.37l-0.78-0.04
		c-0.78-0.04-1.39-0.72-1.35-1.5c0-0.01,0-0.01,0-0.01l0.47-8.48c0.04-0.79,0.72-1.38,1.5-1.34l0.78,0.04l6.79,0.37l6.58,0.36
		c0.79,0.05,1.39,0.71,1.35,1.5L137.65,68.11z M168.65,70.11l-0.03,0.47c-0.04,0.78-0.71,1.39-1.5,1.34l-6.58-0.36l-6.79-0.37
		l-0.78-0.04c-0.78-0.04-1.39-0.72-1.35-1.5c0-0.01,0-0.01,0-0.01l0.47-8.48c0.04-0.79,0.72-1.38,1.5-1.34l0.78,0.04l6.79,0.37
		l6.58,0.36c0.79,0.05,1.39,0.71,1.35,1.5L168.65,70.11z"/>
	<path class="st4" d="M444.62,200.14c-0.38-1.62-2.01-2.62-3.63-2.24l-1.55,0.37l-5.13-21.62l1.02-0.24
		c0.45-0.11,0.87-0.32,1.24-0.62l0.47-0.39c0.88-0.73,1.26-1.89,1-3.01l-2.19-9.22c-0.38-1.62-2-2.62-3.62-2.23l-2.34,0.55
		l-0.39-1.66l2.34-0.55c1.62-0.38,2.62-2.01,2.23-3.63l-7.84-33.04c-0.68-2.87-3.56-4.64-6.43-3.96l-1.69,0.4l-20.5,4.87l-2.19,0.52
		l-11.69,2.78l-2.19,0.52l-12.28,2.92l-2.19,0.52l-11.69,2.77l-2.19,0.52l-11.69,2.77l-2.19,0.52l-12.24,2.91l-2.19,0.52
		l-11.93,2.83l-2.19,0.52l-0.66,0.16c-1.32,0.31-2.48,1.12-3.23,2.25l-6.8,10.31l-4.46,6.75c-0.81,1.24-1.07,2.75-0.73,4.18
		l7.28,30.66c0.38,1.62,2.01,2.62,3.62,2.23l2.63,11.08c-1.62,0.38-2.62,2.01-2.23,3.62l24.78,104.4l0.63,1.65l1.03,1.43l1.37,1.12
		l1.61,0.72l1.74,0.28l1.76-0.18l122.33-29.04l2.07-0.95l1.56-1.67l0.63-1.39l0.24-1.51l-0.19-1.51L444.62,200.14z"/>
	<path class="st4" d="M118.46,26.37c3.74-0.1,26.96-0.79,30.69-0.9c0.93-0.03,1.79-0.07,2.57-0.15l-0.14-4.86l-35.83,1.05l0.14,4.86
		C116.67,26.4,117.53,26.39,118.46,26.37z"/>
	<path class="st4" d="M483.22,139.4l-3.64,3.22c0.48,0.62,1.03,1.28,1.65,1.97c2.47,2.81,17.87,20.21,20.34,23
		c0.62,0.7,1.2,1.33,1.76,1.88l3.64-3.22L483.22,139.4z"/>
</g>
</svg>
