<?xml version="1.0" encoding="utf-8"?>
<!-- Generator: Adobe Illustrator 24.2.1, SVG Export Plug-In . SVG Version: 6.00 Build 0)  -->
<svg version="1.1" xmlns="http://www.w3.org/2000/svg" xmlns:xlink="http://www.w3.org/1999/xlink" x="0px" y="0px"
	 viewBox="0 0 568.79 443.82" style="enable-background:new 0 0 568.79 443.82;" xml:space="preserve">
<style type="text/css">
	.st0{fill:#7A848C;}
	.st1{fill:none;stroke:#285071;stroke-width:6;stroke-linecap:round;stroke-linejoin:round;stroke-miterlimit:10;}
	.st2{opacity:0.1;fill:#F7931E;}
	.st3{fill:#285071;}
	.st4{fill:#51769A;}
	.st5{fill:#89CCD3;}
	.st6{fill:#C0C5DC;}
	.st7{fill:#316184;}
	.st8{fill:#FFED6B;}
	.st9{fill:#9DA4BF;}
	.st10{fill:none;stroke:#96DEEA;stroke-width:2.5;stroke-linecap:round;stroke-linejoin:round;stroke-miterlimit:10;}
	.st11{fill:#CFECFC;}
	.st12{fill:#3A90DD;}
	.st13{fill:#2F556F;}
	.st14{fill:#2D4759;}
	.st15{fill:#BDECF3;}
	.st16{fill:none;stroke:#96DEEA;stroke-width:3;stroke-linecap:round;stroke-linejoin:round;stroke-miterlimit:10;}
	.st17{fill:#F7931E;}
	.st18{fill:#FF8500;}
	.st19{fill:#FFFFFF;}
	.st20{fill:none;stroke:#000000;stroke-width:6;stroke-linecap:round;stroke-linejoin:round;stroke-miterlimit:10;}
	.st21{fill:none;stroke:#000000;stroke-width:2.5;stroke-linecap:round;stroke-linejoin:round;stroke-miterlimit:10;}
	.st22{fill:none;stroke:#000000;stroke-width:3;stroke-linecap:round;stroke-linejoin:round;stroke-miterlimit:10;}
	.st23{fill:#FF0000;}
</style>
<g id="background">
</g>
<g id="Layer_1">
	<g>
		<path class="st1" d="M205.13,196.36l32.25,28.77c13.92,12.41,35.45,10.4,46.82-4.38l10.31-13.4"/>
		<path class="st1" d="M136.23,196.07l-32.25,28.77c-13.92,12.41-35.45,10.4-46.82-4.38l-10.31-13.4"/>
		<ellipse class="st2" cx="162.89" cy="417.3" rx="131.72" ry="26.52"/>
		<polyline class="st1" points="161.32,315.24 125.26,349.74 150.35,398.35 139.37,410.89 		"/>
		<polyline class="st1" points="181.71,310.54 195.82,363.85 184.84,415.6 198.96,418.73 		"/>
		<g>
			<path class="st3" d="M32.58,201.42c0.22,5.79,5.09,10.32,10.88,10.11c5.8-0.22,10.33-5.09,10.11-10.89
				c-0.22-5.79-5.09-10.32-10.89-10.11C36.89,190.75,32.37,195.62,32.58,201.42z"/>
		</g>
		<g>
			<g>
				<path class="st4" d="M220.67,104.41c-0.82-0.05-1.88-0.1-3.27-0.18l-12.18,220.84c1.65,0.09,2.65,0.15,3.27,0.18
					c2.95,0.16,5.47-2.1,5.63-5.04l11.59-210.17C225.87,107.09,223.61,104.57,220.67,104.41z"/>
			</g>
			<g>
				<path class="st5" d="M167.31,58.58l-6.58-0.36l-6.79-0.37l-0.78-0.04c-0.78-0.04-1.46,0.55-1.5,1.34l-0.47,8.48
					c-0.04,0.78,0.56,1.46,1.35,1.5l0.78,0.04l6.79,0.37l6.58,0.36c0.79,0.04,1.46-0.56,1.5-1.34l0.47-8.48
					C168.7,59.29,168.1,58.63,167.31,58.58z"/>
				<path class="st5" d="M201.29,60.46l-0.45-0.02l-6.8-0.38l-6.57-0.36l-0.33-0.02c-0.78-0.04-1.46,0.55-1.5,1.34l-0.47,8.48
					c-0.04,0.78,0.56,1.46,1.34,1.5l0.33,0.02l6.57,0.36l6.8,0.38l0.45,0.02c0.79,0.04,1.46-0.56,1.5-1.34l0.47-8.48
					C202.67,61.17,202.07,60.5,201.29,60.46z"/>
				<path class="st6" d="M212.6,35.48c0.16-2.95-2.09-5.46-5.04-5.63l-57.28-3.16c-2.95-0.16-5.46,2.09-5.62,5.04l-3.77,68.28
					l67.94,3.75L212.6,35.48z"/>
				<g>
					<path class="st7" d="M208.84,103.76l-67.94-3.75c-3.85-0.21-6.75-0.37-8.22-0.45l-12.18,220.84l84.72,4.67l12.18-220.84
						L208.84,103.76z"/>
				</g>
				<g>
					<path class="st4" d="M129.4,99.37c-2.94-0.16-5.46,2.1-5.62,5.04l-11.59,210.17c-0.16,2.94,2.09,5.46,5.03,5.63
						c0.56,0.03,1.54,0.09,3.27,0.18l12.18-220.84C131.34,99.48,130.35,99.43,129.4,99.37z"/>
				</g>
				<g>
					<path class="st8" d="M147.23,127.42c-2.2-0.12-4.08,1.56-4.2,3.77l-0.26,4.8c-0.12,2.2,1.57,4.08,3.76,4.2
						c2.2,0.12,4.08-1.56,4.21-3.76l0.26-4.8C151.12,129.43,149.43,127.55,147.23,127.42z"/>
				</g>
				<g>
					<path class="st8" d="M199.87,130.33c2.2,0.12,3.88,2,3.76,4.21l-0.26,4.8c-0.12,2.2-2,3.88-4.2,3.76
						c-2.21-0.12-3.89-2-3.77-4.2l0.26-4.8C195.78,131.89,197.66,130.21,199.87,130.33z"/>
				</g>
				<path class="st9" d="M168.19,68.57c-0.04,0.78-0.71,1.39-1.5,1.34l-6.58-0.36l-6.79-0.37l-0.78-0.04
					c-0.78-0.04-1.39-0.72-1.35-1.5l0.47-8.48c0.04-0.79,0.72-1.39,1.5-1.34l0.78,0.04l6.79,0.37l6.58,0.36
					c0.79,0.04,1.39,0.71,1.34,1.5L168.19,68.57z"/>
				<path class="st9" d="M202.16,70.44c-0.04,0.78-0.72,1.39-1.5,1.34l-0.45-0.02l-6.8-0.38l-6.57-0.36L186.51,71
					c-0.78-0.04-1.39-0.72-1.34-1.5l0.47-8.48c0.04-0.79,0.72-1.39,1.5-1.34l0.33,0.02l6.57,0.36l6.8,0.38l0.45,0.02
					c0.79,0.04,1.39,0.71,1.34,1.5L202.16,70.44z"/>
				<path class="st10" d="M136.1,125.05c0,0,5.66-9.45,13.8-6.43"/>
				<path class="st10" d="M210.32,129.14c0,0-4.59-10.02-13.01-7.91"/>
				<path class="st11" d="M199.44,167.39c0.25-4.45-7.85,5.66-28.17,4.54c-5.22-0.29-6.01-1.15-6.52,0.14
					c-0.88,2.23,8.01,6.23,13.85,6.55C190.9,179.3,199.27,170.62,199.44,167.39z"/>
			</g>
		</g>
		<path class="st12" d="M99.69,84.31c-0.61-0.54-1.53-0.48-2.07,0.13c-0.52,0.61-0.48,1.53,0.13,2.07l9.92,8.8
			c0.61,0.54,1.53,0.48,2.07-0.12l0.12-0.16c0.41-0.6,0.31-1.43-0.25-1.92L99.69,84.31z M89.79,101.93
			c-0.82-0.05-1.51,0.57-1.56,1.37c-0.05,0.81,0.56,1.51,1.37,1.56l13.23,0.84c0.54,0.03,1.03-0.23,1.31-0.64
			c0.14-0.21,0.23-0.46,0.25-0.73c0.05-0.81-0.56-1.51-1.37-1.56L89.79,101.93z M118.34,75.22c-0.81-0.09-1.52,0.51-1.61,1.31
			l-1.35,13.19c-0.08,0.81,0.5,1.53,1.31,1.61c0.56,0.06,1.07-0.21,1.37-0.64c0.13-0.19,0.22-0.42,0.25-0.67l1.35-13.19
			C119.73,76.03,119.15,75.31,118.34,75.22z"/>
		<g>
			<polyline class="st1" points="465.47,295.03 471.29,364.26 487.91,366.3 			"/>
			<polyline class="st1" points="415.35,310.54 411,344.58 446.71,359.15 443.57,374.83 			"/>
			<g>
				<g>
					<g>
						<path class="st3" d="M358.32,270.33c-0.24,0.06-0.48,0.08-0.73,0.08c-0.5,0-50.44-1.41-60.25-65.37
							c-0.25-1.63,0.84-3.16,2.51-3.41c1.64-0.25,3.16,0.87,3.42,2.5c9.02,58.81,52.57,60.26,54.42,60.3
							c1.65,0.03,2.97,1.39,2.94,3.04C360.59,268.87,359.62,270.03,358.32,270.33z"/>
					</g>
					<g>
						<path class="st3" d="M308.29,203.82c-0.62-4.3-4.62-7.29-8.92-6.67c-4.31,0.62-7.29,4.61-6.68,8.92
							c0.62,4.3,4.61,7.29,8.92,6.68C305.92,212.13,308.91,208.13,308.29,203.82z"/>
					</g>
				</g>
				<g>
					<g>
						<path class="st3" d="M469.89,236.78c-1.3-0.32-2.27-1.49-2.28-2.89c-0.01-1.65,1.32-2.99,2.97-3.01l0,0
							c1.85-0.02,45.4-1.16,54.85-59.91c0.26-1.64,1.8-2.74,3.43-2.48c1.63,0.25,2.74,1.8,2.48,3.43
							c-10.27,63.89-60.21,64.94-60.72,64.94C470.37,236.86,470.12,236.84,469.89,236.78z"/>
					</g>
					<g>
						<path class="st3" d="M535.97,172.98c0.65-4.31-2.31-8.32-6.61-8.97c-4.3-0.65-8.32,2.31-8.97,6.61
							c-0.65,4.3,2.31,8.32,6.61,8.97C531.31,180.24,535.32,177.28,535.97,172.98z"/>
					</g>
				</g>
			</g>
			<g>
				<path class="st13" d="M417.94,134.16c-0.38-1.62,0.61-3.24,2.23-3.62l5.84-1.39c1.62-0.38,3.24,0.61,3.62,2.23l-0.7-2.93
					l-0.96-4.03l-11.69,2.78l0.96,4.03L417.94,134.16z"/>
			</g>
			<g>
				<path class="st13" d="M418.02,157.29l2.93-0.7l-0.7-2.93C420.64,155.29,419.64,156.91,418.02,157.29z"/>
			</g>
			<g>
				<path class="st13" d="M403.56,160.72l2.93-0.69l-0.7-2.93C406.17,158.72,405.17,160.34,403.56,160.72z"/>
			</g>
			<g>
				<path class="st13" d="M403.47,137.59c-0.38-1.62,0.61-3.24,2.23-3.62l6.42-1.52c1.62-0.38,3.24,0.61,3.62,2.23l-0.7-2.93
					l-0.96-4.03l-12.28,2.92l0.96,4.03L403.47,137.59z"/>
			</g>
			<g>
				<path class="st13" d="M394.1,159.88l0.7,2.93l2.93-0.69C396.1,162.49,394.48,161.49,394.1,159.88z"/>
			</g>
			<g>
				<path class="st13" d="M422.44,153.15l0.7,2.93l2.93-0.7C424.45,155.77,422.83,154.77,422.44,153.15z"/>
			</g>
			<g>
				<path class="st13" d="M431.82,130.86c-0.38-1.62,0.61-3.24,2.23-3.62l4.4-1.04c1.62-0.38,3.24,0.61,3.62,2.23l4.51,18.99
					c0.38,1.62-0.61,3.24-2.23,3.62l2.93-0.7l2.15-0.51l2.93-0.7c-1.62,0.38-3.24-0.61-3.62-2.23l-4.51-18.99
					c-0.38-1.62,0.62-3.24,2.23-3.62l2.24-0.53c1.62-0.38,3.24,0.62,3.62,2.23l-0.7-2.93l-0.96-4.03l-20.5,4.87l0.96,4.03
					L431.82,130.86z"/>
			</g>
			<g>
				<path class="st13" d="M454.59,148.61l2.93-0.7l-0.7-2.93C457.21,146.61,456.21,148.23,454.59,148.61z"/>
			</g>
			<g>
				<path class="st13" d="M431.9,154l2.93-0.7l-0.7-2.93C434.52,151.99,433.52,153.61,431.9,154z"/>
			</g>
			<g>
				<path class="st13" d="M436.33,149.85l0.7,2.93l2.93-0.69C438.33,152.47,436.71,151.47,436.33,149.85z"/>
			</g>
			<g>
				<path class="st13" d="M407.98,156.58l0.7,2.93l2.93-0.69C409.98,159.2,408.36,158.2,407.98,156.58z"/>
			</g>
			<g>
				<path class="st13" d="M351.66,169.95l0.7,2.93l2.93-0.7C353.66,172.57,352.04,171.57,351.66,169.95z"/>
			</g>
			<g>
				<path class="st13" d="M335.02,167.38c-0.38-1.61,0.62-3.23,2.23-3.62l7.12-1.69c1.62-0.38,3.24,0.61,3.62,2.23l-0.69-2.92
					l-4-16.85l-0.66,0.16c-1.32,0.31-2.48,1.12-3.23,2.25l-6.8,10.31l1.71,7.21L335.02,167.38z"/>
			</g>
			<g>
				<path class="st13" d="M361.36,170.74l2.93-0.69l-0.7-2.93C363.97,168.74,362.97,170.36,361.36,170.74z"/>
			</g>
			<g>
				<path class="st13" d="M365.78,166.6l0.7,2.93l2.93-0.7C367.78,169.22,366.17,168.22,365.78,166.6z"/>
			</g>
			<g>
				<path class="st13" d="M361.27,147.61c-0.38-1.62,0.61-3.24,2.23-3.62l6.39-1.52c1.62-0.38,3.24,0.62,3.62,2.23l-0.7-2.93
					l-0.96-4.03l-12.24,2.91l0.96,4.03L361.27,147.61z"/>
			</g>
			<g>
				<path class="st13" d="M350.03,185.85l2.93-0.7l-0.7-2.93C352.64,183.84,351.64,185.47,350.03,185.85z"/>
			</g>
			<g>
				<path class="st13" d="M347.15,150.96c-0.38-1.62,0.62-3.24,2.24-3.63l6.07-1.44c1.61-0.38,3.24,0.62,3.62,2.23l-0.7-2.93
					l-0.96-4.03l-11.93,2.83l0.96,4.03L347.15,150.96z"/>
			</g>
			<g>
				<path class="st13" d="M339.28,185.3l0.7,2.93l2.93-0.69C341.29,187.92,339.66,186.92,339.28,185.3z"/>
			</g>
			<g>
				<path class="st13" d="M375.79,167.31l2.93-0.69l-0.7-2.93C378.41,165.31,377.41,166.93,375.79,167.31z"/>
			</g>
			<g>
				<path class="st13" d="M389.67,164.02l2.93-0.7l-0.7-2.93C392.29,162.01,391.29,163.64,389.67,164.02z"/>
			</g>
			<g>
				<path class="st13" d="M375.33,142.57c-0.38-1.62,0.61-3.24,2.23-3.62l5.83-1.38c1.62-0.38,3.24,0.62,3.62,2.23l-0.7-2.93
					l-0.57-2.41l-11.69,2.77l0.57,2.41L375.33,142.57z"/>
			</g>
			<g>
				<path class="st13" d="M380.22,163.17l0.7,2.93l2.93-0.69C382.22,165.79,380.6,164.79,380.22,163.17z"/>
			</g>
			<g>
				<path class="st13" d="M389.2,139.27c-0.38-1.62,0.61-3.24,2.23-3.62l5.84-1.39c1.62-0.38,3.24,0.62,3.62,2.23l-0.7-2.93
					l-0.57-2.41l-11.69,2.77l0.57,2.41L389.2,139.27z"/>
			</g>
			<g>
				<path class="st7" d="M464.4,159.27c1.62-0.38,2.62-2.01,2.23-3.63l-7.84-33.04c-0.68-2.87-3.56-4.64-6.43-3.96l-1.69,0.4
					l0.96,4.03l0.7,2.93l4.51,18.99l0.7,2.93l-2.93,0.7l-2.24,0.53l-2.93,0.7l-2.15,0.51l-2.93,0.7l-4.4,1.04l-2.93,0.69l-0.7-2.93
					l-4.51-18.99l-0.7-2.93l-0.96-4.03l-2.19,0.52l0.96,4.03l0.7,2.93l4.51,18.99l0.7,2.93l-2.93,0.7l-5.84,1.39l-2.93,0.7
					l-0.7-2.93l-4.51-18.99l-0.7-2.93l-0.96-4.03l-2.19,0.52l0.96,4.03l0.7,2.93l4.51,18.99l0.7,2.93l-2.93,0.7l-6.42,1.52
					l-2.93,0.69l-0.7-2.93l-4.51-18.99l-0.7-2.93l-0.96-4.03l-2.19,0.52l0.57,2.41l0.7,2.93l4.89,20.6l0.7,2.93l-2.93,0.69
					l-5.84,1.39l-2.93,0.69l-0.7-2.93l-4.89-20.6l-0.7-2.93l-0.57-2.41l-2.19,0.52l0.57,2.41l0.7,2.93l4.89,20.6l0.7,2.93l-2.93,0.7
					l-5.83,1.38l-2.93,0.69l-0.7-2.93l-4.89-20.6l-0.7-2.93l-0.57-2.41l-2.19,0.52l0.96,4.03l0.7,2.93l4.51,18.99l0.7,2.93
					l-2.93,0.69l-6.39,1.52l-2.93,0.7l-0.7-2.93l-4.51-18.99l-0.7-2.93l-0.96-4.03l-2.19,0.52l0.96,4.03l0.7,2.93l4.51,18.99
					l0.7,2.93l-2.93,0.69l-6.07,1.44l-2.93,0.7l-0.7-2.93l-4.51-18.99l-0.7-2.93l-0.96-4.03l-2.19,0.52l4,16.85l0.69,2.92
					l4.26,17.93l0.7,2.93l-2.93,0.7l-7.12,1.69l-2.93,0.69l-0.7-2.93l-4.26-17.93l-0.69-2.92l-1.71-7.21l-4.46,6.75
					c-0.81,1.24-1.07,2.75-0.73,4.18l7.28,30.66c0.38,1.62,2.01,2.62,3.62,2.23l2.63,11.08c-1.62,0.38-2.62,2.01-2.23,3.62
					l24.78,104.4l0.63,1.65l1.03,1.43l1.37,1.12l1.61,0.72l1.74,0.28l1.76-0.18l122.33-29.04l2.07-0.95l1.56-1.67l0.63-1.39
					l0.24-1.51l-0.15-1.52l-21.12-88.99c-0.38-1.62-2.01-2.62-3.63-2.24l-1.55,0.37l-5.13-21.62l1.02-0.24
					c0.45-0.11,0.87-0.32,1.24-0.62l0.47-0.39c0.88-0.73,1.26-1.89,1-3.01l-2.19-9.22c-0.38-1.62-2-2.62-3.62-2.23l-2.34,0.55
					l-0.39-1.66L464.4,159.27z"/>
			</g>
			<g>
				<path class="st8" d="M448.7,123.76l-2.24,0.53c-1.62,0.38-2.62,2.01-2.23,3.62l4.51,18.99c0.38,1.62,2.01,2.62,3.62,2.23
					l2.24-0.53c1.62-0.38,2.62-2.01,2.23-3.62L452.32,126C451.94,124.38,450.31,123.38,448.7,123.76z"/>
			</g>
			<g>
				<path class="st8" d="M344.38,162.07l-7.12,1.69c-1.61,0.38-2.62,2-2.23,3.62l4.26,17.93c0.38,1.62,2.01,2.62,3.62,2.24
					l7.12-1.69c1.62-0.38,2.62-2.01,2.23-3.63L348,164.3C347.62,162.68,346,161.69,344.38,162.07z"/>
			</g>
			<g>
				<path class="st8" d="M446.58,147.42l-4.51-18.99c-0.38-1.62-2.01-2.62-3.62-2.23l-4.4,1.04c-1.62,0.38-2.62,2-2.23,3.62
					l4.51,18.99c0.38,1.62,2.01,2.62,3.62,2.23l4.4-1.04C445.96,150.66,446.96,149.04,446.58,147.42z"/>
			</g>
			<g>
				<path class="st8" d="M369.89,142.47l-6.39,1.52c-1.62,0.38-2.62,2.01-2.23,3.62l4.51,18.99c0.38,1.62,2,2.62,3.62,2.23
					l6.39-1.52c1.62-0.38,2.62-2.01,2.23-3.62l-4.51-18.99C373.13,143.08,371.51,142.08,369.89,142.47z"/>
			</g>
			<g>
				<path class="st8" d="M383.39,137.56l-5.83,1.38c-1.62,0.38-2.62,2.01-2.23,3.62l4.89,20.6c0.38,1.62,2.01,2.62,3.62,2.23
					l5.83-1.38c1.62-0.38,2.62-2.01,2.23-3.62l-4.89-20.6C386.63,138.17,385.01,137.17,383.39,137.56z"/>
			</g>
			<g>
				<path class="st8" d="M412.13,132.44l-6.42,1.52c-1.62,0.38-2.62,2.01-2.23,3.62l4.51,18.99c0.38,1.62,2.01,2.62,3.62,2.23
					l6.42-1.52c1.62-0.38,2.62-2.01,2.23-3.62l-4.51-18.99C415.37,133.06,413.74,132.06,412.13,132.44z"/>
			</g>
			<g>
				<path class="st8" d="M426.01,129.15l-5.84,1.39c-1.62,0.38-2.62,2.01-2.23,3.62l4.51,18.99c0.38,1.62,2,2.62,3.62,2.23
					l5.84-1.39c1.62-0.38,2.62-2.01,2.23-3.62l-4.51-18.99C429.25,129.76,427.62,128.77,426.01,129.15z"/>
			</g>
			<g>
				<path class="st8" d="M397.27,134.26l-5.84,1.39c-1.62,0.38-2.61,2.01-2.23,3.62l4.89,20.6c0.38,1.62,2.01,2.62,3.62,2.23
					l5.84-1.39c1.62-0.38,2.62-2,2.23-3.62l-4.89-20.6C400.51,134.88,398.89,133.88,397.27,134.26z"/>
			</g>
			<g>
				<path class="st8" d="M355.46,145.89l-6.07,1.44c-1.62,0.38-2.62,2.01-2.24,3.63l4.51,18.99c0.38,1.62,2.01,2.62,3.63,2.23
					l6.07-1.44c1.61-0.38,2.62-2,2.23-3.62l-4.51-18.99C358.7,146.51,357.07,145.51,355.46,145.89z"/>
			</g>
			<g>
				<polygon class="st14" points="431.57,310.37 431.79,310.17 431.93,310.08 432.41,309.48 432.89,308.89 431.34,310.57 				"/>
			</g>
			<g>
				<polygon class="st14" points="431.99,310.77 432.7,310.49 432.83,310.4 433.09,310.26 433.35,310.09 431.27,311.04 				"/>
			</g>
			<path class="st15" d="M401.12,249.77c1.85,7.81,14.78,17.87,25.07,15.43c8.97-2.13,16.69-14.14,14.64-22.75
				c-0.97-4.11-3.39-5.83-5.55-5.32c-2.5,0.59-4.49,4.01-10.88,5.53c-9.99,2.37-15.16-3.42-19.71-2.34
				C401.94,240.97,400.02,245.1,401.12,249.77z"/>
			<path class="st16" d="M360.82,225.68c0,0,4.65-12.11,16.82-12.1"/>
			<path class="st16" d="M439.62,195.88c0,0,9.98-5.44,17.59,5.05"/>
			<path class="st12" d="M447.73,166.89c-0.79-3.46,0.03-10.85,1.53-11.19c1.5-0.34,5.51,6.21,6.24,9.41c0.49,2.15-0.85,4.29-3,4.78
				C450.36,170.38,448.22,169.04,447.73,166.89z"/>
			<g>
				<path class="st8" d="M374.91,225.14c-2.1,0.5-3.4,2.64-2.89,4.79l1.11,4.67c0.51,2.14,2.63,3.47,4.73,2.97
					c2.11-0.5,3.4-2.64,2.9-4.78l-1.11-4.67C379.14,225.97,377.02,224.64,374.91,225.14z"/>
			</g>
			<g>
				<path class="st8" d="M445.09,208.48c-2.1,0.5-3.4,2.64-2.89,4.79l1.11,4.67c0.51,2.14,2.63,3.47,4.73,2.97
					c2.11-0.5,3.4-2.64,2.9-4.78l-1.11-4.67C449.32,209.31,447.2,207.98,445.09,208.48z"/>
			</g>
			<path class="st12" d="M458.21,110.26c-0.43,0.61-0.33,1.43,0.2,1.92l0.15,0.12c0.66,0.46,1.58,0.3,2.04-0.36l7.62-10.85
				c0.47-0.67,0.29-1.57-0.36-2.05c-0.67-0.46-1.58-0.31-2.04,0.36L458.21,110.26z M466.85,118.14c-0.78,0.24-1.21,1.06-0.98,1.84
				c0.08,0.26,0.22,0.48,0.41,0.65c0.37,0.34,0.91,0.48,1.42,0.33l12.68-3.88c0.78-0.24,1.21-1.06,0.98-1.84
				c-0.23-0.77-1.05-1.21-1.83-0.97L466.85,118.14z M444.68,96.75l4.36,12.52c0.08,0.23,0.22,0.44,0.4,0.6
				c0.38,0.35,0.95,0.49,1.48,0.3c0.77-0.27,1.17-1.1,0.9-1.87l-4.36-12.52c-0.27-0.76-1.11-1.17-1.87-0.9
				C444.82,95.15,444.42,95.99,444.68,96.75z"/>
		</g>
		<ellipse class="st2" cx="435.97" cy="427.36" rx="81.77" ry="16.46"/>
		<g>
			<path class="st3" d="M283.47,206.12c0.22,5.79,5.09,10.32,10.88,10.11c5.8-0.22,10.33-5.09,10.11-10.89
				c-0.22-5.79-5.09-10.32-10.89-10.11C287.78,195.45,283.26,200.32,283.47,206.12z"/>
		</g>
		<g>
			<path class="st17" d="M296.59,49.48L296.59,49.48l-11.1-19.75c-0.34-0.61-1.05-0.92-1.73-0.75l-15.14,3.87l-0.36,0.2l-0.19,0.11
				l0,0l-0.19,0.11l-0.31,0.17l-0.17,0.09l-0.13,0.32l-0.04,0.27c-0.01,0.1,0,0.2,0.02,0.31l0,0c0.03,0.07,0.07,0.13,0.11,0.19
				c0.03,0.06,0.06,0.11,0.09,0.17l10.72,19.08c-0.71,0.55-1.32,1.23-1.78,2c-1.4,2.35-1.38,4.95,0.1,5.75
				c1.48,0.8,3.68-0.41,5.04-2.83c1.36-2.43,1.38-4.95-0.1-5.75l0,0l-7.64-13.59l12.03-3.06l7.64,13.59c-0.71,0.55-1.32,1.23-1.78,2
				c-1.4,2.35-1.38,4.95,0.1,5.75c1.48,0.8,3.68-0.41,5.04-2.83C298.18,52.48,298,50.32,296.59,49.48z"/>
			<path class="st17" d="M536.8,48.05c-0.11-0.85-0.88-1.45-1.72-1.34c-0.6,0.08-1.09,0.49-1.28,1.07l-7.16,20.52
				c-0.88-0.17-1.78-0.17-2.66-0.01c-2.67,0.51-4.59,2.23-4.21,3.85c0.38,1.63,2.72,2.47,5.42,1.89c2.7-0.58,4.59-2.23,4.21-3.85
				l0,0l5.7-16.34c0.48,1.19,3.46,8.53,2.53,11.07c-0.18,0.82,0.29,1.64,1.09,1.88c0.82,0.23,1.67-0.26,1.9-1.08c0,0,0,0,0-0.01
				C541.76,62.35,537.16,50.75,536.8,48.05z"/>
			<path class="st17" d="M20.35,294.99L20.35,294.99l11.91-19.27c0.37-0.6,0.3-1.37-0.18-1.88l-10.71-11.38l-0.35-0.21l-0.19-0.11
				l0,0l-0.19-0.11l-0.3-0.19l-0.16-0.1l-0.35,0.04l-0.25,0.1c-0.09,0.04-0.18,0.1-0.26,0.16l0,0c-0.04,0.06-0.08,0.12-0.11,0.19
				c-0.04,0.05-0.07,0.11-0.1,0.16L7.59,281c-0.83-0.36-1.71-0.56-2.62-0.59c-2.74-0.08-5,1.19-4.98,2.87
				c0.02,1.68,2.14,3.02,4.91,3.04c2.78,0.01,5-1.19,4.98-2.87l0,0l8.2-13.26l8.5,9.05l-8.2,13.26c-0.83-0.36-1.71-0.56-2.62-0.59
				c-2.74-0.08-5,1.19-4.98,2.87c0.02,1.68,2.14,3.02,4.91,3.04C18.49,297.83,20.3,296.63,20.35,294.99z"/>
			<path class="st17" d="M247.87,128.68c-0.5-0.51-1.32-0.52-1.83-0.02c-0.36,0.35-0.48,0.89-0.31,1.36l5.65,17.37
				c-0.67,0.33-1.28,0.79-1.79,1.35c-1.53,1.7-1.94,3.82-0.86,4.72c1.08,0.9,3.08,0.27,4.59-1.49s1.94-3.82,0.86-4.72l0,0
				l-4.5-13.83c0.92,0.55,6.66,3.95,7.32,6.12c0.29,0.64,1.03,0.94,1.69,0.7c0.66-0.27,0.99-1.02,0.72-1.69c0,0,0,0,0-0.01
				C258.47,135.72,249.48,130.3,247.87,128.68z"/>
			<path class="st17" d="M563.45,238.83L563.45,238.83l5.29-18.03c0.16-0.56-0.06-1.16-0.56-1.46l-11.07-6.75l-0.33-0.1l-0.17-0.05
				l0,0l-0.17-0.05l-0.28-0.08l-0.15-0.04l-0.27,0.11l-0.18,0.14c-0.06,0.06-0.12,0.12-0.17,0.19l0,0
				c-0.02,0.06-0.04,0.12-0.05,0.17c-0.02,0.05-0.03,0.1-0.04,0.15l-5.11,17.42c-0.74-0.1-1.49-0.07-2.22,0.1
				c-2.21,0.54-3.74,2.05-3.35,3.39c0.38,1.34,2.37,1.95,4.6,1.35c2.23-0.6,3.73-2.05,3.35-3.39l0,0l3.64-12.41l8.79,5.37
				l-3.64,12.41c-0.74-0.11-1.49-0.07-2.22,0.1c-2.21,0.53-3.74,2.05-3.35,3.39c0.38,1.34,2.37,1.95,4.6,1.35
				C562.59,241.51,563.77,240.15,563.45,238.83z"/>
		</g>
		<g>
			<g>
				<path class="st7" d="M184,15.4c-0.26-8.76-7.57-15.66-16.33-15.4l-4.1,0.12c-8.76,0.26-15.66,7.57-15.4,16.33l0.15,5.05
					l35.83-1.05L184,15.4z"/>
			</g>
			<g>
				<path class="st4" d="M181.72,25.46c0.93-0.03,1.79-0.07,2.57-0.15l-0.14-4.86l-35.83,1.05l0.14,4.86c0.78,0.03,1.64,0.02,2.57,0
					C154.77,26.26,177.99,25.57,181.72,25.46z"/>
			</g>
			<g>
				<path class="st7" d="M193.35,17.64c-1.38-0.1-2.57,0.94-2.67,2.31c-0.27,3.75-2.3,4.97-6.4,5.36c-0.78,0.08-1.64,0.12-2.57,0.15
					c-3.73,0.11-26.95,0.79-30.69,0.9c-0.93,0.03-1.79,0.03-2.57,0c-4.11-0.15-6.21-1.24-6.7-4.98c-0.18-1.37-1.43-2.33-2.8-2.15
					c-1.37,0.18-2.33,1.43-2.15,2.8c1.26,9.7,10.12,9.44,14.37,9.32c3.73-0.11,26.95-0.79,30.69-0.9
					c4.26-0.13,13.11-0.39,13.8-10.15C195.76,18.93,194.73,17.74,193.35,17.64z"/>
			</g>
		</g>
		<g>
			<g>
				<path class="st6" d="M391.76,341.56c0.54,0.08,0.93,0.55,0.9,1.1c-0.37,5.95,1.33,10.37,5.05,13.13
					c2.78,2.06,5.66,2.39,5.68,2.4c0.58,0.06,0.99,0.58,0.93,1.16c-0.06,0.58-0.58,0.99-1.16,0.93c-0.14-0.01-13.62-1.67-12.6-17.74
					c0.04-0.58,0.53-1.02,1.11-0.98C391.71,341.56,391.74,341.56,391.76,341.56z"/>
			</g>
			<g>
				<path class="st6" d="M386.29,351.27c0.46,0.06,0.84,0.44,0.9,0.92c0.95,8.37,7.44,9.52,7.71,9.56c0.57,0.09,0.96,0.63,0.87,1.2
					c-0.09,0.57-0.62,0.96-1.19,0.87c-0.08-0.01-8.34-1.39-9.47-11.4c-0.07-0.58,0.35-1.1,0.92-1.16
					C386.12,351.25,386.2,351.25,386.29,351.27z"/>
			</g>
		</g>
		<g>
			<g>
				<path class="st6" d="M114.58,338.47c0.34,0.42,0.31,1.04-0.09,1.42c-4.32,4.1-6.08,8.5-5.23,13.06c0.63,3.4,2.51,5.6,2.53,5.62
					c0.38,0.44,0.33,1.1-0.11,1.48c-0.44,0.38-1.1,0.33-1.48-0.11c-0.09-0.1-8.83-10.49,2.84-21.58c0.42-0.4,1.08-0.38,1.48,0.04
					C114.54,338.43,114.56,338.45,114.58,338.47z"/>
			</g>
			<g>
				<path class="st6" d="M103.97,341.85c0.29,0.36,0.32,0.89,0.03,1.28c-5,6.78-1.03,12.03-0.86,12.25
					c0.35,0.46,0.28,1.11-0.18,1.47c-0.45,0.36-1.11,0.28-1.47-0.17c-0.05-0.07-5.16-6.7,0.82-14.8c0.34-0.47,1-0.57,1.47-0.22
					C103.85,341.72,103.91,341.78,103.97,341.85z"/>
			</g>
		</g>
		<g>
			<g>
				<path class="st7" d="M543.33,162.89c6.56-5.81,7.18-15.84,1.37-22.4l-2.72-3.07c-5.81-6.56-15.84-7.18-22.4-1.37l-3.78,3.35
					l23.75,26.85L543.33,162.89z"/>
			</g>
			<g>
				<path class="st4" d="M534.14,167.58c0.62,0.7,1.2,1.33,1.76,1.88l3.64-3.22l-23.75-26.85l-3.64,3.22
					c0.48,0.62,1.03,1.28,1.65,1.97C516.27,147.39,531.67,164.79,534.14,167.58z"/>
			</g>
			<g>
				<path class="st7" d="M547.6,171.51c-0.8-1.12-2.37-1.37-3.48-0.57c-3.05,2.2-5.29,1.41-8.21-1.48
					c-0.56-0.55-1.14-1.18-1.76-1.88c-2.47-2.79-17.87-20.19-20.34-22.99c-0.62-0.7-1.17-1.35-1.65-1.97
					c-2.51-3.25-3.02-5.57-0.47-8.33c0.94-1.01,0.88-2.59-0.14-3.53c-1.01-0.94-2.59-0.88-3.53,0.14
					c-6.64,7.19-0.77,13.82,2.05,17.01c2.47,2.79,17.87,20.2,20.34,22.99c2.82,3.19,8.69,9.82,16.63,4.1
					C548.15,174.19,548.4,172.63,547.6,171.51z"/>
			</g>
		</g>
		<g>
			<g>
				<path class="st12" d="M82.59,165.03c-3.64,0-3.64,5.65,0,5.65C86.23,170.68,86.24,165.03,82.59,165.03L82.59,165.03z"/>
			</g>
			<g>
				<path class="st12" d="M327.21,88.2c-3.64,0-3.64,5.65,0,5.65C330.85,93.85,330.85,88.2,327.21,88.2L327.21,88.2z"/>
			</g>
			<g>
				<path class="st12" d="M516.94,252.84c-3.64,0-3.64,5.65,0,5.65C520.58,258.5,520.59,252.84,516.94,252.84L516.94,252.84z"/>
			</g>
			<g>
				<path class="st12" d="M520.08,94.47c-3.64,0-3.64,5.65,0,5.65C523.72,100.12,523.72,94.47,520.08,94.47L520.08,94.47z"/>
			</g>
			<g>
				<path class="st12" d="M267.62,295.18c-3.64,0-3.64,5.65,0,5.65C271.26,300.83,271.27,295.18,267.62,295.18L267.62,295.18z"/>
			</g>
		</g>
	</g>
</g>
</svg>
