<?xml version="1.0" encoding="utf-8"?>
<!-- Generator: Adobe Illustrator 23.0.1, SVG Export Plug-In . SVG Version: 6.00 Build 0)  -->
<svg version="1.1" id="Ebene_1" xmlns="http://www.w3.org/2000/svg" xmlns:xlink="http://www.w3.org/1999/xlink" x="0px" y="0px"
	 viewBox="0 0 330 74" style="enable-background:new 0 0 330 74;" xml:space="preserve">
<style type="text/css">
	.st0{fill:#00CC99;}
	.st1{fill:#00A375;}
	.st2{fill:#2A506F;}
</style>
<g>
	<path class="st0" d="M266,36.9c0-11.2,8.6-18.1,18-18.1c10.5,0,18.1,8.2,18.1,17.7c0,9.5-7.5,17.7-18.1,17.7
		C273.2,54.3,266,45.7,266,36.9L266,36.9z M274.7,36.5c0,5.2,3.6,10.1,9.4,10.1c6.2,0,9.2-5.6,9.2-10c0-4.4-3-10.1-9.3-10.1
		C278,26.5,274.7,31.6,274.7,36.5L274.7,36.5z"/>
	<path class="st0" d="M313.5,42.3c0,4,2.4,4.7,3.6,4.7c2.1,0,3.3-1.7,3.3-3.3c0-1.8-1.4-2.4-6.7-4.6c-2.4-1-8.4-3.4-8.4-9.8
		c0-6.9,6.2-10.5,12-10.5c4.7,0,11.4,2.4,11.5,10.6h-8.6c-0.2-1.2-0.5-3.3-3.1-3.3c-1.5,0-3,1.1-3,2.7c0,1.6,0.9,2,7.1,4.8
		c6.4,2.9,8,5.8,8,9.8c0,5.5-2.9,11-11.9,11c-9,0-12.6-5.3-12.3-12H313.5z"/>
</g>
<g>
	<path class="st1" d="M34.5,64.3V72c1.2-0.2,2.4-0.6,3.4-1.2L60,58.2c3.1-1.8,5-5,5-8.6V24.5c0-1.1-0.2-2.2-0.6-3.3l-6.7,3.9
		L39.2,35.7c-3.8,2.7-4.6,5.2-4.7,8.2V64.3z"/>
	<path class="st1" d="M56.2,22.4l6.7-3.9c-0.8-1.1-1.8-2-2.9-2.6L37.9,3.3c-3.1-1.8-6.9-1.7-9.9,0L6,15.9c-1.2,0.7-2.2,1.6-3,2.7
		l6.7,3.9l18.5,10.6c2.2,1.4,3.7,2.8,4.7,4.4c1-1.6,2.5-3,4.7-4.4L56.2,22.4z"/>
	<path class="st1" d="M8.3,25.2l-6.8-3.9c-0.4,1-0.6,2.1-0.6,3.2v25.2c0,3.5,1.9,6.8,5,8.6l22,12.6c1,0.6,2.2,1,3.4,1.2v-7.7V43.9
		c-0.1-3-0.9-5.5-4.7-8.2L8.3,25.2z"/>
	<path class="st0" d="M64.4,21.2l-6.7,3.9c0.2,0.7,0.4,1.5,0.4,2.3v19.4c0,2.8-1.5,5.5-4,6.9l-17,9.7c-0.8,0.4-1.6,0.7-2.5,0.9V72
		c1.2-0.2,2.4-0.6,3.4-1.2L60,58.2c3.1-1.8,5-5,5-8.6V24.5C65,23.4,64.8,22.3,64.4,21.2z"/>
	<path class="st0" d="M12,20.5l16.9-9.7c2.5-1.4,5.6-1.4,8,0l17,9.7c0.9,0.5,1.6,1.2,2.2,1.9l6.7-3.9c-0.8-1.1-1.8-2-2.9-2.6
		L37.9,3.3c-3.1-1.8-6.9-1.7-9.9,0L6,15.9c-1.2,0.7-2.2,1.6-3,2.7l6.7,3.9C10.4,21.7,11.1,21,12,20.5z"/>
	<path class="st0" d="M28.9,63.4L12,53.7c-2.5-1.4-4-4.1-4-6.9V27.4c0-0.8,0.1-1.5,0.3-2.2l-6.8-3.9c-0.4,1-0.6,2.1-0.6,3.2v25.2
		c0,3.5,1.9,6.8,5,8.6l22,12.6c1,0.6,2.2,1,3.4,1.2v-7.7C30.5,64.1,29.7,63.8,28.9,63.4z"/>
</g>
<g>
	<g>
		<path class="st2" d="M88,19.7h6.7v11.1h0.1c0.7-1,1.7-1.7,2.9-2.3c1.2-0.5,2.5-0.9,3.8-1.1c0.3,0,0.7-0.1,1-0.1c0.3,0,0.6,0,0.9,0
			c4.1,0,7.5,1.4,10.1,4.1c2.6,2.7,3.9,5.9,3.9,9.4c0,0.5,0,1.1-0.1,1.6c-0.1,0.6-0.2,1.1-0.4,1.7c-0.3,1.1-0.7,2.2-1.2,3.2
			c-0.5,1-1.2,2-1.9,2.7c-1.2,1.4-2.8,2.4-4.6,3.1c-1.8,0.7-3.7,1.1-5.6,1.1c-1.9,0-3.7-0.3-5.3-1c-1.6-0.7-3-1.7-4.1-3.2l-0.1,0
			v3.4H88V19.7z M96.8,35.4c-1.7,1.4-2.5,3.1-2.5,5.2c0,2.2,0.8,4.1,2.3,5.6c1.5,1.5,3.6,2.3,6.1,2.3c2.4,0,4.3-0.7,5.8-2.2
			c1.5-1.4,2.2-3.2,2.2-5.4c0-2.1-0.7-3.9-2.2-5.4c-1.5-1.5-3.4-2.2-5.8-2.2C100.5,33.3,98.5,34,96.8,35.4z"/>
		<path class="st2" d="M149.6,53.6h-6.2v-3.4h-0.1c-0.8,1.1-1.9,2-3.3,2.7c-1.4,0.7-2.8,1.2-4.3,1.4c-0.3,0-0.6,0.1-0.9,0.1
			c-0.3,0-0.6,0-0.9,0c-2.2,0-4.1-0.4-5.8-1.1c-1.7-0.7-3.2-1.8-4.4-3.1c-1.1-1.2-2-2.6-2.6-4.2c-0.6-1.6-0.9-3.3-0.9-5
			c0-1.8,0.3-3.4,0.8-4.9c0.6-1.5,1.5-2.9,2.7-4.2c1.4-1.5,3-2.6,4.7-3.3c1.7-0.7,3.6-1.1,5.7-1.1c1.9,0,3.7,0.4,5.3,1.1
			c1.6,0.7,3,1.8,4.1,3.3v-3.6h6.2V53.6z M143.2,40.8c0-2.1-0.7-3.9-2.2-5.3c-1.5-1.5-3.4-2.2-5.8-2.1c-2.5,0-4.5,0.7-6,2.2
			c-1.6,1.5-2.3,3.4-2.3,5.6c0,2.1,0.8,3.8,2.4,5.2c1.6,1.4,3.6,2.1,5.8,2.1c2.4,0,4.4-0.7,5.9-2.2C142.4,44.9,143.2,43,143.2,40.8
			L143.2,40.8z"/>
		<path class="st2" d="M154.5,19.7h6.7v33.9h-6.7V19.7z"/>
		<path class="st2" d="M172.5,43.6c0.5,1.5,1.4,2.7,2.8,3.6c1.4,0.9,2.9,1.3,4.6,1.3c1.3,0,2.5-0.2,3.6-0.6c1.1-0.4,2-0.9,2.6-1.6
			l7.4,0c-0.8,2.3-2.5,4.2-5.1,5.8c-2.6,1.6-5.3,2.4-8.3,2.4c-4.1,0-7.5-1.3-10.4-3.9c-2.9-2.6-4.3-5.7-4.3-9.4c0-3.8,1.4-7,4.3-9.7
			c2.9-2.7,6.4-4,10.5-4c4,0,7.4,1.3,10.2,4c2.8,2.7,4.2,5.8,4.2,9.3c0,0.4,0,0.8-0.1,1.2c-0.1,0.4-0.1,0.8-0.2,1.1
			c0,0.1-0.1,0.2-0.1,0.3c0,0.1,0,0.2,0,0.3H172.5z M187.8,38.2c-0.5-1.5-1.5-2.7-2.9-3.5c-1.4-0.9-3-1.3-4.7-1.3
			c-0.1,0-0.1,0-0.2,0c-0.1,0-0.1,0-0.2,0c-1.6,0.1-3.1,0.6-4.5,1.4c-1.4,0.9-2.4,2-2.8,3.4H187.8z"/>
		<path class="st2" d="M198.9,28.2h6.2v2.3h0.1c0.8-0.9,1.8-1.7,3-2.2c1.3-0.5,2.6-0.8,4-0.9c0.1,0,0.2,0,0.3,0c0.1,0,0.2,0,0.3,0
			c0.1,0,0.3,0,0.4,0c0.1,0,0.3,0,0.4,0c1.3,0.1,2.6,0.4,3.9,1c1.3,0.5,2.3,1.3,3.3,2.2c0.1,0.1,0.3,0.2,0.4,0.3
			c0.1,0.1,0.2,0.2,0.3,0.4c1.1,1.4,1.7,2.8,1.9,4.4s0.3,3.1,0.3,4.8v13.1H217v-12c0-0.4,0-0.8,0-1.2c0-0.4,0-0.9-0.1-1.3
			c-0.1-0.7-0.2-1.3-0.4-1.9c-0.2-0.6-0.4-1.2-0.8-1.7c-0.4-0.6-1-1.1-1.8-1.5c-0.8-0.4-1.5-0.6-2.3-0.6c0,0-0.1,0-0.1,0
			c-0.1,0-0.1,0-0.2,0c-0.1,0-0.2,0-0.3,0c-0.1,0-0.2,0-0.4,0c-0.8,0.1-1.5,0.3-2.3,0.7c-0.7,0.4-1.3,0.9-1.7,1.5
			c-0.3,0.5-0.6,1.1-0.8,1.7c-0.2,0.7-0.3,1.3-0.3,2c0,0.4,0,0.8,0,1.2c0,0.4,0,0.8,0,1.1c0,0.1,0,0.2,0,0.3c0,0.1,0,0.1,0,0.2v11.5
			h-6.7V28.2z"/>
		<path class="st2" d="M257.4,53.6h-6.2v-3.4h-0.1c-0.8,1.1-1.9,2-3.3,2.7c-1.4,0.7-2.8,1.2-4.3,1.4c-0.3,0-0.6,0.1-0.9,0.1
			c-0.3,0-0.6,0-0.9,0c-2.2,0-4.1-0.4-5.8-1.1c-1.7-0.7-3.2-1.8-4.4-3.1c-1.1-1.2-2-2.6-2.6-4.2c-0.6-1.6-0.9-3.3-0.9-5
			c0-1.8,0.3-3.4,0.8-4.9c0.6-1.5,1.5-2.9,2.7-4.2c1.4-1.5,3-2.6,4.7-3.3c1.7-0.7,3.6-1.1,5.7-1.1c1.9,0,3.7,0.4,5.3,1.1
			c1.6,0.7,3,1.8,4.1,3.3v-3.6h6.2V53.6z M251.1,40.8c0-2.1-0.7-3.9-2.2-5.3c-1.5-1.5-3.4-2.2-5.8-2.1c-2.5,0-4.5,0.7-6,2.2
			c-1.6,1.5-2.3,3.4-2.3,5.6c0,2.1,0.8,3.8,2.4,5.2c1.6,1.4,3.6,2.1,5.8,2.1c2.4,0,4.4-0.7,5.9-2.2C250.3,44.9,251.1,43,251.1,40.8
			L251.1,40.8z"/>
	</g>
</g>
</svg>
