<?xml version="1.0" encoding="utf-8"?>
<!-- Generator: Adobe Illustrator 23.0.1, SVG Export Plug-In . SVG Version: 6.00 Build 0)  -->
<svg version="1.1" id="Ebene_1" xmlns="http://www.w3.org/2000/svg" xmlns:xlink="http://www.w3.org/1999/xlink" x="0px" y="0px"
	 viewBox="0 0 66 74" style="enable-background:new 0 0 66 74;" xml:space="preserve">
<style type="text/css">
	.st0{fill:#A5DE37;}
	.st1{fill:#C8F178;}
</style>
<g>
	<path class="st0" d="M34.5,64.3V72c1.2-0.2,2.4-0.6,3.4-1.2L60,58.2c3.1-1.8,5-5,5-8.6V24.5c0-1.1-0.2-2.2-0.6-3.3l-6.7,3.9
		L39.2,35.7c-3.8,2.7-4.6,5.2-4.7,8.2V64.3z"/>
	<path class="st0" d="M56.2,22.4l6.7-3.9c-0.8-1.1-1.8-2-2.9-2.6L37.9,3.3c-3.1-1.8-6.9-1.7-9.9,0L6,15.9c-1.2,0.7-2.2,1.6-3,2.7
		l6.7,3.9l18.5,10.6c2.2,1.4,3.7,2.8,4.7,4.4c1-1.6,2.5-3,4.7-4.4L56.2,22.4z"/>
	<path class="st0" d="M8.3,25.2l-6.8-3.9c-0.4,1-0.6,2.1-0.6,3.2v25.2c0,3.5,1.9,6.8,5,8.6l22,12.6c1,0.6,2.2,1,3.4,1.2v-7.7V43.9
		c-0.1-3-0.9-5.5-4.7-8.2L8.3,25.2z"/>
	<path class="st1" d="M64.4,21.2l-6.7,3.9c0.2,0.7,0.4,1.5,0.4,2.3v19.4c0,2.8-1.5,5.5-4,6.9l-17,9.7c-0.8,0.4-1.6,0.7-2.5,0.9V72
		c1.2-0.2,2.4-0.6,3.4-1.2L60,58.2c3.1-1.8,5-5,5-8.6V24.5C65,23.4,64.8,22.3,64.4,21.2z"/>
	<path class="st1" d="M12,20.5l16.9-9.7c2.5-1.4,5.6-1.4,8,0l17,9.7c0.9,0.5,1.6,1.2,2.2,1.9l6.7-3.9c-0.8-1.1-1.8-2-2.9-2.6
		L37.9,3.3c-3.1-1.8-6.9-1.7-9.9,0L6,15.9c-1.2,0.7-2.2,1.6-3,2.7l6.7,3.9C10.4,21.7,11.1,21,12,20.5z"/>
	<path class="st1" d="M28.9,63.4L12,53.7c-2.5-1.4-4-4.1-4-6.9V27.4c0-0.8,0.1-1.5,0.3-2.2l-6.8-3.9c-0.4,1-0.6,2.1-0.6,3.2v25.2
		c0,3.5,1.9,6.8,5,8.6l22,12.6c1,0.6,2.2,1,3.4,1.2v-7.7C30.5,64.1,29.7,63.8,28.9,63.4z"/>
</g>
</svg>
