<?xml version="1.0" encoding="utf-8"?>
<!-- Generator: Adobe Illustrator 23.0.1, SVG Export Plug-In . SVG Version: 6.00 Build 0)  -->
<svg version="1.1" xmlns="http://www.w3.org/2000/svg" xmlns:xlink="http://www.w3.org/1999/xlink" x="0px" y="0px"
	 viewBox="0 0 260.9 74" style="enable-background:new 0 0 260.9 74;" xml:space="preserve">
<style type="text/css">
	.st0{display:none;}
	.st1{fill:#2A506F;}
	.st2{fill:#FBBF09;}
	.st3{fill:#00A275;}
	.st4{fill:#EB8A04;}
	.st5{fill:#F5EA64;}
	.st6{fill:#48C0ED;}
	.st7{fill:#FDD657;}
</style>
<g id="type" class="st0">
	
		<text transform="matrix(1 0 0 1 264.4807 53.6223)" style="display:inline; font-family:'ITCAvantGardeStd-Bold'; font-size:46.2px;">Fin</text>
</g>
<g id="Ebene_1">
	<g>
		<g>
			<path class="st1" d="M88,19.7h6.7v11.1h0.1c0.7-1,1.7-1.7,2.9-2.3c1.2-0.5,2.5-0.9,3.8-1.1c0.3,0,0.7-0.1,1-0.1
				c0.3,0,0.6,0,0.9,0c4.1,0,7.5,1.4,10.1,4.1c2.6,2.7,3.9,5.9,3.9,9.4c0,0.5,0,1.1-0.1,1.6c-0.1,0.6-0.2,1.1-0.4,1.7
				c-0.3,1.1-0.7,2.2-1.2,3.2c-0.5,1-1.2,2-1.9,2.7c-1.2,1.4-2.8,2.4-4.6,3.1c-1.8,0.7-3.7,1.1-5.6,1.1c-1.9,0-3.7-0.3-5.3-1
				c-1.6-0.7-3-1.7-4.1-3.2l-0.1,0v3.4H88V19.7z M96.8,35.4c-1.7,1.4-2.5,3.1-2.5,5.2c0,2.2,0.8,4.1,2.3,5.6
				c1.5,1.5,3.6,2.3,6.1,2.3c2.4,0,4.3-0.7,5.8-2.2c1.5-1.4,2.2-3.2,2.2-5.4c0-2.1-0.7-3.9-2.2-5.4c-1.5-1.5-3.4-2.2-5.8-2.2
				C100.5,33.3,98.5,34,96.8,35.4z"/>
			<path class="st1" d="M149.6,53.6h-6.2v-3.4h-0.1c-0.8,1.1-1.9,2-3.3,2.7c-1.4,0.7-2.8,1.2-4.3,1.4c-0.3,0-0.6,0.1-0.9,0.1
				c-0.3,0-0.6,0-0.9,0c-2.2,0-4.1-0.4-5.8-1.1c-1.7-0.7-3.2-1.8-4.4-3.1c-1.1-1.2-2-2.6-2.6-4.2c-0.6-1.6-0.9-3.3-0.9-5
				c0-1.8,0.3-3.4,0.8-4.9c0.6-1.5,1.5-2.9,2.7-4.2c1.4-1.5,3-2.6,4.7-3.3c1.7-0.7,3.6-1.1,5.7-1.1c1.9,0,3.7,0.4,5.3,1.1
				c1.6,0.7,3,1.8,4.1,3.3v-3.6h6.2V53.6z M143.2,40.8c0-2.1-0.7-3.9-2.2-5.3c-1.5-1.5-3.4-2.2-5.8-2.1c-2.5,0-4.5,0.7-6,2.2
				c-1.6,1.5-2.3,3.4-2.3,5.6c0,2.1,0.8,3.8,2.4,5.2c1.6,1.4,3.6,2.1,5.8,2.1c2.4,0,4.4-0.7,5.9-2.2C142.4,44.9,143.2,43,143.2,40.8
				L143.2,40.8z"/>
			<path class="st1" d="M154.5,19.7h6.7v33.9h-6.7V19.7z"/>
			<path class="st1" d="M172.5,43.6c0.5,1.5,1.4,2.7,2.8,3.6c1.4,0.9,2.9,1.3,4.6,1.3c1.3,0,2.5-0.2,3.6-0.6c1.1-0.4,2-0.9,2.6-1.6
				l7.4,0c-0.8,2.3-2.5,4.2-5.1,5.8c-2.6,1.6-5.3,2.4-8.3,2.4c-4.1,0-7.5-1.3-10.4-3.9c-2.9-2.6-4.3-5.7-4.3-9.4
				c0-3.8,1.4-7,4.3-9.7c2.9-2.7,6.4-4,10.5-4c4,0,7.4,1.3,10.2,4c2.8,2.7,4.2,5.8,4.2,9.3c0,0.4,0,0.8-0.1,1.2
				c-0.1,0.4-0.1,0.8-0.2,1.1c0,0.1-0.1,0.2-0.1,0.3c0,0.1,0,0.2,0,0.3H172.5z M187.8,38.2c-0.5-1.5-1.5-2.7-2.9-3.5
				c-1.4-0.9-3-1.3-4.7-1.3c-0.1,0-0.1,0-0.2,0c-0.1,0-0.1,0-0.2,0c-1.6,0.1-3.1,0.6-4.5,1.4c-1.4,0.9-2.4,2-2.8,3.4H187.8z"/>
			<path class="st1" d="M198.9,28.2h6.2v2.3h0.1c0.8-0.9,1.8-1.7,3-2.2c1.3-0.5,2.6-0.8,4-0.9c0.1,0,0.2,0,0.3,0c0.1,0,0.2,0,0.3,0
				c0.1,0,0.3,0,0.4,0c0.1,0,0.3,0,0.4,0c1.3,0.1,2.6,0.4,3.9,1c1.3,0.5,2.3,1.3,3.3,2.2c0.1,0.1,0.3,0.2,0.4,0.3
				c0.1,0.1,0.2,0.2,0.3,0.4c1.1,1.4,1.7,2.8,1.9,4.4s0.3,3.1,0.3,4.8v13.1H217v-12c0-0.4,0-0.8,0-1.2c0-0.4,0-0.9-0.1-1.3
				c-0.1-0.7-0.2-1.3-0.4-1.9c-0.2-0.6-0.4-1.2-0.8-1.7c-0.4-0.6-1-1.1-1.8-1.5c-0.8-0.4-1.5-0.6-2.3-0.6c0,0-0.1,0-0.1,0
				c-0.1,0-0.1,0-0.2,0c-0.1,0-0.2,0-0.3,0c-0.1,0-0.2,0-0.4,0c-0.8,0.1-1.5,0.3-2.3,0.7c-0.7,0.4-1.3,0.9-1.7,1.5
				c-0.3,0.5-0.6,1.1-0.8,1.7c-0.2,0.7-0.3,1.3-0.3,2c0,0.4,0,0.8,0,1.2c0,0.4,0,0.8,0,1.1c0,0.1,0,0.2,0,0.3c0,0.1,0,0.1,0,0.2
				v11.5h-6.7V28.2z"/>
			<path class="st1" d="M257.4,53.6h-6.2v-3.4h-0.1c-0.8,1.1-1.9,2-3.3,2.7c-1.4,0.7-2.8,1.2-4.3,1.4c-0.3,0-0.6,0.1-0.9,0.1
				c-0.3,0-0.6,0-0.9,0c-2.2,0-4.1-0.4-5.8-1.1c-1.7-0.7-3.2-1.8-4.4-3.1c-1.1-1.2-2-2.6-2.6-4.2c-0.6-1.6-0.9-3.3-0.9-5
				c0-1.8,0.3-3.4,0.8-4.9c0.6-1.5,1.5-2.9,2.7-4.2c1.4-1.5,3-2.6,4.7-3.3c1.7-0.7,3.6-1.1,5.7-1.1c1.9,0,3.7,0.4,5.3,1.1
				c1.6,0.7,3,1.8,4.1,3.3v-3.6h6.2V53.6z M251.1,40.8c0-2.1-0.7-3.9-2.2-5.3c-1.5-1.5-3.4-2.2-5.8-2.1c-2.5,0-4.5,0.7-6,2.2
				c-1.6,1.5-2.3,3.4-2.3,5.6c0,2.1,0.8,3.8,2.4,5.2c1.6,1.4,3.6,2.1,5.8,2.1c2.4,0,4.4-0.7,5.9-2.2C250.3,44.9,251.1,43,251.1,40.8
				L251.1,40.8z"/>
		</g>
	</g>
	<g>
		<path class="st2" d="M34.5,64.3V72c1.2-0.2,2.4-0.6,3.4-1.2L60,58.2c3.1-1.8,5-5,5-8.6V24.5c0-1.1-0.2-2.2-0.6-3.3l-6.7,3.9
			L39.2,35.7c-3.8,2.7-4.6,5.2-4.7,8.2V64.3z"/>
		<path class="st3" d="M56.2,22.4l6.7-3.9c-0.8-1.1-1.8-2-2.9-2.6L37.9,3.3c-3.1-1.8-6.9-1.7-9.9,0L6,15.9c-1.2,0.7-2.2,1.6-3,2.7
			l6.7,3.9l18.5,10.6c2.2,1.4,3.7,2.8,4.7,4.4c1-1.6,2.5-3,4.7-4.4L56.2,22.4z"/>
		<path class="st4" d="M8.3,25.2l-6.8-3.9c-0.4,1-0.6,2.1-0.6,3.2v25.2c0,3.5,1.9,6.8,5,8.6l22,12.6c1,0.6,2.2,1,3.4,1.2v-7.7V43.9
			c-0.1-3-0.9-5.5-4.7-8.2L8.3,25.2z"/>
		<path class="st5" d="M64.4,21.2l-6.7,3.9c0.2,0.7,0.4,1.5,0.4,2.3v19.4c0,2.8-1.5,5.5-4,6.9l-17,9.7c-0.8,0.4-1.6,0.7-2.5,0.9V72
			c1.2-0.2,2.4-0.6,3.4-1.2L60,58.2c3.1-1.8,5-5,5-8.6V24.5C65,23.4,64.8,22.3,64.4,21.2z"/>
		<path class="st6" d="M12,20.5l16.9-9.7c2.5-1.4,5.6-1.4,8,0l17,9.7c0.9,0.5,1.6,1.2,2.2,1.9l6.7-3.9c-0.8-1.1-1.8-2-2.9-2.6
			L37.9,3.3c-3.1-1.8-6.9-1.7-9.9,0L6,15.9c-1.2,0.7-2.2,1.6-3,2.7l6.7,3.9C10.4,21.7,11.1,21,12,20.5z"/>
		<path class="st7" d="M28.9,63.4L12,53.7c-2.5-1.4-4-4.1-4-6.9V27.4c0-0.8,0.1-1.5,0.3-2.2l-6.8-3.9c-0.4,1-0.6,2.1-0.6,3.2v25.2
			c0,3.5,1.9,6.8,5,8.6l22,12.6c1,0.6,2.2,1,3.4,1.2v-7.7C30.5,64.1,29.7,63.8,28.9,63.4z"/>
	</g>
</g>
</svg>
