<?xml version="1.0" encoding="utf-8"?>
<!-- Generator: Adobe Illustrator 25.2.0, SVG Export Plug-In . SVG Version: 6.00 Build 0)  -->
<svg version="1.1" id="Layer_1" xmlns="http://www.w3.org/2000/svg" xmlns:xlink="http://www.w3.org/1999/xlink" x="0px" y="0px"
	 viewBox="0 0 260 260" style="enable-background:new 0 0 260 260;" xml:space="preserve">
<style type="text/css">
	.st0{fill:#2A506F;}
	.st1{fill:#F9BD0A;}
	.st2{fill:#01A075;}
	.st3{fill:#E98804;}
	.st4{fill:#F3E864;}
	.st5{fill:#48BEEB;}
	.st6{fill:#FBD457;}
	.st7{fill:#29C0EF;}
</style>
<g>
	<g>
		<g>
			<path class="st0" d="M45.3,185.3H52v11.1h0.1c0.7-1,1.7-1.7,2.9-2.3c1.2-0.5,2.5-0.9,3.8-1.1c0.3,0,0.7-0.1,1-0.1
				c0.3,0,0.6,0,0.9,0c4.1,0,7.5,1.4,10.1,4.1c2.6,2.7,3.9,5.9,3.9,9.4c0,0.5,0,1.1-0.1,1.6c-0.1,0.6-0.2,1.1-0.4,1.7
				c-0.3,1.1-0.7,2.2-1.2,3.2c-0.5,1-1.2,2-1.9,2.7c-1.2,1.4-2.8,2.4-4.6,3.1c-1.8,0.7-3.7,1.1-5.6,1.1c-1.9,0-3.7-0.3-5.3-1
				c-1.6-0.7-3-1.7-4.1-3.2l-0.1,0v3.4h-6.2V185.3z M54.1,201c-1.7,1.4-2.5,3.1-2.5,5.2c0,2.2,0.8,4.1,2.3,5.6
				c1.5,1.5,3.6,2.3,6.1,2.3c2.4,0,4.3-0.7,5.8-2.2c1.5-1.4,2.2-3.2,2.2-5.4c0-2.1-0.7-3.9-2.2-5.4c-1.5-1.5-3.4-2.2-5.8-2.2
				C57.8,199,55.8,199.7,54.1,201z"/>
			<path class="st0" d="M106.8,219.2h-6.2v-3.4h-0.1c-0.8,1.1-1.9,2-3.3,2.7c-1.4,0.7-2.8,1.2-4.3,1.4c-0.3,0-0.6,0.1-0.9,0.1
				c-0.3,0-0.6,0-0.9,0c-2.2,0-4.1-0.4-5.8-1.1c-1.7-0.7-3.2-1.8-4.4-3.1c-1.1-1.2-2-2.6-2.6-4.2c-0.6-1.6-0.9-3.3-0.9-5
				c0-1.8,0.3-3.4,0.8-4.9c0.6-1.5,1.5-2.9,2.7-4.2c1.4-1.5,3-2.6,4.7-3.3c1.7-0.7,3.6-1.1,5.7-1.1c1.9,0,3.7,0.4,5.3,1.1
				c1.6,0.7,3,1.8,4.1,3.3v-3.6h6.2V219.2z M100.5,206.5c0-2.1-0.7-3.9-2.2-5.3c-1.5-1.5-3.4-2.2-5.8-2.1c-2.5,0-4.5,0.7-6,2.2
				c-1.6,1.5-2.3,3.4-2.3,5.6c0,2.1,0.8,3.8,2.4,5.2c1.6,1.4,3.6,2.1,5.8,2.1c2.4,0,4.4-0.7,5.9-2.2
				C99.7,210.5,100.5,208.7,100.5,206.5L100.5,206.5z"/>
			<path class="st0" d="M111.8,185.3h6.7v33.9h-6.7V185.3z"/>
			<path class="st0" d="M129.8,209.2c0.5,1.5,1.4,2.7,2.8,3.6c1.4,0.9,2.9,1.3,4.6,1.3c1.3,0,2.5-0.2,3.6-0.6c1.1-0.4,2-0.9,2.6-1.6
				l7.4,0c-0.8,2.3-2.5,4.2-5.1,5.8c-2.6,1.6-5.3,2.4-8.3,2.4c-4.1,0-7.5-1.3-10.4-3.9c-2.9-2.6-4.3-5.7-4.3-9.4
				c0-3.8,1.4-7,4.3-9.7c2.9-2.7,6.4-4,10.5-4c4,0,7.4,1.3,10.2,4c2.8,2.7,4.2,5.8,4.2,9.3c0,0.4,0,0.8-0.1,1.2
				c-0.1,0.4-0.1,0.8-0.2,1.1c0,0.1-0.1,0.2-0.1,0.3c0,0.1,0,0.2,0,0.3H129.8z M145.1,203.8c-0.5-1.5-1.5-2.7-2.9-3.5
				c-1.4-0.9-3-1.3-4.7-1.3c-0.1,0-0.1,0-0.2,0c-0.1,0-0.1,0-0.2,0c-1.6,0.1-3.1,0.6-4.5,1.4c-1.4,0.9-2.4,2-2.8,3.4H145.1z"/>
			<path class="st0" d="M156.2,193.8h6.2v2.3h0.1c0.8-0.9,1.8-1.7,3-2.2c1.3-0.5,2.6-0.8,4-0.9c0.1,0,0.2,0,0.3,0c0.1,0,0.2,0,0.3,0
				c0.1,0,0.3,0,0.4,0c0.1,0,0.3,0,0.4,0c1.3,0.1,2.6,0.4,3.9,1c1.3,0.5,2.3,1.3,3.3,2.2c0.1,0.1,0.3,0.2,0.4,0.3
				c0.1,0.1,0.2,0.2,0.3,0.4c1.1,1.4,1.7,2.8,1.9,4.4s0.3,3.1,0.3,4.8v13.1h-6.7v-12c0-0.4,0-0.8,0-1.2c0-0.4,0-0.9-0.1-1.3
				c-0.1-0.7-0.2-1.3-0.4-1.9c-0.2-0.6-0.4-1.2-0.8-1.7c-0.4-0.6-1-1.1-1.8-1.5c-0.8-0.4-1.5-0.6-2.3-0.6c0,0-0.1,0-0.1,0
				c-0.1,0-0.1,0-0.2,0c-0.1,0-0.2,0-0.3,0c-0.1,0-0.2,0-0.4,0c-0.8,0.1-1.5,0.3-2.3,0.7c-0.7,0.4-1.3,0.9-1.7,1.5
				c-0.3,0.5-0.6,1.1-0.8,1.7c-0.2,0.7-0.3,1.3-0.3,2c0,0.4,0,0.8,0,1.2c0,0.4,0,0.8,0,1.1c0,0.1,0,0.2,0,0.3c0,0.1,0,0.1,0,0.2
				v11.5h-6.7V193.8z"/>
			<path class="st0" d="M214.7,219.2h-6.2v-3.4h-0.1c-0.8,1.1-1.9,2-3.3,2.7c-1.4,0.7-2.8,1.2-4.3,1.4c-0.3,0-0.6,0.1-0.9,0.1
				c-0.3,0-0.6,0-0.9,0c-2.2,0-4.1-0.4-5.8-1.1c-1.7-0.7-3.2-1.8-4.4-3.1c-1.1-1.2-2-2.6-2.6-4.2c-0.6-1.6-0.9-3.3-0.9-5
				c0-1.8,0.3-3.4,0.8-4.9c0.6-1.5,1.5-2.9,2.7-4.2c1.4-1.5,3-2.6,4.7-3.3c1.7-0.7,3.6-1.1,5.7-1.1c1.9,0,3.7,0.4,5.3,1.1
				c1.6,0.7,3,1.8,4.1,3.3v-3.6h6.2V219.2z M208.4,206.5c0-2.1-0.7-3.9-2.2-5.3c-1.5-1.5-3.4-2.2-5.8-2.1c-2.5,0-4.5,0.7-6,2.2
				c-1.6,1.5-2.3,3.4-2.3,5.6c0,2.1,0.8,3.8,2.4,5.2c1.6,1.4,3.6,2.1,5.8,2.1c2.4,0,4.4-0.7,5.9-2.2
				C207.6,210.5,208.4,208.7,208.4,206.5L208.4,206.5z"/>
		</g>
	</g>
	<g>
		<polygon class="st0" points="53.2,66.1 7.5,66.1 32.4,91.9 7.5,117.8 53.2,117.8 		"/>
		<polygon class="st0" points="206.8,117.8 252.5,117.8 227.6,91.9 252.5,66.1 206.8,66.1 		"/>
	</g>
	<g>
		<g>
			<path class="st1" d="M133.6,154.4v18.7c3-0.4,5.8-1.4,8.3-2.8l53.7-30.6c7.5-4.3,12.1-12.2,12.1-20.8V57.8c0-2.7-0.5-5.3-1.4-7.9
				l-16.4,9.4L145,85c-9.2,6.5-11.2,12.6-11.4,19.8V154.4z"/>
			<path class="st2" d="M186.4,52.7l16.4-9.4c-2-2.6-4.4-4.8-7.2-6.3L141.9,6.4c-7.4-4.3-16.7-4.2-24.1,0L64.4,37
				c-2.8,1.6-5.2,3.8-7.2,6.5l16.4,9.4l45,25.8c5.3,3.3,8.9,6.7,11.3,10.7c2.4-4,6.1-7.4,11.3-10.6L186.4,52.7z"/>
			<path class="st3" d="M70,59.4L53.6,50c-0.9,2.5-1.4,5.1-1.4,7.7v61.2c0,8.6,4.6,16.5,12.1,20.8l53.4,30.6
				c2.5,1.5,5.3,2.4,8.3,2.8v-18.7v-49.6C126,97.6,124,91.5,114.7,85L70,59.4z"/>
			<path class="st4" d="M206.3,49.9l-16.4,9.4c0.6,1.8,0.9,3.6,0.9,5.5v47.1c0,6.9-3.8,13.4-9.8,16.8l-41.3,23.6
				c-1.9,1.1-3.9,1.8-6,2.1v18.7c3-0.4,5.8-1.4,8.3-2.8l53.7-30.6c7.5-4.3,12.1-12.2,12.1-20.8V57.8
				C207.7,55.1,207.2,52.5,206.3,49.9z"/>
			<path class="st5" d="M79,48l41.2-23.6c6-3.4,13.5-3.4,19.5,0L181,48c2.1,1.2,3.9,2.8,5.4,4.7l16.4-9.4c-2-2.6-4.4-4.8-7.2-6.3
				L141.9,6.4c-7.4-4.3-16.7-4.2-24.1,0L64.4,37c-2.8,1.6-5.2,3.8-7.2,6.5l16.4,9.4C75,50.9,76.8,49.2,79,48z"/>
			<path class="st6" d="M120.2,152.3L79,128.7c-6-3.5-9.8-9.9-9.8-16.8V64.8c0-1.9,0.3-3.7,0.8-5.4L53.6,50
				c-0.9,2.5-1.4,5.1-1.4,7.7v61.2c0,8.6,4.6,16.5,12.1,20.8l53.4,30.6c2.5,1.5,5.3,2.4,8.3,2.8v-18.7
				C124,154,122,153.4,120.2,152.3z"/>
		</g>
	</g>
	<g>
		<path class="st7" d="M32.9,256.4l7.8-23.8h5l7.8,23.8h-4.4l-1.9-6.4h-8l-1.9,6.4H32.9z M40.9,243.7l-0.8,2.9h6.1l-0.8-2.9
			c-0.4-1.3-0.8-2.6-1.1-3.9c-0.4-1.3-0.7-2.7-1-4H43c-0.3,1.3-0.7,2.7-1,4C41.6,241.2,41.2,242.5,40.9,243.7z"/>
		<path class="st7" d="M55.9,256.4v-17.9h3.5l0.3,2.4h0.1c0.8-0.8,1.6-1.5,2.5-2s1.9-0.8,3-0.8c1.3,0,2.4,0.3,3.1,0.8
			c0.8,0.6,1.4,1.3,1.8,2.4c0.8-0.9,1.7-1.7,2.7-2.3c0.9-0.6,2-0.9,3.1-0.9c1.9,0,3.3,0.6,4.2,1.8c0.9,1.2,1.3,3,1.3,5.3v11.2h-4.2
			v-10.7c0-1.5-0.2-2.5-0.7-3.1c-0.4-0.6-1.1-0.9-2.1-0.9c-1.1,0-2.4,0.7-3.7,2.2v12.5h-4.2v-10.7c0-1.5-0.2-2.5-0.7-3.1
			c-0.4-0.6-1.1-0.9-2.1-0.9c-1.1,0-2.4,0.7-3.7,2.2v12.5H55.9z"/>
		<path class="st7" d="M95.3,256.8c-0.8,0-1.7-0.2-2.5-0.6c-0.8-0.4-1.6-1-2.4-1.7h-0.1l-0.4,1.9h-3.3v-25.7h4.2v6.6l-0.1,3
			c0.8-0.7,1.6-1.2,2.5-1.6c0.9-0.4,1.8-0.6,2.7-0.6c1.1,0,2.1,0.2,3,0.6s1.6,1,2.2,1.8c0.6,0.8,1.1,1.7,1.4,2.9
			c0.3,1.1,0.5,2.4,0.5,3.8c0,1.5-0.2,2.9-0.6,4.1c-0.4,1.2-1,2.2-1.7,3c-0.7,0.8-1.5,1.5-2.4,1.9C97.2,256.6,96.3,256.8,95.3,256.8
			z M94.4,253.4c1.2,0,2.2-0.5,3-1.5c0.8-1,1.2-2.6,1.2-4.6c0-1.8-0.3-3.2-0.9-4.2c-0.6-1-1.6-1.5-2.9-1.5c-1.3,0-2.6,0.7-3.9,2v8.3
			c0.6,0.6,1.3,0.9,1.9,1.2C93.3,253.3,93.9,253.4,94.4,253.4z"/>
		<path class="st7" d="M111,256.8c-1.6,0-2.9-0.5-3.8-1.4c-1-1-1.5-2.2-1.5-3.8c0-0.9,0.2-1.8,0.6-2.5c0.4-0.7,1-1.4,1.9-1.9
			c0.9-0.5,2-1,3.3-1.3c1.3-0.4,2.9-0.6,4.8-0.8c0-0.5-0.1-0.9-0.2-1.3c-0.1-0.4-0.3-0.8-0.5-1.1c-0.3-0.3-0.6-0.6-1-0.8
			c-0.4-0.2-0.9-0.3-1.5-0.3c-0.9,0-1.7,0.2-2.6,0.5s-1.7,0.8-2.5,1.2l-1.5-2.8c1-0.6,2.1-1.2,3.3-1.6c1.2-0.5,2.6-0.7,4-0.7
			c2.2,0,3.9,0.7,5,2c1.1,1.3,1.7,3.2,1.7,5.7v10.6H117l-0.3-2h-0.1c-0.8,0.7-1.7,1.2-2.6,1.7C113.1,256.6,112.1,256.8,111,256.8z
			 M112.3,253.6c0.7,0,1.4-0.2,2-0.5c0.6-0.3,1.2-0.8,1.9-1.5v-4c-1.2,0.1-2.2,0.3-3.1,0.6c-0.8,0.2-1.5,0.5-2,0.8
			c-0.5,0.3-0.9,0.6-1.1,1c-0.2,0.4-0.3,0.8-0.3,1.2c0,0.8,0.2,1.4,0.7,1.7C111,253.4,111.6,253.6,112.3,253.6z"/>
		<path class="st7" d="M130.4,256.8c-1.2,0-2.5-0.2-3.7-0.7c-1.2-0.5-2.2-1.1-3.1-1.8l2-2.7c0.8,0.6,1.6,1.1,2.4,1.5
			c0.8,0.4,1.6,0.5,2.6,0.5c1,0,1.7-0.2,2.1-0.6s0.7-0.9,0.7-1.5c0-0.4-0.1-0.7-0.3-1s-0.5-0.5-0.9-0.7c-0.4-0.2-0.8-0.4-1.2-0.6
			c-0.5-0.2-0.9-0.4-1.4-0.6c-0.6-0.2-1.2-0.5-1.8-0.8c-0.6-0.3-1.1-0.6-1.6-1.1c-0.5-0.4-0.9-0.9-1.2-1.4c-0.3-0.5-0.5-1.2-0.5-1.9
			c0-1.6,0.6-2.9,1.7-3.9c1.2-1,2.8-1.5,4.8-1.5c1.2,0,2.4,0.2,3.3,0.7c1,0.4,1.9,0.9,2.6,1.5l-1.9,2.5c-0.6-0.5-1.3-0.8-1.9-1.1
			c-0.6-0.3-1.3-0.4-2-0.4c-0.9,0-1.6,0.2-2,0.6c-0.4,0.4-0.6,0.8-0.6,1.4c0,0.4,0.1,0.7,0.3,0.9c0.2,0.3,0.5,0.5,0.8,0.7
			s0.7,0.4,1.2,0.5c0.4,0.2,0.9,0.3,1.4,0.5c0.6,0.2,1.2,0.5,1.8,0.7c0.6,0.3,1.2,0.6,1.7,1c0.5,0.4,0.9,0.9,1.2,1.5
			c0.3,0.6,0.5,1.3,0.5,2.1c0,0.8-0.2,1.5-0.5,2.2c-0.3,0.7-0.7,1.3-1.3,1.7c-0.6,0.5-1.3,0.9-2.2,1.2S131.6,256.8,130.4,256.8z"/>
		<path class="st7" d="M146.1,256.8c-1.2,0-2.5-0.2-3.7-0.7c-1.2-0.5-2.2-1.1-3.1-1.8l2-2.7c0.8,0.6,1.6,1.1,2.4,1.5
			c0.8,0.4,1.6,0.5,2.6,0.5c1,0,1.7-0.2,2.1-0.6s0.7-0.9,0.7-1.5c0-0.4-0.1-0.7-0.3-1s-0.5-0.5-0.9-0.7c-0.4-0.2-0.8-0.4-1.2-0.6
			c-0.5-0.2-0.9-0.4-1.4-0.6c-0.6-0.2-1.2-0.5-1.8-0.8c-0.6-0.3-1.1-0.6-1.6-1.1c-0.5-0.4-0.9-0.9-1.2-1.4c-0.3-0.5-0.5-1.2-0.5-1.9
			c0-1.6,0.6-2.9,1.7-3.9c1.2-1,2.8-1.5,4.8-1.5c1.2,0,2.4,0.2,3.3,0.7c1,0.4,1.9,0.9,2.6,1.5l-1.9,2.5c-0.6-0.5-1.3-0.8-1.9-1.1
			c-0.6-0.3-1.3-0.4-2-0.4c-0.9,0-1.6,0.2-2,0.6c-0.4,0.4-0.6,0.8-0.6,1.4c0,0.4,0.1,0.7,0.3,0.9c0.2,0.3,0.5,0.5,0.8,0.7
			s0.7,0.4,1.2,0.5c0.4,0.2,0.9,0.3,1.4,0.5c0.6,0.2,1.2,0.5,1.8,0.7c0.6,0.3,1.2,0.6,1.7,1c0.5,0.4,0.9,0.9,1.2,1.5
			c0.3,0.6,0.5,1.3,0.5,2.1c0,0.8-0.2,1.5-0.5,2.2c-0.3,0.7-0.7,1.3-1.3,1.7c-0.6,0.5-1.3,0.9-2.2,1.2S147.2,256.8,146.1,256.8z"/>
		<path class="st7" d="M161.2,256.8c-1.6,0-2.9-0.5-3.8-1.4c-1-1-1.5-2.2-1.5-3.8c0-0.9,0.2-1.8,0.6-2.5c0.4-0.7,1-1.4,1.9-1.9
			c0.9-0.5,2-1,3.3-1.3c1.3-0.4,2.9-0.6,4.8-0.8c0-0.5-0.1-0.9-0.2-1.3c-0.1-0.4-0.3-0.8-0.5-1.1c-0.3-0.3-0.6-0.6-1-0.8
			c-0.4-0.2-0.9-0.3-1.5-0.3c-0.9,0-1.7,0.2-2.6,0.5s-1.7,0.8-2.5,1.2l-1.5-2.8c1-0.6,2.1-1.2,3.3-1.6c1.2-0.5,2.6-0.7,4-0.7
			c2.2,0,3.9,0.7,5,2c1.1,1.3,1.7,3.2,1.7,5.7v10.6h-3.5l-0.3-2h-0.1c-0.8,0.7-1.7,1.2-2.6,1.7C163.2,256.6,162.2,256.8,161.2,256.8
			z M162.5,253.6c0.7,0,1.4-0.2,2-0.5c0.6-0.3,1.2-0.8,1.9-1.5v-4c-1.2,0.1-2.2,0.3-3.1,0.6c-0.8,0.2-1.5,0.5-2,0.8
			c-0.5,0.3-0.9,0.6-1.1,1c-0.2,0.4-0.3,0.8-0.3,1.2c0,0.8,0.2,1.4,0.7,1.7C161.1,253.4,161.8,253.6,162.5,253.6z"/>
		<path class="st7" d="M181.9,256.8c-2.3,0-4-0.8-5.4-2.5c-1.3-1.6-2-3.9-2-6.9c0-1.5,0.2-2.8,0.6-3.9c0.4-1.2,1-2.1,1.7-2.9
			c0.7-0.8,1.5-1.4,2.4-1.9c0.9-0.4,1.9-0.7,2.8-0.7c1,0,1.9,0.2,2.6,0.5c0.7,0.4,1.4,0.8,2.1,1.4l-0.1-2.9v-6.5h4.2v25.7h-3.5
			l-0.3-1.9h-0.1c-0.7,0.7-1.4,1.2-2.3,1.7S182.8,256.8,181.9,256.8z M182.9,253.4c1.3,0,2.6-0.7,3.7-2V243
			c-0.6-0.6-1.2-0.9-1.8-1.2c-0.6-0.2-1.2-0.3-1.8-0.3c-1.2,0-2.1,0.5-2.9,1.5s-1.2,2.5-1.2,4.4c0,1.9,0.3,3.4,1,4.4
			C180.6,252.9,181.6,253.4,182.9,253.4z"/>
		<path class="st7" d="M203.5,256.8c-1.1,0-2.2-0.2-3.2-0.6c-1-0.4-1.9-1-2.7-1.8c-0.8-0.8-1.4-1.8-1.9-2.9c-0.5-1.2-0.7-2.5-0.7-4
			c0-1.5,0.2-2.8,0.7-4c0.5-1.2,1.1-2.1,1.9-2.9c0.8-0.8,1.7-1.4,2.7-1.8c1-0.4,2.1-0.6,3.2-0.6c1.1,0,2.2,0.2,3.2,0.6
			c1,0.4,1.9,1,2.7,1.8c0.8,0.8,1.4,1.8,1.9,2.9s0.7,2.5,0.7,4c0,1.5-0.2,2.8-0.7,4s-1.1,2.1-1.9,2.9c-0.8,0.8-1.7,1.4-2.7,1.8
			C205.6,256.6,204.6,256.8,203.5,256.8z M203.5,253.4c1.3,0,2.3-0.5,3.1-1.6c0.8-1.1,1.1-2.5,1.1-4.3c0-1.8-0.4-3.3-1.1-4.3
			c-0.8-1.1-1.8-1.6-3.1-1.6s-2.3,0.5-3.1,1.6c-0.7,1.1-1.1,2.5-1.1,4.3c0,1.8,0.4,3.2,1.1,4.3C201.1,252.9,202.1,253.4,203.5,253.4
			z"/>
		<path class="st7" d="M216.1,256.4v-17.9h3.5l0.3,3.2h0.1c0.6-1.2,1.4-2.1,2.3-2.7c0.9-0.6,1.8-0.9,2.8-0.9c0.8,0,1.5,0.1,2,0.4
			l-0.7,3.6c-0.3-0.1-0.6-0.2-0.9-0.2c-0.3,0-0.6-0.1-1-0.1c-0.7,0-1.4,0.3-2.2,0.8c-0.8,0.5-1.4,1.5-2,2.9v10.9H216.1z"/>
	</g>
</g>
</svg>
