<?xml version="1.0" encoding="utf-8"?>
<!-- Generator: Adobe Illustrator 25.0.1, SVG Export Plug-In . SVG Version: 6.00 Build 0)  -->
<svg version="1.1" id="Layer_1" xmlns="http://www.w3.org/2000/svg" xmlns:xlink="http://www.w3.org/1999/xlink" x="0px" y="0px"
	 viewBox="0 0 316 140" style="enable-background:new 0 0 316 140;" xml:space="preserve">
<style type="text/css">
	.st0{fill:#FBBF09;}
	.st1{fill:#00A275;}
	.st2{fill:#EB8A04;}
	.st3{fill:#F5EA64;}
	.st4{fill:#48C0ED;}
	.st5{fill:#FDD657;}
	.st6{fill:#2A506F;}
</style>
<g>
	<g>
		<path class="st0" d="M66.6,122.9v15c2.4-0.4,4.6-1.1,6.6-2.3l42.8-24.5c6-3.4,9.7-9.8,9.7-16.6V45.7c0-2.1-0.4-4.3-1.1-6.3
			l-13.1,7.5L75.6,67.5c-7.4,5.2-9,10.1-9.1,15.8V122.9z"/>
		<path class="st1" d="M108.7,41.7l13.1-7.5c-1.6-2.1-3.5-3.8-5.7-5.1L73.2,4.7c-5.9-3.4-13.3-3.4-19.3,0L11.3,29.1
			c-2.2,1.3-4.2,3.1-5.8,5.2l13.1,7.5l35.9,20.6c4.2,2.6,7.1,5.4,9.1,8.5c2-3.2,4.9-5.9,9-8.5L108.7,41.7z"/>
		<path class="st2" d="M15.8,47L2.7,39.5c-0.7,2-1.1,4.1-1.1,6.2v48.8c0,6.8,3.7,13.2,9.7,16.6l42.7,24.4c2,1.2,4.2,1.9,6.6,2.3v-15
			V83.3c-0.1-5.7-1.7-10.6-9.1-15.9L15.8,47z"/>
		<path class="st3" d="M124.6,39.4l-13.1,7.5c0.4,1.4,0.7,2.9,0.7,4.4v37.6c0,5.5-3,10.7-7.8,13.4l-33,18.8
			c-1.5,0.9-3.1,1.4-4.8,1.7v15c2.4-0.4,4.6-1.1,6.6-2.3l42.8-24.5c6-3.4,9.7-9.8,9.7-16.6V45.7C125.7,43.6,125.3,41.5,124.6,39.4z"
			/>
		<path class="st4" d="M23,37.9l32.9-18.8c4.8-2.7,10.8-2.8,15.6,0l33,18.8c1.7,1,3.1,2.3,4.3,3.8l13.1-7.5
			c-1.6-2.1-3.5-3.8-5.7-5.1L73.2,4.7c-5.9-3.4-13.3-3.4-19.3,0L11.3,29.1c-2.2,1.3-4.2,3.1-5.8,5.2l13.1,7.5
			C19.8,40.2,21.2,38.9,23,37.9z"/>
		<path class="st5" d="M55.8,121.2L23,102.4c-4.8-2.8-7.8-7.9-7.8-13.4V51.3c0-1.5,0.2-2.9,0.7-4.3L2.7,39.5c-0.7,2-1.1,4.1-1.1,6.2
			v48.8c0,6.8,3.7,13.2,9.7,16.6l42.7,24.4c2,1.2,4.2,1.9,6.6,2.3v-15C58.9,122.6,57.3,122,55.8,121.2z"/>
	</g>
	<g>
		<path class="st6" d="M144.9,71.4h6.7v11.1h0.1c0.7-1,1.7-1.7,2.9-2.3c1.2-0.5,2.5-0.9,3.8-1.1c0.3,0,0.7-0.1,1-0.1
			c0.3,0,0.6,0,0.9,0c4.1,0,7.5,1.4,10.1,4.1c2.6,2.7,3.9,5.9,3.9,9.4c0,0.5,0,1.1-0.1,1.6c-0.1,0.6-0.2,1.1-0.4,1.7
			c-0.3,1.1-0.7,2.2-1.2,3.2c-0.5,1-1.2,2-1.9,2.7c-1.2,1.4-2.8,2.4-4.6,3.1c-1.8,0.7-3.7,1.1-5.6,1.1c-1.9,0-3.7-0.3-5.3-1
			c-1.6-0.7-3-1.7-4.1-3.2l-0.1,0v3.4h-6.2V71.4z M153.8,87.1c-1.7,1.4-2.5,3.1-2.5,5.2c0,2.2,0.8,4.1,2.3,5.6
			c1.5,1.5,3.6,2.3,6.1,2.3c2.4,0,4.3-0.7,5.8-2.2c1.5-1.4,2.2-3.2,2.2-5.4c0-2.1-0.7-3.9-2.2-5.4c-1.5-1.5-3.4-2.2-5.8-2.2
			C157.4,85,155.4,85.7,153.8,87.1z"/>
		<path class="st6" d="M206.5,105.3h-6.2v-3.4h-0.1c-0.8,1.1-1.9,2-3.3,2.7c-1.4,0.7-2.8,1.2-4.3,1.4c-0.3,0-0.6,0.1-0.9,0.1
			c-0.3,0-0.6,0-0.9,0c-2.2,0-4.1-0.4-5.8-1.1c-1.7-0.7-3.2-1.8-4.4-3.1c-1.1-1.2-2-2.6-2.6-4.2c-0.6-1.6-0.9-3.3-0.9-5
			c0-1.8,0.3-3.4,0.8-4.9c0.6-1.5,1.5-2.9,2.7-4.2c1.4-1.5,3-2.6,4.7-3.3c1.7-0.7,3.6-1.1,5.7-1.1c1.9,0,3.7,0.4,5.3,1.1
			c1.6,0.7,3,1.8,4.1,3.3v-3.6h6.2V105.3z M200.1,92.5c0-2.1-0.7-3.9-2.2-5.3c-1.5-1.5-3.4-2.2-5.8-2.1c-2.5,0-4.5,0.7-6,2.2
			c-1.6,1.5-2.3,3.4-2.3,5.6c0,2.1,0.8,3.8,2.4,5.2c1.6,1.4,3.6,2.1,5.8,2.1c2.4,0,4.4-0.7,5.9-2.2
			C199.4,96.5,200.1,94.7,200.1,92.5L200.1,92.5z"/>
		<path class="st6" d="M211.5,71.4h6.7v33.9h-6.7V71.4z"/>
		<path class="st6" d="M229.5,95.3c0.5,1.5,1.4,2.7,2.8,3.6c1.4,0.9,2.9,1.3,4.6,1.3c1.3,0,2.5-0.2,3.6-0.6s2-0.9,2.6-1.6l7.4,0
			c-0.8,2.3-2.5,4.2-5.1,5.8c-2.6,1.6-5.3,2.4-8.3,2.4c-4.1,0-7.5-1.3-10.4-3.9c-2.9-2.6-4.3-5.7-4.3-9.4c0-3.8,1.4-7,4.3-9.7
			c2.9-2.7,6.4-4,10.5-4c4,0,7.4,1.3,10.2,4c2.8,2.7,4.2,5.8,4.2,9.3c0,0.4,0,0.8-0.1,1.2c-0.1,0.4-0.1,0.8-0.2,1.1
			c0,0.1-0.1,0.2-0.1,0.3c0,0.1,0,0.2,0,0.3H229.5z M244.8,89.9c-0.5-1.5-1.5-2.7-2.9-3.5c-1.4-0.9-3-1.3-4.7-1.3
			c-0.1,0-0.1,0-0.2,0c-0.1,0-0.1,0-0.2,0c-1.6,0.1-3.1,0.6-4.5,1.4c-1.4,0.9-2.4,2-2.8,3.4H244.8z"/>
		<path class="st6" d="M255.8,79.9h6.2v2.3h0.1c0.8-0.9,1.8-1.7,3-2.2c1.3-0.5,2.6-0.8,4-0.9c0.1,0,0.2,0,0.3,0c0.1,0,0.2,0,0.3,0
			c0.1,0,0.3,0,0.4,0c0.1,0,0.3,0,0.4,0c1.3,0.1,2.6,0.4,3.9,1c1.3,0.5,2.3,1.3,3.3,2.2c0.1,0.1,0.3,0.2,0.4,0.3
			c0.1,0.1,0.2,0.2,0.3,0.4c1.1,1.4,1.7,2.8,1.9,4.4c0.2,1.6,0.3,3.1,0.3,4.8v13.1h-6.7v-12c0-0.4,0-0.8,0-1.2c0-0.4,0-0.9-0.1-1.3
			c-0.1-0.7-0.2-1.3-0.4-1.9c-0.2-0.6-0.4-1.2-0.8-1.7c-0.4-0.6-1-1.1-1.8-1.5c-0.8-0.4-1.5-0.6-2.3-0.6c0,0-0.1,0-0.1,0
			s-0.1,0-0.2,0c-0.1,0-0.2,0-0.3,0c-0.1,0-0.2,0-0.4,0c-0.8,0.1-1.5,0.3-2.3,0.7c-0.7,0.4-1.3,0.9-1.7,1.5
			c-0.3,0.5-0.6,1.1-0.8,1.7c-0.2,0.7-0.3,1.3-0.3,2c0,0.4,0,0.8,0,1.2c0,0.4,0,0.8,0,1.1c0,0.1,0,0.2,0,0.3c0,0.1,0,0.1,0,0.2v11.5
			h-6.7V79.9z"/>
		<path class="st6" d="M314.4,105.3h-6.2v-3.4h-0.1c-0.8,1.1-1.9,2-3.3,2.7c-1.4,0.7-2.8,1.2-4.3,1.4c-0.3,0-0.6,0.1-0.9,0.1
			c-0.3,0-0.6,0-0.9,0c-2.2,0-4.1-0.4-5.8-1.1c-1.7-0.7-3.2-1.8-4.4-3.1c-1.1-1.2-2-2.6-2.6-4.2c-0.6-1.6-0.9-3.3-0.9-5
			c0-1.8,0.3-3.4,0.8-4.9c0.6-1.5,1.5-2.9,2.7-4.2c1.4-1.5,3-2.6,4.7-3.3c1.7-0.7,3.6-1.1,5.7-1.1c1.9,0,3.7,0.4,5.3,1.1
			c1.6,0.7,3,1.8,4.1,3.3v-3.6h6.2V105.3z M308,92.5c0-2.1-0.7-3.9-2.2-5.3c-1.5-1.5-3.4-2.2-5.8-2.1c-2.5,0-4.5,0.7-6,2.2
			c-1.6,1.5-2.3,3.4-2.3,5.6c0,2.1,0.8,3.8,2.4,5.2c1.6,1.4,3.6,2.1,5.8,2.1c2.4,0,4.4-0.7,5.9-2.2C307.3,96.5,308,94.7,308,92.5
			L308,92.5z"/>
	</g>
	<g>
		<path class="st2" d="M146.9,59.6L142,34.9h4.5l2.2,12.5c0.2,1.3,0.4,2.7,0.6,4c0.2,1.3,0.4,2.6,0.6,3.9h0.2
			c0.3-1.3,0.5-2.6,0.8-3.9s0.5-2.6,0.8-3.9l3-12.5h3.8l3,12.5c0.3,1.3,0.6,2.6,0.8,3.9c0.3,1.3,0.6,2.7,0.8,4h0.2
			c0.2-1.3,0.4-2.7,0.6-4c0.2-1.3,0.4-2.6,0.6-3.9l2.2-12.5h4.2l-4.7,24.7h-5.4l-3.1-13c-0.2-1-0.4-1.9-0.6-2.9
			c-0.2-0.9-0.4-1.9-0.5-2.9h-0.2c-0.2,1-0.4,1.9-0.5,2.9c-0.2,0.9-0.4,1.9-0.6,2.9l-3,13H146.9z"/>
		<path class="st2" d="M180.6,60c-1.2,0-2.3-0.2-3.3-0.6c-1.1-0.4-2-1.1-2.8-1.9s-1.5-1.9-1.9-3.1s-0.7-2.6-0.7-4.1
			c0-1.5,0.2-2.9,0.7-4.1s1.1-2.2,1.9-3.1s1.8-1.5,2.8-1.9s2.2-0.7,3.3-0.7c1.2,0,2.3,0.2,3.3,0.7s2,1.1,2.8,1.9
			c0.8,0.8,1.5,1.9,1.9,3.1s0.7,2.6,0.7,4.1c0,1.5-0.2,2.9-0.7,4.1s-1.1,2.2-1.9,3.1c-0.8,0.8-1.7,1.5-2.8,1.9
			C182.9,59.8,181.8,60,180.6,60z M180.6,56.5c1.4,0,2.4-0.6,3.2-1.7c0.8-1.1,1.2-2.6,1.2-4.5c0-1.9-0.4-3.4-1.2-4.5
			c-0.8-1.1-1.9-1.7-3.2-1.7c-1.4,0-2.4,0.6-3.2,1.7c-0.8,1.1-1.2,2.6-1.2,4.5c0,1.9,0.4,3.4,1.2,4.5
			C178.2,55.9,179.3,56.5,180.6,56.5z"/>
		<path class="st2" d="M193,59.6V41h3.6l0.3,3.3h0.2c0.7-1.2,1.4-2.1,2.4-2.8c0.9-0.6,1.9-1,2.9-1c0.9,0,1.6,0.1,2.1,0.4l-0.8,3.8
			c-0.3-0.1-0.6-0.2-0.9-0.2c-0.3,0-0.6-0.1-1-0.1c-0.7,0-1.5,0.3-2.3,0.8s-1.5,1.6-2.1,3v11.3H193z"/>
		<path class="st2" d="M206.2,59.6V32.9h4.3v16.7h0.1l6.9-8.5h4.8l-6.3,7.6l7,11h-4.7l-4.8-8l-2.9,3.3v4.7H206.2z"/>
		<path class="st2" d="M230.5,60c-1.3,0-2.5-0.2-3.8-0.7s-2.3-1.1-3.2-1.8l2-2.8c0.8,0.7,1.7,1.2,2.5,1.5s1.7,0.5,2.7,0.5
			c1,0,1.8-0.2,2.2-0.6c0.5-0.4,0.7-1,0.7-1.6c0-0.4-0.1-0.7-0.3-1c-0.2-0.3-0.5-0.5-0.9-0.8s-0.8-0.4-1.3-0.6
			c-0.5-0.2-1-0.4-1.4-0.6c-0.6-0.2-1.2-0.5-1.9-0.8c-0.6-0.3-1.2-0.7-1.7-1.1c-0.5-0.4-0.9-0.9-1.2-1.5c-0.3-0.6-0.5-1.2-0.5-2
			c0-1.6,0.6-3,1.8-4c1.2-1,2.9-1.5,4.9-1.5c1.3,0,2.4,0.2,3.5,0.7c1,0.5,1.9,1,2.7,1.5l-2,2.6c-0.7-0.5-1.3-0.9-2-1.2
			c-0.7-0.3-1.4-0.4-2.1-0.4c-0.9,0-1.6,0.2-2.1,0.6s-0.7,0.9-0.7,1.5c0,0.4,0.1,0.7,0.3,1c0.2,0.3,0.5,0.5,0.8,0.7
			c0.4,0.2,0.8,0.4,1.2,0.6c0.5,0.2,1,0.4,1.5,0.5c0.6,0.2,1.3,0.5,1.9,0.8c0.6,0.3,1.2,0.6,1.7,1.1c0.5,0.4,0.9,1,1.2,1.6
			c0.3,0.6,0.5,1.4,0.5,2.2c0,0.8-0.2,1.6-0.5,2.2c-0.3,0.7-0.8,1.3-1.4,1.8s-1.4,0.9-2.3,1.2C232.7,59.9,231.6,60,230.5,60z"/>
		<path class="st2" d="M250.9,59.6L246,41h4.4l2.2,9.6c0.2,0.9,0.4,1.8,0.5,2.6c0.1,0.9,0.3,1.8,0.5,2.7h0.2
			c0.2-0.9,0.4-1.8,0.5-2.7c0.2-0.9,0.4-1.8,0.6-2.6l2.4-9.6h4l2.5,9.6c0.2,0.9,0.4,1.8,0.6,2.6c0.2,0.9,0.4,1.8,0.6,2.7h0.2
			c0.2-0.9,0.3-1.8,0.5-2.7c0.2-0.9,0.3-1.8,0.5-2.6l2.2-9.6h4.1l-4.7,18.5h-5.2l-2.2-8.7c-0.2-0.9-0.4-1.8-0.6-2.6
			c-0.2-0.9-0.4-1.8-0.6-2.8h-0.2c-0.2,1-0.4,1.9-0.5,2.8c-0.2,0.9-0.4,1.8-0.6,2.6l-2.1,8.6H250.9z"/>
		<path class="st2" d="M277.6,37.8c-0.8,0-1.4-0.2-1.9-0.7c-0.5-0.5-0.8-1-0.8-1.8s0.3-1.3,0.8-1.8c0.5-0.5,1.1-0.7,1.9-0.7
			c0.8,0,1.4,0.2,1.9,0.7c0.5,0.5,0.8,1.1,0.8,1.8s-0.3,1.3-0.8,1.8C279.1,37.6,278.4,37.8,277.6,37.8z M275.5,59.6V41h4.3v18.5
			H275.5z"/>
		<path class="st2" d="M291.2,60c-1.1,0-2-0.2-2.7-0.5c-0.7-0.3-1.3-0.8-1.8-1.4c-0.5-0.6-0.8-1.3-1-2.1s-0.3-1.7-0.3-2.7v-8.8h-2.6
			v-3.2l2.9-0.2l0.5-5.1h3.6V41h4.7v3.4h-4.7v8.8c0,2.2,0.9,3.2,2.6,3.2c0.3,0,0.7,0,1-0.1c0.3-0.1,0.6-0.2,0.9-0.3l0.8,3.2
			c-0.5,0.2-1.1,0.3-1.7,0.5C292.7,60,292,60,291.2,60z"/>
		<path class="st2" d="M297.7,59.6V32.9h4.3v6.9l-0.2,3.6c0.8-0.7,1.6-1.4,2.6-1.9s2.1-0.8,3.3-0.8c2,0,3.4,0.6,4.3,1.9
			c0.9,1.3,1.4,3.1,1.4,5.5v11.6h-4.3V48.5c0-1.5-0.2-2.6-0.7-3.2c-0.5-0.6-1.2-0.9-2.2-0.9c-0.8,0-1.5,0.2-2.1,0.6
			c-0.6,0.4-1.3,1-2.1,1.7v13H297.7z"/>
	</g>
</g>
</svg>
