<?xml version="1.0" encoding="utf-8"?>
<!-- Generator: Adobe Illustrator 23.0.1, SVG Export Plug-In . SVG Version: 6.00 Build 0)  -->
<svg version="1.1" id="Ebene_1" xmlns="http://www.w3.org/2000/svg" xmlns:xlink="http://www.w3.org/1999/xlink" x="0px" y="0px"
	 viewBox="0 0 66 74" style="enable-background:new 0 0 66 74;" xml:space="preserve">
<style type="text/css">
	.st0{fill:#00D2EA;}
</style>
<g>
	<path class="st0" d="M57.9,26.2C58,26.6,58,27,58,27.4v19.4c0,2.9-1.5,5.5-4,6.9l-17,9.7c-0.5,0.3-1,0.5-1.5,0.6V72
		c0.8-0.2,1.6-0.5,2.4-1L60,58.4c3.1-1.8,5-5.1,5-8.6V24.5c0-0.7-0.1-1.5-0.3-2.2L57.9,26.2z"/>
	<path class="st0" d="M12,20.5l16.9-9.7c2.5-1.4,5.6-1.4,8,0l17,9.7c0.6,0.4,1.2,0.8,1.7,1.3l6.8-3.9c-0.7-0.8-1.5-1.5-2.4-2
		L37.9,3.3c-3.1-1.8-6.9-1.8-9.9,0L6,16c-0.9,0.5-1.7,1.2-2.4,2l6.8,3.9C10.8,21.3,11.4,20.9,12,20.5z"/>
	<path class="st0" d="M28.9,63.6L12,53.8c-2.5-1.4-4-4.1-4-6.9V27.4c0-0.4,0-0.8,0.1-1.2l-6.8-3.9C1.1,23.1,1,23.8,1,24.5v25.2
		c0,3.5,1.9,6.8,5,8.6L28,71c0.8,0.5,1.6,0.8,2.5,1v-7.8C30,64.1,29.4,63.8,28.9,63.6z"/>
</g>
</svg>
