<svg id="Layer_1" data-name="Layer 1" xmlns="http://www.w3.org/2000/svg" viewBox="0 0 17.67 16.02"><defs><style>.cls-1{fill:#55d143;}</style></defs><circle class="cls-1" cx="1.34" cy="2.45" r="0.5"/><circle class="cls-1" cx="3.07" cy="0.61" r="0.5"/><circle class="cls-1" cx="3.14" cy="2.42" r="0.5"/><circle class="cls-1" cx="5.08" cy="2.68" r="0.5"/><circle class="cls-1" cx="3.28" cy="4.55" r="0.5"/><circle class="cls-1" cx="12.45" cy="13.36" r="0.5"/><circle class="cls-1" cx="14.18" cy="11.52" r="0.5"/><circle class="cls-1" cx="14.25" cy="13.33" r="0.5"/><circle class="cls-1" cx="16.19" cy="13.6" r="0.5"/><circle class="cls-1" cx="14.39" cy="15.46" r="0.5"/><circle class="cls-1" cx="15.15" cy="4.36" r="0.5"/><circle class="cls-1" cx="15.66" cy="2.39" r="0.5"/><circle class="cls-1" cx="17.13" cy="4.49" r="0.5"/><circle class="cls-1" cx="14.73" cy="6.17" r="0.5"/><circle class="cls-1" cx="0.55" cy="13.15" r="0.5"/><circle class="cls-1" cx="2.93" cy="11.48" r="0.5"/><circle class="cls-1" cx="2.41" cy="13.47" r="0.5"/><circle class="cls-1" cx="4.43" cy="13.61" r="0.5"/><circle class="cls-1" cx="2" cy="15.24" r="0.5"/><circle class="cls-1" cx="13.18" cy="4" r="0.5"/></svg>