<svg id="Layer_1" data-name="Layer 1" xmlns="http://www.w3.org/2000/svg" viewBox="0 0 36.41 127.27"><defs><style>.cls-1{fill:#d98142;}.cls-2{fill:#282828;}</style></defs><path class="cls-1" d="M30.24,1.14c-.89,0-1.6.36-1.59.78l.62,47.33-20.88.27L7.76,2.2c0-.42-.72-.75-1.61-.74s-1.6.36-1.6.78l.68,52a.55.55,0,0,0,.28.41L17.4,62.85l.79,60.62c0,.42.73.75,1.62.74s1.6-.36,1.6-.78l-.8-60.62,11.67-8.55a.53.53,0,0,0,.26-.42l-.68-52C31.85,1.46,31.13,1.13,30.24,1.14ZM19,61.23,8.44,53.93l0-2.15L29.3,51.5l0,2.15Z"/><rect class="cls-2" y="0.22" width="36.41" height="3.68" rx="1.76" transform="translate(-0.03 0.24) rotate(-0.75)"/><rect class="cls-2" x="16.52" y="123.34" width="6.6" height="3.89" rx="0.7" transform="translate(-1.65 0.27) rotate(-0.75)"/></svg>