<svg id="Layer_1" data-name="Layer 1" xmlns="http://www.w3.org/2000/svg" viewBox="0 0 17.67 16.02"><defs><style>.cls-1{fill:#d27742;}</style></defs><path class="cls-1" d="M2.63,11.09a.5.5,0,1,0,.73.09A.53.53,0,0,0,2.63,11.09Z"/><path class="cls-1" d="M4.13,13.18a.51.51,0,1,0,.73.1A.52.52,0,0,0,4.13,13.18Z"/><path class="cls-1" d="M2.1,13.05a.51.51,0,1,0,.73.1A.52.52,0,0,0,2.1,13.05Z"/><path class="cls-1" d="M.23,12.75a.52.52,0,0,0-.14.72.52.52,0,0,0,.73.1A.51.51,0,0,0,1,12.85.51.51,0,0,0,.23,12.75Z"/><path class="cls-1" d="M1.73,14.85a.52.52,0,0,0-.14.72.52.52,0,0,0,.72.09.52.52,0,0,0,.14-.72A.52.52,0,0,0,1.73,14.85Z"/><path class="cls-1" d="M15.94,2.81a.51.51,0,0,0,.14-.71.53.53,0,0,0-.86.62A.5.5,0,0,0,15.94,2.81Z"/><path class="cls-1" d="M17.58,4.19a.53.53,0,1,0-.14.72A.52.52,0,0,0,17.58,4.19Z"/><path class="cls-1" d="M14.82,4a.52.52,0,0,0-.14.72.53.53,0,0,0,.73.09A.5.5,0,1,0,14.82,4Z"/><path class="cls-1" d="M13.68,3.76a.54.54,0,0,0-.87.63.53.53,0,0,0,.73.09A.52.52,0,0,0,13.68,3.76Z"/><path class="cls-1" d="M14.45,5.76a.5.5,0,1,0,.72.09A.52.52,0,0,0,14.45,5.76Z"/><path class="cls-1" d="M4.76,2.24a.51.51,0,0,0,0,.73.51.51,0,0,0,.73,0,.54.54,0,0,0-.76-.75Z"/><path class="cls-1" d="M2.94,4.06a.51.51,0,0,0,0,.73.5.5,0,1,0,.71-.71A.51.51,0,0,0,2.94,4.06Z"/><path class="cls-1" d="M2.73,2a.52.52,0,0,0,0,.73.5.5,0,1,0,.71-.71A.52.52,0,0,0,2.73,2Z"/><path class="cls-1" d="M3.48.89a.51.51,0,0,0,0-.73.53.53,0,0,0-.74,0,.52.52,0,0,0,0,.73A.51.51,0,0,0,3.48.89Z"/><path class="cls-1" d="M1.64,2A.52.52,0,0,0,.9,2a.52.52,0,0,0,0,.73.51.51,0,0,0,.73,0A.52.52,0,0,0,1.64,2Z"/><path class="cls-1" d="M15.8,13.31a.52.52,0,0,0,0,.73.51.51,0,0,0,.73,0,.52.52,0,0,0,0-.73A.51.51,0,0,0,15.8,13.31Z"/><path class="cls-1" d="M14,15.13a.52.52,0,0,0,0,.73.51.51,0,0,0,.73,0,.52.52,0,0,0,0-.73A.51.51,0,0,0,14,15.13Z"/><path class="cls-1" d="M14.53,13.86a.53.53,0,0,0-.75-.75.51.51,0,0,0,0,.73A.52.52,0,0,0,14.53,13.86Z"/><path class="cls-1" d="M14.52,12a.53.53,0,1,0-.73,0A.51.51,0,0,0,14.52,12Z"/><path class="cls-1" d="M11.94,13a.52.52,0,0,0,0,.73.5.5,0,1,0,.71-.71A.52.52,0,0,0,11.94,13Z"/></svg>