<svg id="Layer_1" data-name="Layer 1" xmlns="http://www.w3.org/2000/svg" viewBox="0 0 15.63 44.48"><defs><style>.cls-1{fill:#7db7cc;}</style></defs><path class="cls-1" d="M9.71,5.57a.5.5,0,0,0,.5-.5.5.5,0,0,0-.5-.5C3.28,4.57,1.12.45,1,.28A.51.51,0,0,0,.36.05.51.51,0,0,0,.13.72C.23.92,2.64,5.57,9.71,5.57Z"/><path class="cls-1" d="M9.71,18.13a.5.5,0,0,0,.5-.5.5.5,0,0,0-.5-.5C3.28,17.13,1.12,13,1,12.83a.51.51,0,0,0-.67-.22.51.51,0,0,0-.23.67C.23,13.48,2.64,18.13,9.71,18.13Z"/><path class="cls-1" d="M9.71,29.54a.5.5,0,0,0,.5-.5.5.5,0,0,0-.5-.5c-6.43,0-8.59-4.11-8.68-4.29a.5.5,0,0,0-.9.45C.23,24.9,2.64,29.54,9.71,29.54Z"/><path class="cls-1" d="M9.41,35.75c-4,5-8.61,4.09-8.8,4a.51.51,0,0,0-.6.39.5.5,0,0,0,.38.59,6.66,6.66,0,0,0,1.27.11c1.84,0,5.35-.59,8.52-4.51a.51.51,0,0,0-.07-.71A.49.49,0,0,0,9.41,35.75Z"/><path class="cls-1" d="M15.59,36.67a.5.5,0,0,0-.54-.46.49.49,0,0,0-.45.54,7,7,0,0,1-3,6.8.5.5,0,0,0-.19.68.51.51,0,0,0,.44.25.53.53,0,0,0,.24-.06A7.91,7.91,0,0,0,15.59,36.67Z"/></svg>