<svg id="Layer_1" data-name="Layer 1" xmlns="http://www.w3.org/2000/svg" viewBox="0 0 593.25 752.07"><defs><style>.cls-1{fill:#d98142;}.cls-2{fill:#282828;}.cls-3{fill:#285071;}.cls-4{fill:#89ccd3;}.cls-5{fill:#c0c5dc;}.cls-6{fill:#316184;}.cls-7{fill:#51769a;}.cls-8{fill:#cfecfc;}.cls-9{fill:#ffed6b;}.cls-10{fill:#9da4bf;}.cls-11{fill:#c5e6f9;}.cls-12{fill:#7db7cc;}.cls-13{fill:#f24d4d;}.cls-14{fill:#f0b46a;}.cls-15{fill:#ffe399;}.cls-16{fill:#d27742;}</style></defs><path class="cls-1" d="M289.23-249.6c-.89,0-1.6.36-1.6.78l.63,47.32-20.88.28-.63-47.33c0-.42-.73-.75-1.61-.73s-1.6.36-1.6.77l.68,52a.56.56,0,0,0,.28.41l11.89,8.24.79,60.62c0,.42.73.75,1.62.73s1.6-.36,1.6-.77l-.8-60.62,11.67-8.55a.55.55,0,0,0,.26-.42l-.68-52C290.84-249.28,290.12-249.61,289.23-249.6ZM278-189.51l-10.54-7.3,0-2.15,20.88-.28,0,2.15Z" transform="translate(0 437.77)"/><rect class="cls-2" x="258.99" y="-250.53" width="36.41" height="3.68" rx="1.76" transform="translate(3.29 441.39) rotate(-0.75)"/><rect class="cls-2" x="275.51" y="-127.41" width="6.6" height="3.89" rx="0.7" transform="translate(1.67 441.43) rotate(-0.75)"/><path class="cls-3" d="M278-197.75a3.19,3.19,0,0,1-3.19-3.07C271-295.38,299.68-302.6,300.9-303.35a3.21,3.21,0,0,1,4.4,1.06,3.19,3.19,0,0,1-1,4.37c-.44.3-26.66,7.2-23.11,96.85a3.2,3.2,0,0,1-3.06,3.32Z" transform="translate(0 437.77)"/><path class="cls-3" d="M269.64-201a8.4,8.4,0,0,0,8.71,8.09,8.41,8.41,0,0,0,8.09-8.72,8.4,8.4,0,0,0-8.71-8.09A8.41,8.41,0,0,0,269.64-201Z" transform="translate(0 437.77)"/><path class="cls-3" d="M402.26-197.75h-.12a3.2,3.2,0,0,1-3.07-3.32c3.6-90.85-22.81-96.66-23.08-96.82a3.21,3.21,0,0,1-1.06-4.4,3.21,3.21,0,0,1,4.4-1.06c1.22.75,29.87,8,26.12,102.53A3.19,3.19,0,0,1,402.26-197.75Z" transform="translate(0 437.77)"/><path class="cls-3" d="M393.79-201.68a8.41,8.41,0,0,0,8.09,8.72A8.42,8.42,0,0,0,410.6-201a8.41,8.41,0,0,0-8.09-8.72A8.41,8.41,0,0,0,393.79-201.68Z" transform="translate(0 437.77)"/><path class="cls-3" d="M319.94-127H308.41a4,4,0,0,1-4-4,4,4,0,0,1,4-4H316v-72.57a4,4,0,0,1,4-4,4,4,0,0,1,4,4V-131A4,4,0,0,1,319.94-127Z" transform="translate(0 437.77)"/><path class="cls-3" d="M372.1-127H360.56a4,4,0,0,1-4-4v-76.56a4,4,0,0,1,4-4,4,4,0,0,1,4,4V-135h7.54a4,4,0,0,1,4,4A4,4,0,0,1,372.1-127Z" transform="translate(0 437.77)"/><path class="cls-4" d="M332.17-413H320.83a1.15,1.15,0,0,0-1.15,1.14v6.8a1.15,1.15,0,0,0,1.15,1.14h11.34a1.14,1.14,0,0,0,1.14-1.14v-6.8A1.14,1.14,0,0,0,332.17-413Z" transform="translate(0 437.77)"/><path class="cls-4" d="M359.41-413H348.06a1.14,1.14,0,0,0-1.13,1.14v6.8a1.14,1.14,0,0,0,1.13,1.14h11.35a1.14,1.14,0,0,0,1.14-1.14v-6.8A1.14,1.14,0,0,0,359.41-413Z" transform="translate(0 437.77)"/><path class="cls-5" d="M367.35-433.5a4.27,4.27,0,0,0-4.27-4.27H317.15a4.27,4.27,0,0,0-4.27,4.27v54.75h54.47Z" transform="translate(0 437.77)"/><path class="cls-6" d="M367.35-378.75H306.29V-201.7h67.92v-177Z" transform="translate(0 437.77)"/><path class="cls-7" d="M303.67-378.75a4.28,4.28,0,0,0-4.28,4.27V-206a4.28,4.28,0,0,0,4.28,4.27h2.62v-177Z" transform="translate(0 437.77)"/><path class="cls-7" d="M376.84-378.75h-2.63V-201.7h2.63a4.27,4.27,0,0,0,4.27-4.27V-374.48A4.27,4.27,0,0,0,376.84-378.75Z" transform="translate(0 437.77)"/><path class="cls-8" d="M360.43-329.5a25.57,25.57,0,0,0-20.32-9.59,25.56,25.56,0,0,0-20.31,9.59,1.61,1.61,0,0,0,.37,2.23,1.6,1.6,0,0,0,.93.29,1.61,1.61,0,0,0,1.3-.66,22.35,22.35,0,0,1,17.71-8.25,22.36,22.36,0,0,1,17.72,8.25,1.58,1.58,0,0,0,1.3.67,1.64,1.64,0,0,0,.92-.29A1.61,1.61,0,0,0,360.43-329.5Z" transform="translate(0 437.77)"/><path class="cls-9" d="M319.15-354.72c-1.76,0-3.19,1.1-3.19,2.45v2.94c0,1.35,1.43,2.45,3.19,2.45s3.2-1.1,3.2-2.45v-2.94C322.35-353.62,320.91-354.72,319.15-354.72Z" transform="translate(0 437.77)"/><path class="cls-8" d="M310.9-356a1.45,1.45,0,0,1-.9-.31,1.44,1.44,0,0,1-.25-2c.19-.26,4.9-6.24,11.57-6.24a1.46,1.46,0,0,1,1.47,1.46,1.46,1.46,0,0,1-1.47,1.46c-5.22,0-9.23,5.06-9.26,5.11A1.49,1.49,0,0,1,310.9-356Z" transform="translate(0 437.77)"/><path class="cls-9" d="M361.36-354.72c1.76,0,3.19,1.1,3.19,2.45v2.94c0,1.35-1.43,2.45-3.19,2.45s-3.2-1.1-3.2-2.45v-2.94C358.16-353.62,359.59-354.72,361.36-354.72Z" transform="translate(0 437.77)"/><path class="cls-8" d="M369.6-356a1.45,1.45,0,0,0,.9-.31,1.45,1.45,0,0,0,.26-2c-.19-.26-4.9-6.24-11.57-6.24a1.46,1.46,0,0,0-1.47,1.46,1.46,1.46,0,0,0,1.47,1.46c5.21,0,9.22,5.06,9.26,5.11A1.46,1.46,0,0,0,369.6-356Z" transform="translate(0 437.77)"/><path class="cls-10" d="M333.31-405.09a1.14,1.14,0,0,1-1.14,1.14H320.83a1.15,1.15,0,0,1-1.15-1.14v-6.8a1.15,1.15,0,0,1,1.15-1.14h11.34a1.14,1.14,0,0,1,1.14,1.14Z" transform="translate(0 437.77)"/><path class="cls-10" d="M360.55-405.09a1.14,1.14,0,0,1-1.14,1.14H348.06a1.14,1.14,0,0,1-1.13-1.14v-6.8a1.14,1.14,0,0,1,1.13-1.14h11.35a1.14,1.14,0,0,1,1.14,1.14Z" transform="translate(0 437.77)"/><path class="cls-11" d="M372.1-127H360.56a4,4,0,0,1-4-4v-42.3c0-2.21,1.79.57,4,.57s4-2.78,4-.57V-135h7.54a4,4,0,0,1,4,4A4,4,0,0,1,372.1-127Z" transform="translate(0 437.77)"/><path class="cls-11" d="M372.1-125.47H360.56a5.5,5.5,0,0,1-5.49-5.5v-42.3a2.21,2.21,0,0,1,1-2.12c1-.58,2,0,2.73.46a4.09,4.09,0,0,0,1.76.73,4.18,4.18,0,0,0,1.77-.73c.76-.46,1.72-1,2.73-.46a2.23,2.23,0,0,1,1,2.12v36.81h6a5.49,5.49,0,0,1,5.49,5.49A5.5,5.5,0,0,1,372.1-125.47Zm-14-46.43V-131a2.49,2.49,0,0,0,2.49,2.5H372.1a2.5,2.5,0,0,0,2.49-2.5,2.5,2.5,0,0,0-2.49-2.49h-9V-171.9a5.42,5.42,0,0,1-2.5.7A5.35,5.35,0,0,1,358.07-171.9Z" transform="translate(0 437.77)"/><path class="cls-12" d="M364.84-166.11c-7.08,0-9.48-4.65-9.58-4.85a.51.51,0,0,1,.22-.67.5.5,0,0,1,.67.22c.09.18,2.26,4.3,8.69,4.3a.5.5,0,0,1,.5.5A.5.5,0,0,1,364.84-166.11Z" transform="translate(0 437.77)"/><path class="cls-12" d="M364.84-153.56c-7.08,0-9.48-4.64-9.58-4.84a.5.5,0,0,1,.22-.67.5.5,0,0,1,.67.22c.09.18,2.26,4.29,8.69,4.29a.5.5,0,0,1,.5.5A.5.5,0,0,1,364.84-153.56Z" transform="translate(0 437.77)"/><path class="cls-12" d="M364.84-142.14c-7.08,0-9.48-4.64-9.58-4.84a.5.5,0,0,1,.22-.67.49.49,0,0,1,.67.22c.09.17,2.26,4.29,8.69,4.29a.5.5,0,0,1,.5.5A.5.5,0,0,1,364.84-142.14Z" transform="translate(0 437.77)"/><path class="cls-12" d="M356.79-130.79a6.66,6.66,0,0,1-1.27-.11.5.5,0,0,1-.38-.6.49.49,0,0,1,.59-.38c.19,0,4.76.95,8.8-4.05a.51.51,0,0,1,.71-.08.5.5,0,0,1,.07.7C362.14-131.39,358.63-130.79,356.79-130.79Z" transform="translate(0 437.77)"/><path class="cls-12" d="M367-127.2a.5.5,0,0,1-.44-.25.52.52,0,0,1,.19-.69c.14-.08,3.39-2,3-6.79a.51.51,0,0,1,.46-.54.5.5,0,0,1,.54.45,7.91,7.91,0,0,1-3.48,7.75A.44.44,0,0,1,367-127.2Z" transform="translate(0 437.77)"/><path class="cls-13" d="M350.8-261.92c.08-2.84,2.2-8.4,3.43-8.36s3,5.91,2.95,8.54a3.19,3.19,0,0,1-3.28,3.1A3.19,3.19,0,0,1,350.8-261.92Z" transform="translate(0 437.77)"/><path class="cls-14" d="M345.64-284.49h16.8a3.65,3.65,0,0,1,3.65,3.65v.47a3.65,3.65,0,0,1-3.65,3.65h-16.8a3.66,3.66,0,0,1-3.66-3.66v-.47a3.65,3.65,0,0,1,3.65-3.65Z" transform="translate(231.89 592.1) rotate(-35.91)"/><rect class="cls-15" x="349.3" y="-283.09" width="8.85" height="5.36" transform="translate(231.72 591.95) rotate(-35.91)"/><path class="cls-16" d="M348.13-277.78a.52.52,0,0,1-.14.72.52.52,0,0,1-.73-.09.52.52,0,0,1,.14-.72A.53.53,0,0,1,348.13-277.78Z" transform="translate(0 437.77)"/><path class="cls-16" d="M349.62-275.68a.51.51,0,0,1-.13.72.52.52,0,0,1-.73-.1.52.52,0,0,1,.14-.72A.51.51,0,0,1,349.62-275.68Z" transform="translate(0 437.77)"/><path class="cls-16" d="M347.59-275.81a.51.51,0,0,1-.13.72.52.52,0,0,1-.73-.1.52.52,0,0,1,.14-.72A.51.51,0,0,1,347.59-275.81Z" transform="translate(0 437.77)"/><path class="cls-16" d="M345.72-276.11a.52.52,0,0,1-.13.72.52.52,0,0,1-.73-.1.51.51,0,0,1,.14-.71A.5.5,0,0,1,345.72-276.11Z" transform="translate(0 437.77)"/><path class="cls-16" d="M347.22-274a.52.52,0,0,1-.14.72.51.51,0,0,1-.72-.09.52.52,0,0,1,.13-.72A.53.53,0,0,1,347.22-274Z" transform="translate(0 437.77)"/><path class="cls-16" d="M360.85-286.86a.52.52,0,0,1-.14.72.52.52,0,0,1-.73-.1.52.52,0,0,1,.14-.72A.52.52,0,0,1,360.85-286.86Z" transform="translate(0 437.77)"/><path class="cls-16" d="M362.35-284.77a.52.52,0,0,1-.14.72.52.52,0,0,1-.73-.1.52.52,0,0,1,.14-.72A.52.52,0,0,1,362.35-284.77Z" transform="translate(0 437.77)"/><path class="cls-16" d="M360.32-284.9a.52.52,0,0,1-.14.72.53.53,0,0,1-.73-.09.52.52,0,0,1,.14-.72A.52.52,0,0,1,360.32-284.9Z" transform="translate(0 437.77)"/><path class="cls-16" d="M358.44-285.2a.51.51,0,0,1-.13.72.53.53,0,0,1-.73-.09.52.52,0,0,1,.14-.72A.51.51,0,0,1,358.44-285.2Z" transform="translate(0 437.77)"/><path class="cls-16" d="M359.94-283.11a.52.52,0,0,1-.14.72.51.51,0,0,1-.72-.09.52.52,0,0,1,.14-.72A.52.52,0,0,1,359.94-283.11Z" transform="translate(0 437.77)"/><path class="cls-14" d="M353.8-292.65h.47a3.65,3.65,0,0,1,3.65,3.65v16.8a3.65,3.65,0,0,1-3.65,3.65h-.47a3.66,3.66,0,0,1-3.66-3.66V-289a3.65,3.65,0,0,1,3.65-3.65Z" transform="translate(304.48 606.2) rotate(-45.3)"/><rect class="cls-15" x="351.12" y="-285.3" width="5.36" height="8.85" transform="translate(304.6 605.95) rotate(-45.3)"/><path class="cls-16" d="M350.29-286a.53.53,0,0,1-.74,0,.52.52,0,0,1,0-.74.52.52,0,0,1,.73,0A.52.52,0,0,1,350.29-286Z" transform="translate(0 437.77)"/><path class="cls-16" d="M348.46-284.15a.51.51,0,0,1-.73,0,.51.51,0,0,1,0-.73.51.51,0,0,1,.73,0A.51.51,0,0,1,348.46-284.15Z" transform="translate(0 437.77)"/><path class="cls-16" d="M348.26-286.17a.51.51,0,0,1-.73,0,.52.52,0,0,1,0-.73.51.51,0,0,1,.73,0A.51.51,0,0,1,348.26-286.17Z" transform="translate(0 437.77)"/><path class="cls-16" d="M348.25-288.07a.52.52,0,0,1-.73,0,.53.53,0,0,1,0-.74.52.52,0,0,1,.73,0A.51.51,0,0,1,348.25-288.07Z" transform="translate(0 437.77)"/><path class="cls-16" d="M346.43-286.25a.51.51,0,0,1-.73,0,.52.52,0,0,1,0-.73.51.51,0,0,1,.73,0A.52.52,0,0,1,346.43-286.25Z" transform="translate(0 437.77)"/><path class="cls-16" d="M361.33-274.9a.51.51,0,0,1-.73,0,.51.51,0,0,1,0-.73.51.51,0,0,1,.73,0A.52.52,0,0,1,361.33-274.9Z" transform="translate(0 437.77)"/><path class="cls-16" d="M359.51-273.08a.52.52,0,0,1-.74,0,.52.52,0,0,1,0-.73.51.51,0,0,1,.73,0A.52.52,0,0,1,359.51-273.08Z" transform="translate(0 437.77)"/><path class="cls-16" d="M359.3-275.1a.52.52,0,0,1-.73,0,.52.52,0,0,1,0-.73.53.53,0,0,1,.74,0A.52.52,0,0,1,359.3-275.1Z" transform="translate(0 437.77)"/><path class="cls-16" d="M359.29-277a.51.51,0,0,1-.73,0,.52.52,0,0,1,0-.73.52.52,0,0,1,.74,0A.51.51,0,0,1,359.29-277Z" transform="translate(0 437.77)"/><path class="cls-16" d="M357.47-275.18a.51.51,0,0,1-.73,0,.52.52,0,0,1,0-.73.52.52,0,0,1,.74,0A.52.52,0,0,1,357.47-275.18Z" transform="translate(0 437.77)"/><path class="cls-1" d="M219.27,188.17c-.88,0-1.6.36-1.59.78l.62,47.33-20.88.27-.62-47.32c0-.42-.73-.75-1.62-.74s-1.6.36-1.6.78l.69,52a.51.51,0,0,0,.27.41l11.89,8.24.8,60.62c0,.42.72.75,1.61.74s1.6-.36,1.6-.78l-.8-60.62,11.67-8.55a.55.55,0,0,0,.26-.42l-.68-52C220.88,188.49,220.16,188.16,219.27,188.17ZM208,248.26,197.48,241l0-2.15,20.88-.28,0,2.15Z" transform="translate(0 437.77)"/><rect class="cls-2" x="189.03" y="187.25" width="36.41" height="3.68" rx="1.76" transform="translate(-2.47 440.51) rotate(-0.75)"/><rect class="cls-2" x="205.55" y="310.37" width="6.6" height="3.89" rx="0.7" transform="translate(-4.09 440.55) rotate(-0.75)"/><path class="cls-3" d="M281.34,135.48a3.19,3.19,0,0,0-4.39-1c-1.19.72-28.2,7.55-26.38,94.34a8.42,8.42,0,1,0,6.38-.26c-1.68-81.89,22.94-88.37,23.36-88.65A3.21,3.21,0,0,0,281.34,135.48Z" transform="translate(0 437.77)"/><path class="cls-3" d="M413.74,224.76c1.83-86.78-25.19-93.61-26.37-94.33a3.19,3.19,0,1,0-3.33,5.45c.25.16,25.07,5.62,23.32,88.63a8.35,8.35,0,0,1,6.38.25Z" transform="translate(0 437.77)"/><path class="cls-3" d="M413.74,224.76a8.41,8.41,0,1,0,4.9,8A8.44,8.44,0,0,0,413.74,224.76Z" transform="translate(0 437.77)"/><path class="cls-3" d="M310,310.8H298.45a4,4,0,0,1,0-8H306V230.25a4,4,0,1,1,8,0v76.56A4,4,0,0,1,310,310.8Z" transform="translate(0 437.77)"/><path class="cls-3" d="M362.14,310.8H350.6a4,4,0,0,1-4-4V230.25a4,4,0,1,1,8,0v72.56h7.54a4,4,0,0,1,0,8Z" transform="translate(0 437.77)"/><path class="cls-4" d="M322.21,24.74H310.87a1.14,1.14,0,0,0-1.14,1.14v6.8a1.14,1.14,0,0,0,1.14,1.14h11.34a1.14,1.14,0,0,0,1.14-1.14v-6.8A1.14,1.14,0,0,0,322.21,24.74Z" transform="translate(0 437.77)"/><path class="cls-4" d="M349.45,24.74H338.11A1.14,1.14,0,0,0,337,25.88v6.8a1.14,1.14,0,0,0,1.14,1.14h11.34a1.14,1.14,0,0,0,1.14-1.14v-6.8A1.14,1.14,0,0,0,349.45,24.74Z" transform="translate(0 437.77)"/><path class="cls-5" d="M353.12,0H307.2a4.27,4.27,0,0,0-4.28,4.28V59h54.47V4.28A4.26,4.26,0,0,0,353.12,0Z" transform="translate(0 437.77)"/><path class="cls-6" d="M586.39,59H525.33V236.08h67.92V59Z" transform="translate(0 437.77)"/><path class="cls-7" d="M293.71,29a4.27,4.27,0,0,0-4.27,4.27V201.8a4.28,4.28,0,0,0,4.27,4.28h2.62V29Z" transform="translate(0 437.77)"/><path class="cls-7" d="M373.88,47h-2.63V224.08h2.63a4.28,4.28,0,0,0,4.28-4.28V51.29A4.28,4.28,0,0,0,373.88,47Z" transform="translate(0 437.77)"/><path class="cls-8" d="M118.47,108.28a26.3,26.3,0,0,0-40.62,0,1.59,1.59,0,0,0,.36,2.22,1.63,1.63,0,0,0,.93.3,1.58,1.58,0,0,0,1.3-.67,23.14,23.14,0,0,1,35.43,0,1.59,1.59,0,0,0,1.3.67,1.55,1.55,0,0,0,.92-.29A1.6,1.6,0,0,0,118.47,108.28Z" transform="translate(0 437.77)"/><path class="cls-8" d="M68.94,81.75a1.42,1.42,0,0,1-.89-.31,1.44,1.44,0,0,1-.26-2c.19-.26,4.9-6.24,11.57-6.24a1.46,1.46,0,1,1,0,2.92c-5.22,0-9.22,5.06-9.26,5.11A1.48,1.48,0,0,1,68.94,81.75Z" transform="translate(0 437.77)"/><path class="cls-9" d="M3.19,83.06C1.43,83.06,0,84.15,0,85.5v3c0,1.35,1.43,2.44,3.19,2.44s3.2-1.09,3.2-2.44v-3C6.39,84.15,5,83.06,3.19,83.06Z" transform="translate(0 437.77)"/><path class="cls-9" d="M45.4,83.06c1.76,0,3.19,1.09,3.19,2.44v3c0,1.35-1.43,2.44-3.19,2.44s-3.2-1.09-3.2-2.44v-3C42.2,84.15,43.63,83.06,45.4,83.06Z" transform="translate(0 437.77)"/><path class="cls-8" d="M127.65,81.75a1.42,1.42,0,0,0,.89-.31,1.44,1.44,0,0,0,.26-2c-.19-.26-4.9-6.24-11.57-6.24a1.46,1.46,0,1,0,0,2.92c5.22,0,9.22,5.06,9.26,5.11A1.46,1.46,0,0,0,127.65,81.75Z" transform="translate(0 437.77)"/><path class="cls-10" d="M221.35,32.68a1.14,1.14,0,0,1-1.14,1.14H208.87a1.14,1.14,0,0,1-1.14-1.14v-6.8a1.14,1.14,0,0,1,1.14-1.14h11.34a1.14,1.14,0,0,1,1.14,1.14Z" transform="translate(0 437.77)"/><path class="cls-10" d="M248.59,32.68a1.14,1.14,0,0,1-1.14,1.14H236.11A1.14,1.14,0,0,1,235,32.68v-6.8a1.14,1.14,0,0,1,1.14-1.14h11.34a1.14,1.14,0,0,1,1.14,1.14Z" transform="translate(0 437.77)"/><path class="cls-11" d="M461.14,301.31h-6V264.5a2.24,2.24,0,0,0-1-2.12c-1-.57-2,0-2.73.46a2.5,2.5,0,0,1-3.53,0c-.77-.46-1.72-1-2.73-.46a2.22,2.22,0,0,0-1,2.12v42.31a5.49,5.49,0,0,0,5.49,5.49h11.54a5.5,5.5,0,0,0,0-11Z" transform="translate(0 437.77)"/><path class="cls-12" d="M411.88,271.66a.5.5,0,0,0,.5-.5.5.5,0,0,0-.5-.5c-6.43,0-8.59-4.12-8.68-4.29a.5.5,0,1,0-.9.44C402.4,267,404.81,271.66,411.88,271.66Z" transform="translate(0 437.77)"/><path class="cls-12" d="M411.88,284.22a.5.5,0,0,0,.5-.5.5.5,0,0,0-.5-.5c-6.43,0-8.59-4.12-8.68-4.29a.5.5,0,1,0-.9.44C402.4,279.57,404.81,284.22,411.88,284.22Z" transform="translate(0 437.77)"/><path class="cls-12" d="M411.88,295.63a.5.5,0,0,0,.5-.5.5.5,0,0,0-.5-.5c-6.43,0-8.59-4.11-8.68-4.29a.5.5,0,0,0-.9.45C402.4,291,404.81,295.63,411.88,295.63Z" transform="translate(0 437.77)"/><path class="cls-12" d="M411.58,301.84c-4.05,5-8.61,4.09-8.8,4.05a.52.52,0,0,0-.6.39.49.49,0,0,0,.38.59,5.82,5.82,0,0,0,1.27.11c1.84,0,5.35-.59,8.52-4.51a.51.51,0,0,0-.07-.71A.49.49,0,0,0,411.58,301.84Z" transform="translate(0 437.77)"/><path class="cls-12" d="M417.76,302.76a.51.51,0,0,0-.54-.46.5.5,0,0,0-.45.55,6.94,6.94,0,0,1-3,6.79.5.5,0,0,0-.19.68.51.51,0,0,0,.44.25.5.5,0,0,0,.24-.06A7.91,7.91,0,0,0,417.76,302.76Z" transform="translate(0 437.77)"/><path class="cls-13" d="M340.84,175.85c.08-2.83,2.21-8.4,3.44-8.36s3,5.91,2.94,8.55a3.19,3.19,0,1,1-6.38-.19Z" transform="translate(0 437.77)"/><path class="cls-16" d="M445.07,112.63l3.09-2.23a3.67,3.67,0,0,0,.82-5.11l-.28-.37a3.65,3.65,0,0,0-5.1-.82l-4.13,3-3.63-3.59a3.66,3.66,0,0,0-5.17,0l-.33.33a3.67,3.67,0,0,0,0,5.17l2.71,2.68L430,114a3.66,3.66,0,0,0-.81,5.11l.27.37a3.66,3.66,0,0,0,5.11.82l4.13-3,3.62,3.59a3.67,3.67,0,0,0,5.17,0l.33-.33a3.65,3.65,0,0,0,0-5.17Z" transform="translate(0 437.77)"/><path class="cls-1" d="M161.79,188.36c-.88,0-1.6.33-1.61.75l-.3,47.33L139,236.31l.3-47.33c0-.42-.71-.77-1.6-.77s-1.61.33-1.61.75l-.33,52a.53.53,0,0,0,.26.42l11.73,8.47-.38,60.62c0,.42.71.77,1.6.77s1.61-.33,1.61-.75l.38-60.62,11.84-8.32a.55.55,0,0,0,.27-.42l.33-52C163.4,188.71,162.68,188.37,161.79,188.36Zm-1.93,52.49-10.49,7.37L139,240.71l0-2.15,20.88.14Z" transform="translate(0 437.77)"/><rect class="cls-2" x="82.82" y="221.03" width="36.41" height="3.68" rx="1.76" transform="translate(-2.92 439.12) rotate(-0.75)"/><rect class="cls-2" x="100.72" y="243.93" width="6.6" height="3.89" rx="0.7" transform="translate(-3.22 439.16) rotate(-0.75)"/></svg>