<svg id="Layer_1" data-name="Layer 1" xmlns="http://www.w3.org/2000/svg" viewBox="0 0 54.47 59.02"><defs><style>.cls-1{fill:#89ccd3;}.cls-2{fill:#c0c5dc;}</style></defs><path class="cls-1" d="M19.29,24.74H8A1.15,1.15,0,0,0,6.8,25.88v6.8A1.15,1.15,0,0,0,8,33.82H19.29a1.14,1.14,0,0,0,1.14-1.14v-6.8A1.14,1.14,0,0,0,19.29,24.74Z"/><path class="cls-1" d="M46.53,24.74H35.19a1.14,1.14,0,0,0-1.14,1.14v6.8a1.14,1.14,0,0,0,1.14,1.14H46.53a1.14,1.14,0,0,0,1.14-1.14v-6.8A1.14,1.14,0,0,0,46.53,24.74Z"/><path class="cls-2" d="M50.2,0H4.27A4.27,4.27,0,0,0,0,4.28V59H54.47V4.28A4.27,4.27,0,0,0,50.2,0Z"/></svg>