<svg id="Layer_1" data-name="Layer 1" xmlns="http://www.w3.org/2000/svg" viewBox="0 0 61.63 37.64"><defs><style>.cls-1{fill:#cfecfc;}</style></defs><path class="cls-1" d="M51,35.12a25.56,25.56,0,0,0-20.31-9.59,25.52,25.52,0,0,0-20.31,9.59,1.59,1.59,0,0,0,.36,2.22,1.63,1.63,0,0,0,.93.3A1.58,1.58,0,0,0,13,37a22.36,22.36,0,0,1,17.72-8.25A22.33,22.33,0,0,1,48.39,37a1.59,1.59,0,0,0,1.3.67,1.55,1.55,0,0,0,.92-.29A1.6,1.6,0,0,0,51,35.12Z"/><path class="cls-1" d="M1.46,8.59a1.5,1.5,0,0,1-.9-.3,1.46,1.46,0,0,1-.25-2C.5,6,5.21,0,11.88,0a1.46,1.46,0,1,1,0,2.92C6.66,2.92,2.66,8,2.62,8A1.48,1.48,0,0,1,1.46,8.59Z"/><path class="cls-1" d="M60.17,8.59a1.47,1.47,0,0,0,.89-.3,1.45,1.45,0,0,0,.26-2C61.13,6,56.42,0,49.75,0a1.46,1.46,0,1,0,0,2.92C55,2.92,59,8,59,8A1.46,1.46,0,0,0,60.17,8.59Z"/></svg>