<svg id="Layer_1" data-name="Layer 1" xmlns="http://www.w3.org/2000/svg" viewBox="0 0 516.11 421.73"><defs><style>.cls-1{fill:#fff;}</style></defs><path class="cls-1" d="M108.33,100l-8.22-.45L87.93,320.41l84.72,4.67,12.18-220.84-8.56-.47Z"/><path class="cls-1" d="M180,35.49a5.34,5.34,0,0,0-5-5.63L117.72,26.7a5.33,5.33,0,0,0-5.62,5l-3.69,66.77,68,3.62ZM137.65,68.11l0,.47a1.42,1.42,0,0,1-1.5,1.34l-6.58-.36-6.79-.37-.78,0a1.44,1.44,0,0,1-1.35-1.5h0l.47-8.48a1.42,1.42,0,0,1,1.5-1.34l.78,0,6.79.37,6.58.36a1.43,1.43,0,0,1,1.35,1.5Zm31,2,0,.47a1.42,1.42,0,0,1-1.5,1.34l-6.58-.36-6.79-.37-.78,0a1.44,1.44,0,0,1-1.35-1.5h0l.47-8.48a1.42,1.42,0,0,1,1.5-1.34l.78,0,6.79.37,6.58.36a1.43,1.43,0,0,1,1.35,1.5Z"/><path class="cls-1" d="M444.62,200.14A3,3,0,0,0,441,197.9l-1.55.37-5.13-21.62,1-.24a3.15,3.15,0,0,0,1.24-.62l.47-.39a3,3,0,0,0,1-3l-2.19-9.22a3,3,0,0,0-3.62-2.23l-2.34.55-.39-1.66,2.34-.55a3,3,0,0,0,2.23-3.63l-7.84-33a5.34,5.34,0,0,0-6.43-4l-1.69.4-20.5,4.87-2.19.52-11.69,2.78-2.19.52-12.28,2.92-2.19.52L355.38,134l-2.19.52-11.69,2.77-2.19.52-12.24,2.91-2.19.52L313,144l-2.19.52-.66.16a5.36,5.36,0,0,0-3.23,2.25l-6.8,10.31L295.61,164a5.37,5.37,0,0,0-.73,4.18l7.28,30.66a3,3,0,0,0,3.62,2.23l2.63,11.08a3,3,0,0,0-2.23,3.62L331,320.18l.63,1.65,1,1.43,1.37,1.12,1.61.72,1.74.28,1.76-.18,122.33-29,2.07-1,1.56-1.67.63-1.39.24-1.51-.19-1.51Z"/><path class="cls-1" d="M118.46,26.37l30.69-.9c.93,0,1.79-.07,2.57-.15l-.14-4.86-35.83,1.05.14,4.86C116.67,26.4,117.53,26.39,118.46,26.37Z"/><path class="cls-1" d="M483.22,139.4l-3.64,3.22c.48.62,1,1.28,1.65,2,2.47,2.81,17.87,20.21,20.34,23,.62.7,1.2,1.33,1.76,1.88l3.64-3.22Z"/></svg>