<?xml version="1.0" encoding="utf-8"?>
<!-- Generator: Adobe Illustrator 24.2.1, SVG Export Plug-In . SVG Version: 6.00 Build 0)  -->
<svg version="1.1" xmlns="http://www.w3.org/2000/svg" xmlns:xlink="http://www.w3.org/1999/xlink" x="0px" y="0px"
	 viewBox="0 0 568.79 443.82" style="enable-background:new 0 0 568.79 443.82;" xml:space="preserve">
<style type="text/css">
	.st0{fill:#7A848C;}
	.st1{fill:none;stroke:#285071;stroke-width:6;stroke-linecap:round;stroke-linejoin:round;stroke-miterlimit:10;}
	.st2{opacity:0.1;fill:#F7931E;}
	.st3{fill:#285071;}
	.st4{fill:#51769A;}
	.st5{fill:#89CCD3;}
	.st6{fill:#C0C5DC;}
	.st7{fill:#316184;}
	.st8{fill:#FFED6B;}
	.st9{fill:#9DA4BF;}
	.st10{fill:none;stroke:#96DEEA;stroke-width:2.5;stroke-linecap:round;stroke-linejoin:round;stroke-miterlimit:10;}
	.st11{fill:#CFECFC;}
	.st12{fill:#3A90DD;}
	.st13{fill:#2F556F;}
	.st14{fill:#2D4759;}
	.st15{fill:#BDECF3;}
	.st16{fill:none;stroke:#96DEEA;stroke-width:3;stroke-linecap:round;stroke-linejoin:round;stroke-miterlimit:10;}
	.st17{fill:#F7931E;}
	.st18{fill:#FF8500;}
	.st19{fill:#FFFFFF;}
	.st20{fill:none;stroke:#000000;stroke-width:6;stroke-linecap:round;stroke-linejoin:round;stroke-miterlimit:10;}
	.st21{fill:none;stroke:#000000;stroke-width:2.5;stroke-linecap:round;stroke-linejoin:round;stroke-miterlimit:10;}
	.st22{fill:none;stroke:#000000;stroke-width:3;stroke-linecap:round;stroke-linejoin:round;stroke-miterlimit:10;}
	.st23{fill:#FF0000;}
</style>
<g id="background">
</g>
<g id="Layer_1">
	<path d="M547.6,171.51c-0.8-1.12-2.37-1.37-3.48-0.57c-3.05,2.2-5.29,1.41-8.21-1.48c-0.1-0.1-0.2-0.21-0.3-0.31
		c-0.69-1.93-2.12-3.54-4-4.45c-5.19-5.87-15.78-17.84-17.8-20.12c-0.62-0.7-1.17-1.35-1.65-1.97c-2.51-3.25-3.02-5.57-0.47-8.33
		c0.94-1.01,0.88-2.59-0.14-3.53c-1.01-0.94-2.59-0.88-3.53,0.14c-6.64,7.19-0.77,13.82,2.05,17.01c1.68,1.9,9.32,10.54,14.83,16.76
		c-2.32,1.07-4.08,3.25-4.49,5.97c-0.48,3.19,1.02,6.21,3.57,7.83c-11.78,51.35-51.62,52.4-53.39,52.42
		c-1.65,0.01-2.98,1.36-2.97,3.01c0.01,1.4,0.98,2.57,2.28,2.89c0.23,0.06,0.48,0.09,0.73,0.08c0.48,0,46.41-0.98,59.25-57.37
		c2.3-0.51,4.27-2.02,5.34-4.13c3.06,2.04,7.07,3.05,11.83-0.38C548.15,174.19,548.4,172.63,547.6,171.51z"/>
	<path d="M213.98,208.28l21.41,19.09c6.44,5.75,14.82,8.9,23.39,8.9c1.08,0,2.16-0.05,3.24-0.15c9.68-0.91,18.63-5.84,24.55-13.55
		l5.08-6.61c0.87,0.2,1.77,0.29,2.7,0.26c5.8-0.22,10.33-5.09,10.11-10.89c-0.22-5.79-5.09-10.32-10.89-10.11
		c-5.8,0.22-10.32,5.09-10.11,10.89c0.1,2.67,1.2,5.07,2.92,6.86l-4.57,5.94c-4.99,6.48-12.21,10.47-20.35,11.23
		c-8.14,0.77-15.98-1.82-22.09-7.26l-24.35-21.71L213.98,208.28z"/>
	<g>
		<path d="M160.1,320.56l-31.14,29.79l24.06,46.62c0.56,1.09,0.4,2.42-0.41,3.35l-10.98,12.54c-0.59,0.68-1.42,1.02-2.26,1.02
			c-0.7,0-1.41-0.24-1.97-0.74c-1.25-1.09-1.37-2.99-0.28-4.23l9.63-11.01l-24.15-46.8c-0.61-1.18-0.37-2.62,0.59-3.54l30.34-29.02
			L160.1,320.56z"/>
	</g>
	<g>
		<path d="M187.18,319.49l11.54,43.59c0.12,0.45,0.13,0.93,0.03,1.39l-10.36,48.84l11.21,2.49c1.62,0.36,2.64,1.96,2.28,3.58
			c-0.31,1.4-1.55,2.35-2.93,2.35c-0.22,0-0.43-0.02-0.65-0.07l-14.11-3.14c-1.61-0.36-2.63-1.94-2.28-3.55l10.83-51.05
			l-11.63-43.94L187.18,319.49z"/>
	</g>
	<path d="M123.02,203.83l-21.04,18.76c-6.1,5.44-13.94,8.02-22.09,7.26c-8.14-0.76-15.37-4.75-20.35-11.23l-8.38-10.9
		c1.59-1.92,2.52-4.4,2.42-7.09c-0.22-5.79-5.09-10.32-10.89-10.11c-5.8,0.22-10.32,5.09-10.11,10.89
		c0.22,5.79,5.09,10.32,10.88,10.11c0.94-0.04,1.83-0.2,2.69-0.47l8.63,11.22c5.93,7.7,14.87,12.64,24.55,13.55
		c1.08,0.1,2.17,0.15,3.24,0.15c8.57,0,16.95-3.16,23.39-8.9l17.09-15.24L123.02,203.83z"/>
	<g>
		<path d="M220.67,104.41c-0.82-0.05-1.88-0.1-3.27-0.18l-12.18,220.84c1.65,0.09,2.65,0.15,3.27,0.18c2.95,0.16,5.47-2.1,5.63-5.04
			l11.59-210.17C225.87,107.09,223.61,104.57,220.67,104.41z"/>
	</g>
	<path class="st5" d="M167.31,58.58l-6.58-0.36l-6.79-0.37l-0.78-0.04c-0.78-0.04-1.46,0.55-1.5,1.34l-0.47,8.48
		c-0.04,0.78,0.56,1.46,1.35,1.5l0.78,0.04l6.79,0.37l6.58,0.36c0.79,0.04,1.46-0.56,1.5-1.34l0.47-8.48
		C168.7,59.29,168.1,58.63,167.31,58.58z"/>
	<path class="st5" d="M201.29,60.46l-0.45-0.02l-6.8-0.38l-6.57-0.36l-0.33-0.02c-0.78-0.04-1.46,0.55-1.5,1.34l-0.47,8.48
		c-0.04,0.78,0.56,1.46,1.34,1.5l0.33,0.02l6.57,0.36l6.8,0.38l0.45,0.02c0.79,0.04,1.46-0.56,1.5-1.34l0.47-8.48
		C202.67,61.17,202.07,60.5,201.29,60.46z"/>
	<path class="st19" d="M208.84,103.76l3.77-68.28c0.16-2.95-2.09-5.46-5.04-5.63l-57.28-3.16c-2.95-0.16-5.46,2.09-5.62,5.04
		l-3.77,68.28c-3.85-0.21-6.75-0.37-8.22-0.45l-12.18,220.84l84.72,4.67l12.18-220.84L208.84,103.76z"/>
	<g>
		<path d="M129.4,99.37c-2.94-0.16-5.46,2.1-5.62,5.04l-11.59,210.17c-0.16,2.94,2.09,5.46,5.03,5.63c0.56,0.03,1.54,0.09,3.27,0.18
			l12.18-220.84C131.34,99.48,130.35,99.43,129.4,99.37z"/>
	</g>
	<g>
		<path d="M147.23,127.42c-2.2-0.12-4.08,1.56-4.2,3.77l-0.26,4.8c-0.12,2.2,1.57,4.08,3.76,4.2c2.2,0.12,4.08-1.56,4.21-3.76
			l0.26-4.8C151.12,129.43,149.43,127.55,147.23,127.42z"/>
	</g>
	<g>
		<path d="M199.87,130.33c2.2,0.12,3.88,2,3.76,4.21l-0.26,4.8c-0.12,2.2-2,3.88-4.2,3.76c-2.21-0.12-3.89-2-3.77-4.2l0.26-4.8
			C195.78,131.89,197.66,130.21,199.87,130.33z"/>
	</g>
	<path d="M168.19,68.57c-0.04,0.78-0.71,1.39-1.5,1.34l-6.58-0.36l-6.79-0.37l-0.78-0.04c-0.78-0.04-1.39-0.72-1.35-1.5l0.47-8.48
		c0.04-0.79,0.72-1.39,1.5-1.34l0.78,0.04l6.79,0.37l6.58,0.36c0.79,0.04,1.39,0.71,1.34,1.5L168.19,68.57z"/>
	<path d="M202.16,70.44c-0.04,0.78-0.72,1.39-1.5,1.34l-0.45-0.02l-6.8-0.38l-6.57-0.36L186.51,71c-0.78-0.04-1.39-0.72-1.34-1.5
		l0.47-8.48c0.04-0.79,0.72-1.39,1.5-1.34l0.33,0.02l6.57,0.36l6.8,0.38l0.45,0.02c0.79,0.04,1.39,0.71,1.34,1.5L202.16,70.44z"/>
	<g>
		<path d="M136.1,126.3c-0.22,0-0.44-0.06-0.64-0.18c-0.59-0.36-0.78-1.12-0.43-1.71c2.14-3.58,8.1-9.63,15.31-6.96
			c0.65,0.24,0.98,0.96,0.74,1.61c-0.24,0.65-0.96,0.98-1.61,0.74c-7.06-2.62-12.08,5.56-12.3,5.9
			C136.93,126.08,136.52,126.3,136.1,126.3z"/>
	</g>
	<g>
		<path d="M210.32,130.39c-0.47,0-0.93-0.27-1.14-0.73c-0.17-0.37-4.27-9.05-11.57-7.22c-0.67,0.17-1.35-0.24-1.52-0.91
			c-0.17-0.67,0.24-1.35,0.91-1.52c7.45-1.86,12.71,4.81,14.45,8.6c0.29,0.63,0.01,1.37-0.61,1.66
			C210.68,130.35,210.5,130.39,210.32,130.39z"/>
	</g>
	<path class="st18" d="M199.44,167.39c0.25-4.45-7.85,5.66-28.17,4.54c-5.22-0.29-6.01-1.15-6.52,0.14
		c-0.88,2.23,8.01,6.23,13.85,6.55C190.9,179.3,199.27,170.62,199.44,167.39z"/>
	<g>
		<path d="M487.91,369.3c-0.12,0-0.24-0.01-0.37-0.02l-16.62-2.03c-1.41-0.17-2.51-1.31-2.62-2.73l-5.82-69.23
			c-0.14-1.65,1.09-3.1,2.74-3.24c1.64-0.16,3.1,1.09,3.24,2.74l5.62,66.8l14.2,1.74c1.64,0.2,2.81,1.7,2.61,3.34
			C490.7,368.18,489.41,369.3,487.91,369.3z"/>
	</g>
	<g>
		<path d="M443.58,377.83c-0.2,0-0.39-0.02-0.59-0.06c-1.62-0.32-2.68-1.91-2.35-3.53l2.65-13.25l-33.41-13.63
			c-1.26-0.51-2.02-1.81-1.84-3.16l4.35-34.04c0.21-1.64,1.71-2.81,3.36-2.6c1.64,0.21,2.81,1.71,2.6,3.36l-4.05,31.75l33.57,13.7
			c1.33,0.54,2.09,1.96,1.81,3.37l-3.14,15.68C446.23,376.84,444.98,377.83,443.58,377.83z"/>
	</g>
	<path d="M357.67,264.43c-0.36-0.01-2.31-0.07-5.29-0.6c-11.58-2.07-38.64-11.29-47.72-52.21c2.56-1.61,4.08-4.62,3.62-7.8
		c-0.62-4.3-4.62-7.29-8.92-6.67c-4.31,0.62-7.29,4.61-6.68,8.92c0.48,3.32,2.97,5.85,6.06,6.55
		c12.44,56.48,58.35,57.79,58.84,57.79c0.25,0,0.5-0.02,0.73-0.08c1.3-0.31,2.28-1.47,2.3-2.86
		C360.64,265.82,359.32,264.46,357.67,264.43z"/>
	<g>
		<path class="st13" d="M454.59,148.61l2.93-0.7l-0.7-2.93C457.21,146.61,456.21,148.23,454.59,148.61z"/>
	</g>
	<g>
		<path class="st13" d="M350.03,185.85l2.93-0.7l-0.7-2.93C352.64,183.84,351.64,185.47,350.03,185.85z"/>
	</g>
	<g>
		<path class="st13" d="M339.28,185.3l0.7,2.93l2.93-0.69C341.29,187.92,339.66,186.92,339.28,185.3z"/>
	</g>
	<path class="st19" d="M498.31,289.12l-21.12-88.99c-0.38-1.62-2.01-2.62-3.63-2.24l-1.55,0.37l-5.13-21.62l1.02-0.24
		c0.45-0.11,0.87-0.32,1.24-0.62l0.47-0.39c0.88-0.73,1.26-1.89,1-3.01l-2.19-9.22c-0.38-1.62-2-2.62-3.62-2.23l-2.34,0.55
		l-0.39-1.66l2.34-0.55c1.62-0.38,2.62-2.01,2.23-3.63l-7.84-33.04c-0.68-2.87-3.56-4.64-6.43-3.96l-1.69,0.4l-20.5,4.87l-2.19,0.52
		l-11.69,2.78l-2.19,0.52l-12.28,2.92l-2.19,0.52l-11.69,2.77l-2.19,0.52l-11.69,2.77l-2.19,0.52l-12.24,2.91l-2.19,0.52
		l-11.93,2.83l-2.19,0.52l-0.66,0.16c-1.32,0.31-2.48,1.12-3.23,2.25l-6.8,10.31l-4.46,6.75c-0.81,1.24-1.07,2.75-0.73,4.18
		l7.28,30.66c0.38,1.62,2.01,2.62,3.62,2.23l2.63,11.08c-1.62,0.38-2.62,2.01-2.23,3.62l24.78,104.4l0.63,1.65l1.03,1.43l1.37,1.12
		l1.61,0.72l1.74,0.28l1.76-0.18l122.33-29.04l2.07-0.95l1.56-1.67l0.63-1.39l0.24-1.51L498.31,289.12z"/>
	<g>
		<path class="st18" d="M456.83,144.99L452.32,126c-0.38-1.62-2.01-2.62-3.62-2.23l-2.24,0.53c-1.62,0.38-2.62,2.01-2.23,3.62
			l4.51,18.99c0.38,1.62,2.01,2.62,3.62,2.23l2.24-0.53C456.21,148.23,457.21,146.61,456.83,144.99z"/>
		<path class="st18" d="M348,164.3c-0.38-1.61-2-2.61-3.62-2.23l-7.12,1.69c-1.61,0.38-2.62,2-2.23,3.62l4.26,17.93
			c0.38,1.62,2.01,2.62,3.62,2.24l7.12-1.69c1.62-0.38,2.62-2.01,2.23-3.63L348,164.3z"/>
		<path class="st18" d="M442.07,128.43c-0.38-1.62-2.01-2.62-3.62-2.23l-4.4,1.04c-1.62,0.38-2.62,2-2.23,3.62l4.51,18.99l0.7,2.93
			l2.93-0.69l4.4-1.04c1.62-0.38,2.62-2.01,2.23-3.62L442.07,128.43z"/>
		<path class="st18" d="M373.52,144.7c-0.38-1.62-2.01-2.62-3.62-2.23l-6.39,1.52c-1.62,0.38-2.62,2.01-2.23,3.62l4.51,18.99
			l0.7,2.93l2.93-0.7l6.39-1.52l2.93-0.69l-0.7-2.93L373.52,144.7z"/>
		<path class="st18" d="M387.02,139.79c-0.38-1.62-2.01-2.62-3.62-2.23l-5.83,1.38c-1.62,0.38-2.62,2.01-2.23,3.62l4.89,20.6
			l0.7,2.93l2.93-0.69l5.83-1.38l2.93-0.7l-0.7-2.93L387.02,139.79z"/>
		<path class="st18" d="M415.75,134.68c-0.38-1.62-2.01-2.62-3.62-2.23l-6.42,1.52c-1.62,0.38-2.62,2.01-2.23,3.62l4.51,18.99
			l0.7,2.93l2.93-0.69l6.42-1.52l2.93-0.7l-0.7-2.93L415.75,134.68z"/>
		<path class="st18" d="M429.63,131.38c-0.38-1.62-2.01-2.62-3.62-2.23l-5.84,1.39c-1.62,0.38-2.62,2.01-2.23,3.62l4.51,18.99
			l0.7,2.93l2.93-0.7l5.84-1.39l2.93-0.7l-0.7-2.93L429.63,131.38z"/>
		<path class="st18" d="M400.9,136.5c-0.38-1.62-2.01-2.62-3.62-2.23l-5.84,1.39c-1.62,0.38-2.61,2.01-2.23,3.62l4.89,20.6l0.7,2.93
			l2.93-0.69l5.84-1.39l2.93-0.69l-0.7-2.93L400.9,136.5z"/>
		<path class="st18" d="M359.08,148.13c-0.38-1.62-2.01-2.62-3.62-2.23l-6.07,1.44c-1.62,0.38-2.62,2.01-2.24,3.63l4.51,18.99
			l0.7,2.93l2.93-0.7l6.07-1.44l2.93-0.69l-0.7-2.93L359.08,148.13z"/>
	</g>
	<path class="st18" d="M401.12,249.77c1.85,7.81,14.78,17.87,25.07,15.43c8.97-2.13,16.69-14.14,14.64-22.75
		c-0.97-4.11-3.39-5.83-5.55-5.32c-2.5,0.59-4.49,4.01-10.88,5.53c-9.99,2.37-15.16-3.42-19.71-2.34
		C401.94,240.97,400.02,245.1,401.12,249.77z"/>
	<g>
		<path d="M360.82,227.18c-0.18,0-0.36-0.03-0.54-0.1c-0.77-0.3-1.16-1.16-0.86-1.94c0.21-0.53,5.17-13.06,18.2-13.06
			c0.01,0,0.01,0,0.01,0c0.83,0,1.5,0.67,1.5,1.5s-0.67,1.5-1.5,1.5h0c0,0-0.01,0-0.01,0c-10.95,0-15.23,10.68-15.4,11.14
			C361.99,226.82,361.42,227.18,360.82,227.18z"/>
	</g>
	<g>
		<path d="M457.21,202.42c-0.46,0-0.92-0.21-1.21-0.62c-6.76-9.31-15.29-4.81-15.66-4.61c-0.72,0.4-1.64,0.13-2.04-0.6
			c-0.4-0.73-0.13-1.64,0.6-2.03c3.85-2.1,12.89-3.66,19.52,5.48c0.49,0.67,0.34,1.61-0.33,2.09
			C457.83,202.33,457.52,202.42,457.21,202.42z"/>
	</g>
	<path d="M448.33,165.15c-0.66-2.87,0.03-9.01,1.27-9.3c1.24-0.28,4.58,5.16,5.19,7.82c0.41,1.78-0.71,3.56-2.49,3.97
		C450.51,168.05,448.74,166.93,448.33,165.15z"/>
	<g>
		<path d="M374.91,225.14c-2.1,0.5-3.4,2.64-2.89,4.79l1.11,4.67c0.51,2.14,2.63,3.47,4.73,2.97c2.11-0.5,3.4-2.64,2.9-4.78
			l-1.11-4.67C379.14,225.97,377.02,224.64,374.91,225.14z"/>
	</g>
	<g>
		<path d="M445.09,208.48c-2.1,0.5-3.4,2.64-2.89,4.79l1.11,4.67c0.51,2.14,2.63,3.47,4.73,2.97c2.11-0.5,3.4-2.64,2.9-4.78
			l-1.11-4.67C449.32,209.31,447.2,207.98,445.09,208.48z"/>
	</g>
	<g>
		<path d="M184,15.4c-0.26-8.76-7.57-15.66-16.33-15.4l-4.1,0.12c-8.76,0.26-15.66,7.57-15.4,16.33l0.15,5.05l35.83-1.05L184,15.4z"
			/>
	</g>
	<g>
		<path class="st19" d="M181.72,25.46c0.93-0.03,1.79-0.07,2.57-0.15l-0.14-4.86l-35.83,1.05l0.14,4.86c0.78,0.03,1.64,0.02,2.57,0
			C154.77,26.26,177.99,25.57,181.72,25.46z"/>
	</g>
	<g>
		<path d="M193.35,17.64c-1.38-0.1-2.57,0.94-2.67,2.31c-0.27,3.75-2.3,4.97-6.4,5.36c-0.78,0.08-1.64,0.12-2.57,0.15
			c-3.73,0.11-26.95,0.79-30.69,0.9c-0.93,0.03-1.79,0.03-2.57,0c-4.11-0.15-6.21-1.24-6.7-4.98c-0.18-1.37-1.43-2.33-2.8-2.15
			c-1.37,0.18-2.33,1.43-2.15,2.8c1.26,9.7,10.12,9.44,14.37,9.32c3.73-0.11,26.95-0.79,30.69-0.9c4.26-0.13,13.11-0.39,13.8-10.15
			C195.76,18.93,194.73,17.74,193.35,17.64z"/>
	</g>
	<g>
		<path d="M543.33,162.89c6.56-5.81,7.18-15.84,1.37-22.4l-2.72-3.07c-5.81-6.56-15.84-7.18-22.4-1.37l-3.78,3.35l23.75,26.85
			L543.33,162.89z"/>
	</g>
	<g>
		<path class="st19" d="M534.14,167.58c0.62,0.7,1.2,1.33,1.76,1.88l3.64-3.22l-23.75-26.85l-3.64,3.22
			c0.48,0.62,1.03,1.28,1.65,1.97C516.27,147.39,531.67,164.79,534.14,167.58z"/>
	</g>
	<polygon points="140.96,98.5 208.93,102.12 208.84,103.76 140.9,100.01 	"/>
</g>
</svg>
