<svg id="Layer_1" data-name="Layer 1" xmlns="http://www.w3.org/2000/svg" viewBox="0 0 516.11 421.73"><defs><style>.cls-1{fill:#ff8500;}</style></defs><path class="cls-1" d="M139.7,171.94c-5.22-.29-6-1.15-6.52.14-.88,2.23,8,6.23,13.85,6.55,12.3.68,20.67-8,20.84-11.23C168.12,163,160,173.06,139.7,171.94Z"/><path class="cls-1" d="M425.26,145l-4.51-19a3,3,0,0,0-3.62-2.23l-2.24.53a3,3,0,0,0-2.23,3.62l4.51,19a3,3,0,0,0,3.62,2.23l2.24-.53A3,3,0,0,0,425.26,145Z"/><path class="cls-1" d="M316.43,164.31a3,3,0,0,0-3.62-2.23l-7.12,1.69a3,3,0,0,0-2.23,3.62l4.26,17.93a3,3,0,0,0,3.62,2.24l7.12-1.69a3,3,0,0,0,2.23-3.63Z"/><path class="cls-1" d="M410.5,128.44a3,3,0,0,0-3.62-2.23l-4.4,1a3,3,0,0,0-2.23,3.62l4.51,19,.7,2.93,2.93-.69,4.4-1a3,3,0,0,0,2.23-3.62Z"/><path class="cls-1" d="M342,144.71a3,3,0,0,0-3.62-2.23L331.94,144a3,3,0,0,0-2.23,3.62l4.51,19,.7,2.93,2.93-.7,6.39-1.52,2.93-.69-.7-2.93Z"/><path class="cls-1" d="M355.45,139.8a3,3,0,0,0-3.62-2.23L346,139a3,3,0,0,0-2.23,3.62l4.89,20.6.7,2.93,2.93-.69,5.83-1.38,2.93-.7-.7-2.93Z"/><path class="cls-1" d="M376.42,156.59l.7,2.93,2.93-.69,6.42-1.52,2.93-.7-.7-2.93-4.52-19a3,3,0,0,0-3.62-2.23L374.14,134a3,3,0,0,0-2.23,3.62Z"/><path class="cls-1" d="M390.88,153.16l.7,2.93,2.93-.7,5.84-1.39,2.93-.7-.7-2.93-4.52-19a3,3,0,0,0-3.62-2.23l-5.84,1.39a3,3,0,0,0-2.23,3.62Z"/><path class="cls-1" d="M374.93,160.05l-.7-2.93-4.9-20.61a3,3,0,0,0-3.62-2.23l-5.84,1.39a3,3,0,0,0-2.23,3.62l4.89,20.6.7,2.93,2.93-.69,5.84-1.39Z"/><path class="cls-1" d="M327.51,148.14a3,3,0,0,0-3.62-2.23l-6.07,1.44a3,3,0,0,0-2.24,3.63l4.51,19,.7,2.93,2.93-.7,6.07-1.44,2.93-.69-.7-2.93Z"/><path class="cls-1" d="M403.71,237.14c-2.5.59-4.49,4-10.88,5.53-10,2.37-15.16-3.42-19.71-2.34-2.75.65-4.67,4.78-3.57,9.45,1.85,7.81,14.78,17.87,25.07,15.43,9-2.13,16.69-14.14,14.64-22.75C408.29,238.35,405.87,236.63,403.71,237.14Z"/></svg>