<?xml version="1.0" encoding="utf-8"?>
<!-- Generator: Adobe Illustrator 24.2.1, SVG Export Plug-In . SVG Version: 6.00 Build 0)  -->
<svg version="1.1" xmlns="http://www.w3.org/2000/svg" xmlns:xlink="http://www.w3.org/1999/xlink" x="0px" y="0px"
	 viewBox="0 0 568.79 443.82" style="enable-background:new 0 0 568.79 443.82;" xml:space="preserve">
<style type="text/css">
	.st0{fill:#7A848C;}
	.st1{fill:none;stroke:#285071;stroke-width:6;stroke-linecap:round;stroke-linejoin:round;stroke-miterlimit:10;}
	.st2{opacity:0.1;fill:#F7931E;}
	.st3{fill:#285071;}
	.st4{fill:#51769A;}
	.st5{fill:#89CCD3;}
	.st6{fill:#C0C5DC;}
	.st7{fill:#316184;}
	.st8{fill:#FFED6B;}
	.st9{fill:#9DA4BF;}
	.st10{fill:none;stroke:#96DEEA;stroke-width:2.5;stroke-linecap:round;stroke-linejoin:round;stroke-miterlimit:10;}
	.st11{fill:#CFECFC;}
	.st12{fill:#3A90DD;}
	.st13{fill:#2F556F;}
	.st14{fill:#2D4759;}
	.st15{fill:#BDECF3;}
	.st16{fill:none;stroke:#96DEEA;stroke-width:3;stroke-linecap:round;stroke-linejoin:round;stroke-miterlimit:10;}
	.st17{fill:#F7931E;}
	.st18{fill:#FF8500;}
	.st19{fill:#FFFFFF;}
	.st20{fill:none;stroke:#000000;stroke-width:6;stroke-linecap:round;stroke-linejoin:round;stroke-miterlimit:10;}
	.st21{fill:none;stroke:#000000;stroke-width:2.5;stroke-linecap:round;stroke-linejoin:round;stroke-miterlimit:10;}
	.st22{fill:none;stroke:#000000;stroke-width:3;stroke-linecap:round;stroke-linejoin:round;stroke-miterlimit:10;}
	.st23{fill:#FF0000;}
</style>
<g id="background">
	<rect x="-1.21" y="-1.87" class="st0" width="572" height="447"/>
</g>
<g id="Layer_1">
	<path class="st20" d="M205.13,196.36l32.25,28.77c13.92,12.41,35.45,10.4,46.82-4.38l10.31-13.4"/>
	<path class="st20" d="M136.23,196.07l-32.25,28.77c-13.92,12.41-35.45,10.4-46.82-4.38l-10.31-13.4"/>
	<polyline class="st20" points="161.32,315.24 125.26,349.74 150.35,398.35 139.37,410.89 	"/>
	<polyline class="st20" points="181.71,310.54 195.82,363.85 184.84,415.6 198.96,418.73 	"/>
	<g>
		<path d="M32.58,201.42c0.22,5.79,5.09,10.32,10.88,10.11c5.8-0.22,10.33-5.09,10.11-10.89c-0.22-5.79-5.09-10.32-10.89-10.11
			C36.89,190.75,32.37,195.62,32.58,201.42z"/>
	</g>
	<g>
		<path d="M220.67,104.41c-0.82-0.05-1.88-0.1-3.27-0.18l-12.18,220.84c1.65,0.09,2.65,0.15,3.27,0.18c2.95,0.16,5.47-2.1,5.63-5.04
			l11.59-210.17C225.87,107.09,223.61,104.57,220.67,104.41z"/>
	</g>
	<path class="st5" d="M167.31,58.58l-6.58-0.36l-6.79-0.37l-0.78-0.04c-0.78-0.04-1.46,0.55-1.5,1.34l-0.47,8.48
		c-0.04,0.78,0.56,1.46,1.35,1.5l0.78,0.04l6.79,0.37l6.58,0.36c0.79,0.04,1.46-0.56,1.5-1.34l0.47-8.48
		C168.7,59.29,168.1,58.63,167.31,58.58z"/>
	<path class="st5" d="M201.29,60.46l-0.45-0.02l-6.8-0.38l-6.57-0.36l-0.33-0.02c-0.78-0.04-1.46,0.55-1.5,1.34l-0.47,8.48
		c-0.04,0.78,0.56,1.46,1.34,1.5l0.33,0.02l6.57,0.36l6.8,0.38l0.45,0.02c0.79,0.04,1.46-0.56,1.5-1.34l0.47-8.48
		C202.67,61.17,202.07,60.5,201.29,60.46z"/>
	<path class="st19" d="M208.84,103.76l3.77-68.28c0.16-2.95-2.09-5.46-5.04-5.63l-57.28-3.16c-2.95-0.16-5.46,2.09-5.62,5.04
		l-3.77,68.28c-3.85-0.21-6.75-0.37-8.22-0.45l-12.18,220.84l84.72,4.67l12.18-220.84L208.84,103.76z"/>
	<g>
		<path d="M129.4,99.37c-2.94-0.16-5.46,2.1-5.62,5.04l-11.59,210.17c-0.16,2.94,2.09,5.46,5.03,5.63c0.56,0.03,1.54,0.09,3.27,0.18
			l12.18-220.84C131.34,99.48,130.35,99.43,129.4,99.37z"/>
	</g>
	<g>
		<path d="M147.23,127.42c-2.2-0.12-4.08,1.56-4.2,3.77l-0.26,4.8c-0.12,2.2,1.57,4.08,3.76,4.2c2.2,0.12,4.08-1.56,4.21-3.76
			l0.26-4.8C151.12,129.43,149.43,127.55,147.23,127.42z"/>
	</g>
	<g>
		<path d="M199.87,130.33c2.2,0.12,3.88,2,3.76,4.21l-0.26,4.8c-0.12,2.2-2,3.88-4.2,3.76c-2.21-0.12-3.89-2-3.77-4.2l0.26-4.8
			C195.78,131.89,197.66,130.21,199.87,130.33z"/>
	</g>
	<path d="M168.19,68.57c-0.04,0.78-0.71,1.39-1.5,1.34l-6.58-0.36l-6.79-0.37l-0.78-0.04c-0.78-0.04-1.39-0.72-1.35-1.5l0.47-8.48
		c0.04-0.79,0.72-1.39,1.5-1.34l0.78,0.04l6.79,0.37l6.58,0.36c0.79,0.04,1.39,0.71,1.34,1.5L168.19,68.57z"/>
	<path d="M202.16,70.44c-0.04,0.78-0.72,1.39-1.5,1.34l-0.45-0.02l-6.8-0.38l-6.57-0.36L186.51,71c-0.78-0.04-1.39-0.72-1.34-1.5
		l0.47-8.48c0.04-0.79,0.72-1.39,1.5-1.34l0.33,0.02l6.57,0.36l6.8,0.38l0.45,0.02c0.79,0.04,1.39,0.71,1.34,1.5L202.16,70.44z"/>
	<path class="st21" d="M136.1,125.05c0,0,5.66-9.45,13.8-6.43"/>
	<path class="st21" d="M210.32,129.14c0,0-4.59-10.02-13.01-7.91"/>
	<path class="st18" d="M199.44,167.39c0.25-4.45-7.85,5.66-28.17,4.54c-5.22-0.29-6.01-1.15-6.52,0.14
		c-0.88,2.23,8.01,6.23,13.85,6.55C190.9,179.3,199.27,170.62,199.44,167.39z"/>
	<polyline class="st20" points="465.47,295.03 471.29,364.26 487.91,366.3 	"/>
	<polyline class="st20" points="415.35,310.54 411,344.58 446.71,359.15 443.57,374.83 	"/>
	<g>
		<g>
			<g>
				<path d="M358.32,270.33c-0.24,0.06-0.48,0.08-0.73,0.08c-0.5,0-50.44-1.41-60.25-65.37c-0.25-1.63,0.84-3.16,2.51-3.41
					c1.64-0.25,3.16,0.87,3.42,2.5c9.02,58.81,52.57,60.26,54.42,60.3c1.65,0.03,2.97,1.39,2.94,3.04
					C360.59,268.87,359.62,270.03,358.32,270.33z"/>
			</g>
			<g>
				<path d="M308.29,203.82c-0.62-4.3-4.62-7.29-8.92-6.67c-4.31,0.62-7.29,4.61-6.68,8.92c0.62,4.3,4.61,7.29,8.92,6.68
					C305.92,212.13,308.91,208.13,308.29,203.82z"/>
			</g>
		</g>
		<g>
			<g>
				<path d="M469.89,236.78c-1.3-0.32-2.27-1.49-2.28-2.89c-0.01-1.65,1.32-2.99,2.97-3.01l0,0c1.85-0.02,45.4-1.16,54.85-59.91
					c0.26-1.64,1.8-2.74,3.43-2.48c1.63,0.25,2.74,1.8,2.48,3.43c-10.27,63.89-60.21,64.94-60.72,64.94
					C470.37,236.86,470.12,236.84,469.89,236.78z"/>
			</g>
			<g>
				<path d="M535.97,172.98c0.65-4.31-2.31-8.32-6.61-8.97c-4.3-0.65-8.32,2.31-8.97,6.61c-0.65,4.3,2.31,8.32,6.61,8.97
					C531.31,180.24,535.32,177.28,535.97,172.98z"/>
			</g>
		</g>
	</g>
	<g>
		<path class="st13" d="M454.59,148.61l2.93-0.7l-0.7-2.93C457.21,146.61,456.21,148.23,454.59,148.61z"/>
	</g>
	<g>
		<path class="st13" d="M350.03,185.85l2.93-0.7l-0.7-2.93C352.64,183.84,351.64,185.47,350.03,185.85z"/>
	</g>
	<g>
		<path class="st13" d="M339.28,185.3l0.7,2.93l2.93-0.69C341.29,187.92,339.66,186.92,339.28,185.3z"/>
	</g>
	<path class="st19" d="M498.31,289.12l-21.12-88.99c-0.38-1.62-2.01-2.62-3.63-2.24l-1.55,0.37l-5.13-21.62l1.02-0.24
		c0.45-0.11,0.87-0.32,1.24-0.62l0.47-0.39c0.88-0.73,1.26-1.89,1-3.01l-2.19-9.22c-0.38-1.62-2-2.62-3.62-2.23l-2.34,0.55
		l-0.39-1.66l2.34-0.55c1.62-0.38,2.62-2.01,2.23-3.63l-7.84-33.04c-0.68-2.87-3.56-4.64-6.43-3.96l-1.69,0.4l-20.5,4.87l-2.19,0.52
		l-11.69,2.78l-2.19,0.52l-12.28,2.92l-2.19,0.52l-11.69,2.77l-2.19,0.52l-11.69,2.77l-2.19,0.52l-12.24,2.91l-2.19,0.52
		l-11.93,2.83l-2.19,0.52l-0.66,0.16c-1.32,0.31-2.48,1.12-3.23,2.25l-6.8,10.31l-4.46,6.75c-0.81,1.24-1.07,2.75-0.73,4.18
		l7.28,30.66c0.38,1.62,2.01,2.62,3.62,2.23l2.63,11.08c-1.62,0.38-2.62,2.01-2.23,3.62l24.78,104.4l0.63,1.65l1.03,1.43l1.37,1.12
		l1.61,0.72l1.74,0.28l1.76-0.18l122.33-29.04l2.07-0.95l1.56-1.67l0.63-1.39l0.24-1.51L498.31,289.12z"/>
	<g>
		<path class="st18" d="M456.83,144.99L452.32,126c-0.38-1.62-2.01-2.62-3.62-2.23l-2.24,0.53c-1.62,0.38-2.62,2.01-2.23,3.62
			l4.51,18.99c0.38,1.62,2.01,2.62,3.62,2.23l2.24-0.53C456.21,148.23,457.21,146.61,456.83,144.99z"/>
		<path class="st18" d="M348,164.3c-0.38-1.61-2-2.61-3.62-2.23l-7.12,1.69c-1.61,0.38-2.62,2-2.23,3.62l4.26,17.93
			c0.38,1.62,2.01,2.62,3.62,2.24l7.12-1.69c1.62-0.38,2.62-2.01,2.23-3.63L348,164.3z"/>
		<path class="st18" d="M442.07,128.43c-0.38-1.62-2.01-2.62-3.62-2.23l-4.4,1.04c-1.62,0.38-2.62,2-2.23,3.62l4.51,18.99l0.7,2.93
			l2.93-0.69l4.4-1.04c1.62-0.38,2.62-2.01,2.23-3.62L442.07,128.43z"/>
		<path class="st18" d="M373.52,144.7c-0.38-1.62-2.01-2.62-3.62-2.23l-6.39,1.52c-1.62,0.38-2.62,2.01-2.23,3.62l4.51,18.99
			l0.7,2.93l2.93-0.7l6.39-1.52l2.93-0.69l-0.7-2.93L373.52,144.7z"/>
		<path class="st18" d="M387.02,139.79c-0.38-1.62-2.01-2.62-3.62-2.23l-5.83,1.38c-1.62,0.38-2.62,2.01-2.23,3.62l4.89,20.6
			l0.7,2.93l2.93-0.69l5.83-1.38l2.93-0.7l-0.7-2.93L387.02,139.79z"/>
		<path class="st18" d="M415.75,134.68c-0.38-1.62-2.01-2.62-3.62-2.23l-6.42,1.52c-1.62,0.38-2.62,2.01-2.23,3.62l4.51,18.99
			l0.7,2.93l2.93-0.69l6.42-1.52l2.93-0.7l-0.7-2.93L415.75,134.68z"/>
		<path class="st18" d="M429.63,131.38c-0.38-1.62-2.01-2.62-3.62-2.23l-5.84,1.39c-1.62,0.38-2.62,2.01-2.23,3.62l4.51,18.99
			l0.7,2.93l2.93-0.7l5.84-1.39l2.93-0.7l-0.7-2.93L429.63,131.38z"/>
		<path class="st18" d="M400.9,136.5c-0.38-1.62-2.01-2.62-3.62-2.23l-5.84,1.39c-1.62,0.38-2.61,2.01-2.23,3.62l4.89,20.6l0.7,2.93
			l2.93-0.69l5.84-1.39l2.93-0.69l-0.7-2.93L400.9,136.5z"/>
		<path class="st18" d="M359.08,148.13c-0.38-1.62-2.01-2.62-3.62-2.23l-6.07,1.44c-1.62,0.38-2.62,2.01-2.24,3.63l4.51,18.99
			l0.7,2.93l2.93-0.7l6.07-1.44l2.93-0.69l-0.7-2.93L359.08,148.13z"/>
	</g>
	<path class="st18" d="M401.12,249.77c1.85,7.81,14.78,17.87,25.07,15.43c8.97-2.13,16.69-14.14,14.64-22.75
		c-0.97-4.11-3.39-5.83-5.55-5.32c-2.5,0.59-4.49,4.01-10.88,5.53c-9.99,2.37-15.16-3.42-19.71-2.34
		C401.94,240.97,400.02,245.1,401.12,249.77z"/>
	<path class="st22" d="M360.82,225.68c0,0,4.65-12.11,16.82-12.1"/>
	<path class="st22" d="M439.62,195.88c0,0,9.98-5.44,17.59,5.05"/>
	<path d="M448.33,165.15c-0.66-2.87,0.03-9.01,1.27-9.3c1.24-0.28,4.58,5.16,5.19,7.82c0.41,1.78-0.71,3.56-2.49,3.97
		C450.51,168.05,448.74,166.93,448.33,165.15z"/>
	<g>
		<path d="M374.91,225.14c-2.1,0.5-3.4,2.64-2.89,4.79l1.11,4.67c0.51,2.14,2.63,3.47,4.73,2.97c2.11-0.5,3.4-2.64,2.9-4.78
			l-1.11-4.67C379.14,225.97,377.02,224.64,374.91,225.14z"/>
	</g>
	<g>
		<path d="M445.09,208.48c-2.1,0.5-3.4,2.64-2.89,4.79l1.11,4.67c0.51,2.14,2.63,3.47,4.73,2.97c2.11-0.5,3.4-2.64,2.9-4.78
			l-1.11-4.67C449.32,209.31,447.2,207.98,445.09,208.48z"/>
	</g>
	<g>
		<path d="M283.47,206.12c0.22,5.79,5.09,10.32,10.88,10.11c5.8-0.22,10.33-5.09,10.11-10.89c-0.22-5.79-5.09-10.32-10.89-10.11
			C287.78,195.45,283.26,200.32,283.47,206.12z"/>
	</g>
	<g>
		<path d="M184,15.4c-0.26-8.76-7.57-15.66-16.33-15.4l-4.1,0.12c-8.76,0.26-15.66,7.57-15.4,16.33l0.15,5.05l35.83-1.05L184,15.4z"
			/>
	</g>
	<g>
		<path class="st19" d="M181.72,25.46c0.93-0.03,1.79-0.07,2.57-0.15l-0.14-4.86l-35.83,1.05l0.14,4.86c0.78,0.03,1.64,0.02,2.57,0
			C154.77,26.26,177.99,25.57,181.72,25.46z"/>
	</g>
	<g>
		<path d="M193.35,17.64c-1.38-0.1-2.57,0.94-2.67,2.31c-0.27,3.75-2.3,4.97-6.4,5.36c-0.78,0.08-1.64,0.12-2.57,0.15
			c-3.73,0.11-26.95,0.79-30.69,0.9c-0.93,0.03-1.79,0.03-2.57,0c-4.11-0.15-6.21-1.24-6.7-4.98c-0.18-1.37-1.43-2.33-2.8-2.15
			c-1.37,0.18-2.33,1.43-2.15,2.8c1.26,9.7,10.12,9.44,14.37,9.32c3.73-0.11,26.95-0.79,30.69-0.9c4.26-0.13,13.11-0.39,13.8-10.15
			C195.76,18.93,194.73,17.74,193.35,17.64z"/>
	</g>
	<g>
		<path d="M543.33,162.89c6.56-5.81,7.18-15.84,1.37-22.4l-2.72-3.07c-5.81-6.56-15.84-7.18-22.4-1.37l-3.78,3.35l23.75,26.85
			L543.33,162.89z"/>
	</g>
	<g>
		<path class="st19" d="M534.14,167.58c0.62,0.7,1.2,1.33,1.76,1.88l3.64-3.22l-23.75-26.85l-3.64,3.22
			c0.48,0.62,1.03,1.28,1.65,1.97C516.27,147.39,531.67,164.79,534.14,167.58z"/>
	</g>
	<g>
		<path d="M547.6,171.51c-0.8-1.12-2.37-1.37-3.48-0.57c-3.05,2.2-5.29,1.41-8.21-1.48c-0.56-0.55-1.14-1.18-1.76-1.88
			c-2.47-2.79-17.87-20.19-20.34-22.99c-0.62-0.7-1.17-1.35-1.65-1.97c-2.51-3.25-3.02-5.57-0.47-8.33
			c0.94-1.01,0.88-2.59-0.14-3.53c-1.01-0.94-2.59-0.88-3.53,0.14c-6.64,7.19-0.77,13.82,2.05,17.01
			c2.47,2.79,17.87,20.2,20.34,22.99c2.82,3.19,8.69,9.82,16.63,4.1C548.15,174.19,548.4,172.63,547.6,171.51z"/>
	</g>
	<polygon points="140.96,98.5 208.93,102.12 208.84,103.76 140.9,100.01 	"/>
	<ellipse class="st23" cx="292.5" cy="344.59" rx="31.36" ry="23.41"/>
</g>
</svg>
