<svg id="Layer_1" data-name="Layer 1" xmlns="http://www.w3.org/2000/svg" viewBox="0 0 516.11 421.73"><defs><style>.cls-1{fill:#3593d8;}.cls-2{fill:#fff;}.cls-3{fill:#ff8500;}</style></defs><g id="bg"><rect class="cls-1" x="-75.63" y="-27.88" width="691.73" height="483.89"/></g><g id="Layer_1-2" data-name="Layer 1"><g id="white"><path class="cls-2" d="M181,35.49a5.34,5.34,0,0,0-5-5.63L118.72,26.7a5.33,5.33,0,0,0-5.62,5L109.33,100l-8.22-.45L88.93,320.41l84.72,4.67,12.18-220.84-8.56-.47Z"/><path class="cls-2" d="M445.62,200.14A3,3,0,0,0,442,197.9l-1.55.37-5.13-21.62,1-.24a3.15,3.15,0,0,0,1.24-.62l.47-.39a3,3,0,0,0,1-3l-2.19-9.22a3,3,0,0,0-3.62-2.23l-2.34.55-.39-1.66,2.34-.55a3,3,0,0,0,2.23-3.63l-7.84-33a5.34,5.34,0,0,0-6.43-4l-1.69.4-20.5,4.87-2.19.52-11.69,2.78-2.19.52-12.28,2.92-2.19.52L356.38,134l-2.19.52-11.69,2.77-2.19.52-12.24,2.91-2.19.52L314,144l-2.19.52-.66.16a5.36,5.36,0,0,0-3.23,2.25l-6.8,10.31L296.61,164a5.37,5.37,0,0,0-.73,4.18l7.28,30.66a3,3,0,0,0,3.62,2.23l2.63,11.08a3,3,0,0,0-2.23,3.62L332,320.18l.63,1.65,1,1.43,1.37,1.12,1.61.72,1.74.28,1.76-.18,122.33-29,2.07-1,1.56-1.67.63-1.39.24-1.51-.19-1.51Z"/><path class="cls-2" d="M119.46,26.37l30.69-.9c.93,0,1.79-.07,2.57-.15l-.14-4.86-35.83,1.05.14,4.86C117.67,26.4,118.53,26.39,119.46,26.37Z"/><path class="cls-2" d="M484.22,139.4l-3.64,3.22c.48.62,1,1.28,1.65,2,2.47,2.81,17.87,20.21,20.34,23,.62.7,1.2,1.33,1.76,1.88l3.64-3.22Z"/></g><g id="orange"><path class="cls-3" d="M139.7,171.94c-5.22-.29-6-1.15-6.52.14-.88,2.23,8,6.23,13.85,6.55,12.3.68,20.67-8,20.84-11.23C168.12,163,160,173.06,139.7,171.94Z"/><path class="cls-3" d="M425.26,145l-4.51-19a3,3,0,0,0-3.62-2.23l-2.24.53a3,3,0,0,0-2.23,3.62l4.51,19a3,3,0,0,0,3.62,2.23l2.24-.53A3,3,0,0,0,425.26,145Z"/><path class="cls-3" d="M316.43,164.31a3,3,0,0,0-3.62-2.23l-7.12,1.69a3,3,0,0,0-2.23,3.62l4.26,17.93a3,3,0,0,0,3.62,2.24l7.12-1.69a3,3,0,0,0,2.23-3.63Z"/><path class="cls-3" d="M410.5,128.44a3,3,0,0,0-3.62-2.23l-4.4,1a3,3,0,0,0-2.23,3.62l4.51,19,.7,2.93,2.93-.69,4.4-1a3,3,0,0,0,2.23-3.62Z"/><path class="cls-3" d="M342,144.71a3,3,0,0,0-3.62-2.23L331.94,144a3,3,0,0,0-2.23,3.62l4.51,19,.7,2.93,2.93-.7,6.39-1.52,2.93-.69-.7-2.93Z"/><path class="cls-3" d="M355.45,139.8a3,3,0,0,0-3.62-2.23L346,139a3,3,0,0,0-2.23,3.62l4.89,20.6.7,2.93,2.93-.69,5.83-1.38,2.93-.7-.7-2.93Z"/><path class="cls-3" d="M376.42,156.59l.7,2.93,2.93-.69,6.42-1.52,2.93-.7-.7-2.93-4.52-19a3,3,0,0,0-3.62-2.23L374.14,134a3,3,0,0,0-2.23,3.62Z"/><path class="cls-3" d="M390.88,153.16l.7,2.93,2.93-.7,5.84-1.39,2.93-.7-.7-2.93-4.52-19a3,3,0,0,0-3.62-2.23l-5.84,1.39a3,3,0,0,0-2.23,3.62Z"/><path class="cls-3" d="M374.93,160.05l-.7-2.93-4.9-20.61a3,3,0,0,0-3.62-2.23l-5.84,1.39a3,3,0,0,0-2.23,3.62l4.89,20.6.7,2.93,2.93-.69,5.84-1.39Z"/><path class="cls-3" d="M327.51,148.14a3,3,0,0,0-3.62-2.23l-6.07,1.44a3,3,0,0,0-2.24,3.63l4.51,19,.7,2.93,2.93-.7,6.07-1.44,2.93-.69-.7-2.93Z"/><path class="cls-3" d="M403.71,237.14c-2.5.59-4.49,4-10.88,5.53-10,2.37-15.16-3.42-19.71-2.34-2.75.65-4.67,4.78-3.57,9.45,1.85,7.81,14.78,17.87,25.07,15.43,9-2.13,16.69-14.14,14.64-22.75C408.29,238.35,405.87,236.63,403.71,237.14Z"/></g><g id="black"><path d="M512.55,171c-3,2.2-5.29,1.41-8.21-1.48l-.3-.31a7.91,7.91,0,0,0-4-4.45l-17.8-20.12c-.62-.7-1.17-1.35-1.65-2-2.51-3.25-3-5.57-.47-8.33a2.5,2.5,0,1,0-3.67-3.39c-6.64,7.19-.77,13.82,2.05,17l14.83,16.76a7.87,7.87,0,0,0-.92,13.8c-11.78,51.35-51.62,52.4-53.39,52.42a3,3,0,0,0-.69,5.9,2.52,2.52,0,0,0,.73.08c.48,0,46.41-1,59.25-57.37a7.91,7.91,0,0,0,5.34-4.13c3.06,2,7.07,3,11.83-.38a2.5,2.5,0,0,0-2.93-4Z"/><path d="M118.51,321.86,91.62,347.57a3,3,0,0,0-.59,3.54l24.15,46.8-9.63,11a3,3,0,0,0,.28,4.23,3,3,0,0,0,4.23-.28l11-12.54a3,3,0,0,0,.41-3.35L97.39,350.36l29.35-28.05Z"/><path d="M168,415.81l-11.21-2.49,10.36-48.84a3,3,0,0,0,0-1.39L156.83,324l-6.35-.28,10.69,40.24L150.34,415a3,3,0,0,0,2.28,3.55l14.11,3.14a2.88,2.88,0,0,0,.65.07,3,3,0,0,0,.65-5.92Z"/><path d="M97.83,99.38a5.34,5.34,0,0,0-5.62,5L86.48,208.27,70.41,222.6a29.1,29.1,0,0,1-42.44-4l-8.38-10.9a10.68,10.68,0,1,0-5,3.33l8.63,11.22a35.24,35.24,0,0,0,24.55,13.55c1.08.1,2.17.15,3.24.15a35.25,35.25,0,0,0,23.39-8.9L86,216.71l-5.4,97.88a5.35,5.35,0,0,0,5,5.63l3.27.18L101.1,99.56Z"/><path d="M115.66,127.43a4,4,0,0,0-4.2,3.77l-.26,4.8a4,4,0,0,0,8,.44l.26-4.8A4,4,0,0,0,115.66,127.43Z"/><path d="M168.3,130.34a4,4,0,0,0-4.21,3.77l-.26,4.8a4,4,0,0,0,8,.44l.26-4.8A4,4,0,0,0,168.3,130.34Z"/><path d="M121,69.15l.78,0,6.79.37,6.58.36a1.42,1.42,0,0,0,1.5-1.34l0-.47.44-8a1.43,1.43,0,0,0-1.35-1.5l-6.58-.36-6.79-.37-.78,0a1.42,1.42,0,0,0-1.5,1.34l-.47,8.48h0A1.44,1.44,0,0,0,121,69.15Z"/><path d="M155.9,59.71l-.33,0a1.41,1.41,0,0,0-1.5,1.34l-.47,8.48a1.42,1.42,0,0,0,1.34,1.5l.33,0,6.57.36,6.8.38.45,0h0a1.4,1.4,0,0,0,1-.36,1.39,1.39,0,0,0,.46-.93s0,0,0,0l.47-8.48a1.41,1.41,0,0,0-1.34-1.5l-.45,0-6.8-.38Z"/><path d="M103.89,126.13a1.24,1.24,0,0,0,.64.18,1.27,1.27,0,0,0,1.07-.6c.22-.34,5.24-8.52,12.3-5.9a1.25,1.25,0,0,0,.87-2.35c-7.21-2.67-13.17,3.38-15.31,7A1.25,1.25,0,0,0,103.89,126.13Z"/><path d="M165.43,120a1.25,1.25,0,0,0,.61,2.43c7.3-1.83,11.4,6.85,11.57,7.22a1.26,1.26,0,0,0,1.14.73,1.17,1.17,0,0,0,.52-.12,1.26,1.26,0,0,0,.61-1.66C178.14,124.83,172.88,118.16,165.43,120Z"/><path d="M431.52,303.22l5.21,61.31a3,3,0,0,0,2.62,2.73l16.62,2,.37,0a3,3,0,0,0,.37-6l-14.2-1.74-4.95-59.78Z"/><path d="M380.14,315.44l-3.67,28.77a3,3,0,0,0,1.84,3.16L411.72,361l-2.65,13.25a3,3,0,0,0,2.35,3.53,3,3,0,0,0,.59.06,3,3,0,0,0,3-2.41l3.14-15.68a3,3,0,0,0-1.81-3.37l-33.57-13.7,3.66-28.86Z"/><path d="M326.1,264.44a36.73,36.73,0,0,1-5.29-.6c-11.58-2.07-38.64-11.29-47.72-52.21a7.87,7.87,0,0,0-4.72-14.52A10.49,10.49,0,0,0,254.81,213l-4.57,5.94a29.1,29.1,0,0,1-42.44,4l-19-16.9,5.29-95.94a5.35,5.35,0,0,0-5-5.63l-3.27-.18L173.65,325.08l3.27.18a5.35,5.35,0,0,0,5.63-5l5.88-106.57,15.39,13.73a35.2,35.2,0,0,0,23.39,8.9q1.62,0,3.24-.15A35.19,35.19,0,0,0,255,222.58l5.08-6.61a10.41,10.41,0,0,0,7.6-1.16c13.13,54.33,57.85,55.61,58.33,55.61a2.92,2.92,0,0,0,.73-.08,3,3,0,0,0-.64-5.9Z"/><path d="M407.33,194.57a1.49,1.49,0,0,0-.6,2,1.5,1.5,0,0,0,2,.6c.37-.2,8.9-4.7,15.66,4.61a1.48,1.48,0,0,0,1.21.62,1.43,1.43,0,0,0,.88-.29,1.49,1.49,0,0,0,.33-2.09C420.22,190.91,411.18,192.47,407.33,194.57Z"/><path d="M420.73,167.65a3.32,3.32,0,0,0,2.49-4c-.61-2.66-4-8.1-5.19-7.82s-1.93,6.43-1.27,9.3A3.31,3.31,0,0,0,420.73,167.65Z"/><path d="M348.08,228.13a3.92,3.92,0,1,0-7.63,1.81l1.11,4.67a3.92,3.92,0,1,0,7.63-1.81Z"/><path d="M418.26,211.47a3.92,3.92,0,1,0-7.63,1.81l1.11,4.67a3.92,3.92,0,1,0,7.63-1.81Z"/><path d="M152.58,20.46l-.15-5.05A15.87,15.87,0,0,0,136.1,0L132,.13a15.87,15.87,0,0,0-15.4,16.33l.15,5.05Z"/><path d="M119.6,31.36l30.69-.9c4.26-.13,13.11-.39,13.8-10.15a2.5,2.5,0,0,0-5-.35c-.27,3.75-2.3,5-6.4,5.36-.78.08-1.64.12-2.57.15l-30.69.9c-.93,0-1.79,0-2.57,0-4.11-.15-6.21-1.24-6.7-5a2.5,2.5,0,1,0-5,.65C106.49,31.74,115.35,31.48,119.6,31.36Z"/><path d="M511.76,162.9a15.87,15.87,0,0,0,1.37-22.4l-2.72-3.07a15.87,15.87,0,0,0-22.4-1.37l-3.78,3.35L508,166.26Z"/><polygon points="109.33 100.02 177.27 103.77 177.36 102.13 109.39 98.51 109.33 100.02"/><path d="M344.22,214.39a1.51,1.51,0,0,0,1.7-1.28,1.49,1.49,0,0,0-1.28-1.69c-4.34-.61-13.35,1.11-16.34,12a1.49,1.49,0,0,0,1,1.84,1.41,1.41,0,0,0,.93,0,1.45,1.45,0,0,0,.91-1C334.24,213.12,343.81,214.33,344.22,214.39Z"/></g></g></svg>