<?xml version="1.0" encoding="utf-8"?>
<!-- Generator: Adobe Illustrator 25.2.3, SVG Export Plug-In . SVG Version: 6.00 Build 0)  -->
<svg version="1.1" id="Ebene_1" xmlns="http://www.w3.org/2000/svg" xmlns:xlink="http://www.w3.org/1999/xlink" x="0px" y="0px"
	 viewBox="0 0 1035.6 584" style="enable-background:new 0 0 1035.6 584;" xml:space="preserve">
<style type="text/css">
	.st0{fill:#E95B0C;}
	.st1{fill:#029DD9;}
	.st2{fill:#FFFFFF;}
	.st3{fill:#EA5A0C;}
	.st4{fill:#EA5B0C;}
</style>
<g>
	<g>
		<path class="st0" d="M947.6,430.7l-0.8,1.9l-0.2,0.3c-0.1,0.2-0.2,0.5-0.3,0.8c-0.2,0.3-0.3,0.5-0.4,0.7l-0.3,0.6
			c0.1,0.1-0.4,0.7-1.4,1.7c-1,1-1.7,1.7-2.1,1.9c-2.2,1.5-4.7,2.7-7.3,3.4c-0.9,0.3-2.5,0.5-4.8,0.5c-2.3,0.1-4.1,0-5.4-0.1
			c-1.3-0.1-2-0.1-2-0.1c-0.3,0.1-0.3,2.3-0.1,6.6c0.2,4.3,0.4,6.7,0.7,7.2c0.1,0.2,0.2,0.8,0.3,1.7c0.1,0.9,0.1,1.5,0,1.9
			c-0.1,0.6-0.3,1-0.5,1.2c-0.3,0.3-0.8,0.5-1.6,0.8c-1.1,0.3-1.8,0.4-2.2,0.3c-0.4-0.2-0.8-0.5-1.2-0.8c-0.3-0.3-0.6-1-0.9-2.1
			c-0.6-2.7-0.9-7.3-0.9-13.8c0-3,0.1-5.8,0.2-8.4c0.1-2.6,0.2-4.6,0.3-6.1c0-0.6,0-1.4,0-2.3s0.1-1.7,0.1-2.3c0-0.6,0-1,0-1.3
			l0.1-1.5l-0.8-0.3c-1.3-0.6-1.8-1.6-1.3-3.2c0.4-1.4,1-2.3,1.6-2.7c0.3-0.2,0.6-0.4,0.9-0.8c0.3-0.3,0.9-0.7,1.6-1.1
			c0.7-0.4,1.6-0.8,2.5-1.2c1-0.4,1.6-0.7,1.9-0.9c1.2-0.6,3.1-1,5.5-1.4c1.5-0.2,3.3-0.1,5.5,0.5c2,0.6,3.1,0.9,3.1,0.9
			c0.8,0.3,1.3,0.5,1.4,0.6c0.6,0.3,1.5,0.9,2.8,1.8c1.2,0.9,2,1.5,2.2,1.8c0.1,0.2,0.2,0.3,0.3,0.3c0.1,0,0.3,0.1,0.4,0.4
			c0.1,0.1,0.4,0.5,0.9,1.1c0.6,0.6,0.9,1.1,1,1.4c0.2,0.4,0.4,0.7,0.4,0.8c0.3,0.2,0.6,1.1,0.9,2.9c0.1,0.6,0.2,0.9,0.3,0.9
			c0.1,0.1,0.1,0.9,0.1,2.3c0,1.4-0.1,2.2-0.2,2.4C947.7,430.2,947.6,430.5,947.6,430.7z M932.7,418.7c-3.2-0.7-6.4-0.4-9.6,0.9
			c-0.3,0.2-0.4,0.4-0.4,0.8c0,0.4,0.1,0.6,0.2,0.8c0.2,0.3,0.2,2.6,0,6.8c-0.2,3.9-0.2,6.5-0.1,7.8l1,0.2c0.6,0.1,1.9,0.2,3.8,0.2
			c1.9,0,3.4,0,4.4-0.1c1.3-0.2,2.8-0.7,4.5-1.5c1.7-0.8,2.8-1.6,3.3-2.5c0.6-0.8,1.1-1.7,1.5-2.7c0.4-1,0.4-1.5,0.2-1.8
			c-0.1-0.1-0.2-0.4-0.2-0.9c0-1-0.4-2.1-1.2-3.4c-0.7-1-1.7-2-3.2-2.9S934.1,419,932.7,418.7z"/>
		<path class="st0" d="M965,429.6c0.2,0,0.6-0.1,1.2-0.4c0.6-0.3,1-0.4,1.2-0.4c0.3-0.1,0.8-0.1,1.5-0.1c0.4,0.1,1.1,0.2,1.8,0.5
			c0.8,0.3,1.2,0.5,1.2,0.6c0,0.1,0.4,0.4,1.2,1.1c0.1,0.1,0.2,0.3,0.3,0.5c0.1,0.2,0.2,0.3,0.3,0.4c0.1,0.1,0.4,0.5,0.8,1.3
			c0.4,0.8,0.6,1.4,0.8,1.7c0.2,0.9,0.3,1.3,0.4,1.3c0.1,0,0.2-0.1,0.2-0.2c0-0.1,0.2-0.3,0.5-0.4c0.3-0.2,1-0.2,1.9-0.1
			c1,0.1,1.6,0.3,1.9,0.5c0.3,0.2,0.4,0.7,0.5,1.4c0.1,0.5,0.2,0.8,0.3,0.8c0.2,0.3,0.2,1.2,0,2.8c-0.2,1.6-0.6,3-1,4.4
			c-0.6,1.7-0.7,3.6-0.3,5.9c0.3,1.6,0.6,2.7,0.8,3.1c0.4,1.2,1.2,2.2,2.5,3c0.4,0.3,0.7,0.6,0.7,1c0,0.4-0.2,1-0.6,2
			c-0.7,1.4-1.4,2.2-2.1,2.3c-0.5,0.1-1.2-0.1-2.1-0.6c-0.9-0.5-1.7-1.2-2.4-2.1c-0.5-0.6-0.8-1-0.8-1c0-0.1-0.2-0.6-0.6-1.3
			l-0.6-1.2l-0.8,0.7c-0.2,0.2-1.1,0.9-2.7,2.2c-1.7,1.2-2.8,1.8-3.3,1.9c-2.4,0.6-4.2,0.9-5.4,0.8c-1.2-0.1-2.7-0.6-4.6-1.6
			c-1.1-0.6-2-1.8-2.8-3.5c-0.4-0.9-0.7-1.4-0.7-1.6l-0.3-0.8c-0.7-1.7-0.9-2.9-0.6-3.6V449c-0.1-1.5,0.4-3.8,1.6-7
			c0.8-2.1,2.1-4.5,4-7c0.4-0.6,1.1-1.3,2.1-2.4c1-1,1.8-1.7,2.2-1.9l0.8-0.6C964.4,429.8,964.8,429.6,965,429.6z M970.1,436.6
			c-0.1-0.1-0.3-0.4-0.6-1.1c-0.3-0.6-0.6-1-0.9-1c-0.1,0-0.7,0.4-1.7,1.1c-1,0.7-1.7,1.2-1.9,1.4c-1.9,2.1-3.4,4.3-4.4,6.7
			c-0.8,2-1.2,3.8-1.2,5.3c0,2.4,0.3,4,0.8,4.9c1,1.7,2.3,2.4,3.9,1.9c1.6-0.5,3-1.3,4.3-2.4c1.3-1.1,2.2-2.2,2.9-3.2
			c1.2-2,1.8-3.7,1.8-5c0-0.4,0.1-1.7,0.4-3.6c0.1-0.8,0.2-1.2,0.3-1.3c0.1-0.3,0-0.4-0.2-0.4c-0.6,0.1-1.2-0.2-1.8-0.8
			c-0.6-0.6-0.9-1.1-1.1-1.5C970.5,437,970.3,436.7,970.1,436.6z"/>
		<path class="st0" d="M995.1,421.9c1.6-0.2,2.8-0.2,3.5,0.1c0.9,0.3,1.9,0.8,3,1.6c0.5,0.3,0.8,0.5,0.8,0.7c0,0.8-0.1,1.4-0.2,1.6
			c-0.1,0.2-0.2,0.5-0.3,1c-0.1,0.5-0.4,0.9-0.6,1.1c-0.1,0.1-0.2,0.2-0.3,0.4c-0.1,0.1-0.2,0.2-0.3,0.3c-0.1,0.1-0.2,0.1-0.4,0.2
			c-0.8,0.2-1.6,0.1-2.3-0.3c-0.9-0.5-1.8-0.6-2.6-0.2c-0.2,0.1-0.5,0.2-0.9,0.2c-0.4,0-0.7,0.1-0.9,0.2c-0.1,0-0.1,0-0.3,0.1
			c-0.1,0.1-0.2,0.1-0.3,0.1c-0.1,0-0.2,0-0.2,0c-0.2,0-0.6,0.1-1.2,0.3c-0.6,0.2-1.1,0.3-1.4,0.2c-0.5-0.2-0.9-0.6-1.3-1.3
			c-0.9-1.9-0.8-3.1,0.4-3.7c0.1-0.1,0.3-0.2,0.7-0.4l0.4-0.3c0.3-0.3,1.1-0.6,2.1-1.1C993.8,422.3,994.6,422.1,995.1,421.9z
			 M992.4,436.6l0.4-0.6h1.6c1,0,1.7,0.1,2.1,0.3c0.3,0.2,0.5,0.4,0.5,0.7c0,0.2,0.1,0.4,0.2,0.6c0.2,0.4,0.4,1.4,0.5,2.9
			s0,2.8-0.1,3.8c-0.1,1.6-0.2,2.6-0.2,3.1c0,0.5,0,1.5,0.2,3c0.2,1.5,0.3,2.5,0.3,2.9c0.1,1.4,0.3,2.4,0.7,2.9l0.4,0.9
			c-0.3,0.8-0.6,1.3-0.9,1.4c-0.3,0.2-0.6,0.4-0.9,0.7c-0.4,0.3-1,0.5-1.7,0.5c-1,0-1.6-0.2-2.1-0.5c-0.4-0.3-0.8-1-1.1-2
			c-0.3-1.1-0.6-2.3-0.7-3.7c-0.1-0.9-0.1-1.7-0.2-2.4c-0.1-0.7-0.1-1.4-0.2-2c0-0.6,0-1.7,0-3.1
			C991.1,440.9,991.6,437.8,992.4,436.6z"/>
		<path class="st0" d="M1020.6,427c0.3-0.2,1-0.2,2.1,0c1.1,0.1,1.8,0.3,2,0.5c0.1,0.1,0.5,0.3,1.2,0.5l0.9,0.9
			c1.2,1.2,2.2,2.7,2.9,4.5c0.1,0.3,0.2,0.5,0.4,0.8c0.1,0.1,0.4,0.9,0.9,2.4c0.5,1.5,0.7,2.3,0.7,2.6c0,0.3,0.3,1.6,0.8,3.9
			c0.4,1.4,0.7,3.2,0.8,5.5c0,1,0.1,1.7,0.2,2c0.2,1.1,0.3,2.7,0.3,5c0,2.3-0.1,3.9-0.3,4.8c-0.2,1.7-0.6,2.9-1.2,3.6l-0.3,0.7
			c0,0.1-0.5,0.2-1.6,0.3c-0.2,0.1-0.7-0.1-1.3-0.5c-0.6-0.4-1-0.7-1.1-0.7c-1-0.4-1.3-1.3-1-2.9c0.3-1.5,0.4-3.7,0.4-6.5
			c0-2.8-0.1-5.2-0.4-7.1c-0.3-1.7-0.8-4.2-1.7-7.5c-0.3-1.2-0.8-2.6-1.4-4.1c-0.7-1.5-1.2-2.3-1.5-2.5c-0.1-0.1-0.6,0-1.4,0.4
			c-0.7,0.3-1.7,1.1-2.8,2.2c-1.5,1.5-2.5,2.9-3.1,4.3c-0.5,1.2-0.8,2.1-0.9,2.9c-0.1,0.8-0.1,2.2-0.1,4.2c0.1,2.6,0.2,4,0.3,4.1
			c0.3,0.9,0.5,2.5,0.7,4.8c0.2,2.3,0.1,3.7-0.1,4.2l-0.2,0.5c-0.1,0.3-0.2,0.6-0.3,0.8c-0.3,0.6-0.6,0.9-1.1,1.1
			c-0.4,0.2-1.2,0.3-2.4,0.3c-0.9,0-1.7-0.6-2.3-1.9c-0.3-0.6-0.6-1.9-0.8-3.9c-0.2-1.3-0.2-7.4-0.2-18.2c0-4.1,0.1-6.4,0.4-6.7
			c0.1-0.2,0.6-0.3,1.3-0.5c0.8-0.2,1.3-0.2,1.7,0c0.3,0.2,0.5,0.4,0.5,0.5c0,0.5,0.4,0.4,1.3-0.4c1.9-1.9,3.4-3.1,4.4-3.6
			c1.4-0.8,2.1-1.2,2.2-1.2C1020.1,427.2,1020.4,427,1020.6,427z"/>
	</g>
	<g>
		<path class="st1" d="M929.3,0.1c2.3-0.2,4.3,0,6.1,0.4c1.9,0.5,3.3,0.9,4.2,1.3l3.7,1.3c0.7,0.3,1.3,0.5,1.9,0.8
			c0.5,0.3,1,0.5,1.3,0.6c1,0.3,1.5,0.8,1.6,1.5c0.1,0.6-0.1,1.5-0.6,2.5c-0.5,1.1-0.8,1.6-1,1.7c-0.7,0.3-1.2,0.3-1.7,0.1
			c-0.4-0.2-1.3-0.5-2.4-0.8c-3.1-1-4.8-1.5-5-1.7c-0.8-0.3-2.2-0.7-4.2-1.2c-0.8-0.2-1.7-0.2-2.7,0c-1,0.1-1.8,0.4-2.3,0.6
			c-0.4,0.2-1,0.7-1.7,1.3c-0.7,0.7-1.1,1.1-1.1,1.2c0,0.2-0.2,0.5-0.6,1.1c-1,1.5-1.5,2.3-1.5,2.6c0,0.1,0,0.2-0.1,0.3
			c-0.3,0.4-0.6,1.2-1.1,2.5c-0.4,1.3-0.7,2.1-0.7,2.6c0,0.3-0.1,1-0.3,2.1c-0.2,1-0.2,2.4-0.1,4c0.1,1.1,0.2,2.4,0.5,3.9
			c0.3,1.5,0.4,2.5,0.5,2.9c0.1,0.7,0.4,1.7,1.1,2.9c0.6,1.2,1.5,2.3,2.5,3.3c1.9,1.7,4,2.7,6.4,2.9c1,0.1,1.8,0.1,2.4-0.2
			c1.5-0.5,3.1-1.7,4.8-3.6c1.6-1.7,2.7-3.6,3.4-5.6c0.6-1.6,0.9-3.1,0.9-4.4c0-0.3-0.8-0.5-2.5-0.6c-0.4,0-1.3,0-2.7,0.1
			c-1.4,0.1-2.6,0.2-3.5,0.2c-1,0.1-1.6,0-2-0.1c-0.4-0.3-0.7-0.5-0.8-0.7c-0.1-0.2-0.3-0.4-0.4-0.8c-0.1-0.4-0.2-0.9-0.3-1.6
			c-0.1-0.9,0-1.5,0.3-1.9c0.2-0.3,0.4-0.5,0.7-0.5c0.2,0,0.3-0.1,0.3-0.2c0-0.2,1-0.4,3-0.6s3.7-0.4,5-0.4c2.3,0,3.7,0.2,4.1,0.5
			c0.2,0.1,0.5,0.3,1,0.4c0.5,0.2,0.8,0.3,1,0.4c0.1,0.1,0.3,0.2,0.7,0.3c0.3,0.2,0.6,0.3,0.8,0.4s0.4,0.3,0.5,0.5
			c0.2,0.2,0.3,0.5,0.3,0.8l0.3,0.3c0.3,0.2,0.6,1.2,0.7,2.9c0.1,0.8-0.1,2.2-0.4,4.4c-0.1,0.6-0.3,1.4-0.7,2.4
			c-0.4,1.1-0.6,1.7-0.8,1.8c-0.1,0.1-0.3,0.5-0.6,1.1c-0.2,0.6-0.6,1.2-1.2,1.9c-0.4,0.5-0.6,0.8-0.6,0.9c0,0.3-1,1.5-2.9,3.4
			c-1.9,1.9-3,2.8-3.3,2.8c-0.2-0.1-0.5,0.1-1.1,0.5c-0.6,0.4-0.9,0.6-1.1,0.6c-0.4,0.2-0.6,0.3-0.8,0.3c-0.2,0.2-0.8,0.3-1.8,0.4
			c-2.3,0.3-4.6,0.1-6.8-0.7c-0.7-0.2-1.2-0.4-1.6-0.6c-0.4-0.2-0.8-0.3-1.2-0.5c-0.3-0.1-0.7-0.3-1.2-0.6c-0.5-0.3-0.8-0.5-1-0.6
			c-0.4-0.3-1.2-1-2.4-2.1c-1.1-1.1-1.8-1.9-2.1-2.4c-0.1-0.2-0.2-0.3-0.3-0.3l-0.3-0.5c-0.2-0.4-0.4-0.8-0.6-1.2l-0.3-0.6
			c-0.6-0.6-1.1-2.1-1.5-4.6c-0.1-0.4-0.2-0.9-0.3-1.3c-0.1-0.4-0.2-0.7-0.3-1c-0.1-0.2-0.1-0.6-0.2-1c-0.1-0.4-0.1-1-0.2-1.8
			c-0.2-1.7-0.2-3.2-0.1-4.5c0-0.1,0.1-0.8,0.2-2.1c0.1-1.3,0.3-2.3,0.4-3.2c0.1-0.8,0.3-1.3,0.4-1.3c0.1,0,0.1-0.1,0.1-0.3
			c0-0.2,0.1-0.6,0.4-1.3c0.3-0.7,0.4-1.1,0.4-1.2c0.1-0.8,0.9-2.4,2.3-4.8c1.4-2.4,2.5-4,3.2-4.7c0.7-0.6,1.7-1.4,3.1-2.2
			c1.4-0.9,2.3-1.3,2.6-1.3c0.2,0,0.4-0.1,0.5-0.2C928.2,0.2,928.6,0.1,929.3,0.1z"/>
		<path class="st1" d="M966.9,15.5c0.2,0,0.6-0.1,1.2-0.4c0.6-0.3,1-0.4,1.2-0.4c0.3-0.1,0.8-0.1,1.5-0.1c0.4,0.1,1.1,0.2,1.8,0.5
			c0.8,0.3,1.2,0.5,1.2,0.6c0,0.1,0.4,0.4,1.2,1.1c0.1,0.1,0.2,0.3,0.3,0.5c0.1,0.2,0.2,0.3,0.3,0.4c0.1,0.1,0.4,0.5,0.8,1.3
			c0.4,0.8,0.6,1.4,0.8,1.7c0.2,0.9,0.3,1.3,0.4,1.3s0.2-0.1,0.2-0.2c0-0.1,0.2-0.3,0.5-0.4c0.3-0.2,1-0.2,1.9-0.1
			c1,0.1,1.6,0.3,1.9,0.5c0.3,0.2,0.4,0.7,0.5,1.4c0.1,0.5,0.2,0.8,0.3,0.8c0.2,0.3,0.2,1.2,0,2.8c-0.2,1.6-0.6,3-1,4.4
			c-0.6,1.7-0.7,3.6-0.3,5.9c0.3,1.6,0.6,2.7,0.8,3.1c0.4,1.2,1.2,2.2,2.5,3c0.4,0.3,0.7,0.6,0.7,1c0,0.4-0.2,1-0.6,2
			c-0.7,1.4-1.4,2.2-2.1,2.3c-0.5,0.1-1.2-0.1-2.1-0.6c-0.9-0.5-1.7-1.2-2.4-2.1c-0.5-0.6-0.8-1-0.8-1c0-0.1-0.2-0.6-0.6-1.3
			l-0.6-1.2l-0.8,0.7c-0.2,0.2-1.1,0.9-2.7,2.2c-1.7,1.2-2.8,1.8-3.3,1.9c-2.4,0.6-4.2,0.9-5.4,0.8s-2.7-0.6-4.6-1.6
			c-1.1-0.6-2-1.8-2.8-3.5c-0.4-0.9-0.7-1.4-0.7-1.6l-0.3-0.8c-0.7-1.7-0.9-2.9-0.6-3.6V35c-0.1-1.5,0.4-3.8,1.6-7
			c0.8-2.1,2.1-4.5,4-7c0.4-0.6,1.1-1.3,2.1-2.4c1-1,1.8-1.7,2.2-1.9l0.8-0.6C966.4,15.7,966.7,15.5,966.9,15.5z M972,22.5
			c-0.1-0.1-0.3-0.4-0.6-1.1s-0.6-1-0.9-1c-0.1,0-0.7,0.4-1.7,1.1c-1,0.7-1.7,1.2-1.9,1.4c-1.9,2.1-3.4,4.3-4.4,6.7
			c-0.8,2-1.2,3.8-1.2,5.3c0,2.4,0.3,4,0.8,4.9c1,1.7,2.3,2.4,3.9,1.9c1.6-0.5,3-1.3,4.3-2.4c1.3-1.1,2.2-2.2,2.9-3.2
			c1.2-2,1.8-3.7,1.8-5c0-0.4,0.1-1.7,0.4-3.6c0.1-0.8,0.2-1.2,0.3-1.3c0.1-0.3,0-0.4-0.2-0.4c-0.6,0.1-1.2-0.2-1.8-0.8
			c-0.6-0.6-0.9-1.1-1.1-1.5C972.4,22.9,972.2,22.6,972,22.5z"/>
		<path class="st1" d="M997,7.9c1.6-0.2,2.8-0.2,3.5,0.1c0.9,0.3,1.9,0.8,3,1.6c0.5,0.3,0.8,0.5,0.8,0.7c0,0.8-0.1,1.4-0.2,1.6
			c-0.1,0.2-0.2,0.5-0.3,1c-0.1,0.5-0.4,0.9-0.6,1.1c-0.1,0.1-0.2,0.2-0.3,0.4c-0.1,0.1-0.2,0.2-0.3,0.3c-0.1,0.1-0.2,0.1-0.4,0.2
			c-0.8,0.2-1.6,0.1-2.3-0.3c-0.9-0.5-1.8-0.6-2.6-0.2c-0.2,0.1-0.5,0.2-0.9,0.2c-0.4,0-0.7,0.1-0.9,0.2c-0.1,0-0.1,0-0.3,0.1
			c-0.1,0.1-0.2,0.1-0.3,0.1c-0.1,0-0.2,0-0.2,0c-0.2,0-0.6,0.1-1.2,0.3c-0.6,0.2-1.1,0.3-1.4,0.2c-0.5-0.2-0.9-0.6-1.3-1.3
			c-0.9-1.9-0.8-3.1,0.4-3.7c0.1-0.1,0.3-0.2,0.7-0.4l0.4-0.3c0.3-0.3,1.1-0.6,2.1-1.1C995.7,8.3,996.5,8,997,7.9z M994.3,22.5
			l0.4-0.6h1.6c1,0,1.7,0.1,2.1,0.3c0.3,0.2,0.5,0.4,0.5,0.7c0,0.2,0.1,0.4,0.2,0.6c0.2,0.4,0.4,1.4,0.5,2.9c0.1,1.5,0,2.8-0.1,3.8
			c-0.1,1.6-0.2,2.6-0.2,3.1c0,0.5,0,1.5,0.2,3c0.2,1.5,0.3,2.5,0.3,2.9c0.1,1.4,0.3,2.4,0.7,2.9l0.4,0.9c-0.3,0.8-0.6,1.3-0.9,1.4
			c-0.3,0.2-0.6,0.4-0.9,0.7c-0.4,0.3-1,0.5-1.7,0.5c-1,0-1.6-0.2-2.1-0.5c-0.4-0.3-0.8-1-1.1-2c-0.3-1.1-0.6-2.3-0.7-3.7
			c-0.1-0.9-0.1-1.7-0.2-2.4c-0.1-0.7-0.1-1.4-0.2-2c0-0.6,0-1.7,0-3.1C993.1,26.9,993.5,23.7,994.3,22.5z"/>
		<path class="st1" d="M1022.5,12.9c0.3-0.2,1-0.2,2.1,0c1.1,0.1,1.8,0.3,2,0.5c0.1,0.1,0.5,0.3,1.2,0.5l0.9,0.9
			c1.2,1.2,2.2,2.7,2.9,4.5c0.1,0.3,0.2,0.5,0.4,0.8c0.1,0.1,0.4,0.9,0.9,2.4c0.5,1.5,0.7,2.3,0.7,2.6c0,0.3,0.3,1.6,0.8,3.9
			c0.4,1.4,0.7,3.2,0.8,5.5c0,1,0.1,1.7,0.2,2c0.2,1.1,0.3,2.7,0.3,5c0,2.3-0.1,3.9-0.3,4.8c-0.2,1.7-0.6,2.9-1.2,3.6l-0.3,0.7
			c0,0.1-0.5,0.2-1.6,0.3c-0.2,0.1-0.7-0.1-1.3-0.5c-0.6-0.4-1-0.7-1.1-0.7c-1-0.4-1.3-1.3-1-2.9c0.3-1.5,0.4-3.7,0.4-6.5
			c0-2.8-0.1-5.2-0.4-7.1c-0.3-1.7-0.8-4.2-1.7-7.5c-0.3-1.2-0.8-2.6-1.4-4.1c-0.7-1.5-1.2-2.3-1.5-2.5c-0.1-0.1-0.6,0-1.4,0.4
			c-0.7,0.3-1.7,1.1-2.8,2.2c-1.5,1.5-2.5,2.9-3.1,4.3c-0.5,1.2-0.8,2.1-0.9,2.9c-0.1,0.8-0.1,2.2-0.1,4.2c0.1,2.6,0.2,4,0.3,4.1
			c0.3,0.9,0.5,2.5,0.7,4.8c0.2,2.3,0.1,3.7-0.1,4.2l-0.2,0.5c-0.1,0.3-0.2,0.6-0.3,0.8c-0.3,0.6-0.6,0.9-1.1,1.1
			c-0.4,0.2-1.2,0.3-2.4,0.3c-0.9,0-1.7-0.6-2.3-1.9c-0.3-0.6-0.6-1.9-0.8-3.9c-0.2-1.3-0.2-7.4-0.2-18.2c0-4.1,0.1-6.4,0.4-6.7
			c0.1-0.2,0.6-0.3,1.3-0.5s1.3-0.2,1.7,0c0.3,0.2,0.5,0.4,0.5,0.5c0,0.5,0.4,0.4,1.3-0.4c1.9-1.9,3.4-3.1,4.4-3.6
			c1.4-0.8,2.1-1.2,2.2-1.2C1022,13.1,1022.4,13,1022.5,12.9z"/>
	</g>
	<g>
		<path class="st2" d="M51.5,496c-0.1,0-0.1,0-0.2,0l-11.9-1l-11.9,0.3l-12.1,0c0,0-0.1,0-0.1,0l-11.7-0.6c-1.3-0.1-2.3-1.1-2.4-2.4
			l-0.3-11.7l-0.1-12.1l-0.7-12c0,0,0-0.1,0-0.1L0,444.3c0-0.1,0-0.2,0-0.3l1.2-11.9l-0.4-11.9l-0.5-24.2l0.1-12.2l-0.1-12.1
			c0,0,0-0.1,0-0.1L1,359.5l0.2-11.9l-1-12c0-0.1,0-0.1,0-0.2l-0.1-12.1c0-0.1,0-0.1,0-0.2l1-12.1l0.5-11.9l-0.2-12l-0.1-12l-1.1-12
			c0-0.1,0-0.1,0-0.2L0,250.8c0,0,0-0.1,0-0.1l0.4-12l-0.3-12c0-0.1,0-0.2,0-0.3l1.1-11.9l-0.5-11.9c0,0,0-0.1,0-0.1l0.1-12l-0.5-12
			c0-0.1,0-0.2,0-0.4l1.2-12l0-11.9l-1-12c0-0.1,0-0.1,0-0.2l0-12.1l-0.4-12c0-0.1,0-0.2,0-0.4l1.4-11.9L0.7,93.8c0-0.1,0-0.1,0-0.2
			l0.1-12.1l-0.1-12l0.6-24.2l-0.5-12c-0.1-1.4,1-2.5,2.4-2.6c1.4,0,2.5,1,2.6,2.4l0.5,12.1c0,0.1,0,0.1,0,0.2L5.8,69.5l0.1,12
			l-0.1,12l0.7,12c0,0.1,0,0.3,0,0.4L5,117.9l0.4,11.9l0,12.1l1,12c0,0.1,0,0.1,0,0.2l0,12.1c0,0.1,0,0.2,0,0.2l-1.2,11.9l0.5,11.9
			c0,0,0,0.1,0,0.1l-0.1,12l0.5,12c0,0.1,0,0.2,0,0.3l-1.1,11.9l0.3,11.9c0,0,0,0.1,0,0.1l-0.4,12l0.1,11.9l1.1,12
			c0,0.1,0,0.1,0,0.2L6.4,287l0.2,12.1c0,0.1,0,0.1,0,0.2l-0.5,12.1l-1,12.1l0.1,11.9l1,12c0,0.1,0,0.2,0,0.3L6,359.7l-0.6,12.1
			l0.1,12l-0.1,12.1L5.8,420l0.4,12.1c0,0.1,0,0.2,0,0.3l-1.2,12l0.1,11.9l0.7,12c0,0,0,0.1,0,0.1l0.1,12.1l0.2,9.4l9.3,0.4l12,0
			l12-0.3c0.1,0,0.2,0,0.3,0l11.8,1l11.8-1.2c0.1,0,0.1,0,0.2,0l12.1-0.3l12.1-0.1c0.1,0,0.1,0,0.2,0l11.9,0.9l11.9-0.7
			c0.1,0,0.3,0,0.4,0l11.8,1.2l11.8-0.8c0.1,0,0.1,0,0.2,0l12-0.1l12-0.5c0.1,0,0.3,0,0.4,0l11.8,1.3l11.8-0.9c0.1,0,0.2,0,0.3,0
			l11.9,0.4l11.9-0.7c0.1,0,0.1,0,0.2,0l12.1,0.4l12,0.8l11.9-0.7c0.1,0,0.2,0,0.3,0l11.9,0.9l11.8-0.3l12-1c0.1,0,0.1,0,0.2,0
			l24.1-0.1l24.1,0.3l12.1,0.6l12,0l12,0l12-0.5l12.1-0.1c0.1,0,0.2,0,0.2,0l11.8,1.1l11.8-1c0.1,0,0.2,0,0.2,0l12.1,0.2l12,0.4
			l11.9-0.8c0.1,0,0.2,0,0.3,0l12.1,0.8l11.9,0.4l12-0.4l12-0.5l12.1-0.3l12.1-0.1c0.1,0,0.2,0,0.3,0l11.8,1.3l11.8-0.8
			c0.1,0,0.1,0,0.2,0l12.1-0.1c0.1,0,0.1,0,0.2,0l11.9,0.9l11.8-0.4l12-1.1c0.2,0,0.3,0,0.5,0l11.8,1.3l11.8-0.7c0.1,0,0.1,0,0.2,0
			l12,0.3l12-0.2l12-0.4c0.1,0,0.2,0,0.2,0l11.9,0.8l11.9-0.4l12-0.7c0.1,0,0.2,0,0.2,0l12.1,0.5l11.9,0.8l11.9-1.1
			c0.1,0,0.1,0,0.2,0l12.1-0.2c0.1,0,0.1,0,0.2,0l12,0.8l12-0.1l12,0.2l12-0.6c0.1,0,0.2,0,0.2,0l12,0.6l12-0.2c0.1,0,0.1,0,0.2,0
			l11.9,0.6l12-0.5c0,0,0.1,0,0.1,0l12.1,0.1c1.4,0,2.5,1.1,2.5,2.5c0,1.4-1.1,2.5-2.5,2.5c0,0,0,0,0,0l-12-0.1l-12,0.5
			c-0.1,0-0.2,0-0.2,0l-12-0.6l-12,0.2c-0.1,0-0.1,0-0.2,0l-11.9-0.6l-11.9,0.6c-0.1,0-0.1,0-0.2,0l-12.1-0.3l-12,0.1
			c-0.1,0-0.1,0-0.2,0l-12-0.8l-11.9,0.2l-12,1.1c-0.1,0-0.3,0-0.4,0l-12.1-0.8l-11.9-0.5l-11.9,0.7l-12.1,0.4c-0.1,0-0.2,0-0.2,0
			l-11.9-0.8l-11.9,0.4l-12.1,0.2c0,0-0.1,0-0.1,0l-11.9-0.3l-11.9,0.7c-0.1,0-0.3,0-0.4,0l-11.8-1.3l-11.8,1.1c-0.1,0-0.1,0-0.2,0
			l-12.1,0.4c-0.1,0-0.2,0-0.3,0l-11.9-0.9l-11.9,0.1l-12,0.8c-0.2,0-0.3,0-0.5,0l-11.9-1.3l-11.9,0.1l-12,0.3l-12,0.5l-12.1,0.4
			c-0.1,0-0.1,0-0.2,0l-12.1-0.5l-12-0.8l-11.9,0.8c-0.1,0-0.2,0-0.3,0l-12.1-0.4l-11.9-0.2l-11.9,1c-0.1,0-0.3,0-0.4,0l-11.9-1.1
			l-11.9,0.1l-12,0.5l-12.2,0.1l-12.1,0c0,0-0.1,0-0.1,0l-12.1-0.6l-24-0.3l-24,0.1l-12,1c-0.1,0-0.1,0-0.2,0l-12.1,0.3
			c-0.1,0-0.2,0-0.3,0l-11.9-0.9l-11.9,0.7c-0.1,0-0.2,0-0.3,0l-12.1-0.8l-11.9-0.4l-11.9,0.7c-0.1,0-0.1,0-0.2,0l-11.9-0.4
			l-11.9,0.9c-0.2,0-0.3,0-0.5,0l-11.9-1.3l-11.9,0.5L136,495l-12,0.8c-0.1,0-0.3,0-0.4,0l-11.9-1.2l-11.9,0.7c-0.1,0-0.2,0-0.3,0
			l-11.9-0.9l-11.9,0.1l-11.9,0.3l-12,1.2C51.7,496,51.6,496,51.5,496z"/>
	</g>
	<g>
		<path class="st2" d="M19.6,538.6c2.5-0.2,4.1-0.3,4.8-0.3l2-0.1c0.1,0.1,0.2,0.3,0.4,0.5c0.2,0.2,0.4,0.4,0.5,0.5l0.1,1.3
			c0,1.1-0.1,1.8-0.4,2.1c-0.2,0.2-0.6,0.3-1.3,0.3c-0.6,0-1.1,0-1.4,0.1c-0.2,0-1.1,0.1-2.7,0.3c-2.4,0.2-4.7,0.5-7,0.9
			c-0.3,0-0.4,0.1-0.4,0.1c0,0,0,0.2,0,0.4c0.1,0.9,0.1,1.4,0.1,1.6c-0.1,0.2-0.1,2.1-0.2,5.5c0,3.5,0,6.3,0.1,8.5
			c0.1,3.8,0.2,6.5,0.2,8.2c0,3.2,0,4.8-0.2,5c-0.1,0.1-0.2,0.3-0.2,0.4c0,0.3-0.3,0.5-0.8,0.7c-0.1,0-0.5,0-1.1-0.1l-1.1-0.1
			c-0.4,0.1-0.9-0.1-1.3-0.6c-0.4-0.4-0.5-0.9-0.5-1.6c0.1-2.4,0.1-6,0-10.9c-0.1-4.9-0.2-8.2-0.2-10v-6.2c-0.3,0-0.9,0.2-1.9,0.4
			c-1,0.2-1.8,0.4-2.4,0.5c-1.5,0.2-2.7-0.1-3.7-0.9L0.6,545l0.1-1.1c0-0.9,0.2-1.5,0.5-1.9c0.3-0.3,0.8-0.5,1.6-0.6
			c0.7,0,2.2-0.3,4.7-0.9c0.2,0,0.6-0.1,1.2-0.3c0.6-0.1,0.9-0.2,1.1-0.3c1-0.3,2.6-0.5,4.9-0.9C16.9,538.9,18.6,538.7,19.6,538.6z"
			/>
		<path class="st2" d="M36.2,546.8c1.2-0.2,2.1-0.1,2.6,0.1c0.7,0.2,1.4,0.6,2.3,1.2c0.4,0.2,0.6,0.4,0.6,0.5c0,0.6,0,1-0.1,1.2
			c0,0.1-0.1,0.4-0.2,0.7c-0.1,0.4-0.3,0.6-0.5,0.9c-0.1,0.1-0.2,0.2-0.2,0.3c-0.1,0.1-0.1,0.2-0.2,0.2c-0.1,0-0.2,0.1-0.3,0.1
			c-0.6,0.1-1.2,0.1-1.7-0.2c-0.7-0.4-1.3-0.4-2-0.1c-0.2,0.1-0.4,0.1-0.7,0.2c-0.3,0-0.5,0.1-0.7,0.2c0,0-0.1,0-0.2,0.1
			c-0.1,0-0.2,0.1-0.2,0.1c-0.1,0-0.1,0-0.2,0c-0.1,0-0.4,0.1-0.9,0.2c-0.5,0.1-0.8,0.2-1,0.2c-0.4-0.1-0.7-0.4-0.9-0.9
			c-0.7-1.4-0.6-2.3,0.3-2.8c0.1,0,0.3-0.1,0.5-0.3l0.3-0.3c0.3-0.2,0.8-0.5,1.6-0.8C35.2,547.1,35.8,546.9,36.2,546.8z M34.1,557.8
			l0.3-0.4h1.2c0.8,0,1.3,0.1,1.6,0.3c0.3,0.1,0.4,0.3,0.4,0.5c0,0.1,0,0.3,0.1,0.4c0.2,0.3,0.3,1.1,0.3,2.2c0.1,1.1,0,2.1-0.1,2.8
			c-0.1,1.2-0.1,1.9-0.2,2.3c0,0.4,0,1.1,0.2,2.2c0.1,1.1,0.2,1.9,0.2,2.2c0.1,1.1,0.3,1.8,0.5,2.2l0.3,0.7c-0.2,0.6-0.4,1-0.7,1.1
			c-0.3,0.1-0.5,0.3-0.7,0.5c-0.3,0.3-0.7,0.4-1.3,0.4c-0.7,0-1.2-0.1-1.5-0.4c-0.3-0.3-0.6-0.8-0.9-1.5c-0.3-0.8-0.4-1.7-0.5-2.8
			c0-0.7-0.1-1.3-0.2-1.8c-0.1-0.5-0.1-1-0.1-1.5c0-0.5,0-1.3,0-2.3C33.2,561,33.6,558.6,34.1,557.8z"/>
		<path class="st2" d="M54.1,549c0.5-0.1,1,0,1.7,0.1c0.3,0.1,0.8,0.3,1.5,0.8c0.7,0.4,1.1,0.8,1.3,1.1c0.7,0.9,1.1,1.5,1.2,1.9
			c0.8,1.6,1.2,2.9,1.2,4c0,0.1,0.1,0,0.4-0.3c0-0.1,0.1-0.2,0.2-0.3c2.3-3.4,5-5.5,8-6.3c0.4-0.1,1-0.1,1.7-0.2
			c0.8,0,1.4,0,1.7,0.1c0.6,0.1,1.3,0.5,2.1,1.3c0.3,0.3,0.7,0.8,1.1,1.6c0.4,0.8,0.7,1.3,0.7,1.5v0.1c0,0,0.1,0.1,0.1,0.2
			c0,0.1,0.1,0.1,0.1,0.2c0.2,0.3,0.3,0.7,0.4,1.2c0.1,0.5,0.2,1.2,0.2,2c0.1,0.8,0.1,1.3,0.2,1.5c0.2,1.4,0.1,4.2-0.2,8.4
			c-0.1,1-0.2,2-0.3,3c-0.1,1-0.3,2.4-0.4,4.2c-0.1,1-0.3,1.6-0.6,1.9c-0.3,0.3-0.8,0.4-1.6,0.4l-1.3,0.1l-0.4-0.5
			c-0.4-0.5-0.7-0.8-0.7-1c-0.1-0.2-0.1-0.7,0-1.4c0-0.5,0.3-2.9,0.8-7.3c0.2-1.9,0.3-3,0.3-3.6c0-0.5,0-1.2-0.1-1.9
			c-0.1-0.7-0.1-1.4-0.2-2.1c-0.3-3.4-0.8-5.2-1.6-5.3c-0.6-0.1-1.4,0.2-2.3,0.8c-0.4,0.2-1,0.7-1.8,1.6c-0.8,0.9-1.5,1.6-2,2.3
			c-1.9,2.6-3.1,6-3.8,10.1c-0.1,0.6-0.4,1.1-0.8,1.6c-0.2,0.2-0.6,0.3-1.2,0.3c-1.1,0-1.8-0.2-2.2-0.7c-0.4-0.5-0.6-2.2-0.6-5.2
			c0-4.1-0.1-6.9-0.4-8.4c-0.2-1.2-0.6-2.1-1.3-2.6l-0.4-0.4l-0.6,0.6c-0.6,0.7-1.1,1.5-1.5,2.5c-0.2,0.5-0.5,1.2-0.8,2.3
			c-0.3,1.1-0.5,1.7-0.5,1.9c0,0.1-0.1,0.5-0.3,1.4c-0.2,0.8-0.2,1.4-0.2,1.9c0,0.2,0,2.1,0.1,5.7c0.1,3.6,0.1,5.5,0.2,5.6
			c0.1,0.3,0,0.6-0.1,1c-0.2,0.5-0.4,0.7-0.6,0.8c-0.2,0.1-0.7,0.1-1.5,0.2c-1,0-1.6,0-1.7-0.1c-0.6-0.4-0.9-0.8-0.9-1.4
			c0-0.2,0-0.5-0.1-0.9c-0.4-2-0.6-3.7-0.6-5.1c0-3.3,0.1-5.4,0.3-6.2c0.1-0.8,0.3-1.4,0.4-1.9c0.1-0.5,0.2-0.9,0.3-1.3
			c0.1-0.4,0.1-1.2,0.1-2.4l0.1-2.8l0.3-0.6c0.2-0.3,0.5-0.5,0.9-0.6l0.6-0.1l0.6-1.1C50.4,550.8,52.1,549.4,54.1,549z"/>
		<path class="st2" d="M87.4,564.9c-0.4,0-0.7-0.3-1-0.8c-0.3,1.5-0.4,2.6-0.3,3.4c0,0.2,0.1,0.6,0.4,1.3c0.2,0.7,0.6,1.3,1.2,1.9
			c0.8,0.8,1.7,1.3,2.6,1.5c0.4,0.1,1.4,0.1,3,0c1.6-0.1,2.8-0.3,3.7-0.5c0.9-0.2,1.7-0.2,2.5-0.1c0.5,0,0.9,0.4,1.2,1.1
			c0.4,0.8,0.4,1.3,0,1.5c-0.1,0.1-0.2,0.3-0.3,0.4c0,0.2-0.2,0.3-0.4,0.5c-0.3,0.2-0.4,0.3-0.5,0.3c0,0-0.2,0.1-0.6,0.3
			c-1.3,0.6-3.2,0.9-5.6,1.1c-2.4,0.1-4.2-0.1-5.3-0.6c-2-0.9-3.5-2-4.4-3.3c-0.8-1.1-1.3-2-1.4-2.7c0-0.2-0.1-0.6-0.3-1.3
			c-0.5-2.3-0.2-5.2,1.1-8.8c0.7-1.9,1.5-3.4,2.5-4.4c0.4-0.3,0.6-0.6,0.6-0.8c0.2-0.4,0.8-1,1.9-2c1.1-0.9,2-1.6,2.7-2
			c1.6-0.8,2.4-1.1,2.5-1c1.1-0.2,1.7-0.3,1.9-0.4c0.9-0.3,2.3-0.1,4.2,0.4c0.5,0.1,1.1,0.5,2,1c0.9,0.5,1.5,1,1.9,1.4
			c1.6,1.6,2.2,3.5,2.1,5.9c0,1.2-0.4,2.3-1.1,3.4c-0.3,0.4-0.6,0.9-1.2,1.5c-0.5,0.6-0.8,0.9-0.9,0.9c-0.1,0-0.3,0.1-0.8,0.3
			c-1,0.4-3,0.7-6.1,0.9c-4.1,0.4-6.5,0.3-7.3-0.2C87.9,565,87.7,564.9,87.4,564.9z M97.9,554.2c-1.3-0.5-2.9-0.3-4.9,0.6
			c-1.4,0.7-2.7,1.7-3.8,3.2c-0.4,0.5-0.8,1.2-1.2,1.8c-0.4,0.7-0.5,1-0.5,1.1c0.1,0.1,0.8,0.1,2.1-0.1c1.3-0.1,2.8-0.3,4.4-0.4
			c1.6-0.2,2.6-0.3,3-0.3c1.1-0.1,1.8-0.2,2.1-0.2c0.3-0.1,0.5-0.2,0.8-0.5c0.3-0.5,0.5-0.9,0.6-1.4c0.1-1,0-1.7-0.3-2.1
			c-0.1-0.2-0.4-0.5-0.9-0.9C98.7,554.6,98.3,554.3,97.9,554.2z"/>
		<path class="st2" d="M138.5,582.5c0,0.3-0.2,0.6-0.7,0.9c-0.5,0.4-0.9,0.5-1.4,0.5c-0.4,0-0.8-0.2-1.4-0.7c-1.6-1.3-2.8-2.6-3.8-4
			c-1.3-1.8-2.3-3.8-3.2-5.9c-0.9-2.2-1.4-3.7-1.6-4.5c0-0.2-0.1-0.5-0.2-0.9c-0.1-0.4-0.2-0.7-0.2-0.8c0-0.1-0.1-0.3-0.2-0.7
			s-0.1-0.6-0.2-0.7c0-0.1-0.1-0.3-0.2-0.7c-0.1-0.4-0.1-0.6-0.1-0.8c0-0.1,0-0.4-0.1-0.9c-0.1-0.4-0.1-0.8-0.1-0.9
			c0-0.2,0-0.6,0-1.1c0-0.5,0-1,0-1.3c0.1-2.3,0.2-3.8,0.3-4.4c0.5-2.8,0.9-4.4,1.2-4.7c0.1-0.1,0.1-0.2,0.1-0.3
			c0-0.1,0.1-0.4,0.3-0.7c0-0.1,0.1-0.3,0.3-0.7s0.3-0.7,0.4-0.9c0.5-1.2,1.2-2.6,2.1-4.2s1.6-2.6,2-3c0.2-0.2,0.3-0.3,0.3-0.4
			c0-0.1,0.2-0.4,0.7-1c0.4-0.6,0.8-1,1.1-1.3c0.2-0.3,0.7-0.7,1.6-1.1c1-0.5,1.7-0.7,2.1-0.5c0.4,0.1,0.9,0.7,1.4,1.7l0.6,1.3
			l-0.2,0.6c-0.1,0.3-0.3,0.5-0.6,0.7c-0.3,0.2-0.4,0.4-0.5,0.6c-0.2,0.3-0.4,0.4-0.6,0.6c-0.4,0.2-1.1,1-2,2.3
			c-0.9,1.3-1.8,2.7-2.4,4c-0.9,1.8-1.5,3.1-1.7,3.9c-1.6,5.5-1.6,10.7,0.1,15.6c0.3,1,0.6,1.9,0.9,2.5c0.5,1.5,1.4,3.3,2.8,5.4
			c0.7,1.1,1.9,2.4,3.5,3.7c0.7,0.5,0.8,1.2,0.2,2.1C138.7,582.3,138.5,582.5,138.5,582.5z"/>
		<path class="st2" d="M165.2,546.4c0.3-0.1,0.7-0.1,1.2,0c0.6,0.1,0.9,0.2,0.9,0.4c0,0.1,0.2,0.3,0.5,0.5c0.8,0.5,1.3,1.2,1.3,1.8
			c0,0.3-0.2,0.9-0.8,1.7c-0.6,0.8-1.1,1.4-1.5,1.8c-0.4,0.4-1.3,1.5-2.6,3.3c-1.5,1.9-2.3,3-2.5,3.2c-0.2,0.3-0.2,0.5-0.2,0.6
			c0.3,0.4,0.9,0.9,1.9,1.5c0.4,0.3,0.9,0.8,1.7,1.5c1.9,1.9,3.7,4.3,5.3,7.3c0.1,0.2,0.5,0.8,1.1,1.8c0.1,0.3,0.2,0.6,0.2,0.7
			c0,0.1-0.1,0.3-0.3,0.7c-0.2,0.4-0.3,0.6-0.3,0.6c-0.3,0.5-0.5,0.8-0.9,0.8c-0.1,0-0.3,0.1-0.6,0.3c-0.3,0.2-0.5,0.3-0.6,0.3
			c-0.1,0-0.2-0.1-0.4-0.1c-0.2,0-0.4-0.1-0.5-0.1c-0.1,0-0.3-0.1-0.3-0.2c-0.1-0.1-0.3-0.2-0.4-0.3c-0.1,0-0.4-0.4-0.9-1.2
			c-0.5-0.8-1-1.7-1.5-2.6s-0.8-1.3-0.8-1.4c-0.6-0.8-1.4-1.8-2.6-2.9c-1.1-1.1-1.9-1.8-2.4-2.2c-0.3-0.2-0.5-0.4-0.7-0.6
			c-0.2-0.2-0.4-0.2-0.6-0.1c0,0-0.1,0.1-0.2,0.2c-0.1,0.1-0.1,0.1-0.2,0.2c-0.1,0.1-0.1,0.1-0.2,0.2c-0.3,0.4-1.1,1.3-2.4,2.8
			c-1.3,1.5-2.1,2.3-2.2,2.5c-0.3,0.3-0.9,1.1-1.9,2.3c-1,1.2-1.7,2-2,2.5c-0.9,1.2-1.6,1.9-2.1,2c-0.5,0.2-1,0-1.7-0.4
			c-0.9-0.6-1.5-1.1-1.6-1.5c-0.2-0.4-0.1-0.8,0.2-1.4c0.5-1,1.1-1.9,1.8-2.5c0.3-0.3,1-1.1,2.1-2.4c1.1-1.3,1.8-2.2,2.1-2.6
			c0.5-0.5,0.9-1,1.2-1.4c0.1-0.2,0.5-0.7,1.3-1.5c0.7-0.8,1.1-1.2,1.2-1.3l0.6-0.6l0.4-0.5l-0.6-0.6c-0.3-0.4-0.6-0.6-0.8-0.6
			c-0.1,0-0.9-0.8-2.4-2.3c-1.5-1.5-2.6-2.6-3.2-3.2c-0.5-0.6-0.8-0.9-0.8-0.9c0-0.1-0.1-0.3-0.4-0.8c-0.3-0.5-0.4-0.9-0.4-1.2
			c0-0.4,0.3-0.9,0.9-1.5c0.6-0.6,1.1-0.9,1.4-0.9c0.4,0,0.8,0.3,1.3,0.6c0.2,0.1,0.4,0.3,0.6,0.4c0.3,0.1,0.5,0.4,0.9,0.7
			c0.9,0.9,2.2,2.1,3.9,3.7c1.7,1.6,2.6,2.4,2.7,2.4c0.2,0,1.6-1.7,4.2-5.1c0.8-0.9,1.2-1.5,1.3-1.6c0.3-0.4,0.5-0.7,0.6-1
			c0-0.3,0.2-0.5,0.5-0.9s0.5-0.5,0.6-0.6C164.8,546.7,165,546.5,165.2,546.4z"/>
		<path class="st2" d="M176.8,537.4c0.2-0.1,0.4-0.2,0.8-0.2c0.3,0,0.8,0.1,1.6,0.4c0.8,0.3,1.3,0.4,1.5,0.6
			c0.1,0.1,0.2,0.1,0.3,0.1c0,0,0.2,0.2,0.4,0.6c0,0.1,0.4,0.6,1.1,1.5c0.8,0.9,1.6,2.1,2.4,3.4c0.8,1.3,1.4,2.4,1.6,3.1
			c0.8,1.9,1.3,3.4,1.6,4.6c0.7,2.6,1.1,4.1,1.1,4.6c0.2,1.1,0.3,2.9,0.2,5.4c-0.1,2.5-0.3,4.1-0.5,4.7c-0.1,0.3-0.1,0.5-0.1,0.6
			c0.1,0.1,0,0.9-0.4,2.3c-0.3,1.4-0.6,2.1-0.7,2.3c0,0-0.1,0.1-0.1,0.3c0,0.4-0.6,1.7-1.7,3.8c-1.1,1.9-2.6,3.9-4.6,6.2
			c-0.2,0.3-0.4,0.5-0.6,0.8c-0.2,0.3-0.3,0.5-0.4,0.5c-0.1,0.1-0.3,0.2-0.7,0.3s-0.9,0.3-1.6,0.4c-0.5,0.1-1,0-1.4-0.3
			c-0.8-0.6-1.1-1.2-1.1-1.6l0.4-1.8c0.1-0.5,0.4-0.9,0.9-1.2c0.5-0.4,0.8-0.7,1-0.9c0.1-0.1,0.3-0.4,0.6-0.8
			c0.3-0.4,0.6-0.7,0.7-0.8c2.3-2.7,3.8-6,4.4-10c0.1-0.5,0.2-1.2,0.4-2.1c0.2-1,0.3-1.6,0.3-1.8c0-0.3,0-1.1,0-2.5
			c-0.2-3-0.4-4.7-0.6-5.2c0,0-0.3-1.1-0.9-3.2c-0.5-1.7-1.2-3.2-2-4.6c-0.3-0.5-0.5-0.9-0.5-1.1c0-0.2-0.5-0.8-1.5-2
			c-1-1.2-1.7-2-2.2-2.5c-0.4-0.4-0.7-0.8-0.8-1c-0.1-0.2-0.1-0.7,0.1-1.4C176.2,538.1,176.5,537.5,176.8,537.4z"/>
	</g>
	<g>
		<g>
			<path class="st3" d="M40,41.2c-0.4,0-0.9-0.1-1.3-0.2l-7.9-3.1c-1.8-0.7-2.7-2.7-2-4.5c0.7-1.8,2.7-2.7,4.5-2l7.9,3.1
				c1.8,0.7,2.7,2.7,2,4.5C42.7,40.4,41.3,41.2,40,41.2z"/>
		</g>
		<g>
			<path class="st3" d="M835.4,445.5c-0.7,0-1.4-0.2-2-0.6l-7.9-5.6l-6.2-4c-1.6-1.1-2.1-3.2-1-4.8c1.1-1.6,3.2-2.1,4.8-1l6.3,4.1
				c0,0,0.1,0,0.1,0.1l8,5.6c1.6,1.1,2,3.3,0.9,4.9C837.6,444.9,836.5,445.5,835.4,445.5z M806.1,427.4c-0.7,0-1.5-0.2-2.1-0.7
				l-8.8-6.7l-4.9-2.7c-1.7-0.9-2.3-3.1-1.4-4.8c0.9-1.7,3.1-2.3,4.8-1.4l5.1,2.8c0.1,0.1,0.3,0.2,0.4,0.3l9,6.9
				c1.5,1.2,1.8,3.4,0.7,4.9C808.2,426.9,807.2,427.4,806.1,427.4z M777.5,408.3c-0.7,0-1.4-0.2-2-0.6l-0.6-0.4l-10.4-5.6
				c-0.1,0-0.1-0.1-0.2-0.1l-3.6-2.2c-1.7-1-2.2-3.2-1.2-4.8c1-1.7,3.2-2.2,4.8-1.2l3.5,2.2l10.5,5.6c0.1,0.1,0.3,0.1,0.4,0.2
				l0.8,0.5c1.6,1.1,2,3.3,0.8,4.9C779.7,407.8,778.6,408.3,777.5,408.3z M748.1,390.4c-0.7,0-1.4-0.2-2-0.6l-2-1.4l-10.1-6.3
				c-0.1,0-0.1-0.1-0.2-0.1l-2.2-1.6c-1.6-1.1-2-3.3-0.8-4.9c1.1-1.6,3.3-2,4.9-0.8l2.1,1.5l10.1,6.3c0.1,0,0.1,0.1,0.2,0.1l2.1,1.5
				c1.6,1.1,2,3.3,0.9,4.9C750.3,389.9,749.2,390.4,748.1,390.4z M719,372.2c-0.5,0-1.1-0.1-1.6-0.4l-3.7-1.9
				c-0.1-0.1-0.3-0.2-0.4-0.2l-9.7-6.7l-0.8-0.4c-1.7-0.9-2.3-3.1-1.4-4.7c0.9-1.7,3-2.3,4.7-1.4l0.9,0.5c0.1,0.1,0.2,0.1,0.3,0.2
				l9.7,6.7l3.5,1.8c1.7,0.9,2.4,3,1.6,4.7C721.5,371.4,720.3,372.2,719,372.2z M689.9,353.8c-0.8,0-1.5-0.3-2.2-0.8l-4.3-3.5
				l-9.6-5.7c-1.7-1-2.2-3.1-1.2-4.8c1-1.7,3.1-2.2,4.8-1.2l9.8,5.8c0.1,0.1,0.3,0.2,0.4,0.3l4.5,3.6c1.5,1.2,1.7,3.4,0.5,4.9
				C692,353.3,691,353.8,689.9,353.8z M660.9,335.2c-0.6,0-1.3-0.2-1.8-0.5l-6.2-3.8l-8.6-4.7c-1.7-0.9-2.3-3.1-1.4-4.8
				c0.9-1.7,3.1-2.3,4.8-1.4l8.6,4.8c0,0,0.1,0.1,0.1,0.1l6.3,3.8c1.6,1,2.2,3.2,1.2,4.8C663.3,334.6,662.1,335.2,660.9,335.2z
				 M631.5,317.3c-0.6,0-1.2-0.1-1.7-0.4l-7.8-4.4c0,0-0.1-0.1-0.1-0.1l-7-4.4c-1.6-1-2.1-3.2-1.1-4.8c1-1.6,3.2-2.1,4.8-1.1l7,4.3
				l7.7,4.3c1.7,0.9,2.3,3.1,1.3,4.8C633.9,316.7,632.8,317.3,631.5,317.3z M602.1,299.4c-0.5,0-1.1-0.1-1.6-0.4l-9.4-4.8
				c-0.1,0-0.1-0.1-0.2-0.1l-5.8-3.4c-1.7-1-2.2-3.1-1.3-4.8c1-1.7,3.1-2.2,4.8-1.3l5.7,3.3l9.3,4.7c1.7,0.9,2.4,3,1.5,4.7
				C604.6,298.7,603.4,299.4,602.1,299.4z M572.6,281.6c-0.7,0-1.3-0.2-1.9-0.6l-10.2-5.9l-4.5-2.3c-1.7-0.9-2.4-3-1.5-4.7
				c0.9-1.7,3-2.4,4.7-1.5l4.6,2.3c0.1,0,0.1,0.1,0.2,0.1l10.4,6c0.1,0.1,0.2,0.1,0.3,0.2c1.6,1.1,1.9,3.4,0.8,4.9
				C574.8,281.1,573.7,281.6,572.6,281.6z M542.7,264.8c-0.6,0-1.2-0.2-1.8-0.5l-1.4-0.8l-10.1-6.3l-3.1-1.6c-1.7-0.9-2.4-3-1.5-4.7
				c0.9-1.7,3-2.4,4.7-1.5l3.2,1.6c0.1,0,0.2,0.1,0.3,0.1l11.5,7.2c1.7,1,2.2,3.2,1.2,4.8C545,264.2,543.8,264.8,542.7,264.8z
				 M512.6,248c-0.5,0-1.1-0.1-1.6-0.4l-2.8-1.5l-10.7-5.4c-0.1-0.1-0.2-0.1-0.3-0.2l-1.7-1.1c-1.6-1.1-2.1-3.2-1-4.8
				c1.1-1.6,3.2-2.1,4.8-1l1.5,1l13.4,6.8c1.7,0.9,2.4,3,1.5,4.7C515.1,247.3,513.8,248,512.6,248z M482.4,231.4
				c-0.5,0-1-0.1-1.5-0.3l-15.6-7.4c-1.7-0.9-2.4-3-1.6-4.7c0.9-1.7,3-2.4,4.7-1.6l0.2,0.1l15.3,7.3c1.7,0.8,2.5,2.9,1.7,4.7
				C485,230.7,483.8,231.4,482.4,231.4z M451.5,216.3c-0.5,0-1.1-0.1-1.6-0.4l-5.9-3l-9.6-3.1c-1.8-0.6-2.9-2.6-2.3-4.4
				c0.6-1.8,2.6-2.9,4.4-2.3l9.9,3.2c0.2,0.1,0.4,0.1,0.5,0.2l6.1,3.1c1.7,0.9,2.4,3,1.5,4.7C454,215.6,452.8,216.3,451.5,216.3z
				 M420.2,202.3c-0.5,0-1.1-0.1-1.6-0.4l-8-4l-7.4-3.6c-1.7-0.8-2.5-2.9-1.6-4.7c0.8-1.7,2.9-2.5,4.7-1.6l7.5,3.6l8,4
				c1.7,0.9,2.4,3,1.6,4.7C422.7,201.6,421.4,202.3,420.2,202.3z M388.8,187.9c-0.5,0-1-0.1-1.4-0.3l-9.9-4.4l-5.8-2.2
				c-1.8-0.7-2.7-2.7-2-4.5c0.7-1.8,2.7-2.7,4.5-2l5.9,2.3c0.1,0,0.1,0,0.2,0.1l10,4.4c1.8,0.8,2.6,2.8,1.8,4.6
				C391.5,187.2,390.2,187.9,388.8,187.9z M357.1,174.5c-0.5,0-1-0.1-1.4-0.3l-0.6-0.3l-11.2-4.6c-0.1,0-0.1,0-0.2-0.1l-4-1.8
				c-1.8-0.8-2.5-2.9-1.7-4.6c0.8-1.8,2.9-2.5,4.6-1.7l3.9,1.8l11.2,4.6c0,0,0.1,0,0.1,0.1l0.7,0.3c1.8,0.8,2.5,2.9,1.7,4.6
				C359.7,173.7,358.5,174.5,357.1,174.5z M325.4,161.1c-0.4,0-0.8-0.1-1.2-0.2l-2.5-1c-0.2-0.1-0.4-0.2-0.5-0.3l-10.3-6L309,153
				c-1.8-0.6-2.8-2.6-2.1-4.5c0.6-1.8,2.6-2.8,4.5-2.1l2.2,0.8c0.2,0.1,0.4,0.2,0.6,0.3l10.3,6l2.2,0.9c1.8,0.7,2.7,2.7,2,4.5
				C328.1,160.3,326.8,161.1,325.4,161.1z M294.3,146.6c-0.5,0-1.1-0.1-1.6-0.4l-4.1-2.1l-11.5-4.3c-1.8-0.7-2.7-2.7-2-4.5
				c0.7-1.8,2.7-2.7,4.5-2l0.3,0.1l11.4,4.2c0.1,0,0.2,0.1,0.4,0.2l4.3,2.2c1.7,0.9,2.4,3,1.5,4.7
				C296.8,145.9,295.6,146.6,294.3,146.6z M262.3,133.7c-0.5,0-0.9-0.1-1.4-0.3l-6.2-2.7l-9.7-3.8c-1.8-0.7-2.7-2.7-2-4.5
				c0.7-1.8,2.7-2.7,4.5-2l9.7,3.8c0,0,0.1,0,0.1,0l6.2,2.7c1.8,0.8,2.6,2.8,1.8,4.6C265,132.9,263.7,133.7,262.3,133.7z
				 M230.5,120.5c-0.4,0-0.9-0.1-1.3-0.2l-8.1-3.2c-0.1,0-0.1-0.1-0.2-0.1l-7.7-3.7c-1.7-0.8-2.5-2.9-1.7-4.7
				c0.8-1.7,2.9-2.5,4.7-1.7l7.6,3.6l8,3.1c1.8,0.7,2.7,2.7,2,4.5C233.2,119.7,231.9,120.5,230.5,120.5z M198.8,107.2
				c-0.5,0-1-0.1-1.5-0.3l-9.7-4.6l-5.9-2.9c-1.7-0.8-2.5-2.9-1.6-4.7c0.8-1.7,2.9-2.5,4.7-1.6l5.9,2.9l9.6,4.5
				c1.7,0.8,2.5,2.9,1.7,4.7C201.3,106.5,200.1,107.2,198.8,107.2z M167.3,93.3c-0.4,0-0.8-0.1-1.2-0.2l-0.4-0.2L154.2,89
				c-0.2-0.1-0.4-0.2-0.6-0.3l-4-2.2c-1.7-0.9-2.3-3.1-1.3-4.8c0.9-1.7,3.1-2.3,4.8-1.3l3.7,2.1l11.2,3.8c0,0,0.1,0,0.1,0l0.5,0.2
				c1.8,0.7,2.7,2.7,2.1,4.5C170,92.4,168.7,93.3,167.3,93.3z M135.6,80.2c-0.4,0-0.7-0.1-1.1-0.2l-2.5-0.8c-0.1,0-0.3-0.1-0.4-0.2
				l-10.9-5.2l-2.2-1c-1.8-0.8-2.6-2.8-1.8-4.6c0.8-1.8,2.8-2.6,4.6-1.8l2.3,1c0,0,0.1,0,0.1,0.1l10.7,5.2l2.3,0.7
				c1.8,0.6,2.8,2.6,2.2,4.4C138.4,79.3,137,80.2,135.6,80.2z M103.9,66.8c-0.4,0-0.8-0.1-1.2-0.2L98.4,65c-0.1,0-0.2-0.1-0.3-0.1
				l-11-5.3c-1.8-0.6-2.8-2.6-2.2-4.4s2.6-2.8,4.4-2.2l0.5,0.2c0.1,0,0.3,0.1,0.4,0.2l10.8,5.2l4.1,1.5c1.8,0.7,2.7,2.7,2.1,4.5
				C106.6,65.9,105.3,66.8,103.9,66.8z M72.1,53.7c-0.5,0-1-0.1-1.4-0.3l-5.8-2.6l-9.9-3.5c-1.8-0.6-2.8-2.6-2.1-4.5
				c0.6-1.8,2.6-2.8,4.5-2.1l10.1,3.5c0.1,0,0.2,0.1,0.3,0.1l6,2.7c1.8,0.8,2.6,2.9,1.8,4.6C74.7,52.9,73.4,53.7,72.1,53.7z"/>
		</g>
		<g>
			<path class="st3" d="M857,459.5c-0.7,0-1.3-0.2-1.9-0.6l-7.1-4.6c-1.6-1-2.1-3.2-1-4.8c1-1.6,3.2-2.1,4.8-1l7.1,4.6
				c1.6,1,2.1,3.2,1,4.8C859.2,458.9,858.1,459.5,857,459.5z"/>
		</g>
	</g>
	<g>
		<path class="st4" d="M861.4,455.5c-4.3-6.8-8.7-13.7-12.9-20.6c-2-3.2,2.7-6.8,4.8-3.5c5.8,9.1,11.5,18.2,17.2,27.4
			c0.8,1.3,0.6,3-0.4,3.9c0.2,1.6-0.8,3.3-2.5,3.4c-7.5,0.1-14.9,0.2-22.4,0.3c-3.7,0-4.5-5.4-0.6-5.9c4-0.5,8-1,12-1.5"/>
	</g>
	<g>
		<path class="st1" d="M36.1,472.4c-1.2,0-2.5-0.6-3.2-1.7c-1.3-1.8-0.9-4.3,0.9-5.6l9.8-7.1l9.6-7.3c0.2-0.1,0.4-0.2,0.5-0.3
			l10.5-5.6l9.5-7.1c0.1-0.1,0.2-0.1,0.2-0.2l10.2-6.5l10.2-6.4l9.7-7.1l9.6-7.3c0.2-0.2,0.4-0.3,0.7-0.4l10.6-5.3l9.4-7.1
			c0.1-0.1,0.2-0.2,0.3-0.2l10.2-6.1l9.3-7.4c0.1-0.1,0.2-0.2,0.4-0.3l10.3-6.5l10.1-6.6c0.1,0,0.1-0.1,0.2-0.1l10.3-6.1l9.7-7
			c0.1-0.1,0.3-0.2,0.5-0.3l10.4-5.5l9.1-7.5c0.1-0.1,0.3-0.2,0.5-0.3l10.4-6.3c0.1,0,0.1-0.1,0.2-0.1l10.5-5.6l9.7-6.9
			c0.1-0.1,0.2-0.1,0.2-0.2l10.2-6.1l9.3-7.5c0.2-0.2,0.4-0.3,0.7-0.4l10.6-5.5l10-6.5c0,0,0.1-0.1,0.1-0.1l10.2-6.1l9.5-7.2
			c0.2-0.1,0.4-0.3,0.6-0.4l10.4-5.4l9.2-7.4c0.2-0.2,0.4-0.3,0.6-0.4l10.7-5.6l10.3-6l9.8-6.9c0.1-0.1,0.2-0.1,0.2-0.2l10.4-6.3
			c0,0,0.1-0.1,0.1-0.1l10.6-5.8l10.5-6l10.5-5.8l9.8-6.8c0.2-0.1,0.4-0.2,0.6-0.3l10.8-5l10.1-6.3c0,0,0.1,0,0.1-0.1l10.5-6.1
			c0,0,0.1,0,0.1-0.1l10.6-5.7c0.1-0.1,0.3-0.1,0.4-0.2l11-4.3l10.2-5.9c0.1,0,0.2-0.1,0.2-0.1l10.8-5.3c0.1-0.1,0.3-0.1,0.4-0.2
			l11.2-4.1l10.8-5l10.6-5.2l10.4-5.9c0.2-0.1,0.4-0.2,0.6-0.3l22.3-8.2l10.1-6.1c0.3-0.2,0.6-0.3,0.9-0.4l11.3-3.6l10.8-4.7
			c0,0,0.1,0,0.1,0l11-4.4l10.6-5.4c0.2-0.1,0.5-0.2,0.8-0.3l11.4-3.1l10.6-4.9l11-5c0.1,0,0.1-0.1,0.2-0.1l11.2-4.4
			c0.1,0,0.1-0.1,0.2-0.1l11.3-3.7l11-4.6c0.1-0.1,0.3-0.1,0.4-0.2l11.3-3.2l10.6-5.1c0.2-0.1,0.3-0.1,0.5-0.2l11.5-3.6
			c0.1,0,0.1,0,0.2,0l11.3-3.1l10.7-4.9c0.1-0.1,0.3-0.1,0.4-0.2l11.5-3.7c0.1,0,0.1,0,0.2,0l11.5-3.2l11.1-4l11.1-4.5
			c0.1-0.1,0.3-0.1,0.4-0.1l11.5-3.4l11.3-3.9c0.1,0,0.2-0.1,0.2-0.1l11.6-3.2c0.1,0,0.1,0,0.2,0l11.6-2.7l11.4-3.3l11.4-3.5
			l11.4-3.7c0.1,0,0.2,0,0.2-0.1l11.7-2.9c2.1-0.5,4.3,0.8,4.9,2.9c0.5,2.1-0.8,4.3-2.9,4.9l-11.5,2.9l-11.3,3.6l-11.5,3.6
			l-11.6,3.4c-0.1,0-0.1,0-0.2,0.1l-11.7,2.7l-11.4,3.1l-11.3,3.9c-0.1,0-0.1,0-0.2,0.1L780,74.7l-11,4.5c-0.1,0-0.1,0-0.2,0.1
			l-11.3,4c-0.1,0-0.2,0.1-0.3,0.1l-11.5,3.2l-11.1,3.6l-10.8,4.9c-0.2,0.1-0.4,0.2-0.6,0.2l-11.6,3.1l-11.1,3.5l-10.7,5.1
			c-0.2,0.1-0.4,0.2-0.6,0.2l-11.4,3.2l-10.9,4.5c-0.1,0-0.2,0.1-0.3,0.1l-11.3,3.7l-11,4.3l-10.9,4.9l-10.9,5.1
			c-0.2,0.1-0.4,0.2-0.6,0.2l-11.3,3.1l-10.4,5.3c-0.1,0.1-0.2,0.1-0.3,0.2l-11.1,4.5l-11,4.8c-0.1,0.1-0.3,0.1-0.4,0.1l-11.1,3.5
			l-10,6.1c-0.2,0.1-0.4,0.2-0.7,0.3l-22.3,8.3l-10.2,5.8c-0.1,0-0.1,0.1-0.2,0.1l-10.8,5.3l-11,5.1c-0.1,0-0.2,0.1-0.3,0.1
			l-11.1,4.1l-10.5,5.2l-10.3,6c-0.2,0.1-0.4,0.2-0.5,0.3l-11,4.4l-10.4,5.5l-10.4,6l-10.2,6.4c-0.1,0.1-0.3,0.2-0.4,0.2l-10.7,5
			l-9.7,6.7c-0.1,0.1-0.2,0.1-0.3,0.2l-10.6,5.9l-10.5,6l-10.6,5.8l-10.2,6.1l-9.8,6.9c-0.1,0.1-0.2,0.1-0.3,0.2l-10.5,6.1
			c0,0-0.1,0.1-0.1,0.1l-10.4,5.5l-9.2,7.4c-0.2,0.2-0.4,0.3-0.7,0.4l-10.5,5.4l-9.4,7.1c-0.1,0.1-0.2,0.2-0.4,0.2l-10.4,6.1
			l-10.1,6.5c-0.1,0.1-0.2,0.1-0.3,0.2l-10.5,5.4l-9.2,7.4c-0.1,0.1-0.3,0.2-0.4,0.3l-10.3,6.2l-9.8,6.9c-0.1,0.1-0.3,0.2-0.4,0.3
			l-10.6,5.7l-10,6.1l-9.2,7.6c-0.2,0.2-0.4,0.3-0.7,0.4l-10.5,5.6l-9.6,6.9c-0.1,0.1-0.2,0.1-0.3,0.2l-10.4,6.1l-10.1,6.6
			l-10.1,6.4l-9.3,7.5c-0.1,0.1-0.3,0.2-0.4,0.3l-10.2,6.2l-9.5,7.2c-0.2,0.1-0.4,0.3-0.6,0.4l-10.6,5.3l-9.3,7.2l-9.9,7.2
			c-0.1,0.1-0.2,0.1-0.2,0.2l-10.3,6.5l-10,6.5l-9.6,7.2c-0.2,0.1-0.3,0.2-0.5,0.3l-10.5,5.6l-9.4,7.1l-9.9,7.1
			C37.7,472.1,36.9,472.4,36.1,472.4z"/>
	</g>
	<g>
		<path class="st1" d="M873.9,43.4c-4.3,6.8-8.7,13.7-12.9,20.6c-2,3.2,2.7,6.8,4.8,3.5c5.8-9.1,11.5-18.2,17.2-27.4
			c0.8-1.3,0.6-3-0.4-3.9c0.2-1.6-0.8-3.3-2.5-3.4c-7.5-0.1-14.9-0.2-22.4-0.3c-3.7,0-4.5,5.4-0.6,5.9c4,0.5,8,1,12,1.5"/>
	</g>
</g>
</svg>
