<?xml version="1.0" encoding="utf-8"?>
<!-- Generator: Adobe Illustrator 23.0.1, SVG Export Plug-In . SVG Version: 6.00 Build 0)  -->
<svg version="1.1" xmlns="http://www.w3.org/2000/svg" xmlns:xlink="http://www.w3.org/1999/xlink" x="0px" y="0px"
	 viewBox="0 0 99.2 119.1" style="enable-background:new 0 0 99.2 119.1;" xml:space="preserve">
<style type="text/css">
	.st0{display:none;}
	.st1{display:inline;fill:#D7D7D7;}
	.st2{display:inline;fill:#FFFFFF;}
	.st3{display:inline;fill:#010202;}
	.st4{fill:#FFFFFF;}
</style>
<g id="Ebene_2" class="st0">
	<rect x="-37.5" y="-24.1" class="st1" width="170.1" height="170.1"/>
</g>
<g id="white" class="st0">
	<circle class="st2" cx="47.5" cy="61" r="85"/>
</g>
<g id="black" class="st0">
	<circle class="st3" cx="47.5" cy="61" r="85"/>
</g>
<g id="Ebene_1">
	<g>
		<path class="st4" d="M2.1,97.5h3.8v6.2h0.1c0.4-0.5,1-1,1.7-1.3c0.7-0.3,1.4-0.5,2.1-0.6c0.2,0,0.4,0,0.5,0c0.2,0,0.3,0,0.5,0
			c2.3,0,4.2,0.8,5.7,2.3c1.5,1.5,2.2,3.3,2.2,5.3c0,0.3,0,0.6-0.1,0.9c0,0.3-0.1,0.6-0.2,0.9c-0.2,0.6-0.4,1.2-0.7,1.8
			c-0.3,0.6-0.7,1.1-1.1,1.5c-0.7,0.8-1.6,1.4-2.6,1.8c-1,0.4-2.1,0.6-3.2,0.6c-1.1,0-2.1-0.2-3-0.6c-0.9-0.4-1.7-1-2.3-1.8l-0.1,0
			v1.9H2.1V97.5z M7.1,106.3c-0.9,0.8-1.4,1.7-1.4,2.9c0,1.3,0.4,2.3,1.3,3.1c0.9,0.8,2,1.3,3.4,1.3c1.3,0,2.4-0.4,3.3-1.2
			c0.8-0.8,1.2-1.8,1.2-3c0-1.2-0.4-2.2-1.2-3c-0.8-0.8-1.9-1.2-3.3-1.2C9.1,105.2,8,105.6,7.1,106.3z"/>
		<path class="st4" d="M36.6,116.5h-3.4v-1.9h-0.1c-0.5,0.6-1.1,1.1-1.9,1.5c-0.8,0.4-1.6,0.7-2.4,0.8c-0.2,0-0.3,0-0.5,0.1
			c-0.2,0-0.4,0-0.5,0c-1.2,0-2.3-0.2-3.3-0.6c-1-0.4-1.8-1-2.5-1.7c-0.6-0.7-1.1-1.5-1.4-2.4c-0.3-0.9-0.5-1.8-0.5-2.8
			c0-1,0.2-1.9,0.5-2.7c0.3-0.8,0.8-1.6,1.5-2.4c0.8-0.8,1.7-1.5,2.6-1.9c1-0.4,2-0.6,3.2-0.6c1.1,0,2.1,0.2,3,0.6
			c0.9,0.4,1.7,1,2.3,1.8v-2h3.4V116.5z M33.1,109.4c0-1.2-0.4-2.2-1.3-3c-0.8-0.8-1.9-1.2-3.3-1.2c-1.4,0-2.5,0.4-3.4,1.2
			c-0.9,0.8-1.3,1.9-1.3,3.1c0,1.2,0.5,2.1,1.4,2.9c0.9,0.8,2,1.2,3.3,1.2c1.4,0,2.5-0.4,3.3-1.2C32.6,111.6,33.1,110.6,33.1,109.4
			L33.1,109.4z"/>
		<path class="st4" d="M39.4,97.5h3.8v19h-3.8V97.5z"/>
		<path class="st4" d="M49.5,110.9c0.3,0.8,0.8,1.5,1.6,2c0.8,0.5,1.6,0.7,2.6,0.7c0.7,0,1.4-0.1,2-0.3c0.6-0.2,1.1-0.5,1.5-0.9
			l4.2,0c-0.5,1.3-1.4,2.4-2.9,3.3c-1.4,0.9-3,1.3-4.6,1.3c-2.3,0-4.2-0.7-5.8-2.2c-1.6-1.4-2.4-3.2-2.4-5.3c0-2.1,0.8-3.9,2.4-5.4
			c1.6-1.5,3.6-2.3,5.9-2.3c2.2,0,4.1,0.7,5.7,2.2c1.6,1.5,2.3,3.2,2.3,5.2c0,0.2,0,0.4,0,0.7c0,0.2-0.1,0.4-0.1,0.6
			c0,0.1,0,0.1,0,0.2c0,0.1,0,0.1,0,0.2H49.5z M58.1,107.9c-0.3-0.8-0.8-1.5-1.6-2c-0.8-0.5-1.7-0.7-2.6-0.7c0,0-0.1,0-0.1,0
			c0,0-0.1,0-0.1,0c-0.9,0.1-1.8,0.3-2.5,0.8c-0.8,0.5-1.3,1.1-1.6,1.9H58.1z"/>
		<path class="st4" d="M64.3,102.3h3.5v1.3h0.1c0.4-0.5,1-0.9,1.7-1.2c0.7-0.3,1.4-0.5,2.2-0.5c0.1,0,0.1,0,0.2,0c0.1,0,0.1,0,0.2,0
			c0.1,0,0.2,0,0.2,0c0.1,0,0.2,0,0.2,0c0.8,0.1,1.5,0.2,2.2,0.5c0.7,0.3,1.3,0.7,1.8,1.2c0.1,0.1,0.1,0.1,0.2,0.2
			c0.1,0.1,0.1,0.1,0.2,0.2c0.6,0.8,1,1.6,1.1,2.5s0.2,1.8,0.2,2.7v7.3h-3.8v-6.7c0-0.2,0-0.4,0-0.7c0-0.2,0-0.5,0-0.7
			c0-0.4-0.1-0.7-0.2-1.1c-0.1-0.4-0.2-0.7-0.4-1c-0.2-0.3-0.6-0.6-1-0.8c-0.4-0.2-0.9-0.3-1.3-0.4c0,0,0,0-0.1,0s-0.1,0-0.1,0
			c-0.1,0-0.1,0-0.2,0c-0.1,0-0.1,0-0.2,0c-0.4,0.1-0.9,0.2-1.3,0.4c-0.4,0.2-0.7,0.5-1,0.8c-0.2,0.3-0.3,0.6-0.4,1
			c-0.1,0.4-0.2,0.7-0.2,1.1c0,0.2,0,0.4,0,0.7c0,0.2,0,0.4,0,0.6c0,0.1,0,0.1,0,0.1c0,0,0,0.1,0,0.1v6.4h-3.8V102.3z"/>
		<path class="st4" d="M97.1,116.5h-3.4v-1.9h-0.1c-0.5,0.6-1.1,1.1-1.9,1.5c-0.8,0.4-1.6,0.7-2.4,0.8c-0.2,0-0.3,0-0.5,0.1
			c-0.2,0-0.4,0-0.5,0c-1.2,0-2.3-0.2-3.3-0.6c-1-0.4-1.8-1-2.5-1.7c-0.6-0.7-1.1-1.5-1.4-2.4c-0.3-0.9-0.5-1.8-0.5-2.8
			c0-1,0.2-1.9,0.5-2.7c0.3-0.8,0.8-1.6,1.5-2.4c0.8-0.8,1.7-1.5,2.6-1.9c1-0.4,2-0.6,3.2-0.6c1.1,0,2.1,0.2,3,0.6
			c0.9,0.4,1.7,1,2.3,1.8v-2h3.4V116.5z M93.5,109.4c0-1.2-0.4-2.2-1.3-3c-0.8-0.8-1.9-1.2-3.3-1.2c-1.4,0-2.5,0.4-3.4,1.2
			c-0.9,0.8-1.3,1.9-1.3,3.1c0,1.2,0.5,2.1,1.4,2.9c0.9,0.8,2,1.2,3.3,1.2c1.4,0,2.5-0.4,3.3-1.2C93.1,111.6,93.5,110.6,93.5,109.4
			L93.5,109.4z"/>
	</g>
	<path class="st4" d="M86.6,25.8l-1.4-2.2l0-0.1c-1-1.3-2.2-2.4-3.7-3.2L55.7,5.9c-3.8-2.1-8.4-2.1-12.2,0L17.6,20.3
		c-1.6,0.9-2.9,2.1-4,3.6l-1.3,2.4c-0.6,1.4-0.9,2.8-0.9,4.3v28.8c0,4.2,2.4,8.2,6.1,10.3l25.8,14.4c1.4,0.8,3,1.3,4.8,1.5l2.7,0
		c1.7-0.2,3.3-0.7,4.7-1.5l25.9-14.5c3.8-2.1,6.1-6.1,6.1-10.3V30.7C87.7,29,87.3,27.4,86.6,25.8z M18.2,21.4L44,6.9
		c1.7-1,3.6-1.4,5.5-1.4c1.9,0,3.8,0.5,5.5,1.4L81,21.4c1.3,0.7,2.4,1.7,3.3,2.8l0.3,0.5l-5.2,3l-1.9,1.1l-0.2-0.4l0-0.1
		c-0.8-1-1.8-1.9-2.9-2.5l-20-11.1c-2.9-1.6-6.6-1.6-9.5,0L24.9,25.9c-1.2,0.7-2.3,1.6-3.1,2.9l0,0.1l-1.9-1.1l-5.2-3l0-0.1
		C15.6,23.3,16.8,22.1,18.2,21.4z M77.2,30.7c0.5,1.1,0.7,2.1,0.7,3.3v22.2c0,2.9-1.6,5.6-4.2,7l-20,11.1c-1,0.5-2.1,0.9-3.2,1
		l-0.4,0v-0.5v-23c0.1-3.3,1-6,5.2-9L77,30.4L77.2,30.7z M21.3,33.9c0-1,0.2-2,0.6-2.9l0.4-0.7l21.6,12.4c4.2,3,5.1,5.8,5.2,9v23
		v0.5l-0.4,0c-1.2-0.1-2.2-0.5-3.2-1L25.5,63.2c-2.6-1.4-4.2-4.1-4.2-7V33.9z M54.7,41.9C54.7,41.9,54.7,41.9,54.7,41.9
		c-3,2.1-4.5,4.1-5.1,6.2c-0.7-2.1-2.2-4.1-5.1-6.2c0,0,0,0,0,0L22.8,29.4l0,0c0.7-1,1.6-1.9,2.7-2.5l19.9-11.1
		c1.3-0.7,2.8-1.1,4.2-1.1c1.4,0,2.9,0.4,4.2,1.1l20,11.1c1,0.5,1.8,1.3,2.5,2.1l0.2,0.3L54.7,41.9z M44,83.2L18.2,68.8
		c-3.4-1.9-5.5-5.5-5.5-9.3V30.6c0-1.3,0.3-2.6,0.7-3.8l0.6-1.1l4.8,2.8l1.1,0.6l1.3,0.7l-0.4,0.8c-0.4,1.1-0.7,2.2-0.7,3.4v22.2
		c0,3.3,1.8,6.4,4.8,8.1l19.9,11.1c1.1,0.6,2.3,1,3.7,1.2l0.5,0v8l-0.7,0C46.7,84.4,45.3,83.9,44,83.2z M86.5,59.5
		c0,3.8-2.1,7.4-5.5,9.3L55.1,83.2c-1.3,0.7-2.7,1.2-4.2,1.3l-0.7,0v-8.1l0.5,0c1.3-0.1,2.6-0.5,3.7-1.2l20-11.1
		c3-1.7,4.8-4.7,4.8-8.1V34c0-1.3-0.3-2.5-0.9-3.8L78,29.8l1.2-0.7l1.1-0.6l4.9-2.8l0.4,0.7c0.6,1.4,1,2.8,1,4.3V59.5z"/>
</g>
</svg>
